<svg xmlns="http://www.w3.org/2000/svg" xmlns:xlink="http://www.w3.org/1999/xlink" width="1440" height="1500"><g transform="translate(-180 180)"><path d="M420-155c0-2.76 2.24-5 5-5h150c2.76 0 5 2.24 5 5v110c0 2.76-2.24 5-5 5H425c-2.76 0-5-2.24-5-5z" stroke="#666" stroke-width="2" fill="#a3d977"/><use xlink:href="#a" transform="matrix(1,0,0,1,420,-160) translate(44.8395061728395 62.97222222222222)"/><path d="M480 25c0-2.76 2.24-5 5-5h30c2.76 0 5 2.24 5 5v1130c0 2.76-2.24 5-5 5h-30c-2.76 0-5-2.24-5-5z" stroke="#666" stroke-width="2" fill="#f2f2f2"/><path d="M920-155c0-2.76 2.24-5 5-5h150c2.76 0 5 2.24 5 5v110c0 2.76-2.24 5-5 5H925c-2.76 0-5-2.24-5-5z" stroke="#666" stroke-width="2" fill="#0c7cba"/><use xlink:href="#b" transform="matrix(1,0,0,1,920,-160) translate(61.75308641975309 62.97222222222222)"/><path d="M1000-40v1260" fill="none"/><path d="M1000-40v10m0 10V0m0 10v20m0 10v20m0 10v20m0 10v20m0 10v20m0 10v20m0 10v20m0 10v20m0 10v20m0 10v20m0 10v20m0 10v20m0 10v20m0 10v20m0 10v20m0 10v20m0 10v20m0 10v20m0 10v20m0 10v20m0 10v20m0 10v20m0 10v20m0 10v20m0 10v20m0 10v20m0 10v20m0 10v20m0 10v20m0 10v20m0 10v20m0 10v20m0 10v20m0 10v20m0 10v20m0 10v20m0 10v20m0 10v20m0 10v20m0 10v20m0 10v10" stroke="#999" stroke-width="2" fill="none"/><path d="M460 1225c0-2.76 2.24-5 5-5h70c2.76 0 5 2.24 5 5v70c0 2.76-2.24 5-5 5h-70c-2.76 0-5-2.24-5-5z" fill="none"/><path d="M468 1228l64 64m0-64l-64 64" stroke="#666" stroke-width="8" fill="none"/><path d="M980 25c0-2.76 2.24-5 5-5h30c2.76 0 5 2.24 5 5v1130c0 2.76-2.24 5-5 5h-30c-2.76 0-5-2.24-5-5z" stroke="#666" stroke-width="2" fill="#f2f2f2"/><path d="M200 60h280" stroke="#999" stroke-width="2" fill="none"/><path d="M480 60l-14.27 4.64v-9.28z" fill="#999"/><path d="M480 58.95v2.1L464.73 66V54zm-13.27 4.3L476.76 60l-10.03-3.26z" fill="#999"/><use xlink:href="#c" transform="matrix(1,0,0,1,276.625,34.400000000000674) translate(0 14.4)"/><use xlink:href="#d" transform="matrix(1,0,0,1,276.625,34.400000000000674) translate(110.80000000000001 14.4)"/><path d="M960 1225c0-2.76 2.24-5 5-5h70c2.76 0 5 2.24 5 5v70c0 2.76-2.24 5-5 5h-70c-2.76 0-5-2.24-5-5z" fill="none"/><path d="M968 1228l64 64m0-64l-64 64" stroke="#666" stroke-width="8" fill="none"/><path d="M1420-155c0-2.76 2.24-5 5-5h150c2.76 0 5 2.24 5 5v110c0 2.76-2.24 5-5 5h-150c-2.76 0-5-2.24-5-5z" stroke="#666" stroke-width="2" fill="#5abaa7"/><use xlink:href="#e" transform="matrix(1,0,0,1,1420,-160) translate(59.28395061728395 62.97222222222222)"/><path d="M1500-40v1260" fill="none"/><path d="M1500-40v10m0 10V0m0 10v20m0 10v20m0 10v20m0 10v20m0 10v20m0 10v20m0 10v20m0 10v20m0 10v20m0 10v20m0 10v20m0 10v20m0 10v20m0 10v20m0 10v20m0 10v20m0 10v20m0 10v20m0 10v20m0 10v20m0 10v20m0 10v20m0 10v20m0 10v20m0 10v20m0 10v20m0 10v20m0 10v20m0 10v20m0 10v20m0 10v20m0 10v20m0 10v20m0 10v20m0 10v20m0 10v20m0 10v20m0 10v20m0 10v20m0 10v20m0 10v10" stroke="#999" stroke-width="2" fill="none"/><path d="M1480 25c0-2.76 2.24-5 5-5h30c2.76 0 5 2.24 5 5v1130c0 2.76-2.24 5-5 5h-30c-2.76 0-5-2.24-5-5z" stroke="#666" stroke-width="2" fill="#f2f2f2"/><path d="M1460 1225c0-2.76 2.24-5 5-5h70c2.76 0 5 2.24 5 5v70c0 2.76-2.24 5-5 5h-70c-2.76 0-5-2.24-5-5z" fill="none"/><path d="M1468 1228l64 64m0-64l-64 64" stroke="#666" stroke-width="8" fill="none"/><path d="M900-40h192l8 8V0H900z" stroke="#d9be60" stroke-width="2" fill="#ffdf71"/><path d="M1092-40l8 8h-8z" fill="#d9be60"/><use xlink:href="#f" transform="matrix(1,0,0,1,900,-40) translate(29.630000000000003 24.4)"/><use xlink:href="#g" transform="matrix(1,0,0,1,900,-40) translate(80.63 24.4)"/><use xlink:href="#h" transform="matrix(1,0,0,1,900,-40) translate(107.53 24.4)"/><path d="M520 80h459" stroke="#999" stroke-width="2" fill="none"/><path d="M979 80l-14.27 4.64v-9.28z" stroke="#999" stroke-width="2" fill="#999"/><use xlink:href="#i" transform="matrix(1,0,0,1,666.225,54.400000000000006) translate(0 14.4)"/><path d="M979 143.04H521" fill="none"/><path d="M979 143.04h-10.18m-10.18 0H938.3m-10.2 0h-20.34m-10.18 0h-20.36m-10.18 0H846.7m-10.2 0h-20.34m-10.18 0h-20.36m-10.18 0H755.1m-10.2 0h-20.34m-10.18 0h-20.36m-10.18 0H663.5m-10.2 0h-20.34m-10.18 0h-20.36m-10.18 0H571.9m-10.2 0h-20.34m-10.18 0H521" stroke="#999" stroke-width="2" fill="none"/><path d="M521 143.04l14.27-4.63v9.28z" stroke="#999" stroke-width="2" fill="#999"/><use xlink:href="#j" transform="matrix(1,0,0,1,709.6,117.44291581969641) translate(0 14.4)"/><use xlink:href="#k" transform="matrix(1,0,0,1,709.6,117.44291581969641) translate(43.900000000000006 14.4)"/><path d="M520 220h960" stroke="#999" stroke-width="2" fill="none"/><path d="M1480 220l-14.27 4.64v-9.28z" fill="#999"/><path d="M1480 218.95v2.1l-15.27 4.96v-12zm-13.27 4.3l10.03-3.25-10.03-3.26z" fill="#999"/><use xlink:href="#l" transform="matrix(1,0,0,1,684.8294885177452,194.4000000000001) translate(0 14.4)"/><use xlink:href="#d" transform="matrix(1,0,0,1,684.8294885177452,194.4000000000001) translate(122.70000000000002 14.4)"/><path d="M220 180h224l16 16v64H220z" stroke="#d9be60" stroke-width="2" fill="#ffdf71"/><path d="M444 180l16 16h-16z" fill="#d9be60"/><use xlink:href="#m" transform="matrix(1,0,0,1,220,180) translate(7.079999999999993 21.9)"/><use xlink:href="#n" transform="matrix(1,0,0,1,220,180) translate(36.07999999999999 21.9)"/><use xlink:href="#o" transform="matrix(1,0,0,1,220,180) translate(84.03 21.9)"/><use xlink:href="#p" transform="matrix(1,0,0,1,220,180) translate(102.98 21.9)"/><use xlink:href="#q" transform="matrix(1,0,0,1,220,180) translate(162.98000000000002 21.9)"/><use xlink:href="#r" transform="matrix(1,0,0,1,220,180) translate(196.93 21.9)"/><use xlink:href="#s" transform="matrix(1,0,0,1,220,180) translate(11.704999999999993 43.5)"/><use xlink:href="#t" transform="matrix(1,0,0,1,220,180) translate(61.654999999999994 43.5)"/><use xlink:href="#u" transform="matrix(1,0,0,1,220,180) translate(79.60499999999999 43.5)"/><use xlink:href="#v" transform="matrix(1,0,0,1,220,180) translate(92.505 43.5)"/><use xlink:href="#w" transform="matrix(1,0,0,1,220,180) translate(106.505 43.5)"/><use xlink:href="#x" transform="matrix(1,0,0,1,220,180) translate(121.505 43.5)"/><use xlink:href="#y" transform="matrix(1,0,0,1,220,180) translate(190.305 43.5)"/><use xlink:href="#z" transform="matrix(1,0,0,1,220,180) translate(46.555 65.10000000000001)"/><use xlink:href="#A" transform="matrix(1,0,0,1,220,180) translate(74.505 65.10000000000001)"/><use xlink:href="#B" transform="matrix(1,0,0,1,220,180) translate(129.45499999999998 65.10000000000001)"/><path d="M521 280h958" stroke="#999" stroke-width="2" fill="none"/><path d="M1479 280l-14.27 4.64v-9.28z" stroke="#999" stroke-width="2" fill="#999"/><use xlink:href="#C" transform="matrix(1,0,0,1,636.3916666666665,254.40000000000003) translate(0 14.4)"/><use xlink:href="#d" transform="matrix(1,0,0,1,636.3916666666665,254.40000000000003) translate(220.59999999999997 14.4)"/><path d="M1480 343.04H521" fill="none"/><path d="M1480 343.04h-10m-9.98 0h-19.98m-10 0h-19.97m-10 0h-19.97m-10 0h-19.96m-10 0h-19.97m-10 0h-19.97m-10 0h-19.97m-10 0h-19.97m-10 0h-19.97m-10 0h-19.98m-10 0h-19.97m-10 0h-19.96m-10 0h-19.98m-10 0h-19.97m-10 0h-19.97m-10 0h-19.97m-9.98 0h-19.98m-10 0h-19.97m-10 0H900.6m-10 0h-19.96m-10 0h-19.97m-10 0H810.7m-10 0h-19.97m-10 0h-19.97m-10 0H720.8m-10 0h-19.98m-10 0h-19.97m-10 0H630.9m-10 0h-19.98m-10 0h-19.97m-10 0H541m-10 0H521" stroke="#999" stroke-width="2" fill="none"/><path d="M521 343.04l14.27-4.63v9.28z" stroke="#999" stroke-width="2" fill="#999"/><use xlink:href="#D" transform="matrix(1,0,0,1,632.2230514961725,317.4429158196964) translate(0 14.4)"/><use xlink:href="#E" transform="matrix(1,0,0,1,632.2230514961725,317.4429158196964) translate(16.9 14.4)"/><use xlink:href="#F" transform="matrix(1,0,0,1,632.2230514961725,317.4429158196964) translate(54.74999999999999 14.4)"/><use xlink:href="#G" transform="matrix(1,0,0,1,632.2230514961725,317.4429158196964) translate(87.6 14.4)"/><path d="M240 387.33c0-2.76 2.24-5 5-5h90c2.76 0 5 2.24 5 5v10c0 2.76-1.58 6.6-3.54 8.54l-2.92 2.93c-1.96 1.95-5.78 3.53-8.54 3.53h-80c-2.76 0-5-2.24-5-5z" fill="#fff"/><path d="M240 387.33c0-2.76 2.24-5 5-5h1350c2.76 0 5 2.24 5 5V835c0 2.76-2.24 5-5 5H245c-2.76 0-5-2.24-5-5z" stroke="#666" stroke-width="2" fill="none"/><path d="M340 382.33v20l-10 10h-90" stroke="#666" stroke-width="2" fill="#fff"/><use xlink:href="#H" transform="matrix(1,0,0,1,247.9999999999999,382.3333333333335) translate(21 18.6)"/><use xlink:href="#I" transform="matrix(1,0,0,1,251.9999999999999,420.3333333333335) translate(37.525 14.4)"/><use xlink:href="#J" transform="matrix(1,0,0,1,251.9999999999999,420.3333333333335) translate(8.024999999999999 36)"/><use xlink:href="#K" transform="matrix(1,0,0,1,251.9999999999999,420.3333333333335) translate(45.25 57.6)"/><use xlink:href="#L" transform="matrix(1,0,0,1,251.9999999999999,420.3333333333335) translate(60.75 57.6)"/><path d="M240 500h152l28 28v112H240z" stroke="#d9be60" stroke-width="2" fill="#ffdf71"/><path d="M392 500l28 28h-28z" fill="#d9be60"/><use xlink:href="#M" transform="matrix(1,0,0,1,240,500) translate(13.054999999999987 40.65)"/><use xlink:href="#N" transform="matrix(1,0,0,1,240,500) translate(42.054999999999986 40.65)"/><use xlink:href="#O" transform="matrix(1,0,0,1,240,500) translate(97.005 40.65)"/><use xlink:href="#P" transform="matrix(1,0,0,1,240,500) translate(41.605 62.25)"/><use xlink:href="#Q" transform="matrix(1,0,0,1,240,500) translate(60.555 62.25)"/><use xlink:href="#R" transform="matrix(1,0,0,1,240,500) translate(123.405 62.25)"/><use xlink:href="#S" transform="matrix(1,0,0,1,240,500) translate(7.579999999999993 83.85000000000001)"/><use xlink:href="#T" transform="matrix(1,0,0,1,240,500) translate(100.53 83.85000000000001)"/><use xlink:href="#U" transform="matrix(1,0,0,1,240,500) translate(131.48 83.85000000000001)"/><use xlink:href="#V" transform="matrix(1,0,0,1,240,500) translate(35.055 105.45000000000002)"/><use xlink:href="#W" transform="matrix(1,0,0,1,240,500) translate(50.055 105.45000000000002)"/><use xlink:href="#X" transform="matrix(1,0,0,1,240,500) translate(75.055 105.45000000000002)"/><path d="M980 563.04H521" fill="none"/><path d="M980 563.04h-10.2m-10.2 0h-20.4m-10.2 0h-20.4m-10.2 0H878m-10.2 0h-20.4m-10.2 0h-20.4m-10.2 0h-20.4m-10.2 0h-20.4m-10.2 0H725m-10.2 0h-20.4m-10.2 0h-20.4m-10.2 0h-20.4m-10.2 0h-20.4m-10.2 0H572m-10.2 0h-20.4m-10.2 0H521" stroke="#999" stroke-width="2" fill="none"/><path d="M521 563.04l14.27-4.63v9.28z" stroke="#999" stroke-width="2" fill="#999"/><use xlink:href="#Y" transform="matrix(1,0,0,1,678.675,537.4429158196965) translate(0 14.4)"/><use xlink:href="#Z" transform="matrix(1,0,0,1,678.675,537.4429158196965) translate(73.8 14.4)"/><path d="M521 500h458" stroke="#999" stroke-width="2" fill="none"/><path d="M979 500l-14.27 4.64v-9.28z" stroke="#999" stroke-width="2" fill="#999"/><use xlink:href="#aa" transform="matrix(1,0,0,1,632.725,474.4) translate(0 14.4)"/><use xlink:href="#ab" transform="matrix(1,0,0,1,632.725,474.4) translate(181.7 14.4)"/><path d="M520 408.67h35c2.76 0 5 2.24 5 5V449c0 2.76-2.24 5-5 5h-35" stroke="#999" stroke-width="2" fill="none"/><path d="M534.27 458.64L520 454l14.27-4.64z" fill="#999"/><path d="M535.27 460L520 455.06v-2.1l15.27-4.96zm-12.03-6l10.03 3.26v-6.52z" fill="#999"/><use xlink:href="#Y" transform="matrix(1,0,0,1,568,420.5333333333333) translate(0 14.4)"/><use xlink:href="#ac" transform="matrix(1,0,0,1,568,420.5333333333333) translate(73.8 14.4)"/><use xlink:href="#ad" transform="matrix(1,0,0,1,568,420.5333333333333) translate(166.75 14.4)"/><use xlink:href="#ae" transform="matrix(1,0,0,1,568,420.5333333333333) translate(182.25 14.4)"/><path d="M280 665c0-2.76 2.24-5 5-5h90c2.76 0 5 2.24 5 5v10c0 2.76-1.58 6.58-3.54 8.54l-2.92 2.92c-1.96 1.96-5.78 3.54-8.54 3.54h-80c-2.76 0-5-2.24-5-5z" fill="#fff"/><path d="M280 665c0-2.76 2.24-5 5-5h1270c2.76 0 5 2.24 5 5v150c0 2.76-2.24 5-5 5H285c-2.76 0-5-2.24-5-5z" stroke="#666" stroke-width="2" fill="none"/><path d="M380 660v20l-10 10h-90" stroke="#666" stroke-width="2" fill="#fff"/><g><use xlink:href="#af" transform="matrix(1,0,0,1,287.9999999999999,660) translate(-1.4249999999999972 18.6)"/></g><g><use xlink:href="#ag" transform="matrix(1,0,0,1,291.9999999999999,698) translate(9.549999999999997 18.6)"/></g><path d="M300 740h148l12 12v48H300z" stroke="#d9be60" stroke-width="2" fill="#ffdf71"/><path d="M448 740l12 12h-12z" fill="#d9be60"/><g><use xlink:href="#ah" transform="matrix(1,0,0,1,300,740) translate(24.555 19.41)"/><use xlink:href="#ai" transform="matrix(1,0,0,1,300,740) translate(46.555 19.41)"/><use xlink:href="#aj" transform="matrix(1,0,0,1,300,740) translate(83.45500000000001 19.41)"/><use xlink:href="#ak" transform="matrix(1,0,0,1,300,740) translate(19.97999999999999 41.01)"/><use xlink:href="#al" transform="matrix(1,0,0,1,300,740) translate(66.13 41.01)"/><use xlink:href="#am" transform="matrix(1,0,0,1,300,740) translate(102.08000000000001 41.01)"/></g><path d="M520 711.4h35c2.76 0 5 2.24 5 5v46.33c0 2.76-2.24 5-5 5h-35" stroke="#999" stroke-width="2" fill="none"/><path d="M534.27 772.36L520 767.73l14.27-4.64z" fill="#999"/><path d="M535.27 773.74L520 768.78v-2.1l15.27-4.96zm-12.03-6l10.03 3.25v-6.53z" fill="#999"/><g><use xlink:href="#an" transform="matrix(1,0,0,1,567.9999999999999,728.7645872806786) translate(0 14.4)"/><use xlink:href="#ao" transform="matrix(1,0,0,1,567.9999999999999,728.7645872806786) translate(92.95 14.4)"/><use xlink:href="#ap" transform="matrix(1,0,0,1,567.9999999999999,728.7645872806786) translate(108.45 14.4)"/></g><path d="M500 1161v59" fill="none"/><path d="M500 1161v9.83m0 9.84v19.66m0 9.84v9.83" stroke="#999" stroke-width="2" fill="none"/><path d="M501 1161h-2v-1h2z" fill="#999"/><path d="M480 1103.04H220" fill="none"/><path d="M480 1103.04h-9.63m-9.63 0h-19.26m-9.63 0H412.6m-9.64 0H383.7m-9.63 0H354.8m-9.6 0h-19.27m-9.63 0h-19.26m-9.63 0h-19.25m-9.63 0h-19.26m-9.63 0H220" stroke="#999" stroke-width="2" fill="none"/><path d="M220 1103.04l14.27-4.63v9.28z" stroke="#999" stroke-width="2" fill="#999"/><g><use xlink:href="#aq" transform="matrix(1,0,0,1,306.02499999999986,1077.4429158196965) translate(0 14.4)"/></g><path d="M200 1122.33h232.47l27.53 27.54V1260H200z" stroke="#d9be60" stroke-width="2" fill="#ffdf71"/><path d="M432.47 1122.33l27.53 27.54h-27.53z" fill="#d9be60"/><g><use xlink:href="#ar" transform="matrix(1,0,0,1,200,1122.333333333333) translate(42.105 48.9)"/><use xlink:href="#as" transform="matrix(1,0,0,1,200,1122.333333333333) translate(105.005 48.9)"/><use xlink:href="#at" transform="matrix(1,0,0,1,200,1122.333333333333) translate(130.005 48.9)"/><use xlink:href="#au" transform="matrix(1,0,0,1,200,1122.333333333333) translate(182.905 48.9)"/><use xlink:href="#av" transform="matrix(1,0,0,1,200,1122.333333333333) translate(202.905 48.9)"/><use xlink:href="#aw" transform="matrix(1,0,0,1,200,1122.333333333333) translate(9.755000000000004 70.5)"/><use xlink:href="#T" transform="matrix(1,0,0,1,200,1122.333333333333) translate(148.35500000000002 70.5)"/><use xlink:href="#ax" transform="matrix(1,0,0,1,200,1122.333333333333) translate(179.305 70.5)"/><use xlink:href="#ay" transform="matrix(1,0,0,1,200,1122.333333333333) translate(235.255 70.5)"/><use xlink:href="#az" transform="matrix(1,0,0,1,200,1122.333333333333) translate(48.13 92.10000000000001)"/><use xlink:href="#aA" transform="matrix(1,0,0,1,200,1122.333333333333) translate(63.13 92.10000000000001)"/><use xlink:href="#aB" transform="matrix(1,0,0,1,200,1122.333333333333) translate(107.13 92.10000000000001)"/><use xlink:href="#aC" transform="matrix(1,0,0,1,200,1122.333333333333) translate(138.07999999999998 92.10000000000001)"/></g><path d="M240 885c0-2.76 2.24-5 5-5h90c2.76 0 5 2.24 5 5v10c0 2.76-1.58 6.58-3.54 8.54l-2.92 2.92c-1.96 1.96-5.78 3.54-8.54 3.54h-80c-2.76 0-5-2.24-5-5z" fill="#fff"/><path d="M240 885c0-2.76 2.24-5 5-5h1350c2.76 0 5 2.24 5 5v170c0 2.76-2.24 5-5 5H245c-2.76 0-5-2.24-5-5z" stroke="#666" stroke-width="2" fill="none"/><path d="M340 880v20l-10 10h-90" stroke="#666" stroke-width="2" fill="#fff"/><g><use xlink:href="#af" transform="matrix(1,0,0,1,247.9999999999999,880) translate(-1.4249999999999972 18.6)"/></g><g><use xlink:href="#aD" transform="matrix(1,0,0,1,251.9999999999999,918) translate(4.075000000000003 18.6)"/></g><path d="M521 899h35c2.76 0 5 2.24 5 5v41c0 2.76-2.24 5-5 5h-35" stroke="#999" stroke-width="2" fill="none"/><path d="M521 900h-1v-2h1zM535.27 954.64L521 950l14.27-4.64z" fill="#999"/><path d="M536.27 956L520 950.74v-1.46l16.27-5.28zm-12.03-6l10.03 3.26v-6.52z" fill="#999"/><g><use xlink:href="#aE" transform="matrix(1,0,0,1,569,913.7) translate(0 14.4)"/></g><path d="M521 975.33h35c2.76 0 5 2.24 5 5v42c0 2.76-2.24 5-5 5h-35" stroke="#999" stroke-width="2" fill="none"/><path d="M521 976.33h-1v-2h1zM535.27 1031.97l-14.27-4.64 14.27-4.63z" fill="#999"/><path d="M536.27 1033.35l-16.27-5.3v-1.44l16.27-5.28zm-12.03-6.02l10.03 3.26v-6.53z" fill="#999"/><g><use xlink:href="#aF" transform="matrix(1,0,0,1,569,990.5333333333334) translate(0 14.4)"/><use xlink:href="#ao" transform="matrix(1,0,0,1,569,990.5333333333334) translate(130.75 14.4)"/><use xlink:href="#aG" transform="matrix(1,0,0,1,569,990.5333333333334) translate(146.25 14.4)"/></g><path d="M760 900h152l28 28v112H760z" stroke="#d9be60" stroke-width="2" fill="#ffdf71"/><path d="M912 900l28 28h-28z" fill="#d9be60"/><g><use xlink:href="#M" transform="matrix(1,0,0,1,760,900) translate(26.029999999999994 31.9)"/><use xlink:href="#aH" transform="matrix(1,0,0,1,760,900) translate(55.029999999999994 31.9)"/><use xlink:href="#av" transform="matrix(1,0,0,1,760,900) translate(110.98 31.9)"/><use xlink:href="#aw" transform="matrix(1,0,0,1,760,900) translate(9.75499999999999 53.5)"/><use xlink:href="#aI" transform="matrix(1,0,0,1,760,900) translate(148.35500000000002 53.5)"/><use xlink:href="#aJ" transform="matrix(1,0,0,1,760,900) translate(7.104999999999999 75.10000000000001)"/><use xlink:href="#aK" transform="matrix(1,0,0,1,760,900) translate(69.95500000000001 75.10000000000001)"/><use xlink:href="#aL" transform="matrix(1,0,0,1,760,900) translate(94.95500000000001 75.10000000000001)"/><use xlink:href="#aM" transform="matrix(1,0,0,1,760,900) translate(36.55499999999999 96.70000000000002)"/><use xlink:href="#aN" transform="matrix(1,0,0,1,760,900) translate(51.55499999999999 96.70000000000002)"/><use xlink:href="#aO" transform="matrix(1,0,0,1,760,900) translate(71.55499999999999 96.70000000000002)"/><use xlink:href="#aP" transform="matrix(1,0,0,1,760,900) translate(112.505 96.70000000000002)"/><use xlink:href="#aQ" transform="matrix(1,0,0,1,760,900) translate(19.12999999999999 118.30000000000001)"/><use xlink:href="#aR" transform="matrix(1,0,0,1,760,900) translate(91.98 118.30000000000001)"/></g><defs><path fill="#333" d="M24-248c93 1 206-16 204 79-1 75-69 88-152 82V0H24v-248zm52 121c47 0 100 7 100-41 0-47-54-39-100-39v80" id="aS"/><path fill="#333" d="M24 0v-248h52v208h133V0H24" id="aT"/><path fill="#333" d="M199 0l-22-63H83L61 0H9l90-248h61L250 0h-51zm-33-102l-36-108c-10 38-24 72-36 108h72" id="aU"/><path fill="#333" d="M146-102V0H94v-102L6-248h54l60 105 60-105h54" id="aV"/><path fill="#333" d="M24 0v-248h195v40H76v63h132v40H76v65h150V0H24" id="aW"/><path fill="#333" d="M240-174c0 40-23 61-54 70L253 0h-59l-57-94H76V0H24v-248c93 4 217-23 216 74zM76-134c48-2 112 12 112-38 0-48-66-32-112-35v73" id="aX"/><g id="a"><use transform="matrix(0.04938271604938272,0,0,0.04938271604938272,0,0)" xlink:href="#aS"/><use transform="matrix(0.04938271604938272,0,0,0.04938271604938272,11.851851851851853,0)" xlink:href="#aT"/><use transform="matrix(0.04938271604938272,0,0,0.04938271604938272,22.666666666666668,0)" xlink:href="#aU"/><use transform="matrix(0.04938271604938272,0,0,0.04938271604938272,33.827160493827165,0)" xlink:href="#aV"/><use transform="matrix(0.04938271604938272,0,0,0.04938271604938272,45.67901234567902,0)" xlink:href="#aW"/><use transform="matrix(0.04938271604938272,0,0,0.04938271604938272,57.53086419753087,0)" xlink:href="#aX"/></g><path fill="#333" d="M169-182c-1-43-94-46-97-3 18 66 151 10 154 114 3 95-165 93-204 36-6-8-10-19-12-30l50-8c3 46 112 56 116 5-17-69-150-10-154-114-4-87 153-88 188-35 5 8 8 18 10 28" id="aY"/><g id="b"><use transform="matrix(0.04938271604938272,0,0,0.04938271604938272,0,0)" xlink:href="#aY"/><use transform="matrix(0.04938271604938272,0,0,0.04938271604938272,11.851851851851853,0)" xlink:href="#aW"/><use transform="matrix(0.04938271604938272,0,0,0.04938271604938272,23.703703703703706,0)" xlink:href="#aU"/></g><path fill="#333" d="M135-194c53 0 70 44 70 98 0 56-19 98-73 100-31 1-45-17-59-34 3 33 2 69 2 105H25l-1-265h48c2 10 0 23 3 31 11-24 29-35 60-35zM114-30c33 0 39-31 40-66 0-38-9-64-40-64-56 0-55 130 0 130" id="aZ"/><path fill="#333" d="M25 0v-261h50V0H25" id="ba"/><path fill="#333" d="M133-34C117-15 103 5 69 4 32 3 11-16 11-54c-1-60 55-63 116-61 1-26-3-47-28-47-18 1-26 9-28 27l-52-2c7-38 36-58 82-57s74 22 75 68l1 82c-1 14 12 18 25 15v27c-30 8-71 5-69-32zm-48 3c29 0 43-24 42-57-32 0-66-3-65 30 0 17 8 27 23 27" id="bb"/><path fill="#333" d="M190-63c-7 42-38 67-86 67-59 0-84-38-90-98-12-110 154-137 174-36l-49 2c-2-19-15-32-35-32-30 0-35 28-38 64-6 74 65 87 74 30" id="bc"/><path fill="#333" d="M185-48c-13 30-37 53-82 52C43 2 14-33 14-96s30-98 90-98c62 0 83 45 84 108H66c0 31 8 55 39 56 18 0 30-7 34-22zm-45-69c5-46-57-63-70-21-2 6-4 13-4 21h74" id="bd"/><path fill="#333" d="M114-157C55-157 80-60 75 0H25v-261h50l-1 109c12-26 28-41 61-42 86-1 58 113 63 194h-50c-7-57 23-157-34-157" id="be"/><path fill="#333" d="M25-224v-37h50v37H25zM25 0v-190h50V0H25" id="bf"/><path fill="#333" d="M67-93c0 74 22 123 53 168H70C40 30 18-18 18-93s22-123 52-168h50c-32 44-53 94-53 168" id="bg"/><path fill="#333" d="M144 0l-44-69L55 0H2l70-98-66-92h53l41 62 40-62h54l-67 91 71 99h-54" id="bh"/><path fill="#333" d="M76-54c-1 42 2 86-19 110H24C36 42 46 24 48 0H25v-54h51" id="bi"/><g id="c"><use transform="matrix(0.05,0,0,0.05,0,0)" xlink:href="#aZ"/><use transform="matrix(0.05,0,0,0.05,10.950000000000001,0)" xlink:href="#ba"/><use transform="matrix(0.05,0,0,0.05,15.950000000000001,0)" xlink:href="#bb"/><use transform="matrix(0.05,0,0,0.05,25.950000000000003,0)" xlink:href="#bc"/><use transform="matrix(0.05,0,0,0.05,35.95,0)" xlink:href="#bd"/><use transform="matrix(0.05,0,0,0.05,45.95,0)" xlink:href="#aY"/><use transform="matrix(0.05,0,0,0.05,57.95,0)" xlink:href="#be"/><use transform="matrix(0.05,0,0,0.05,68.9,0)" xlink:href="#bf"/><use transform="matrix(0.05,0,0,0.05,73.9,0)" xlink:href="#aZ"/><use transform="matrix(0.05,0,0,0.05,84.85000000000001,0)" xlink:href="#bg"/><use transform="matrix(0.05,0,0,0.05,90.80000000000001,0)" xlink:href="#bh"/><use transform="matrix(0.05,0,0,0.05,100.80000000000001,0)" xlink:href="#bi"/></g><path fill="#333" d="M123 10C108 53 80 86 19 72V37c35 8 53-11 59-39L3-190h52l48 148c12-52 28-100 44-148h51" id="bj"/><path fill="#333" d="M102-93c0 74-22 123-52 168H0C30 29 54-18 53-93c0-74-22-123-53-168h50c30 45 52 94 52 168" id="bk"/><g id="d"><use transform="matrix(0.05,0,0,0.05,0,0)" xlink:href="#bj"/><use transform="matrix(0.05,0,0,0.05,10,0)" xlink:href="#bk"/></g><path fill="#333" d="M186 0v-106H76V0H24v-248h52v99h110v-99h50V0h-50" id="bl"/><path fill="#333" d="M24 0v-248h52V0H24" id="bm"/><g id="e"><use transform="matrix(0.04938271604938272,0,0,0.04938271604938272,0,0)" xlink:href="#aY"/><use transform="matrix(0.04938271604938272,0,0,0.04938271604938272,11.851851851851853,0)" xlink:href="#bl"/><use transform="matrix(0.04938271604938272,0,0,0.04938271604938272,24.641975308641978,0)" xlink:href="#bm"/><use transform="matrix(0.04938271604938272,0,0,0.04938271604938272,29.58024691358025,0)" xlink:href="#aS"/></g><path d="M67-125c0 54 23 88 75 88 28 0 53-7 68-21v-34h-60v-39h108v91C232-14 192 4 140 4 58 4 20-42 15-125 8-236 126-280 215-234c19 10 29 26 37 47l-47 15c-11-23-29-39-63-39-53 1-75 33-75 86" id="bn"/><path d="M135-150c-39-12-60 13-60 57V0H25l-1-190h47c2 13-1 29 3 40 6-28 27-53 61-41v41" id="bo"/><path d="M25-224v-37h50v37H25zM25 0v-190h50V0H25" id="bp"/><path d="M25 0v-261h50V0H25" id="bq"/><path d="M185-48c-13 30-37 53-82 52C43 2 14-33 14-96s30-98 90-98c62 0 83 45 84 108H66c0 31 8 55 39 56 18 0 30-7 34-22zm-45-69c5-46-57-63-70-21-2 6-4 13-4 21h74" id="br"/><g id="f"><use transform="matrix(0.05,0,0,0.05,0,0)" xlink:href="#bn"/><use transform="matrix(0.05,0,0,0.05,14,0)" xlink:href="#bo"/><use transform="matrix(0.05,0,0,0.05,21,0)" xlink:href="#bp"/><use transform="matrix(0.05,0,0,0.05,26,0)" xlink:href="#bq"/><use transform="matrix(0.05,0,0,0.05,31,0)" xlink:href="#bq"/><use transform="matrix(0.05,0,0,0.05,36,0)" xlink:href="#br"/></g><path d="M88-194c31-1 46 15 58 34l-1-101h50l1 261h-48c-2-10 0-23-3-31C134-8 116 4 84 4 32 4 16-41 15-95c0-56 19-97 73-99zm17 164c33 0 40-30 41-66 1-37-9-64-41-64s-38 30-39 65c0 43 13 65 39 65" id="bs"/><path d="M85 4C-2 5 27-109 22-190h50c7 57-23 150 33 157 60-5 35-97 40-157h50l1 190h-47c-2-12 1-28-3-38-12 25-28 42-61 42" id="bt"/><g id="g"><use transform="matrix(0.05,0,0,0.05,0,0)" xlink:href="#bs"/><use transform="matrix(0.05,0,0,0.05,10.950000000000001,0)" xlink:href="#bt"/></g><path d="M25-224v-37h50v37H25zM75 22c2 45-34 59-81 51V38c22 5 31-5 31-27v-201h50V22" id="bu"/><path d="M110-194c64 0 96 36 96 99 0 64-35 99-97 99-61 0-95-36-95-99 0-62 34-99 96-99zm-1 164c35 0 45-28 45-65 0-40-10-65-43-65-34 0-45 26-45 65 0 36 10 65 43 65" id="bv"/><g id="h"><use transform="matrix(0.05,0,0,0.05,0,0)" xlink:href="#bu"/><use transform="matrix(0.05,0,0,0.05,5,0)" xlink:href="#bv"/><use transform="matrix(0.05,0,0,0.05,15.950000000000001,0)" xlink:href="#bt"/><use transform="matrix(0.05,0,0,0.05,26.900000000000002,0)" xlink:href="#br"/><use transform="matrix(0.05,0,0,0.05,36.900000000000006,0)" xlink:href="#bt"/><use transform="matrix(0.05,0,0,0.05,47.85000000000001,0)" xlink:href="#bo"/></g><path fill="#333" d="M195-6C206 82 75 100 31 46c-4-6-6-13-8-21l49-6c3 16 16 24 34 25 40 0 42-37 40-79-11 22-30 35-61 35-53 0-70-43-70-97 0-56 18-96 73-97 30 0 46 14 59 34l2-30h47zm-90-29c32 0 41-27 41-63 0-35-9-62-40-62-32 0-39 29-40 63 0 36 9 62 39 62" id="bw"/><path fill="#333" d="M115-3C79 11 28 4 28-45v-112H4v-33h27l15-45h31v45h36v33H77v99c-1 23 16 31 38 25v30" id="bx"/><path fill="#333" d="M140-251c80 0 125 45 125 126S219 4 139 4C58 4 15-44 15-125s44-126 125-126zm-1 214c52 0 73-35 73-88 0-50-21-86-72-86-52 0-73 35-73 86s22 88 72 88" id="by"/><path fill="#333" d="M135-194c87-1 58 113 63 194h-50c-7-57 23-157-34-157-59 0-34 97-39 157H25l-1-190h47c2 12-1 28 3 38 12-26 28-41 61-42" id="bz"/><g id="i"><use transform="matrix(0.05,0,0,0.05,0,0)" xlink:href="#bw"/><use transform="matrix(0.05,0,0,0.05,10.950000000000001,0)" xlink:href="#bd"/><use transform="matrix(0.05,0,0,0.05,20.950000000000003,0)" xlink:href="#bx"/><use transform="matrix(0.05,0,0,0.05,26.900000000000002,0)" xlink:href="#aY"/><use transform="matrix(0.05,0,0,0.05,38.900000000000006,0)" xlink:href="#be"/><use transform="matrix(0.05,0,0,0.05,49.85000000000001,0)" xlink:href="#bf"/><use transform="matrix(0.05,0,0,0.05,54.85,0)" xlink:href="#aZ"/><use transform="matrix(0.05,0,0,0.05,65.80000000000001,0)" xlink:href="#by"/><use transform="matrix(0.05,0,0,0.05,79.80000000000001,0)" xlink:href="#bz"/><use transform="matrix(0.05,0,0,0.05,90.75000000000001,0)" xlink:href="#aS"/><use transform="matrix(0.05,0,0,0.05,102.75,0)" xlink:href="#ba"/><use transform="matrix(0.05,0,0,0.05,107.75,0)" xlink:href="#bb"/><use transform="matrix(0.05,0,0,0.05,117.75,0)" xlink:href="#bc"/><use transform="matrix(0.05,0,0,0.05,127.75,0)" xlink:href="#bf"/><use transform="matrix(0.05,0,0,0.05,132.75,0)" xlink:href="#bz"/><use transform="matrix(0.05,0,0,0.05,143.7,0)" xlink:href="#bw"/><use transform="matrix(0.05,0,0,0.05,154.64999999999998,0)" xlink:href="#bg"/><use transform="matrix(0.05,0,0,0.05,160.59999999999997,0)" xlink:href="#bk"/></g><g id="j"><use transform="matrix(0.05,0,0,0.05,0,0)" xlink:href="#aY"/><use transform="matrix(0.05,0,0,0.05,12,0)" xlink:href="#be"/><use transform="matrix(0.05,0,0,0.05,22.950000000000003,0)" xlink:href="#bf"/><use transform="matrix(0.05,0,0,0.05,27.950000000000003,0)" xlink:href="#aZ"/></g><path fill="#333" d="M137-138c1-29-70-34-71-4 15 46 118 7 119 86 1 83-164 76-172 9l43-7c4 19 20 25 44 25 33 8 57-30 24-41C81-84 22-81 20-136c-2-80 154-74 161-7" id="bA"/><g id="k"><use transform="matrix(0.05,0,0,0.05,0,0)" xlink:href="#bA"/><use transform="matrix(0.05,0,0,0.05,10,0)" xlink:href="#be"/><use transform="matrix(0.05,0,0,0.05,20.950000000000003,0)" xlink:href="#bf"/><use transform="matrix(0.05,0,0,0.05,25.950000000000003,0)" xlink:href="#aZ"/></g><path fill="#333" d="M110-194c64 0 96 36 96 99 0 64-35 99-97 99-61 0-95-36-95-99 0-62 34-99 96-99zm-1 164c35 0 45-28 45-65 0-40-10-65-43-65-34 0-45 26-45 65 0 36 10 65 43 65" id="bB"/><g id="l"><use transform="matrix(0.05,0,0,0.05,0,0)" xlink:href="#bA"/><use transform="matrix(0.05,0,0,0.05,10,0)" xlink:href="#bd"/><use transform="matrix(0.05,0,0,0.05,20,0)" xlink:href="#bx"/><use transform="matrix(0.05,0,0,0.05,25.950000000000003,0)" xlink:href="#aS"/><use transform="matrix(0.05,0,0,0.05,37.95,0)" xlink:href="#bB"/><use transform="matrix(0.05,0,0,0.05,48.900000000000006,0)" xlink:href="#bA"/><use transform="matrix(0.05,0,0,0.05,58.900000000000006,0)" xlink:href="#bf"/><use transform="matrix(0.05,0,0,0.05,63.900000000000006,0)" xlink:href="#bx"/><use transform="matrix(0.05,0,0,0.05,69.85000000000001,0)" xlink:href="#bf"/><use transform="matrix(0.05,0,0,0.05,74.85000000000001,0)" xlink:href="#bB"/><use transform="matrix(0.05,0,0,0.05,85.80000000000001,0)" xlink:href="#bz"/><use transform="matrix(0.05,0,0,0.05,96.75000000000001,0)" xlink:href="#bg"/><use transform="matrix(0.05,0,0,0.05,102.7,0)" xlink:href="#bh"/><use transform="matrix(0.05,0,0,0.05,112.7,0)" xlink:href="#bi"/></g><path d="M140-251c81 0 123 46 123 126C263-46 219 4 140 4 59 4 17-45 17-125s42-126 123-126zm0 227c63 0 89-41 89-101s-29-99-89-99c-61 0-89 39-89 99S79-25 140-24" id="bC"/><path d="M117-194c89-4 53 116 60 194h-32v-121c0-31-8-49-39-48C34-167 62-67 57 0H25l-1-190h30c1 10-1 24 2 32 11-22 29-35 61-36" id="bD"/><g id="m"><use transform="matrix(0.05,0,0,0.05,0,0)" xlink:href="#bC"/><use transform="matrix(0.05,0,0,0.05,14,0)" xlink:href="#bD"/></g><path d="M115-194c55 1 70 41 70 98S169 2 115 4C84 4 66-9 55-30l1 105H24l-1-265h31l2 30c10-21 28-34 59-34zm-8 174c40 0 45-34 45-75s-6-73-45-74c-42 0-51 32-51 76 0 43 10 73 51 73" id="bE"/><path d="M24 0v-261h32V0H24" id="bF"/><path d="M141-36C126-15 110 5 73 4 37 3 15-17 15-53c-1-64 63-63 125-63 3-35-9-54-41-54-24 1-41 7-42 31l-33-3c5-37 33-52 76-52 45 0 72 20 72 64v82c-1 20 7 32 28 27v20c-31 9-61-2-59-35zM48-53c0 20 12 33 32 33 41-3 63-29 60-74-43 2-92-5-92 41" id="bG"/><path d="M96-169c-40 0-48 33-48 73s9 75 48 75c24 0 41-14 43-38l32 2c-6 37-31 61-74 61-59 0-76-41-82-99-10-93 101-131 147-64 4 7 5 14 7 22l-32 3c-4-21-16-35-41-35" id="bH"/><path d="M100-194c63 0 86 42 84 106H49c0 40 14 67 53 68 26 1 43-12 49-29l28 8c-11 28-37 45-77 45C44 4 14-33 15-96c1-61 26-98 85-98zm52 81c6-60-76-77-97-28-3 7-6 17-6 28h103" id="bI"/><g id="n"><use transform="matrix(0.05,0,0,0.05,0,0)" xlink:href="#bE"/><use transform="matrix(0.05,0,0,0.05,10,0)" xlink:href="#bF"/><use transform="matrix(0.05,0,0,0.05,13.949999999999998,0)" xlink:href="#bG"/><use transform="matrix(0.05,0,0,0.05,23.95,0)" xlink:href="#bH"/><use transform="matrix(0.05,0,0,0.05,32.95,0)" xlink:href="#bI"/></g><g id="o"><use transform="matrix(0.05,0,0,0.05,0,0)" xlink:href="#bF"/><use transform="matrix(0.05,0,0,0.05,3.95,0)" xlink:href="#bI"/></g><path d="M115-194c53 0 69 39 70 98 0 66-23 100-70 100C84 3 66-7 56-30L54 0H23l1-261h32v101c10-23 28-34 59-34zm-8 174c40 0 45-34 45-75 0-40-5-75-45-74-42 0-51 32-51 76 0 43 10 73 51 73" id="bJ"/><path d="M59-47c-2 24 18 29 38 22v24C64 9 27 4 27-40v-127H5v-23h24l9-43h21v43h35v23H59v120" id="bK"/><path d="M84 4C-5 8 30-112 23-190h32v120c0 31 7 50 39 49 72-2 45-101 50-169h31l1 190h-30c-1-10 1-25-2-33-11 22-28 36-60 37" id="bL"/><g id="p"><use transform="matrix(0.05,0,0,0.05,0,0)" xlink:href="#bJ"/><use transform="matrix(0.05,0,0,0.05,10,0)" xlink:href="#bG"/><use transform="matrix(0.05,0,0,0.05,20,0)" xlink:href="#bK"/><use transform="matrix(0.05,0,0,0.05,25,0)" xlink:href="#bI"/><use transform="matrix(0.05,0,0,0.05,35,0)" xlink:href="#bG"/><use transform="matrix(0.05,0,0,0.05,45,0)" xlink:href="#bL"/></g><path d="M101-234c-31-9-42 10-38 44h38v23H63V0H32v-167H5v-23h27c-7-52 17-82 69-68v24" id="bM"/><path d="M24-231v-30h32v30H24zM24 0v-190h32V0H24" id="bN"/><g id="q"><use transform="matrix(0.05,0,0,0.05,0,0)" xlink:href="#bG"/><use transform="matrix(0.05,0,0,0.05,10,0)" xlink:href="#bM"/><use transform="matrix(0.05,0,0,0.05,15,0)" xlink:href="#bN"/><use transform="matrix(0.05,0,0,0.05,18.95,0)" xlink:href="#bD"/></g><path d="M85-194c31 0 48 13 60 33l-1-100h32l1 261h-30c-2-10 0-23-3-31C134-8 116 4 85 4 32 4 16-35 15-94c0-66 23-100 70-100zm9 24c-40 0-46 34-46 75 0 40 6 74 45 74 42 0 51-32 51-76 0-42-9-74-50-73" id="bO"/><g id="r"><use transform="matrix(0.05,0,0,0.05,0,0)" xlink:href="#bO"/><use transform="matrix(0.05,0,0,0.05,10,0)" xlink:href="#bI"/></g><path d="M135-143c-3-34-86-38-87 0 15 53 115 12 119 90S17 21 10-45l28-5c4 36 97 45 98 0-10-56-113-15-118-90-4-57 82-63 122-42 12 7 21 19 24 35" id="bP"/><path d="M114-163C36-179 61-72 57 0H25l-1-190h30c1 12-1 29 2 39 6-27 23-49 58-41v29" id="bQ"/><g id="s"><use transform="matrix(0.05,0,0,0.05,0,0)" xlink:href="#bK"/><use transform="matrix(0.05,0,0,0.05,5,0)" xlink:href="#bI"/><use transform="matrix(0.05,0,0,0.05,15,0)" xlink:href="#bP"/><use transform="matrix(0.05,0,0,0.05,24,0)" xlink:href="#bK"/><use transform="matrix(0.05,0,0,0.05,29,0)" xlink:href="#bI"/><use transform="matrix(0.05,0,0,0.05,39,0)" xlink:href="#bQ"/></g><g id="t"><use transform="matrix(0.05,0,0,0.05,0,0)" xlink:href="#bP"/><use transform="matrix(0.05,0,0,0.05,9,0)" xlink:href="#bN"/></g><g id="u"><use transform="matrix(0.05,0,0,0.05,0,0)" xlink:href="#bN"/><use transform="matrix(0.05,0,0,0.05,3.95,0)" xlink:href="#bF"/></g><path d="M179-190L93 31C79 59 56 82 12 73V49c39 6 53-20 64-50L1-190h34L92-34l54-156h33" id="bR"/><use transform="matrix(0.05,0,0,0.05,0,0)" xlink:href="#bR" id="v"/><use transform="matrix(0.05,0,0,0.05,0,0)" xlink:href="#bG" id="w"/><path d="M100-194c62-1 85 37 85 99 1 63-27 99-86 99S16-35 15-95c0-66 28-99 85-99zM99-20c44 1 53-31 53-75 0-43-8-75-51-75s-53 32-53 75 10 74 51 75" id="bS"/><g id="x"><use transform="matrix(0.05,0,0,0.05,0,0)" xlink:href="#bH"/><use transform="matrix(0.05,0,0,0.05,9,0)" xlink:href="#bS"/><use transform="matrix(0.05,0,0,0.05,19,0)" xlink:href="#bF"/><use transform="matrix(0.05,0,0,0.05,22.95,0)" xlink:href="#bF"/><use transform="matrix(0.05,0,0,0.05,26.899999999999995,0)" xlink:href="#bN"/><use transform="matrix(0.05,0,0,0.05,30.849999999999994,0)" xlink:href="#bP"/><use transform="matrix(0.05,0,0,0.05,39.849999999999994,0)" xlink:href="#bN"/><use transform="matrix(0.05,0,0,0.05,43.8,0)" xlink:href="#bS"/><use transform="matrix(0.05,0,0,0.05,53.79999999999999,0)" xlink:href="#bD"/></g><path d="M108 0H70L1-190h34L89-25l56-165h34" id="bT"/><g id="y"><use transform="matrix(0.05,0,0,0.05,0,0)" xlink:href="#bG"/><use transform="matrix(0.05,0,0,0.05,10,0)" xlink:href="#bT"/><use transform="matrix(0.05,0,0,0.05,19,0)" xlink:href="#bI"/><use transform="matrix(0.05,0,0,0.05,29,0)" xlink:href="#bH"/></g><g id="z"><use transform="matrix(0.05,0,0,0.05,0,0)" xlink:href="#bF"/><use transform="matrix(0.05,0,0,0.05,3.95,0)" xlink:href="#bI"/><use transform="matrix(0.05,0,0,0.05,13.949999999999998,0)" xlink:href="#bP"/></g><g id="A"><use transform="matrix(0.05,0,0,0.05,0,0)" xlink:href="#bG"/><use transform="matrix(0.05,0,0,0.05,10,0)" xlink:href="#bL"/><use transform="matrix(0.05,0,0,0.05,20,0)" xlink:href="#bK"/><use transform="matrix(0.05,0,0,0.05,25,0)" xlink:href="#bQ"/><use transform="matrix(0.05,0,0,0.05,30.950000000000003,0)" xlink:href="#bI"/><use transform="matrix(0.05,0,0,0.05,40.95,0)" xlink:href="#bP"/></g><path d="M141 0L90-78 38 0H4l68-98-65-92h35l48 74 47-74h35l-64 92 68 98h-35" id="bU"/><g id="B"><use transform="matrix(0.05,0,0,0.05,0,0)" xlink:href="#bJ"/><use transform="matrix(0.05,0,0,0.05,10,0)" xlink:href="#bG"/><use transform="matrix(0.05,0,0,0.05,20,0)" xlink:href="#bK"/><use transform="matrix(0.05,0,0,0.05,25,0)" xlink:href="#bI"/><use transform="matrix(0.05,0,0,0.05,35,0)" xlink:href="#bG"/><use transform="matrix(0.05,0,0,0.05,45,0)" xlink:href="#bL"/><use transform="matrix(0.05,0,0,0.05,55,0)" xlink:href="#bU"/></g><path fill="#333" d="M182-130c37 4 62 22 62 59C244 23 116-4 24 0v-248c84 5 203-23 205 63 0 31-19 50-47 55zM76-148c40-3 101 13 101-30 0-44-60-28-101-31v61zm0 110c48-3 116 14 116-37 0-48-69-32-116-35v72" id="bV"/><path fill="#333" d="M85 4C-2 5 27-109 22-190h50c7 57-23 150 33 157 60-5 35-97 40-157h50l1 190h-47c-2-12 1-28-3-38-12 25-28 42-61 42" id="bW"/><path fill="#333" d="M88-194c31-1 46 15 58 34l-1-101h50l1 261h-48c-2-10 0-23-3-31C134-8 116 4 84 4 32 4 16-41 15-95c0-56 19-97 73-99zm17 164c33 0 40-30 41-66 1-37-9-64-41-64s-38 30-39 65c0 43 13 65 39 65" id="bX"/><g id="C"><use transform="matrix(0.05,0,0,0.05,0,0)" xlink:href="#bw"/><use transform="matrix(0.05,0,0,0.05,10.950000000000001,0)" xlink:href="#bd"/><use transform="matrix(0.05,0,0,0.05,20.950000000000003,0)" xlink:href="#bx"/><use transform="matrix(0.05,0,0,0.05,26.900000000000002,0)" xlink:href="#aY"/><use transform="matrix(0.05,0,0,0.05,38.900000000000006,0)" xlink:href="#bd"/><use transform="matrix(0.05,0,0,0.05,48.900000000000006,0)" xlink:href="#bb"/><use transform="matrix(0.05,0,0,0.05,58.900000000000006,0)" xlink:href="#bV"/><use transform="matrix(0.05,0,0,0.05,71.85000000000001,0)" xlink:href="#bB"/><use transform="matrix(0.05,0,0,0.05,82.80000000000001,0)" xlink:href="#bh"/><use transform="matrix(0.05,0,0,0.05,92.80000000000001,0)" xlink:href="#bd"/><use transform="matrix(0.05,0,0,0.05,102.80000000000001,0)" xlink:href="#bA"/><use transform="matrix(0.05,0,0,0.05,112.80000000000001,0)" xlink:href="#by"/><use transform="matrix(0.05,0,0,0.05,126.80000000000001,0)" xlink:href="#bc"/><use transform="matrix(0.05,0,0,0.05,136.8,0)" xlink:href="#bc"/><use transform="matrix(0.05,0,0,0.05,146.8,0)" xlink:href="#bW"/><use transform="matrix(0.05,0,0,0.05,157.75,0)" xlink:href="#aZ"/><use transform="matrix(0.05,0,0,0.05,168.7,0)" xlink:href="#bf"/><use transform="matrix(0.05,0,0,0.05,173.7,0)" xlink:href="#bd"/><use transform="matrix(0.05,0,0,0.05,183.7,0)" xlink:href="#bX"/><use transform="matrix(0.05,0,0,0.05,194.64999999999998,0)" xlink:href="#bg"/><use transform="matrix(0.05,0,0,0.05,200.59999999999997,0)" xlink:href="#bh"/><use transform="matrix(0.05,0,0,0.05,210.59999999999997,0)" xlink:href="#bi"/></g><path fill="#333" d="M20 75v-336h95v34H67V41h48v34H20" id="bY"/><path fill="#333" d="M4 75V41h49v-268H4v-34h96V75H4" id="bZ"/><g id="D"><use transform="matrix(0.05,0,0,0.05,0,0)" xlink:href="#bY"/><use transform="matrix(0.05,0,0,0.05,5.95,0)" xlink:href="#bZ"/></g><g id="E"><use transform="matrix(0.05,0,0,0.05,0,0)" xlink:href="#bg"/><use transform="matrix(0.05,0,0,0.05,5.95,0)" xlink:href="#bf"/><use transform="matrix(0.05,0,0,0.05,10.95,0)" xlink:href="#bz"/><use transform="matrix(0.05,0,0,0.05,21.9,0)" xlink:href="#bx"/><use transform="matrix(0.05,0,0,0.05,27.849999999999994,0)" xlink:href="#bi"/></g><g id="F"><use transform="matrix(0.05,0,0,0.05,0,0)" xlink:href="#bf"/><use transform="matrix(0.05,0,0,0.05,5,0)" xlink:href="#bz"/><use transform="matrix(0.05,0,0,0.05,15.950000000000001,0)" xlink:href="#bx"/><use transform="matrix(0.05,0,0,0.05,21.900000000000002,0)" xlink:href="#bk"/></g><path fill="#333" d="M135-194c52 0 70 43 70 98 0 56-19 99-73 100-30 1-46-15-58-35L72 0H24l1-261h50v104c11-23 29-37 60-37zM114-30c31 0 40-27 40-66 0-37-7-63-39-63s-41 28-41 65c0 36 8 64 40 64" id="ca"/><g id="G"><use transform="matrix(0.05,0,0,0.05,0,0)" xlink:href="#ca"/><use transform="matrix(0.05,0,0,0.05,10.950000000000001,0)" xlink:href="#bB"/><use transform="matrix(0.05,0,0,0.05,21.900000000000002,0)" xlink:href="#bh"/><use transform="matrix(0.05,0,0,0.05,31.900000000000002,0)" xlink:href="#bd"/><use transform="matrix(0.05,0,0,0.05,41.900000000000006,0)" xlink:href="#bA"/><use transform="matrix(0.05,0,0,0.05,51.900000000000006,0)" xlink:href="#by"/><use transform="matrix(0.05,0,0,0.05,65.9,0)" xlink:href="#bc"/><use transform="matrix(0.05,0,0,0.05,75.9,0)" xlink:href="#bc"/><use transform="matrix(0.05,0,0,0.05,85.9,0)" xlink:href="#bW"/><use transform="matrix(0.05,0,0,0.05,96.85000000000001,0)" xlink:href="#aZ"/><use transform="matrix(0.05,0,0,0.05,107.80000000000001,0)" xlink:href="#bf"/><use transform="matrix(0.05,0,0,0.05,112.80000000000001,0)" xlink:href="#bd"/><use transform="matrix(0.05,0,0,0.05,122.80000000000001,0)" xlink:href="#bX"/></g><path fill="#333" d="M30 0v-248h33v221h125V0H30" id="cb"/><path fill="#333" d="M100-194c62-1 85 37 85 99 1 63-27 99-86 99S16-35 15-95c0-66 28-99 85-99zM99-20c44 1 53-31 53-75 0-43-8-75-51-75s-53 32-53 75 10 74 51 75" id="cc"/><path fill="#333" d="M115-194c55 1 70 41 70 98S169 2 115 4C84 4 66-9 55-30l1 105H24l-1-265h31l2 30c10-21 28-34 59-34zm-8 174c40 0 45-34 45-75s-6-73-45-74c-42 0-51 32-51 76 0 43 10 73 51 73" id="cd"/><g id="H"><use transform="matrix(0.05,0,0,0.05,0,0)" xlink:href="#cb"/><use transform="matrix(0.05,0,0,0.05,10,0)" xlink:href="#cc"/><use transform="matrix(0.05,0,0,0.05,20,0)" xlink:href="#cc"/><use transform="matrix(0.05,0,0,0.05,30,0)" xlink:href="#cd"/></g><path fill="#333" d="M26 75v-336h71v23H56V52h41v23H26" id="ce"/><path fill="#333" d="M101-234c-31-9-42 10-38 44h38v23H63V0H32v-167H5v-23h27c-7-52 17-82 69-68v24" id="cf"/><path fill="#333" d="M114-163C36-179 61-72 57 0H25l-1-190h30c1 12-1 29 2 39 6-27 23-49 58-41v29" id="cg"/><path fill="#333" d="M100-194c63 0 86 42 84 106H49c0 40 14 67 53 68 26 1 43-12 49-29l28 8c-11 28-37 45-77 45C44 4 14-33 15-96c1-61 26-98 85-98zm52 81c6-60-76-77-97-28-3 7-6 17-6 28h103" id="ch"/><path fill="#333" d="M141-36C126-15 110 5 73 4 37 3 15-17 15-53c-1-64 63-63 125-63 3-35-9-54-41-54-24 1-41 7-42 31l-33-3c5-37 33-52 76-52 45 0 72 20 72 64v82c-1 20 7 32 28 27v20c-31 9-61-2-59-35zM48-53c0 20 12 33 32 33 41-3 63-29 60-74-43 2-92-5-92 41" id="ci"/><path fill="#333" d="M96-169c-40 0-48 33-48 73s9 75 48 75c24 0 41-14 43-38l32 2c-6 37-31 61-74 61-59 0-76-41-82-99-10-93 101-131 147-64 4 7 5 14 7 22l-32 3c-4-21-16-35-41-35" id="cj"/><path fill="#333" d="M106-169C34-169 62-67 57 0H25v-261h32l-1 103c12-21 28-36 61-36 89 0 53 116 60 194h-32v-121c2-32-8-49-39-48" id="ck"/><g id="I"><use transform="matrix(0.05,0,0,0.05,0,0)" xlink:href="#ce"/><use transform="matrix(0.05,0,0,0.05,5,0)" xlink:href="#cf"/><use transform="matrix(0.05,0,0,0.05,10,0)" xlink:href="#cc"/><use transform="matrix(0.05,0,0,0.05,20,0)" xlink:href="#cg"/><use transform="matrix(0.05,0,0,0.05,25.950000000000003,0)" xlink:href="#ch"/><use transform="matrix(0.05,0,0,0.05,35.95,0)" xlink:href="#ci"/><use transform="matrix(0.05,0,0,0.05,45.95,0)" xlink:href="#cj"/><use transform="matrix(0.05,0,0,0.05,54.95,0)" xlink:href="#ck"/></g><path fill="#333" d="M115-194c53 0 69 39 70 98 0 66-23 100-70 100C84 3 66-7 56-30L54 0H23l1-261h32v101c10-23 28-34 59-34zm-8 174c40 0 45-34 45-75 0-40-5-75-45-74-42 0-51 32-51 76 0 43 10 73 51 73" id="cl"/><path fill="#333" d="M141 0L90-78 38 0H4l68-98-65-92h35l48 74 47-74h35l-64 92 68 98h-35" id="cm"/><path fill="#333" d="M135-143c-3-34-86-38-87 0 15 53 115 12 119 90S17 21 10-45l28-5c4 36 97 45 98 0-10-56-113-15-118-90-4-57 82-63 122-42 12 7 21 19 24 35" id="cn"/><path fill="#333" d="M140-251c81 0 123 46 123 126C263-46 219 4 140 4 59 4 17-45 17-125s42-126 123-126zm0 227c63 0 89-41 89-101s-29-99-89-99c-61 0-89 39-89 99S79-25 140-24" id="co"/><path fill="#333" d="M84 4C-5 8 30-112 23-190h32v120c0 31 7 50 39 49 72-2 45-101 50-169h31l1 190h-30c-1-10 1-25-2-33-11 22-28 36-60 37" id="cp"/><path fill="#333" d="M24-231v-30h32v30H24zM24 0v-190h32V0H24" id="cq"/><path fill="#333" d="M85-194c31 0 48 13 60 33l-1-100h32l1 261h-30c-2-10 0-23-3-31C134-8 116 4 85 4 32 4 16-35 15-94c0-66 23-100 70-100zm9 24c-40 0-46 34-46 75 0 40 6 74 45 74 42 0 51-32 51-76 0-42-9-74-50-73" id="cr"/><g id="J"><use transform="matrix(0.05,0,0,0.05,0,0)" xlink:href="#cl"/><use transform="matrix(0.05,0,0,0.05,10,0)" xlink:href="#cc"/><use transform="matrix(0.05,0,0,0.05,20,0)" xlink:href="#cm"/><use transform="matrix(0.05,0,0,0.05,29,0)" xlink:href="#ch"/><use transform="matrix(0.05,0,0,0.05,39,0)" xlink:href="#cn"/><use transform="matrix(0.05,0,0,0.05,48,0)" xlink:href="#co"/><use transform="matrix(0.05,0,0,0.05,62,0)" xlink:href="#cj"/><use transform="matrix(0.05,0,0,0.05,71,0)" xlink:href="#cj"/><use transform="matrix(0.05,0,0,0.05,80,0)" xlink:href="#cp"/><use transform="matrix(0.05,0,0,0.05,90,0)" xlink:href="#cd"/><use transform="matrix(0.05,0,0,0.05,100,0)" xlink:href="#cq"/><use transform="matrix(0.05,0,0,0.05,103.95,0)" xlink:href="#ch"/><use transform="matrix(0.05,0,0,0.05,113.95,0)" xlink:href="#cr"/></g><path fill="#333" d="M18-150v-26h174v26H18zm0 90v-26h174v26H18" id="cs"/><use transform="matrix(0.05,0,0,0.05,0,0)" xlink:href="#cs" id="K"/><path fill="#333" d="M3 75V52h41v-290H3v-23h71V75H3" id="ct"/><g id="L"><use transform="matrix(0.05,0,0,0.05,0,0)" xlink:href="#cl"/><use transform="matrix(0.05,0,0,0.05,10,0)" xlink:href="#cc"/><use transform="matrix(0.05,0,0,0.05,20,0)" xlink:href="#cm"/><use transform="matrix(0.05,0,0,0.05,29,0)" xlink:href="#ct"/></g><g id="M"><use transform="matrix(0.05,0,0,0.05,0,0)" xlink:href="#bC"/><use transform="matrix(0.05,0,0,0.05,14,0)" xlink:href="#bD"/></g><path d="M133-34C117-15 103 5 69 4 32 3 11-16 11-54c-1-60 55-63 116-61 1-26-3-47-28-47-18 1-26 9-28 27l-52-2c7-38 36-58 82-57s74 22 75 68l1 82c-1 14 12 18 25 15v27c-30 8-71 5-69-32zm-48 3c29 0 43-24 42-57-32 0-66-3-65 30 0 17 8 27 23 27" id="cu"/><path d="M185-48c-13 30-37 53-82 52C43 2 14-33 14-96s30-98 90-98c62 0 83 45 84 108H66c0 31 8 55 39 56 18 0 30-7 34-22zm-45-69c5-46-57-63-70-21-2 6-4 13-4 21h74zm29-96v5h-28c-13-11-23-24-37-34l-37 34H39c9-26 32-39 45-61h41" id="cv"/><path d="M115-3C79 11 28 4 28-45v-112H4v-33h27l15-45h31v45h36v33H77v99c-1 23 16 31 38 25v30" id="cw"/><g id="N"><use transform="matrix(0.05,0,0,0.05,0,0)" xlink:href="#cu"/><use transform="matrix(0.05,0,0,0.05,10,0)" xlink:href="#bo"/><use transform="matrix(0.05,0,0,0.05,17,0)" xlink:href="#bo"/><use transform="matrix(0.05,0,0,0.05,24,0)" xlink:href="#cv"/><use transform="matrix(0.05,0,0,0.05,34,0)" xlink:href="#cw"/><use transform="matrix(0.05,0,0,0.05,39.95,0)" xlink:href="#br"/></g><g id="O"><use transform="matrix(0.05,0,0,0.05,0,0)" xlink:href="#bG"/><use transform="matrix(0.05,0,0,0.05,10,0)" xlink:href="#bL"/><use transform="matrix(0.05,0,0,0.05,20,0)" xlink:href="#bP"/><use transform="matrix(0.05,0,0,0.05,29,0)" xlink:href="#bP"/><use transform="matrix(0.05,0,0,0.05,38,0)" xlink:href="#bN"/></g><g id="P"><use transform="matrix(0.05,0,0,0.05,0,0)" xlink:href="#bF"/><use transform="matrix(0.05,0,0,0.05,3.95,0)" xlink:href="#cu"/></g><path d="M135-194c52 0 70 43 70 98 0 56-19 99-73 100-30 1-46-15-58-35L72 0H24l1-261h50v104c11-23 29-37 60-37zM114-30c31 0 40-27 40-66 0-37-7-63-39-63s-41 28-41 65c0 36 8 64 40 64" id="cx"/><path d="M190-63c-7 42-38 67-86 67-59 0-84-38-90-98-12-110 154-137 174-36l-49 2c-2-19-15-32-35-32-30 0-35 28-38 64-6 74 65 87 74 30" id="cy"/><g id="Q"><use transform="matrix(0.05,0,0,0.05,0,0)" xlink:href="#cx"/><use transform="matrix(0.05,0,0,0.05,10.950000000000001,0)" xlink:href="#bv"/><use transform="matrix(0.05,0,0,0.05,21.900000000000002,0)" xlink:href="#bt"/><use transform="matrix(0.05,0,0,0.05,32.85,0)" xlink:href="#cy"/><use transform="matrix(0.05,0,0,0.05,42.85,0)" xlink:href="#bq"/><use transform="matrix(0.05,0,0,0.05,47.85,0)" xlink:href="#br"/></g><path d="M137-138c1-29-70-34-71-4 15 46 118 7 119 86 1 83-164 76-172 9l43-7c4 19 20 25 44 25 33 8 57-30 24-41C81-84 22-81 20-136c-2-80 154-74 161-7" id="cz"/><g id="R"><use transform="matrix(0.05,0,0,0.05,0,0)" xlink:href="#cz"/><use transform="matrix(0.05,0,0,0.05,10,0)" xlink:href="#bp"/></g><path d="M128 0H69L1-190h53L99-40l48-150h52" id="cA"/><path d="M24-248c93 1 206-16 204 79-1 75-69 88-152 82V0H24v-248zm52 121c47 0 100 7 100-41 0-47-54-39-100-39v80" id="cB"/><g id="S"><use transform="matrix(0.05,0,0,0.05,0,0)" xlink:href="#cA"/><use transform="matrix(0.05,0,0,0.05,10,0)" xlink:href="#cu"/><use transform="matrix(0.05,0,0,0.05,20,0)" xlink:href="#bq"/><use transform="matrix(0.05,0,0,0.05,25,0)" xlink:href="#bp"/><use transform="matrix(0.05,0,0,0.05,30,0)" xlink:href="#bs"/><use transform="matrix(0.05,0,0,0.05,40.95,0)" xlink:href="#cB"/><use transform="matrix(0.05,0,0,0.05,52.95,0)" xlink:href="#bq"/><use transform="matrix(0.05,0,0,0.05,57.95,0)" xlink:href="#cu"/><use transform="matrix(0.05,0,0,0.05,67.95,0)" xlink:href="#cy"/><use transform="matrix(0.05,0,0,0.05,77.95,0)" xlink:href="#br"/></g><g id="T"><use transform="matrix(0.05,0,0,0.05,0,0)" xlink:href="#br"/><use transform="matrix(0.05,0,0,0.05,10,0)" xlink:href="#cz"/><use transform="matrix(0.05,0,0,0.05,20,0)" xlink:href="#cw"/></g><path d="M121-226c-27-7-43 5-38 36h38v33H83V0H34v-157H6v-33h28c-9-59 32-81 87-68v32" id="cC"/><g id="U"><use transform="matrix(0.05,0,0,0.05,0,0)" xlink:href="#cC"/><use transform="matrix(0.05,0,0,0.05,5.95,0)" xlink:href="#cu"/><use transform="matrix(0.05,0,0,0.05,15.949999999999998,0)" xlink:href="#bq"/><use transform="matrix(0.05,0,0,0.05,20.95,0)" xlink:href="#cz"/><use transform="matrix(0.05,0,0,0.05,30.950000000000003,0)" xlink:href="#br"/></g><path d="M141-36C126-15 110 5 73 4 37 3 15-17 15-53c-1-64 63-63 125-63 3-35-9-54-41-54-24 1-41 7-42 31l-33-3c5-37 33-52 76-52 45 0 72 20 72 64v82c-1 20 7 32 28 27v20c-31 9-61-2-59-35zM48-53c0 20 12 33 32 33 41-3 63-29 60-74-43 2-92-5-92 41zm62-158l-58-49v-5h36c12 19 30 32 38 54h-16" id="cD"/><use transform="matrix(0.05,0,0,0.05,0,0)" xlink:href="#cD" id="V"/><g id="W"><use transform="matrix(0.05,0,0,0.05,0,0)" xlink:href="#bL"/><use transform="matrix(0.05,0,0,0.05,10,0)" xlink:href="#bD"/></g><path d="M210-169c-67 3-38 105-44 169h-31v-121c0-29-5-50-35-48C34-165 62-65 56 0H25l-1-190h30c1 10-1 24 2 32 10-44 99-50 107 0 11-21 27-35 58-36 85-2 47 119 55 194h-31v-121c0-29-5-49-35-48" id="cE"/><path d="M33 0v-38h34V0H33" id="cF"/><g id="X"><use transform="matrix(0.05,0,0,0.05,0,0)" xlink:href="#cE"/><use transform="matrix(0.05,0,0,0.05,14.950000000000001,0)" xlink:href="#bS"/><use transform="matrix(0.05,0,0,0.05,24.950000000000003,0)" xlink:href="#cE"/><use transform="matrix(0.05,0,0,0.05,39.900000000000006,0)" xlink:href="#bI"/><use transform="matrix(0.05,0,0,0.05,49.900000000000006,0)" xlink:href="#bD"/><use transform="matrix(0.05,0,0,0.05,59.900000000000006,0)" xlink:href="#bK"/><use transform="matrix(0.05,0,0,0.05,64.9,0)" xlink:href="#cF"/></g><g id="Y"><use transform="matrix(0.05,0,0,0.05,0,0)" xlink:href="#ca"/><use transform="matrix(0.05,0,0,0.05,10.950000000000001,0)" xlink:href="#bB"/><use transform="matrix(0.05,0,0,0.05,21.900000000000002,0)" xlink:href="#bB"/><use transform="matrix(0.05,0,0,0.05,32.85,0)" xlink:href="#ba"/><use transform="matrix(0.05,0,0,0.05,37.85,0)" xlink:href="#bd"/><use transform="matrix(0.05,0,0,0.05,47.85,0)" xlink:href="#bb"/><use transform="matrix(0.05,0,0,0.05,57.85,0)" xlink:href="#bz"/></g><path fill="#333" d="M76-208v77h127v40H76V0H24v-248h183v40H76" id="cG"/><path fill="#333" d="M135-150c-39-12-60 13-60 57V0H25l-1-190h47c2 13-1 29 3 40 6-28 27-53 61-41v41" id="cH"/><g id="Z"><use transform="matrix(0.05,0,0,0.05,0,0)" xlink:href="#ca"/><use transform="matrix(0.05,0,0,0.05,10.950000000000001,0)" xlink:href="#bB"/><use transform="matrix(0.05,0,0,0.05,21.900000000000002,0)" xlink:href="#bh"/><use transform="matrix(0.05,0,0,0.05,31.900000000000002,0)" xlink:href="#cG"/><use transform="matrix(0.05,0,0,0.05,42.85,0)" xlink:href="#cH"/><use transform="matrix(0.05,0,0,0.05,49.85,0)" xlink:href="#bd"/><use transform="matrix(0.05,0,0,0.05,59.85,0)" xlink:href="#bd"/></g><path fill="#333" d="M24 0v-54h51V0H24" id="cI"/><g id="aa"><use transform="matrix(0.05,0,0,0.05,0,0)" xlink:href="#bf"/><use transform="matrix(0.05,0,0,0.05,5,0)" xlink:href="#bA"/><use transform="matrix(0.05,0,0,0.05,15,0)" xlink:href="#aY"/><use transform="matrix(0.05,0,0,0.05,27,0)" xlink:href="#bd"/><use transform="matrix(0.05,0,0,0.05,37,0)" xlink:href="#bb"/><use transform="matrix(0.05,0,0,0.05,47,0)" xlink:href="#bV"/><use transform="matrix(0.05,0,0,0.05,59.95,0)" xlink:href="#bB"/><use transform="matrix(0.05,0,0,0.05,70.9,0)" xlink:href="#bh"/><use transform="matrix(0.05,0,0,0.05,80.9,0)" xlink:href="#cG"/><use transform="matrix(0.05,0,0,0.05,91.85000000000001,0)" xlink:href="#cH"/><use transform="matrix(0.05,0,0,0.05,98.85000000000001,0)" xlink:href="#bd"/><use transform="matrix(0.05,0,0,0.05,108.85000000000001,0)" xlink:href="#bd"/><use transform="matrix(0.05,0,0,0.05,118.85000000000001,0)" xlink:href="#bg"/><use transform="matrix(0.05,0,0,0.05,124.80000000000001,0)" xlink:href="#ca"/><use transform="matrix(0.05,0,0,0.05,135.75,0)" xlink:href="#bB"/><use transform="matrix(0.05,0,0,0.05,146.7,0)" xlink:href="#bh"/><use transform="matrix(0.05,0,0,0.05,156.7,0)" xlink:href="#cI"/><use transform="matrix(0.05,0,0,0.05,161.7,0)" xlink:href="#bh"/><use transform="matrix(0.05,0,0,0.05,171.7,0)" xlink:href="#bi"/></g><g id="ab"><use transform="matrix(0.05,0,0,0.05,0,0)" xlink:href="#ca"/><use transform="matrix(0.05,0,0,0.05,10.950000000000001,0)" xlink:href="#bB"/><use transform="matrix(0.05,0,0,0.05,21.900000000000002,0)" xlink:href="#bh"/><use transform="matrix(0.05,0,0,0.05,31.900000000000002,0)" xlink:href="#cI"/><use transform="matrix(0.05,0,0,0.05,36.900000000000006,0)" xlink:href="#bj"/><use transform="matrix(0.05,0,0,0.05,46.900000000000006,0)" xlink:href="#bk"/></g><path fill="#333" d="M128 0H69L1-190h53L99-40l48-150h52" id="cJ"/><g id="ac"><use transform="matrix(0.05,0,0,0.05,0,0)" xlink:href="#cJ"/><use transform="matrix(0.05,0,0,0.05,10,0)" xlink:href="#bb"/><use transform="matrix(0.05,0,0,0.05,20,0)" xlink:href="#ba"/><use transform="matrix(0.05,0,0,0.05,25,0)" xlink:href="#bf"/><use transform="matrix(0.05,0,0,0.05,30,0)" xlink:href="#bX"/><use transform="matrix(0.05,0,0,0.05,40.95,0)" xlink:href="#aS"/><use transform="matrix(0.05,0,0,0.05,52.95,0)" xlink:href="#ba"/><use transform="matrix(0.05,0,0,0.05,57.95,0)" xlink:href="#bb"/><use transform="matrix(0.05,0,0,0.05,67.95,0)" xlink:href="#bc"/><use transform="matrix(0.05,0,0,0.05,77.95,0)" xlink:href="#bd"/></g><path fill="#333" d="M15-148v-39h180v39H15zm0 97v-39h180v39H15" id="cK"/><use transform="matrix(0.05,0,0,0.05,0,0)" xlink:href="#cK" id="ad"/><g id="ae"><use transform="matrix(0.05,0,0,0.05,0,0)" xlink:href="#bx"/><use transform="matrix(0.05,0,0,0.05,5.95,0)" xlink:href="#cH"/><use transform="matrix(0.05,0,0,0.05,12.949999999999998,0)" xlink:href="#bW"/><use transform="matrix(0.05,0,0,0.05,23.9,0)" xlink:href="#bd"/></g><path fill="#333" d="M205 0l-28-72H64L36 0H1l101-248h38L239 0h-34zm-38-99l-47-123c-12 45-31 82-46 123h93" id="cL"/><path fill="#333" d="M24 0v-261h32V0H24" id="cM"/><path fill="#333" d="M59-47c-2 24 18 29 38 22v24C64 9 27 4 27-40v-127H5v-23h24l9-43h21v43h35v23H59v120" id="cN"/><path fill="#333" d="M117-194c89-4 53 116 60 194h-32v-121c0-31-8-49-39-48C34-167 62-67 57 0H25l-1-190h30c1 10-1 24 2 32 11-22 29-35 61-36" id="cO"/><path fill="#333" d="M108 0H70L1-190h34L89-25l56-165h34" id="cP"/><g id="af"><use transform="matrix(0.05,0,0,0.05,0,0)" xlink:href="#cL"/><use transform="matrix(0.05,0,0,0.05,12,0)" xlink:href="#cM"/><use transform="matrix(0.05,0,0,0.05,15.949999999999998,0)" xlink:href="#cN"/><use transform="matrix(0.05,0,0,0.05,20.95,0)" xlink:href="#ch"/><use transform="matrix(0.05,0,0,0.05,30.950000000000003,0)" xlink:href="#cg"/><use transform="matrix(0.05,0,0,0.05,36.9,0)" xlink:href="#cO"/><use transform="matrix(0.05,0,0,0.05,46.9,0)" xlink:href="#ci"/><use transform="matrix(0.05,0,0,0.05,56.900000000000006,0)" xlink:href="#cN"/><use transform="matrix(0.05,0,0,0.05,61.900000000000006,0)" xlink:href="#cq"/><use transform="matrix(0.05,0,0,0.05,65.85,0)" xlink:href="#cP"/><use transform="matrix(0.05,0,0,0.05,74.85,0)" xlink:href="#ch"/></g><path fill="#333" d="M63-70H37l-4-178h34zM33 0v-35h34V0H33" id="cQ"/><path fill="#333" d="M63-220v92h138v28H63V0H30v-248h175v28H63" id="cR"/><g id="ag"><use transform="matrix(0.05,0,0,0.05,0,0)" xlink:href="#ce"/><use transform="matrix(0.05,0,0,0.05,5,0)" xlink:href="#cQ"/><use transform="matrix(0.05,0,0,0.05,10,0)" xlink:href="#cl"/><use transform="matrix(0.05,0,0,0.05,20,0)" xlink:href="#cc"/><use transform="matrix(0.05,0,0,0.05,30,0)" xlink:href="#cm"/><use transform="matrix(0.05,0,0,0.05,39,0)" xlink:href="#cR"/><use transform="matrix(0.05,0,0,0.05,49.95,0)" xlink:href="#cg"/><use transform="matrix(0.05,0,0,0.05,55.900000000000006,0)" xlink:href="#ch"/><use transform="matrix(0.05,0,0,0.05,65.9,0)" xlink:href="#ch"/><use transform="matrix(0.05,0,0,0.05,75.9,0)" xlink:href="#ct"/></g><path d="M169-182c-1-43-94-46-97-3 18 66 151 10 154 114 3 95-165 93-204 36-6-8-10-19-12-30l50-8c3 46 112 56 116 5-17-69-150-10-154-114-4-87 153-88 188-35 5 8 8 18 10 28" id="cS"/><g id="ah"><use transform="matrix(0.05,0,0,0.05,0,0)" xlink:href="#cS"/><use transform="matrix(0.05,0,0,0.05,12,0)" xlink:href="#bp"/></g><path d="M135-194c87-1 58 113 63 194h-50c-7-57 23-157-34-157-59 0-34 97-39 157H25l-1-190h47c2 12-1 28 3 38 12-26 28-41 61-42" id="cT"/><g id="ai"><use transform="matrix(0.05,0,0,0.05,0,0)" xlink:href="#bt"/><use transform="matrix(0.05,0,0,0.05,10.950000000000001,0)" xlink:href="#cT"/><use transform="matrix(0.05,0,0,0.05,21.900000000000002,0)" xlink:href="#br"/></g><g id="aj"><use transform="matrix(0.05,0,0,0.05,0,0)" xlink:href="#cy"/><use transform="matrix(0.05,0,0,0.05,10,0)" xlink:href="#cu"/><use transform="matrix(0.05,0,0,0.05,20,0)" xlink:href="#cz"/><use transform="matrix(0.05,0,0,0.05,30,0)" xlink:href="#br"/></g><path d="M62-158H24l-5-90h48" id="cU"/><g id="ak"><use transform="matrix(0.05,0,0,0.05,0,0)" xlink:href="#cT"/><use transform="matrix(0.05,0,0,0.05,10.950000000000001,0)" xlink:href="#cU"/><use transform="matrix(0.05,0,0,0.05,15.200000000000001,0)" xlink:href="#br"/><use transform="matrix(0.05,0,0,0.05,25.200000000000003,0)" xlink:href="#cz"/><use transform="matrix(0.05,0,0,0.05,35.2,0)" xlink:href="#cw"/></g><path d="M135-194c53 0 70 44 70 98 0 56-19 98-73 100-31 1-45-17-59-34 3 33 2 69 2 105H25l-1-265h48c2 10 0 23 3 31 11-24 29-35 60-35zM114-30c33 0 39-31 40-66 0-38-9-64-40-64-56 0-55 130 0 130" id="cV"/><g id="al"><use transform="matrix(0.05,0,0,0.05,0,0)" xlink:href="#cV"/><use transform="matrix(0.05,0,0,0.05,10.950000000000001,0)" xlink:href="#cu"/><use transform="matrix(0.05,0,0,0.05,20.950000000000003,0)" xlink:href="#cz"/></g><g id="am"><use transform="matrix(0.05,0,0,0.05,0,0)" xlink:href="#bq"/><use transform="matrix(0.05,0,0,0.05,5,0)" xlink:href="#bp"/><use transform="matrix(0.05,0,0,0.05,10,0)" xlink:href="#cx"/><use transform="matrix(0.05,0,0,0.05,20.950000000000003,0)" xlink:href="#bo"/><use transform="matrix(0.05,0,0,0.05,27.950000000000003,0)" xlink:href="#br"/></g><g id="an"><use transform="matrix(0.05,0,0,0.05,0,0)" xlink:href="#cJ"/><use transform="matrix(0.05,0,0,0.05,10,0)" xlink:href="#bb"/><use transform="matrix(0.05,0,0,0.05,20,0)" xlink:href="#ba"/><use transform="matrix(0.05,0,0,0.05,25,0)" xlink:href="#bf"/><use transform="matrix(0.05,0,0,0.05,30,0)" xlink:href="#bX"/><use transform="matrix(0.05,0,0,0.05,40.95,0)" xlink:href="#aS"/><use transform="matrix(0.05,0,0,0.05,52.95,0)" xlink:href="#ba"/><use transform="matrix(0.05,0,0,0.05,57.95,0)" xlink:href="#bb"/><use transform="matrix(0.05,0,0,0.05,67.95,0)" xlink:href="#bc"/><use transform="matrix(0.05,0,0,0.05,77.95,0)" xlink:href="#bd"/></g><use transform="matrix(0.05,0,0,0.05,0,0)" xlink:href="#cK" id="ao"/><path fill="#333" d="M121-226c-27-7-43 5-38 36h38v33H83V0H34v-157H6v-33h28c-9-59 32-81 87-68v32" id="cW"/><g id="ap"><use transform="matrix(0.05,0,0,0.05,0,0)" xlink:href="#cW"/><use transform="matrix(0.05,0,0,0.05,5.95,0)" xlink:href="#bb"/><use transform="matrix(0.05,0,0,0.05,15.949999999999998,0)" xlink:href="#ba"/><use transform="matrix(0.05,0,0,0.05,20.95,0)" xlink:href="#bA"/><use transform="matrix(0.05,0,0,0.05,30.950000000000003,0)" xlink:href="#bd"/></g><g id="aq"><use transform="matrix(0.05,0,0,0.05,0,0)" xlink:href="#cJ"/><use transform="matrix(0.05,0,0,0.05,10,0)" xlink:href="#bb"/><use transform="matrix(0.05,0,0,0.05,20,0)" xlink:href="#ba"/><use transform="matrix(0.05,0,0,0.05,25,0)" xlink:href="#bf"/><use transform="matrix(0.05,0,0,0.05,30,0)" xlink:href="#bX"/><use transform="matrix(0.05,0,0,0.05,40.95,0)" xlink:href="#aS"/><use transform="matrix(0.05,0,0,0.05,52.95,0)" xlink:href="#ba"/><use transform="matrix(0.05,0,0,0.05,57.95,0)" xlink:href="#bb"/><use transform="matrix(0.05,0,0,0.05,67.95,0)" xlink:href="#bc"/><use transform="matrix(0.05,0,0,0.05,77.95,0)" xlink:href="#bd"/></g><path d="M30-248c87 1 191-15 191 75 0 78-77 80-158 76V0H30v-248zm33 125c57 0 124 11 124-50 0-59-68-47-124-48v98" id="cX"/><g id="ar"><use transform="matrix(0.05,0,0,0.05,0,0)" xlink:href="#cX"/><use transform="matrix(0.05,0,0,0.05,12,0)" xlink:href="#bI"/><use transform="matrix(0.05,0,0,0.05,22,0)" xlink:href="#bQ"/><use transform="matrix(0.05,0,0,0.05,27.950000000000003,0)" xlink:href="#cE"/><use transform="matrix(0.05,0,0,0.05,42.9,0)" xlink:href="#bI"/><use transform="matrix(0.05,0,0,0.05,52.900000000000006,0)" xlink:href="#bK"/></g><g id="as"><use transform="matrix(0.05,0,0,0.05,0,0)" xlink:href="#bO"/><use transform="matrix(0.05,0,0,0.05,10,0)" xlink:href="#bI"/></g><g id="at"><use transform="matrix(0.05,0,0,0.05,0,0)" xlink:href="#bP"/><use transform="matrix(0.05,0,0,0.05,9,0)" xlink:href="#bG"/><use transform="matrix(0.05,0,0,0.05,19,0)" xlink:href="#bT"/><use transform="matrix(0.05,0,0,0.05,28,0)" xlink:href="#bS"/><use transform="matrix(0.05,0,0,0.05,38,0)" xlink:href="#bN"/><use transform="matrix(0.05,0,0,0.05,41.95,0)" xlink:href="#bQ"/></g><g id="au"><use transform="matrix(0.05,0,0,0.05,0,0)" xlink:href="#cz"/><use transform="matrix(0.05,0,0,0.05,10,0)" xlink:href="#bp"/></g><g id="av"><use transform="matrix(0.05,0,0,0.05,0,0)" xlink:href="#bq"/><use transform="matrix(0.05,0,0,0.05,5,0)" xlink:href="#br"/></g><path d="M220-157c-53 9-28 100-34 157h-49v-107c1-27-5-49-29-50C55-147 81-57 75 0H25l-1-190h47c2 12-1 28 3 38 10-53 101-56 108 0 13-22 24-43 59-42 82 1 51 116 57 194h-49v-107c-1-25-5-48-29-50" id="cY"/><g id="aw"><use transform="matrix(0.05,0,0,0.05,0,0)" xlink:href="#cV"/><use transform="matrix(0.05,0,0,0.05,10.950000000000001,0)" xlink:href="#bv"/><use transform="matrix(0.05,0,0,0.05,21.900000000000002,0)" xlink:href="#cz"/><use transform="matrix(0.05,0,0,0.05,31.900000000000002,0)" xlink:href="#bp"/><use transform="matrix(0.05,0,0,0.05,36.900000000000006,0)" xlink:href="#cw"/><use transform="matrix(0.05,0,0,0.05,42.85000000000001,0)" xlink:href="#bp"/><use transform="matrix(0.05,0,0,0.05,47.85000000000001,0)" xlink:href="#bv"/><use transform="matrix(0.05,0,0,0.05,58.80000000000001,0)" xlink:href="#cT"/><use transform="matrix(0.05,0,0,0.05,69.75000000000001,0)" xlink:href="#cT"/><use transform="matrix(0.05,0,0,0.05,80.70000000000002,0)" xlink:href="#br"/><use transform="matrix(0.05,0,0,0.05,90.70000000000002,0)" xlink:href="#cY"/><use transform="matrix(0.05,0,0,0.05,106.7,0)" xlink:href="#br"/><use transform="matrix(0.05,0,0,0.05,116.7,0)" xlink:href="#cT"/><use transform="matrix(0.05,0,0,0.05,127.65000000000003,0)" xlink:href="#cw"/></g><g id="ax"><use transform="matrix(0.05,0,0,0.05,0,0)" xlink:href="#cA"/><use transform="matrix(0.05,0,0,0.05,10,0)" xlink:href="#cu"/><use transform="matrix(0.05,0,0,0.05,20,0)" xlink:href="#bq"/><use transform="matrix(0.05,0,0,0.05,25,0)" xlink:href="#bp"/><use transform="matrix(0.05,0,0,0.05,30,0)" xlink:href="#bs"/><use transform="matrix(0.05,0,0,0.05,40.95,0)" xlink:href="#br"/></g><g id="ay"><use transform="matrix(0.05,0,0,0.05,0,0)" xlink:href="#bI"/><use transform="matrix(0.05,0,0,0.05,10,0)" xlink:href="#bK"/></g><use transform="matrix(0.05,0,0,0.05,0,0)" xlink:href="#bG" id="az"/><g id="aA"><use transform="matrix(0.05,0,0,0.05,0,0)" xlink:href="#bO"/><use transform="matrix(0.05,0,0,0.05,10,0)" xlink:href="#bS"/><use transform="matrix(0.05,0,0,0.05,20,0)" xlink:href="#bD"/><use transform="matrix(0.05,0,0,0.05,30,0)" xlink:href="#bH"/></g><path d="M185-48c-13 30-37 53-82 52C43 2 14-33 14-96s30-98 90-98c62 0 83 45 84 108H66c0 31 8 55 39 56 18 0 30-7 34-22zm-45-69c5-46-57-63-70-21-2 6-4 13-4 21h74zm-67-91v-5l45-51h45v8l-60 48H73" id="cZ"/><g id="aB"><use transform="matrix(0.05,0,0,0.05,0,0)" xlink:href="#cZ"/><use transform="matrix(0.05,0,0,0.05,10,0)" xlink:href="#cw"/><use transform="matrix(0.05,0,0,0.05,15.949999999999998,0)" xlink:href="#cZ"/></g><g id="aC"><use transform="matrix(0.05,0,0,0.05,0,0)" xlink:href="#br"/><use transform="matrix(0.05,0,0,0.05,10,0)" xlink:href="#cC"/><use transform="matrix(0.05,0,0,0.05,15.949999999999998,0)" xlink:href="#cC"/><use transform="matrix(0.05,0,0,0.05,21.9,0)" xlink:href="#br"/><use transform="matrix(0.05,0,0,0.05,31.899999999999995,0)" xlink:href="#cy"/><use transform="matrix(0.05,0,0,0.05,41.9,0)" xlink:href="#cw"/><use transform="matrix(0.05,0,0,0.05,47.85,0)" xlink:href="#bt"/><use transform="matrix(0.05,0,0,0.05,58.800000000000004,0)" xlink:href="#cZ"/><use transform="matrix(0.05,0,0,0.05,68.80000000000001,0)" xlink:href="#cF"/></g><path fill="#333" d="M30-248c87 1 191-15 191 75 0 78-77 80-158 76V0H30v-248zm33 125c57 0 124 11 124-50 0-59-68-47-124-48v98" id="da"/><g id="aD"><use transform="matrix(0.05,0,0,0.05,0,0)" xlink:href="#ce"/><use transform="matrix(0.05,0,0,0.05,5,0)" xlink:href="#cP"/><use transform="matrix(0.05,0,0,0.05,14,0)" xlink:href="#ci"/><use transform="matrix(0.05,0,0,0.05,24,0)" xlink:href="#cM"/><use transform="matrix(0.05,0,0,0.05,27.950000000000003,0)" xlink:href="#cq"/><use transform="matrix(0.05,0,0,0.05,31.899999999999995,0)" xlink:href="#cr"/><use transform="matrix(0.05,0,0,0.05,41.9,0)" xlink:href="#da"/><use transform="matrix(0.05,0,0,0.05,53.900000000000006,0)" xlink:href="#cM"/><use transform="matrix(0.05,0,0,0.05,57.85,0)" xlink:href="#ci"/><use transform="matrix(0.05,0,0,0.05,67.85,0)" xlink:href="#cj"/><use transform="matrix(0.05,0,0,0.05,76.85,0)" xlink:href="#ch"/><use transform="matrix(0.05,0,0,0.05,86.85,0)" xlink:href="#ct"/></g><g id="aE"><use transform="matrix(0.05,0,0,0.05,0,0)" xlink:href="#bA"/><use transform="matrix(0.05,0,0,0.05,10,0)" xlink:href="#be"/><use transform="matrix(0.05,0,0,0.05,20.950000000000003,0)" xlink:href="#bf"/><use transform="matrix(0.05,0,0,0.05,25.950000000000003,0)" xlink:href="#aZ"/><use transform="matrix(0.05,0,0,0.05,36.900000000000006,0)" xlink:href="#bm"/><use transform="matrix(0.05,0,0,0.05,41.900000000000006,0)" xlink:href="#bA"/><use transform="matrix(0.05,0,0,0.05,51.900000000000006,0)" xlink:href="#aS"/><use transform="matrix(0.05,0,0,0.05,63.900000000000006,0)" xlink:href="#ba"/><use transform="matrix(0.05,0,0,0.05,68.9,0)" xlink:href="#bb"/><use transform="matrix(0.05,0,0,0.05,78.9,0)" xlink:href="#bc"/><use transform="matrix(0.05,0,0,0.05,88.9,0)" xlink:href="#bd"/><use transform="matrix(0.05,0,0,0.05,98.9,0)" xlink:href="#bX"/><use transform="matrix(0.05,0,0,0.05,109.85000000000001,0)" xlink:href="#bg"/><use transform="matrix(0.05,0,0,0.05,115.80000000000001,0)" xlink:href="#bA"/><use transform="matrix(0.05,0,0,0.05,125.80000000000001,0)" xlink:href="#be"/><use transform="matrix(0.05,0,0,0.05,136.75,0)" xlink:href="#bf"/><use transform="matrix(0.05,0,0,0.05,141.75,0)" xlink:href="#aZ"/><use transform="matrix(0.05,0,0,0.05,152.7,0)" xlink:href="#bk"/></g><g id="aF"><use transform="matrix(0.05,0,0,0.05,0,0)" xlink:href="#bA"/><use transform="matrix(0.05,0,0,0.05,10,0)" xlink:href="#be"/><use transform="matrix(0.05,0,0,0.05,20.950000000000003,0)" xlink:href="#bf"/><use transform="matrix(0.05,0,0,0.05,25.950000000000003,0)" xlink:href="#aZ"/><use transform="matrix(0.05,0,0,0.05,36.900000000000006,0)" xlink:href="#by"/><use transform="matrix(0.05,0,0,0.05,50.900000000000006,0)" xlink:href="#bz"/><use transform="matrix(0.05,0,0,0.05,61.85,0)" xlink:href="#aS"/><use transform="matrix(0.05,0,0,0.05,73.85000000000001,0)" xlink:href="#ba"/><use transform="matrix(0.05,0,0,0.05,78.85000000000001,0)" xlink:href="#bb"/><use transform="matrix(0.05,0,0,0.05,88.85000000000001,0)" xlink:href="#bc"/><use transform="matrix(0.05,0,0,0.05,98.85000000000001,0)" xlink:href="#bf"/><use transform="matrix(0.05,0,0,0.05,103.85000000000001,0)" xlink:href="#bz"/><use transform="matrix(0.05,0,0,0.05,114.80000000000001,0)" xlink:href="#bw"/></g><g id="aG"><use transform="matrix(0.05,0,0,0.05,0,0)" xlink:href="#bz"/><use transform="matrix(0.05,0,0,0.05,10.950000000000001,0)" xlink:href="#bW"/><use transform="matrix(0.05,0,0,0.05,21.900000000000002,0)" xlink:href="#ba"/><use transform="matrix(0.05,0,0,0.05,26.900000000000002,0)" xlink:href="#ba"/></g><g id="aH"><use transform="matrix(0.05,0,0,0.05,0,0)" xlink:href="#cA"/><use transform="matrix(0.05,0,0,0.05,10,0)" xlink:href="#cu"/><use transform="matrix(0.05,0,0,0.05,20,0)" xlink:href="#bq"/><use transform="matrix(0.05,0,0,0.05,25,0)" xlink:href="#bp"/><use transform="matrix(0.05,0,0,0.05,30,0)" xlink:href="#bs"/><use transform="matrix(0.05,0,0,0.05,40.95,0)" xlink:href="#br"/></g><g id="aI"><use transform="matrix(0.05,0,0,0.05,0,0)" xlink:href="#bs"/><use transform="matrix(0.05,0,0,0.05,10.950000000000001,0)" xlink:href="#bt"/></g><g id="aJ"><use transform="matrix(0.05,0,0,0.05,0,0)" xlink:href="#cx"/><use transform="matrix(0.05,0,0,0.05,10.950000000000001,0)" xlink:href="#cu"/><use transform="matrix(0.05,0,0,0.05,20.950000000000003,0)" xlink:href="#cw"/><use transform="matrix(0.05,0,0,0.05,26.900000000000002,0)" xlink:href="#br"/><use transform="matrix(0.05,0,0,0.05,36.900000000000006,0)" xlink:href="#cu"/><use transform="matrix(0.05,0,0,0.05,46.900000000000006,0)" xlink:href="#bt"/></g><g id="aK"><use transform="matrix(0.05,0,0,0.05,0,0)" xlink:href="#bI"/><use transform="matrix(0.05,0,0,0.05,10,0)" xlink:href="#bD"/></g><g id="aL"><use transform="matrix(0.05,0,0,0.05,0,0)" xlink:href="#bF"/><use transform="matrix(0.05,0,0,0.05,3.95,0)" xlink:href="#cU"/><use transform="matrix(0.05,0,0,0.05,8.2,0)" xlink:href="#cu"/><use transform="matrix(0.05,0,0,0.05,18.2,0)" xlink:href="#bu"/><use transform="matrix(0.05,0,0,0.05,23.2,0)" xlink:href="#bv"/><use transform="matrix(0.05,0,0,0.05,34.15,0)" xlink:href="#bt"/><use transform="matrix(0.05,0,0,0.05,45.1,0)" xlink:href="#cw"/><use transform="matrix(0.05,0,0,0.05,51.050000000000004,0)" xlink:href="#cu"/><use transform="matrix(0.05,0,0,0.05,61.050000000000004,0)" xlink:href="#cT"/><use transform="matrix(0.05,0,0,0.05,72,0)" xlink:href="#cw"/></g><path d="M132-34C116-15 102 5 68 4 31 3 10-16 10-54c-1-60 55-63 116-61 1-26-3-47-28-47-18 1-26 9-28 27l-52-2c7-38 36-58 82-57s74 22 75 68l1 82c-1 14 12 18 25 15v27c-30 8-71 5-69-32zm-48 3c29 0 43-24 42-57-32 0-66-3-65 30 0 17 8 27 23 27zm18-177l-59-48v-8h45l44 51v5h-30" id="db"/><use transform="matrix(0.05,0,0,0.05,0,0)" xlink:href="#db" id="aM"/><g id="aN"><use transform="matrix(0.05,0,0,0.05,0,0)" xlink:href="#bq"/><use transform="matrix(0.05,0,0,0.05,5,0)" xlink:href="#cu"/></g><g id="aO"><use transform="matrix(0.05,0,0,0.05,0,0)" xlink:href="#bq"/><use transform="matrix(0.05,0,0,0.05,5,0)" xlink:href="#bp"/><use transform="matrix(0.05,0,0,0.05,10,0)" xlink:href="#cz"/><use transform="matrix(0.05,0,0,0.05,20,0)" xlink:href="#cw"/><use transform="matrix(0.05,0,0,0.05,25.950000000000003,0)" xlink:href="#br"/></g><g id="aP"><use transform="matrix(0.05,0,0,0.05,0,0)" xlink:href="#bs"/><use transform="matrix(0.05,0,0,0.05,10.950000000000001,0)" xlink:href="#br"/><use transform="matrix(0.05,0,0,0.05,20.950000000000003,0)" xlink:href="#cz"/></g><path d="M144 0l-44-69L55 0H2l70-98-66-92h53l41 62 40-62h54l-67 91 71 99h-54" id="dc"/><g id="aQ"><use transform="matrix(0.05,0,0,0.05,0,0)" xlink:href="#cx"/><use transform="matrix(0.05,0,0,0.05,10.950000000000001,0)" xlink:href="#cu"/><use transform="matrix(0.05,0,0,0.05,20.950000000000003,0)" xlink:href="#cw"/><use transform="matrix(0.05,0,0,0.05,26.900000000000002,0)" xlink:href="#br"/><use transform="matrix(0.05,0,0,0.05,36.900000000000006,0)" xlink:href="#cu"/><use transform="matrix(0.05,0,0,0.05,46.900000000000006,0)" xlink:href="#bt"/><use transform="matrix(0.05,0,0,0.05,57.85,0)" xlink:href="#dc"/></g><path d="M142-158h-39l-4-90h48zm-75 0H28l-4-90h48" id="dd"/><g id="aR"><use transform="matrix(0.05,0,0,0.05,0,0)" xlink:href="#dd"/><use transform="matrix(0.05,0,0,0.05,8.5,0)" xlink:href="#cu"/><use transform="matrix(0.05,0,0,0.05,18.5,0)" xlink:href="#cy"/><use transform="matrix(0.05,0,0,0.05,28.5,0)" xlink:href="#cw"/><use transform="matrix(0.05,0,0,0.05,34.45,0)" xlink:href="#bp"/><use transform="matrix(0.05,0,0,0.05,39.45,0)" xlink:href="#cC"/><use transform="matrix(0.05,0,0,0.05,45.400000000000006,0)" xlink:href="#cz"/><use transform="matrix(0.05,0,0,0.05,55.400000000000006,0)" xlink:href="#dd"/><use transform="matrix(0.05,0,0,0.05,63.900000000000006,0)" xlink:href="#cF"/></g></defs></g></svg>