<svg xmlns="http://www.w3.org/2000/svg" xmlns:xlink="http://www.w3.org/1999/xlink" width="2171" height="1320"><g transform="translate(171 -80)"><path d="M160 145c0-2.76 2.24-5 5-5h150c2.76 0 5 2.24 5 5v110c0 2.76-2.24 5-5 5H165c-2.76 0-5-2.24-5-5z" stroke="#666" stroke-width="2" fill="#a3d977"/><use xlink:href="#a" transform="matrix(1,0,0,1,160,140) translate(44.8395061728395 62.97222222222222)"/><path d="M240 260v1040" fill="none"/><path d="M240 260v9.9m0 9.9v19.82m0 9.9v19.8m0 9.92v19.8m0 9.9v19.82m0 9.9v19.82m0 9.9v19.8m0 9.92v19.8m0 9.9v19.82m0 9.9v19.8m0 9.92v19.8m0 9.9v19.82m0 9.9v19.82m0 9.9v19.8m0 9.92v19.8m0 9.9v19.82m0 9.9v19.8m0 9.92v19.8m0 9.9v19.82m0 9.9v19.82m0 9.9v19.8m0 9.92v19.8m0 9.9v19.82m0 9.9v19.8m0 9.92v19.8m0 9.9v19.82m0 9.9v19.82m0 9.9v19.8m0 9.92v19.8m0 9.9v19.82m0 9.9v19.8m0 9.92v19.8m0 9.9v19.82m0 9.9v19.82m0 9.9v19.8m0 9.92v9.9" stroke="#999" stroke-width="2" fill="none"/><path d="M220 325c0-2.76 2.24-5 5-5h30c2.76 0 5 2.24 5 5v950c0 2.76-2.24 5-5 5h-30c-2.76 0-5-2.24-5-5z" stroke="#666" stroke-width="2" fill="#f2f2f2"/><path d="M660 145c0-2.76 2.24-5 5-5h150c2.76 0 5 2.24 5 5v110c0 2.76-2.24 5-5 5H665c-2.76 0-5-2.24-5-5z" stroke="#666" stroke-width="2" fill="#0c7cba"/><use xlink:href="#b" transform="matrix(1,0,0,1,660,140) translate(61.75308641975309 62.97222222222222)"/><path d="M740 260v1040" fill="none"/><path d="M740 260v9.9m0 9.9v19.82m0 9.9v19.8m0 9.92v19.8m0 9.9v19.82m0 9.9v19.82m0 9.9v19.8m0 9.92v19.8m0 9.9v19.82m0 9.9v19.8m0 9.92v19.8m0 9.9v19.82m0 9.9v19.82m0 9.9v19.8m0 9.92v19.8m0 9.9v19.82m0 9.9v19.8m0 9.92v19.8m0 9.9v19.82m0 9.9v19.82m0 9.9v19.8m0 9.92v19.8m0 9.9v19.82m0 9.9v19.8m0 9.92v19.8m0 9.9v19.82m0 9.9v19.82m0 9.9v19.8m0 9.92v19.8m0 9.9v19.82m0 9.9v19.8m0 9.92v19.8m0 9.9v19.82m0 9.9v19.82m0 9.9v19.8m0 9.92v9.9" stroke="#999" stroke-width="2" fill="none"/><path d="M200 1305c0-2.76 2.24-5 5-5h70c2.76 0 5 2.24 5 5v70c0 2.76-2.24 5-5 5h-70c-2.76 0-5-2.24-5-5z" fill="none"/><path d="M208 1308l64 64m0-64l-64 64" stroke="#666" stroke-width="8" fill="none"/><path d="M720 325c0-2.76 2.24-5 5-5h30c2.76 0 5 2.24 5 5v950c0 2.76-2.24 5-5 5h-30c-2.76 0-5-2.24-5-5z" stroke="#666" stroke-width="2" fill="#f2f2f2"/><path d="M-60 360h280" stroke="#999" stroke-width="2" fill="none"/><path d="M220 360l-14.27 4.64v-9.28z" fill="#999"/><path d="M220 358.95v2.1L204.73 366v-12zm-13.27 4.3l10.03-3.25-10.03-3.26z" fill="#999"/><use xlink:href="#c" transform="matrix(1,0,0,1,34.64999999999999,334.40000000000066) translate(0 14.4)"/><use xlink:href="#d" transform="matrix(1,0,0,1,34.64999999999999,334.40000000000066) translate(74.75000000000001 14.4)"/><path d="M700 1305c0-2.76 2.24-5 5-5h70c2.76 0 5 2.24 5 5v70c0 2.76-2.24 5-5 5h-70c-2.76 0-5-2.24-5-5z" fill="none"/><path d="M708 1308l64 64m0-64l-64 64" stroke="#666" stroke-width="8" fill="none"/><path d="M1160 145c0-2.76 2.24-5 5-5h150c2.76 0 5 2.24 5 5v110c0 2.76-2.24 5-5 5h-150c-2.76 0-5-2.24-5-5z" stroke="#666" stroke-width="2" fill="#5abaa7"/><use xlink:href="#e" transform="matrix(1,0,0,1,1160,140) translate(59.28395061728395 62.97222222222222)"/><path d="M1240 260v1040" fill="none"/><path d="M1240 260v9.9m0 9.9v19.82m0 9.9v19.8m0 9.92v19.8m0 9.9v19.82m0 9.9v19.82m0 9.9v19.8m0 9.92v19.8m0 9.9v19.82m0 9.9v19.8m0 9.92v19.8m0 9.9v19.82m0 9.9v19.82m0 9.9v19.8m0 9.92v19.8m0 9.9v19.82m0 9.9v19.8m0 9.92v19.8m0 9.9v19.82m0 9.9v19.82m0 9.9v19.8m0 9.92v19.8m0 9.9v19.82m0 9.9v19.8m0 9.92v19.8m0 9.9v19.82m0 9.9v19.82m0 9.9v19.8m0 9.92v19.8m0 9.9v19.82m0 9.9v19.8m0 9.92v19.8m0 9.9v19.82m0 9.9v19.82m0 9.9v19.8m0 9.92v9.9" stroke="#999" stroke-width="2" fill="none"/><path d="M1220 325c0-2.76 2.24-5 5-5h30c2.76 0 5 2.24 5 5v950c0 2.76-2.24 5-5 5h-30c-2.76 0-5-2.24-5-5z" stroke="#666" stroke-width="2" fill="#f2f2f2"/><path d="M1200 1305c0-2.76 2.24-5 5-5h70c2.76 0 5 2.24 5 5v70c0 2.76-2.24 5-5 5h-70c-2.76 0-5-2.24-5-5z" fill="none"/><path d="M1208 1308l64 64m0-64l-64 64" stroke="#666" stroke-width="8" fill="none"/><path d="M640 260h192l8 8v32H640z" stroke="#d9be60" stroke-width="2" fill="#ffdf71"/><path d="M832 260l8 8h-8z" fill="#d9be60"/><use xlink:href="#f" transform="matrix(1,0,0,1,640,260) translate(29.630000000000003 24.4)"/><use xlink:href="#g" transform="matrix(1,0,0,1,640,260) translate(80.63 24.4)"/><use xlink:href="#h" transform="matrix(1,0,0,1,640,260) translate(107.53 24.4)"/><path d="M761 484.4h458" stroke="#999" stroke-width="2" fill="none"/><path d="M761 485.4h-1v-2h1zM1219 484.4l-14.27 4.63v-9.27z" fill="#999"/><path d="M1220 483.67v1.45l-16.27 5.3v-12.04zm-14.27 3.98l10.03-3.26-10.03-3.26z" fill="#999"/><use xlink:href="#i" transform="matrix(1,0,0,1,923.65,458.7943389424267) translate(0.0049999999999954525 14.4)"/><use xlink:href="#j" transform="matrix(1,0,0,1,923.65,458.7943389424267) translate(116.75500000000001 14.4)"/><path d="M1640 145c0-2.76 2.24-5 5-5h150c2.76 0 5 2.24 5 5v110c0 2.76-2.24 5-5 5h-150c-2.76 0-5-2.24-5-5z" stroke="#666" stroke-width="2" fill="#c92d39"/><use xlink:href="#k" transform="matrix(1,0,0,1,1640,140) translate(48.44444444444444 62.97222222222222)"/><path d="M1720 260v1040" fill="none"/><path d="M1720 260v9.9m0 9.9v19.82m0 9.9v19.8m0 9.92v19.8m0 9.9v19.82m0 9.9v19.82m0 9.9v19.8m0 9.92v19.8m0 9.9v19.82m0 9.9v19.8m0 9.92v19.8m0 9.9v19.82m0 9.9v19.82m0 9.9v19.8m0 9.92v19.8m0 9.9v19.82m0 9.9v19.8m0 9.92v19.8m0 9.9v19.82m0 9.9v19.82m0 9.9v19.8m0 9.92v19.8m0 9.9v19.82m0 9.9v19.8m0 9.92v19.8m0 9.9v19.82m0 9.9v19.82m0 9.9v19.8m0 9.92v19.8m0 9.9v19.82m0 9.9v19.8m0 9.92v19.8m0 9.9v19.82m0 9.9v19.82m0 9.9v19.8m0 9.92v9.9" stroke="#999" stroke-width="2" fill="none"/><path d="M1700 325c0-2.76 2.24-5 5-5h30c2.76 0 5 2.24 5 5v950c0 2.76-2.24 5-5 5h-30c-2.76 0-5-2.24-5-5z" stroke="#666" stroke-width="2" fill="#f2f2f2"/><path d="M1680 1305c0-2.76 2.24-5 5-5h70c2.76 0 5 2.24 5 5v70c0 2.76-2.24 5-5 5h-70c-2.76 0-5-2.24-5-5z" fill="none"/><path d="M1688 1308l64 64m0-64l-64 64" stroke="#666" stroke-width="8" fill="none"/><path d="M1261 560h438" stroke="#999" stroke-width="2" fill="none"/><path d="M1261 561h-1v-2h1zM1699 560l-14.27 4.64v-9.28z" fill="#999"/><path d="M1700 559.27v1.46l-16.27 5.28v-12zm-14.27 4l10.03-3.27-10.03-3.26z" fill="#999"/><use xlink:href="#l" transform="matrix(1,0,0,1,1363.85,534.4000000000001) translate(0.0049999999999954525 14.4)"/><use xlink:href="#m" transform="matrix(1,0,0,1,1363.85,534.4000000000001) translate(131.805 14.4)"/><use xlink:href="#n" transform="matrix(1,0,0,1,1363.85,534.4000000000001) translate(150.455 14.4)"/><use xlink:href="#o" transform="matrix(1,0,0,1,1363.85,534.4000000000001) translate(192.35500000000002 14.4)"/><path d="M1699 641.72h-438" fill="none"/><path d="M1699 641.72h-9.73m-9.74 0h-19.46m-9.74 0h-19.46m-9.74 0h-19.46m-9.74 0h-19.46m-9.74 0h-19.46m-9.74 0h-19.46m-9.74 0h-19.46m-9.74 0h-19.46m-9.74 0h-19.46m-9.74 0h-19.46m-9.74 0h-19.46m-9.74 0h-19.46m-9.74 0h-19.46m-9.74 0h-19.46m-9.74 0H1261" stroke="#999" stroke-width="2" fill="none"/><path d="M1700 642.72h-1v-2h1zM1275.27 646.35l-14.27-4.63 14.27-4.64z" fill="#999"/><path d="M1276.27 647.73l-16.27-5.28V641l16.27-5.3zm-12.03-6l10.03 3.25v-6.52z" fill="#999"/><use xlink:href="#p" transform="matrix(1,0,0,1,1398.725,616.1188818442834) translate(0 14.4)"/><use xlink:href="#q" transform="matrix(1,0,0,1,1398.725,616.1188818442834) translate(73.8 14.4)"/><path d="M1120 425c0-2.76 2.24-5 5-5h90c2.76 0 5 2.24 5 5v10c0 2.76-1.58 6.58-3.54 8.54l-2.92 2.92c-1.96 1.96-5.78 3.54-8.54 3.54h-80c-2.76 0-5-2.24-5-5z" fill="#fff"/><path d="M1120 425c0-2.76 2.24-5 5-5h750c2.76 0 5 2.24 5 5v270c0 2.76-2.24 5-5 5h-750c-2.76 0-5-2.24-5-5z" stroke="#666" stroke-width="2" fill="none"/><path d="M1220 420v20l-10 10h-90" stroke="#666" stroke-width="2" fill="#fff"/><use xlink:href="#r" transform="matrix(1,0,0,1,1128,420) translate(-1.4249999999999972 18.6)"/><use xlink:href="#s" transform="matrix(1,0,0,1,1132,458) translate(27.5 18.6)"/><path d="M780 500h260l20 20v80H780z" stroke="#d9be60" stroke-width="2" fill="#ffdf71"/><path d="M1040 500l20 20h-20z" fill="#d9be60"/><use xlink:href="#t" transform="matrix(1,0,0,1,780,500) translate(21.68 19.41)"/><use xlink:href="#u" transform="matrix(1,0,0,1,780,500) translate(50.68 19.41)"/><use xlink:href="#v" transform="matrix(1,0,0,1,780,500) translate(117.58 19.41)"/><use xlink:href="#w" transform="matrix(1,0,0,1,780,500) translate(213.38 19.41)"/><use xlink:href="#x" transform="matrix(1,0,0,1,780,500) translate(14.529999999999982 41.01)"/><use xlink:href="#y" transform="matrix(1,0,0,1,780,500) translate(82.38 41.01)"/><use xlink:href="#z" transform="matrix(1,0,0,1,780,500) translate(126.28 41.01)"/><use xlink:href="#A" transform="matrix(1,0,0,1,780,500) translate(146.28 41.01)"/><use xlink:href="#B" transform="matrix(1,0,0,1,780,500) translate(184.13 41.01)"/><use xlink:href="#C" transform="matrix(1,0,0,1,780,500) translate(225.28 41.01)"/><use xlink:href="#D" transform="matrix(1,0,0,1,780,500) translate(255.48000000000002 41.01)"/><use xlink:href="#E" transform="matrix(1,0,0,1,780,500) translate(35.18 62.61)"/><use xlink:href="#F" transform="matrix(1,0,0,1,780,500) translate(71.13 62.61)"/><use xlink:href="#G" transform="matrix(1,0,0,1,780,500) translate(97.08 62.61)"/><use xlink:href="#H" transform="matrix(1,0,0,1,780,500) translate(174.93 62.61)"/><use xlink:href="#I" transform="matrix(1,0,0,1,780,500) translate(41.105 84.21000000000001)"/><use xlink:href="#J" transform="matrix(1,0,0,1,780,500) translate(113.00500000000001 84.21000000000001)"/><use xlink:href="#K" transform="matrix(1,0,0,1,780,500) translate(143.955 84.21000000000001)"/><path d="M1360 100h188l32 32v128h-220z" stroke="#d9be60" stroke-width="2" fill="#ffdf71"/><path d="M1548 100l32 32h-32z" fill="#d9be60"/><use xlink:href="#t" transform="matrix(1,0,0,1,1360,100) translate(27.055 39.4)"/><use xlink:href="#L" transform="matrix(1,0,0,1,1360,100) translate(56.055 39.4)"/><use xlink:href="#M" transform="matrix(1,0,0,1,1360,100) translate(135.95499999999998 39.4)"/><use xlink:href="#N" transform="matrix(1,0,0,1,1360,100) translate(16.27999999999998 61)"/><use xlink:href="#O" transform="matrix(1,0,0,1,1360,100) translate(91.03 61)"/><use xlink:href="#P" transform="matrix(1,0,0,1,1360,100) translate(111.03 61)"/><use xlink:href="#Q" transform="matrix(1,0,0,1,1360,100) translate(11.729999999999984 82.60000000000001)"/><use xlink:href="#R" transform="matrix(1,0,0,1,1360,100) translate(36.72999999999998 82.60000000000001)"/><use xlink:href="#S" transform="matrix(1,0,0,1,1360,100) translate(77.67999999999999 82.60000000000001)"/><use xlink:href="#T" transform="matrix(1,0,0,1,1360,100) translate(92.67999999999999 82.60000000000001)"/><use xlink:href="#U" transform="matrix(1,0,0,1,1360,100) translate(111.63 82.60000000000001)"/><use xlink:href="#V" transform="matrix(1,0,0,1,1360,100) translate(186.38 82.60000000000001)"/><use xlink:href="#W" transform="matrix(1,0,0,1,1360,100) translate(16.18 104.20000000000002)"/><use xlink:href="#X" transform="matrix(1,0,0,1,1360,100) translate(39.13 104.20000000000002)"/><use xlink:href="#Y" transform="matrix(1,0,0,1,1360,100) translate(80.08 104.20000000000002)"/><use xlink:href="#Z" transform="matrix(1,0,0,1,1360,100) translate(132.98000000000002 104.20000000000002)"/><use xlink:href="#aa" transform="matrix(1,0,0,1,1360,100) translate(150.93 104.20000000000002)"/><use xlink:href="#ab" transform="matrix(1,0,0,1,1360,100) translate(163.82999999999998 104.20000000000002)"/><use xlink:href="#ac" transform="matrix(1,0,0,1,1360,100) translate(178.82999999999998 104.20000000000002)"/><use xlink:href="#ad" transform="matrix(1,0,0,1,1360,100) translate(80.50500000000001 125.80000000000001)"/><path d="M1470 260v205c0 2.76-2.24 5-5 5h-275" stroke="#c92d39" stroke-width="2" fill="none"/><path d="M1190 470l14.27-4.64v9.28z" stroke="#c92d39" stroke-width="2" fill="#c92d39"/><path d="M540 405c0-2.76 2.24-5 5-5h90c2.76 0 5 2.24 5 5v10c0 2.76-1.58 6.58-3.54 8.54l-2.92 2.92c-1.96 1.96-5.78 3.54-8.54 3.54h-80c-2.76 0-5-2.24-5-5z" fill="#fff"/><path d="M640 400v20l-10 10h-90" stroke="#666" stroke-width="2" fill="none"/><path d="M540 405c0-2.76 2.24-5 5-5h1430c2.76 0 5 2.24 5 5v710c0 2.76-2.24 5-5 5H545c-2.76 0-5-2.24-5-5zM540 1015h20m15 0h20m15 0h20m15 0h20m15 0h20m15 0h20m15 0h20m15 0h20m15 0h20m15 0h20m15 0h20m15 0h20m15 0h20m15 0h20m15 0h20m15 0h20m15 0h20m15 0h20m15 0h20m15 0h20m15 0h20m15 0h20m15 0h20m15 0h20m15 0h20m15 0h20m15 0h20m15 0h20m15 0h20m15 0h20m15 0h20m15 0h20m15 0h20m15 0h20m15 0h20m15 0h20m15 0h20m15 0h20m15 0h20m15 0h20m15 0h20m15 0h5" stroke="#666" stroke-width="2" fill="none"/><g><use xlink:href="#r" transform="matrix(1,0,0,1,548,400) translate(-1.4249999999999972 18.6)"/></g><g><use xlink:href="#ae" transform="matrix(1,0,0,1,552,438) translate(23.549999999999997 14.4)"/><use xlink:href="#af" transform="matrix(1,0,0,1,552,438) translate(6.074999999999996 36)"/><use xlink:href="#ag" transform="matrix(1,0,0,1,552,438) translate(32.074999999999996 36)"/></g><g><use xlink:href="#ah" transform="matrix(1,0,0,1,552,1023) translate(17.525 18.6)"/></g><path d="M260 380h459" stroke="#999" stroke-width="2" fill="none"/><path d="M719 380l-14.27 4.64v-9.28z" stroke="#999" stroke-width="2" fill="#999"/><g><use xlink:href="#ai" transform="matrix(1,0,0,1,417.625,354.4) translate(0 14.4)"/><use xlink:href="#d" transform="matrix(1,0,0,1,417.625,354.4) translate(127.80000000000001 14.4)"/></g><path d="M552.2 488.96h144l16 16v64h-160z" stroke="#d9be60" stroke-width="2" fill="#ffdf71"/><path d="M696.2 488.96l16 16h-16z" fill="#d9be60"/><g><use xlink:href="#aj" transform="matrix(1,0,0,1,552.2039828882171,488.95564242497437) translate(15.129999999999997 21.9)"/><use xlink:href="#ak" transform="matrix(1,0,0,1,552.2039828882171,488.95564242497437) translate(44.129999999999995 21.9)"/><use xlink:href="#Z" transform="matrix(1,0,0,1,552.2039828882171,488.95564242497437) translate(96.97999999999999 21.9)"/><use xlink:href="#al" transform="matrix(1,0,0,1,552.2039828882171,488.95564242497437) translate(114.93 21.9)"/><use xlink:href="#am" transform="matrix(1,0,0,1,552.2039828882171,488.95564242497437) translate(16.854999999999997 43.5)"/><use xlink:href="#an" transform="matrix(1,0,0,1,552.2039828882171,488.95564242497437) translate(39.805 43.5)"/><use xlink:href="#ao" transform="matrix(1,0,0,1,552.2039828882171,488.95564242497437) translate(70.755 43.5)"/><use xlink:href="#ap" transform="matrix(1,0,0,1,552.2039828882171,488.95564242497437) translate(126.705 43.5)"/><use xlink:href="#aq" transform="matrix(1,0,0,1,552.2039828882171,488.95564242497437) translate(7.15500000000001 65.10000000000001)"/><use xlink:href="#ar" transform="matrix(1,0,0,1,552.2039828882171,488.95564242497437) translate(32.15500000000001 65.10000000000001)"/><use xlink:href="#as" transform="matrix(1,0,0,1,552.2039828882171,488.95564242497437) translate(47.15500000000001 65.10000000000001)"/><use xlink:href="#at" transform="matrix(1,0,0,1,552.2039828882171,488.95564242497437) translate(104.00500000000001 65.10000000000001)"/><use xlink:href="#au" transform="matrix(1,0,0,1,552.2039828882171,488.95564242497437) translate(133.905 65.10000000000001)"/></g><path d="M719 1075.03H261" fill="none"/><path d="M719 1075.03h-10.18m-10.18 0H678.3m-10.2 0h-20.34m-10.18 0h-20.36m-10.18 0H586.7m-10.2 0h-20.34m-10.18 0h-20.36m-10.18 0H495.1m-10.2 0h-20.34m-10.18 0h-20.36m-10.18 0H403.5m-10.2 0h-20.34m-10.18 0h-20.36m-10.18 0H311.9m-10.2 0h-20.34m-10.18 0H261" stroke="#999" stroke-width="2" fill="none"/><path d="M261 1075.03l14.27-4.63v9.27z" stroke="#999" stroke-width="2" fill="#999"/><g><use xlink:href="#p" transform="matrix(1,0,0,1,314.94771919818106,1049.4326375819956) translate(0 14.4)"/><use xlink:href="#av" transform="matrix(1,0,0,1,314.94771919818106,1049.4326375819956) translate(73.8 14.4)"/><use xlink:href="#aw" transform="matrix(1,0,0,1,314.94771919818106,1049.4326375819956) translate(159.60000000000002 14.4)"/><use xlink:href="#ax" transform="matrix(1,0,0,1,314.94771919818106,1049.4326375819956) translate(175.10000000000002 14.4)"/></g><path d="M1219 723.04H761" fill="none"/><path d="M1219 723.04h-10.18m-10.18 0h-20.35m-10.2 0h-20.34m-10.18 0h-20.36m-10.18 0h-20.35m-10.2 0h-20.34m-10.18 0h-20.36m-10.18 0H995.1m-10.2 0h-20.34m-10.18 0h-20.36m-10.18 0H903.5m-10.2 0h-20.34m-10.18 0h-20.36m-10.18 0H811.9m-10.2 0h-20.34m-10.18 0H761" stroke="#999" stroke-width="2" fill="none"/><path d="M761 723.04l14.27-4.63v9.28z" stroke="#999" stroke-width="2" fill="#999"/><g><use xlink:href="#p" transform="matrix(1,0,0,1,918.225,697.4429158196965) translate(0 14.4)"/><use xlink:href="#ay" transform="matrix(1,0,0,1,918.225,697.4429158196965) translate(73.8 14.4)"/></g><path d="M719 960H261" fill="none"/><path d="M719 960h-10.18m-10.18 0H678.3m-10.2 0h-20.34m-10.18 0h-20.36m-10.18 0H586.7m-10.2 0h-20.34m-10.18 0h-20.36m-10.18 0H495.1m-10.2 0h-20.34m-10.18 0h-20.36m-10.18 0H403.5m-10.2 0h-20.34m-10.18 0h-20.36m-10.18 0H311.9m-10.2 0h-20.34m-10.18 0H261" stroke="#999" stroke-width="2" fill="none"/><path d="M261 960l14.27-4.64v9.28z" stroke="#999" stroke-width="2" fill="#999"/><g><use xlink:href="#p" transform="matrix(1,0,0,1,315.5,934.4) translate(0 14.4)"/><use xlink:href="#av" transform="matrix(1,0,0,1,315.5,934.4) translate(73.8 14.4)"/><use xlink:href="#aw" transform="matrix(1,0,0,1,315.5,934.4) translate(159.60000000000002 14.4)"/><use xlink:href="#az" transform="matrix(1,0,0,1,315.5,934.4) translate(175.10000000000002 14.4)"/></g><path d="M761 763.33h44c2.76 0 5 2.24 5 5v42c0 2.76-2.24 5-5 5h-44" stroke="#999" stroke-width="2" fill="none"/><path d="M761 764.33h-1v-2h1zM775.27 819.97L761 815.33l14.27-4.63z" fill="#999"/><path d="M776.27 821.35l-16.27-5.3v-1.44l16.27-5.28zm-12.03-6.02l10.03 3.26v-6.53z" fill="#999"/><g><use xlink:href="#aA" transform="matrix(1,0,0,1,818,778.5333333333334) translate(0 14.4)"/><use xlink:href="#aB" transform="matrix(1,0,0,1,818,778.5333333333334) translate(162.55 14.4)"/><use xlink:href="#aC" transform="matrix(1,0,0,1,818,778.5333333333334) translate(181.20000000000002 14.4)"/></g><path d="M820 820h228l12 12v48H820z" stroke="#d9be60" stroke-width="2" fill="#ffdf71"/><path d="M1048 820l12 12h-12z" fill="#d9be60"/><g><use xlink:href="#t" transform="matrix(1,0,0,1,820,820) translate(13.430000000000001 19.41)"/><use xlink:href="#aD" transform="matrix(1,0,0,1,820,820) translate(42.43 19.41)"/><use xlink:href="#aE" transform="matrix(1,0,0,1,820,820) translate(79.38000000000001 19.41)"/><use xlink:href="#aF" transform="matrix(1,0,0,1,820,820) translate(94.38000000000001 19.41)"/><use xlink:href="#aG" transform="matrix(1,0,0,1,820,820) translate(133.28000000000003 19.41)"/><use xlink:href="#aH" transform="matrix(1,0,0,1,820,820) translate(175.63 19.41)"/><use xlink:href="#aI" transform="matrix(1,0,0,1,820,820) translate(200.63 19.41)"/><use xlink:href="#U" transform="matrix(1,0,0,1,820,820) translate(25.20499999999999 41.01)"/><use xlink:href="#aJ" transform="matrix(1,0,0,1,820,820) translate(99.95500000000001 41.01)"/><use xlink:href="#aK" transform="matrix(1,0,0,1,820,820) translate(146.85500000000002 41.01)"/><use xlink:href="#aL" transform="matrix(1,0,0,1,820,820) translate(166.85500000000002 41.01)"/></g><path d="M219 1120.67H39.83c-.18 0-.33-.15-.33-.34 0-.18-.15-.33-.33-.33H-140" fill="none"/><path d="M219 1120.67h-9.95m-9.96 0h-19.9m-9.97 0h-19.9m-9.96 0h-19.9m-9.96 0H89.6m-9.95 0h-19.9m-9.96 0h-9.97l-.23-.1-.1-.24-.1-.23-.23-.1H29.2m-9.94 0H-.64m-9.96 0h-19.9m-9.96 0h-19.9m-9.96 0h-19.9m-9.97 0h-19.9m-9.95 0H-140" stroke="#999" stroke-width="2" fill="none"/><path d="M220 1121.67h-1v-2h1z" fill="#999"/><path d="M-140 1120l14.27-4.64v9.28z" stroke="#999" stroke-width="2" fill="#999"/><g><use xlink:href="#aM" transform="matrix(1,0,0,1,-0.9208594073125127,1124.6640246069292) translate(0 14.4)"/></g><path d="M-100 960h252l28 28v112h-280z" stroke="#d9be60" stroke-width="2" fill="#ffdf71"/><path d="M152 960l28 28h-28z" fill="#d9be60"/><g><use xlink:href="#aN" transform="matrix(1,0,0,1,-100,960) translate(24.15500000000001 53.775)"/><use xlink:href="#aO" transform="matrix(1,0,0,1,-100,960) translate(87.055 53.775)"/><use xlink:href="#aP" transform="matrix(1,0,0,1,-100,960) translate(112.055 53.775)"/><use xlink:href="#aH" transform="matrix(1,0,0,1,-100,960) translate(141.005 53.775)"/><use xlink:href="#aQ" transform="matrix(1,0,0,1,-100,960) translate(166.00500000000002 53.775)"/><use xlink:href="#Z" transform="matrix(1,0,0,1,-100,960) translate(223.955 53.775)"/><use xlink:href="#al" transform="matrix(1,0,0,1,-100,960) translate(241.905 53.775)"/><use xlink:href="#aR" transform="matrix(1,0,0,1,-100,960) translate(7.804999999999987 75.375)"/><use xlink:href="#ab" transform="matrix(1,0,0,1,-100,960) translate(67.655 75.375)"/><use xlink:href="#aS" transform="matrix(1,0,0,1,-100,960) translate(82.655 75.375)"/><use xlink:href="#aT" transform="matrix(1,0,0,1,-100,960) translate(151.305 75.375)"/><use xlink:href="#aU" transform="matrix(1,0,0,1,-100,960) translate(186.305 75.375)"/><use xlink:href="#O" transform="matrix(1,0,0,1,-100,960) translate(239.25500000000002 75.375)"/><use xlink:href="#aV" transform="matrix(1,0,0,1,-100,960) translate(259.255 75.375)"/><use xlink:href="#aW" transform="matrix(1,0,0,1,-100,960) translate(29.25499999999999 96.97500000000001)"/><use xlink:href="#aX" transform="matrix(1,0,0,1,-100,960) translate(66.155 96.97500000000001)"/><use xlink:href="#aY" transform="matrix(1,0,0,1,-100,960) translate(106.005 96.97500000000001)"/><use xlink:href="#aZ" transform="matrix(1,0,0,1,-100,960) translate(148.85500000000002 96.97500000000001)"/><use xlink:href="#ba" transform="matrix(1,0,0,1,-100,960) translate(173.85500000000002 96.97500000000001)"/></g><defs><path fill="#333" d="M24-248c93 1 206-16 204 79-1 75-69 88-152 82V0H24v-248zm52 121c47 0 100 7 100-41 0-47-54-39-100-39v80" id="bb"/><path fill="#333" d="M24 0v-248h52v208h133V0H24" id="bc"/><path fill="#333" d="M199 0l-22-63H83L61 0H9l90-248h61L250 0h-51zm-33-102l-36-108c-10 38-24 72-36 108h72" id="bd"/><path fill="#333" d="M146-102V0H94v-102L6-248h54l60 105 60-105h54" id="be"/><path fill="#333" d="M24 0v-248h195v40H76v63h132v40H76v65h150V0H24" id="bf"/><path fill="#333" d="M240-174c0 40-23 61-54 70L253 0h-59l-57-94H76V0H24v-248c93 4 217-23 216 74zM76-134c48-2 112 12 112-38 0-48-66-32-112-35v73" id="bg"/><g id="a"><use transform="matrix(0.04938271604938272,0,0,0.04938271604938272,0,0)" xlink:href="#bb"/><use transform="matrix(0.04938271604938272,0,0,0.04938271604938272,11.851851851851853,0)" xlink:href="#bc"/><use transform="matrix(0.04938271604938272,0,0,0.04938271604938272,22.666666666666668,0)" xlink:href="#bd"/><use transform="matrix(0.04938271604938272,0,0,0.04938271604938272,33.827160493827165,0)" xlink:href="#be"/><use transform="matrix(0.04938271604938272,0,0,0.04938271604938272,45.67901234567902,0)" xlink:href="#bf"/><use transform="matrix(0.04938271604938272,0,0,0.04938271604938272,57.53086419753087,0)" xlink:href="#bg"/></g><path fill="#333" d="M169-182c-1-43-94-46-97-3 18 66 151 10 154 114 3 95-165 93-204 36-6-8-10-19-12-30l50-8c3 46 112 56 116 5-17-69-150-10-154-114-4-87 153-88 188-35 5 8 8 18 10 28" id="bh"/><g id="b"><use transform="matrix(0.04938271604938272,0,0,0.04938271604938272,0,0)" xlink:href="#bh"/><use transform="matrix(0.04938271604938272,0,0,0.04938271604938272,11.851851851851853,0)" xlink:href="#bf"/><use transform="matrix(0.04938271604938272,0,0,0.04938271604938272,23.703703703703706,0)" xlink:href="#bd"/></g><path fill="#333" d="M137-138c1-29-70-34-71-4 15 46 118 7 119 86 1 83-164 76-172 9l43-7c4 19 20 25 44 25 33 8 57-30 24-41C81-84 22-81 20-136c-2-80 154-74 161-7" id="bi"/><path fill="#333" d="M114-157C55-157 80-60 75 0H25v-261h50l-1 109c12-26 28-41 61-42 86-1 58 113 63 194h-50c-7-57 23-157-34-157" id="bj"/><path fill="#333" d="M110-194c64 0 96 36 96 99 0 64-35 99-97 99-61 0-95-36-95-99 0-62 34-99 96-99zm-1 164c35 0 45-28 45-65 0-40-10-65-43-65-34 0-45 26-45 65 0 36 10 65 43 65" id="bk"/><path fill="#333" d="M115-3C79 11 28 4 28-45v-112H4v-33h27l15-45h31v45h36v33H77v99c-1 23 16 31 38 25v30" id="bl"/><path fill="#333" d="M67-93c0 74 22 123 53 168H70C40 30 18-18 18-93s22-123 52-168h50c-32 44-53 94-53 168" id="bm"/><path fill="#333" d="M144 0l-44-69L55 0H2l70-98-66-92h53l41 62 40-62h54l-67 91 71 99h-54" id="bn"/><path fill="#333" d="M76-54c-1 42 2 86-19 110H24C36 42 46 24 48 0H25v-54h51" id="bo"/><g id="c"><use transform="matrix(0.05,0,0,0.05,0,0)" xlink:href="#bi"/><use transform="matrix(0.05,0,0,0.05,10,0)" xlink:href="#bj"/><use transform="matrix(0.05,0,0,0.05,20.950000000000003,0)" xlink:href="#bk"/><use transform="matrix(0.05,0,0,0.05,31.900000000000006,0)" xlink:href="#bk"/><use transform="matrix(0.05,0,0,0.05,42.85000000000001,0)" xlink:href="#bl"/><use transform="matrix(0.05,0,0,0.05,48.80000000000001,0)" xlink:href="#bm"/><use transform="matrix(0.05,0,0,0.05,54.750000000000014,0)" xlink:href="#bn"/><use transform="matrix(0.05,0,0,0.05,64.75000000000001,0)" xlink:href="#bo"/></g><path fill="#333" d="M123 10C108 53 80 86 19 72V37c35 8 53-11 59-39L3-190h52l48 148c12-52 28-100 44-148h51" id="bp"/><path fill="#333" d="M102-93c0 74-22 123-52 168H0C30 29 54-18 53-93c0-74-22-123-53-168h50c30 45 52 94 52 168" id="bq"/><g id="d"><use transform="matrix(0.05,0,0,0.05,0,0)" xlink:href="#bp"/><use transform="matrix(0.05,0,0,0.05,10,0)" xlink:href="#bq"/></g><path fill="#333" d="M186 0v-106H76V0H24v-248h52v99h110v-99h50V0h-50" id="br"/><path fill="#333" d="M24 0v-248h52V0H24" id="bs"/><g id="e"><use transform="matrix(0.04938271604938272,0,0,0.04938271604938272,0,0)" xlink:href="#bh"/><use transform="matrix(0.04938271604938272,0,0,0.04938271604938272,11.851851851851853,0)" xlink:href="#br"/><use transform="matrix(0.04938271604938272,0,0,0.04938271604938272,24.641975308641978,0)" xlink:href="#bs"/><use transform="matrix(0.04938271604938272,0,0,0.04938271604938272,29.58024691358025,0)" xlink:href="#bb"/></g><path d="M67-125c0 54 23 88 75 88 28 0 53-7 68-21v-34h-60v-39h108v91C232-14 192 4 140 4 58 4 20-42 15-125 8-236 126-280 215-234c19 10 29 26 37 47l-47 15c-11-23-29-39-63-39-53 1-75 33-75 86" id="bt"/><path d="M135-150c-39-12-60 13-60 57V0H25l-1-190h47c2 13-1 29 3 40 6-28 27-53 61-41v41" id="bu"/><path d="M25-224v-37h50v37H25zM25 0v-190h50V0H25" id="bv"/><path d="M25 0v-261h50V0H25" id="bw"/><path d="M185-48c-13 30-37 53-82 52C43 2 14-33 14-96s30-98 90-98c62 0 83 45 84 108H66c0 31 8 55 39 56 18 0 30-7 34-22zm-45-69c5-46-57-63-70-21-2 6-4 13-4 21h74" id="bx"/><g id="f"><use transform="matrix(0.05,0,0,0.05,0,0)" xlink:href="#bt"/><use transform="matrix(0.05,0,0,0.05,14,0)" xlink:href="#bu"/><use transform="matrix(0.05,0,0,0.05,21,0)" xlink:href="#bv"/><use transform="matrix(0.05,0,0,0.05,26,0)" xlink:href="#bw"/><use transform="matrix(0.05,0,0,0.05,31,0)" xlink:href="#bw"/><use transform="matrix(0.05,0,0,0.05,36,0)" xlink:href="#bx"/></g><path d="M88-194c31-1 46 15 58 34l-1-101h50l1 261h-48c-2-10 0-23-3-31C134-8 116 4 84 4 32 4 16-41 15-95c0-56 19-97 73-99zm17 164c33 0 40-30 41-66 1-37-9-64-41-64s-38 30-39 65c0 43 13 65 39 65" id="by"/><path d="M85 4C-2 5 27-109 22-190h50c7 57-23 150 33 157 60-5 35-97 40-157h50l1 190h-47c-2-12 1-28-3-38-12 25-28 42-61 42" id="bz"/><g id="g"><use transform="matrix(0.05,0,0,0.05,0,0)" xlink:href="#by"/><use transform="matrix(0.05,0,0,0.05,10.950000000000001,0)" xlink:href="#bz"/></g><path d="M25-224v-37h50v37H25zM75 22c2 45-34 59-81 51V38c22 5 31-5 31-27v-201h50V22" id="bA"/><path d="M110-194c64 0 96 36 96 99 0 64-35 99-97 99-61 0-95-36-95-99 0-62 34-99 96-99zm-1 164c35 0 45-28 45-65 0-40-10-65-43-65-34 0-45 26-45 65 0 36 10 65 43 65" id="bB"/><g id="h"><use transform="matrix(0.05,0,0,0.05,0,0)" xlink:href="#bA"/><use transform="matrix(0.05,0,0,0.05,5,0)" xlink:href="#bB"/><use transform="matrix(0.05,0,0,0.05,15.950000000000001,0)" xlink:href="#bz"/><use transform="matrix(0.05,0,0,0.05,26.900000000000002,0)" xlink:href="#bx"/><use transform="matrix(0.05,0,0,0.05,36.900000000000006,0)" xlink:href="#bz"/><use transform="matrix(0.05,0,0,0.05,47.85000000000001,0)" xlink:href="#bu"/></g><path fill="#333" d="M190-63c-7 42-38 67-86 67-59 0-84-38-90-98-12-110 154-137 174-36l-49 2c-2-19-15-32-35-32-30 0-35 28-38 64-6 74 65 87 74 30" id="bC"/><path fill="#333" d="M185-48c-13 30-37 53-82 52C43 2 14-33 14-96s30-98 90-98c62 0 83 45 84 108H66c0 31 8 55 39 56 18 0 30-7 34-22zm-45-69c5-46-57-63-70-21-2 6-4 13-4 21h74" id="bD"/><path fill="#333" d="M147 0L96-86 75-71V0H25v-261h50v150l67-79h53l-66 74L201 0h-54" id="bE"/><g id="i"><use transform="matrix(0.05,0,0,0.05,0,0)" xlink:href="#bC"/><use transform="matrix(0.05,0,0,0.05,10,0)" xlink:href="#bj"/><use transform="matrix(0.05,0,0,0.05,20.950000000000003,0)" xlink:href="#bD"/><use transform="matrix(0.05,0,0,0.05,30.950000000000003,0)" xlink:href="#bC"/><use transform="matrix(0.05,0,0,0.05,40.95,0)" xlink:href="#bE"/><use transform="matrix(0.05,0,0,0.05,50.95,0)" xlink:href="#bh"/><use transform="matrix(0.05,0,0,0.05,62.95,0)" xlink:href="#bj"/><use transform="matrix(0.05,0,0,0.05,73.9,0)" xlink:href="#bk"/><use transform="matrix(0.05,0,0,0.05,84.85000000000001,0)" xlink:href="#bl"/><use transform="matrix(0.05,0,0,0.05,90.80000000000001,0)" xlink:href="#bm"/><use transform="matrix(0.05,0,0,0.05,96.75000000000001,0)" xlink:href="#bn"/><use transform="matrix(0.05,0,0,0.05,106.75,0)" xlink:href="#bo"/></g><g id="j"><use transform="matrix(0.05,0,0,0.05,0,0)" xlink:href="#bp"/><use transform="matrix(0.05,0,0,0.05,10,0)" xlink:href="#bq"/></g><path fill="#333" d="M140-251c80 0 125 45 125 126S219 4 139 4C58 4 15-44 15-125s44-126 125-126zm-1 214c52 0 73-35 73-88 0-50-21-86-72-86-52 0-73 35-73 86s22 88 72 88" id="bF"/><path fill="#333" d="M67-125c0 53 21 87 73 88 37 1 54-22 65-47l45 17C233-25 199 4 140 4 58 4 20-42 15-125 8-235 124-281 211-232c18 10 29 29 36 50l-46 12c-8-25-30-41-62-41-52 0-71 34-72 86" id="bG"/><g id="k"><use transform="matrix(0.04938271604938272,0,0,0.04938271604938272,0,0)" xlink:href="#bf"/><use transform="matrix(0.04938271604938272,0,0,0.04938271604938272,11.851851851851853,0)" xlink:href="#bb"/><use transform="matrix(0.04938271604938272,0,0,0.04938271604938272,23.703703703703706,0)" xlink:href="#bF"/><use transform="matrix(0.04938271604938272,0,0,0.04938271604938272,37.53086419753087,0)" xlink:href="#bG"/><use transform="matrix(0.04938271604938272,0,0,0.04938271604938272,50.320987654320994,0)" xlink:href="#br"/></g><path fill="#333" d="M133-34C117-15 103 5 69 4 32 3 11-16 11-54c-1-60 55-63 116-61 1-26-3-47-28-47-18 1-26 9-28 27l-52-2c7-38 36-58 82-57s74 22 75 68l1 82c-1 14 12 18 25 15v27c-30 8-71 5-69-32zm-48 3c29 0 43-24 42-57-32 0-66-3-65 30 0 17 8 27 23 27" id="bH"/><path fill="#333" d="M24-248c120-7 223 5 221 122C244-46 201 0 124 0H24v-248zM76-40c74 7 117-18 117-86 0-67-45-88-117-82v168" id="bI"/><path fill="#333" d="M220-157c-53 9-28 100-34 157h-49v-107c1-27-5-49-29-50C55-147 81-57 75 0H25l-1-190h47c2 12-1 28 3 38 10-53 101-56 108 0 13-22 24-43 59-42 82 1 51 116 57 194h-49v-107c-1-25-5-48-29-50" id="bJ"/><path fill="#333" d="M195-6C206 82 75 100 31 46c-4-6-6-13-8-21l49-6c3 16 16 24 34 25 40 0 42-37 40-79-11 22-30 35-61 35-53 0-70-43-70-97 0-56 18-96 73-97 30 0 46 14 59 34l2-30h47zm-90-29c32 0 41-27 41-63 0-35-9-62-40-62-32 0-39 29-40 63 0 36 9 62 39 62" id="bK"/><g id="l"><use transform="matrix(0.05,0,0,0.05,0,0)" xlink:href="#bl"/><use transform="matrix(0.05,0,0,0.05,5.95,0)" xlink:href="#bH"/><use transform="matrix(0.05,0,0,0.05,15.949999999999998,0)" xlink:href="#bE"/><use transform="matrix(0.05,0,0,0.05,25.950000000000003,0)" xlink:href="#bD"/><use transform="matrix(0.05,0,0,0.05,35.95,0)" xlink:href="#bI"/><use transform="matrix(0.05,0,0,0.05,48.900000000000006,0)" xlink:href="#bH"/><use transform="matrix(0.05,0,0,0.05,58.900000000000006,0)" xlink:href="#bJ"/><use transform="matrix(0.05,0,0,0.05,74.9,0)" xlink:href="#bH"/><use transform="matrix(0.05,0,0,0.05,84.9,0)" xlink:href="#bK"/><use transform="matrix(0.05,0,0,0.05,95.85000000000001,0)" xlink:href="#bD"/><use transform="matrix(0.05,0,0,0.05,105.85000000000001,0)" xlink:href="#bm"/><use transform="matrix(0.05,0,0,0.05,111.80000000000001,0)" xlink:href="#bn"/><use transform="matrix(0.05,0,0,0.05,121.80000000000001,0)" xlink:href="#bo"/></g><g id="m"><use transform="matrix(0.05,0,0,0.05,0,0)" xlink:href="#bp"/><use transform="matrix(0.05,0,0,0.05,8.65,0)" xlink:href="#bo"/></g><path fill="#333" d="M25-224v-37h50v37H25zM25 0v-190h50V0H25" id="bL"/><g id="n"><use transform="matrix(0.05,0,0,0.05,0,0)" xlink:href="#bj"/><use transform="matrix(0.05,0,0,0.05,10.950000000000001,0)" xlink:href="#bL"/><use transform="matrix(0.05,0,0,0.05,15.950000000000001,0)" xlink:href="#bl"/><use transform="matrix(0.05,0,0,0.05,21.900000000000002,0)" xlink:href="#bi"/><use transform="matrix(0.05,0,0,0.05,31.900000000000002,0)" xlink:href="#bo"/></g><path fill="#333" d="M12 0v-35l95-120H19v-35h142v35L67-36h103V0H12" id="bM"/><g id="o"><use transform="matrix(0.05,0,0,0.05,0,0)" xlink:href="#bi"/><use transform="matrix(0.05,0,0,0.05,10,0)" xlink:href="#bL"/><use transform="matrix(0.05,0,0,0.05,15,0)" xlink:href="#bM"/><use transform="matrix(0.05,0,0,0.05,24,0)" xlink:href="#bD"/><use transform="matrix(0.05,0,0,0.05,34,0)" xlink:href="#bq"/></g><path fill="#333" d="M135-194c52 0 70 43 70 98 0 56-19 99-73 100-30 1-46-15-58-35L72 0H24l1-261h50v104c11-23 29-37 60-37zM114-30c31 0 40-27 40-66 0-37-7-63-39-63s-41 28-41 65c0 36 8 64 40 64" id="bN"/><path fill="#333" d="M25 0v-261h50V0H25" id="bO"/><path fill="#333" d="M135-194c87-1 58 113 63 194h-50c-7-57 23-157-34-157-59 0-34 97-39 157H25l-1-190h47c2 12-1 28 3 38 12-26 28-41 61-42" id="bP"/><g id="p"><use transform="matrix(0.05,0,0,0.05,0,0)" xlink:href="#bN"/><use transform="matrix(0.05,0,0,0.05,10.950000000000001,0)" xlink:href="#bk"/><use transform="matrix(0.05,0,0,0.05,21.900000000000002,0)" xlink:href="#bk"/><use transform="matrix(0.05,0,0,0.05,32.85,0)" xlink:href="#bO"/><use transform="matrix(0.05,0,0,0.05,37.85,0)" xlink:href="#bD"/><use transform="matrix(0.05,0,0,0.05,47.85,0)" xlink:href="#bH"/><use transform="matrix(0.05,0,0,0.05,57.85,0)" xlink:href="#bP"/></g><path fill="#333" d="M88-194c31-1 46 15 58 34l-1-101h50l1 261h-48c-2-10 0-23-3-31C134-8 116 4 84 4 32 4 16-41 15-95c0-56 19-97 73-99zm17 164c33 0 40-30 41-66 1-37-9-64-41-64s-38 30-39 65c0 43 13 65 39 65" id="bQ"/><path fill="#333" d="M231 0h-52l-39-155L100 0H48L-1-190h46L77-45c9-52 24-97 36-145h53l37 145 32-145h46" id="bR"/><g id="q"><use transform="matrix(0.05,0,0,0.05,0,0)" xlink:href="#bQ"/><use transform="matrix(0.05,0,0,0.05,10.950000000000001,0)" xlink:href="#bD"/><use transform="matrix(0.05,0,0,0.05,20.950000000000003,0)" xlink:href="#bH"/><use transform="matrix(0.05,0,0,0.05,30.950000000000003,0)" xlink:href="#bl"/><use transform="matrix(0.05,0,0,0.05,36.900000000000006,0)" xlink:href="#bj"/><use transform="matrix(0.05,0,0,0.05,47.85000000000001,0)" xlink:href="#bN"/><use transform="matrix(0.05,0,0,0.05,58.80000000000001,0)" xlink:href="#bO"/><use transform="matrix(0.05,0,0,0.05,63.80000000000001,0)" xlink:href="#bk"/><use transform="matrix(0.05,0,0,0.05,74.75000000000001,0)" xlink:href="#bR"/></g><path fill="#333" d="M205 0l-28-72H64L36 0H1l101-248h38L239 0h-34zm-38-99l-47-123c-12 45-31 82-46 123h93" id="bS"/><path fill="#333" d="M24 0v-261h32V0H24" id="bT"/><path fill="#333" d="M59-47c-2 24 18 29 38 22v24C64 9 27 4 27-40v-127H5v-23h24l9-43h21v43h35v23H59v120" id="bU"/><path fill="#333" d="M100-194c63 0 86 42 84 106H49c0 40 14 67 53 68 26 1 43-12 49-29l28 8c-11 28-37 45-77 45C44 4 14-33 15-96c1-61 26-98 85-98zm52 81c6-60-76-77-97-28-3 7-6 17-6 28h103" id="bV"/><path fill="#333" d="M114-163C36-179 61-72 57 0H25l-1-190h30c1 12-1 29 2 39 6-27 23-49 58-41v29" id="bW"/><path fill="#333" d="M117-194c89-4 53 116 60 194h-32v-121c0-31-8-49-39-48C34-167 62-67 57 0H25l-1-190h30c1 10-1 24 2 32 11-22 29-35 61-36" id="bX"/><path fill="#333" d="M141-36C126-15 110 5 73 4 37 3 15-17 15-53c-1-64 63-63 125-63 3-35-9-54-41-54-24 1-41 7-42 31l-33-3c5-37 33-52 76-52 45 0 72 20 72 64v82c-1 20 7 32 28 27v20c-31 9-61-2-59-35zM48-53c0 20 12 33 32 33 41-3 63-29 60-74-43 2-92-5-92 41" id="bY"/><path fill="#333" d="M24-231v-30h32v30H24zM24 0v-190h32V0H24" id="bZ"/><path fill="#333" d="M108 0H70L1-190h34L89-25l56-165h34" id="ca"/><g id="r"><use transform="matrix(0.05,0,0,0.05,0,0)" xlink:href="#bS"/><use transform="matrix(0.05,0,0,0.05,12,0)" xlink:href="#bT"/><use transform="matrix(0.05,0,0,0.05,15.949999999999998,0)" xlink:href="#bU"/><use transform="matrix(0.05,0,0,0.05,20.95,0)" xlink:href="#bV"/><use transform="matrix(0.05,0,0,0.05,30.950000000000003,0)" xlink:href="#bW"/><use transform="matrix(0.05,0,0,0.05,36.9,0)" xlink:href="#bX"/><use transform="matrix(0.05,0,0,0.05,46.9,0)" xlink:href="#bY"/><use transform="matrix(0.05,0,0,0.05,56.900000000000006,0)" xlink:href="#bU"/><use transform="matrix(0.05,0,0,0.05,61.900000000000006,0)" xlink:href="#bZ"/><use transform="matrix(0.05,0,0,0.05,65.85,0)" xlink:href="#ca"/><use transform="matrix(0.05,0,0,0.05,74.85,0)" xlink:href="#bV"/></g><path fill="#333" d="M26 75v-336h71v23H56V52h41v23H26" id="cb"/><path fill="#333" d="M33 0v-38h34V0H33" id="cc"/><path fill="#333" d="M3 75V52h41v-290H3v-23h71V75H3" id="cd"/><g id="s"><use transform="matrix(0.05,0,0,0.05,0,0)" xlink:href="#cb"/><use transform="matrix(0.05,0,0,0.05,5,0)" xlink:href="#cc"/><use transform="matrix(0.05,0,0,0.05,10,0)" xlink:href="#cc"/><use transform="matrix(0.05,0,0,0.05,15,0)" xlink:href="#cc"/><use transform="matrix(0.05,0,0,0.05,20,0)" xlink:href="#cd"/></g><path d="M140-251c81 0 123 46 123 126C263-46 219 4 140 4 59 4 17-45 17-125s42-126 123-126zm0 227c63 0 89-41 89-101s-29-99-89-99c-61 0-89 39-89 99S79-25 140-24" id="ce"/><path d="M117-194c89-4 53 116 60 194h-32v-121c0-31-8-49-39-48C34-167 62-67 57 0H25l-1-190h30c1 10-1 24 2 32 11-22 29-35 61-36" id="cf"/><g id="t"><use transform="matrix(0.05,0,0,0.05,0,0)" xlink:href="#ce"/><use transform="matrix(0.05,0,0,0.05,14,0)" xlink:href="#cf"/></g><path d="M133-34C117-15 103 5 69 4 32 3 11-16 11-54c-1-60 55-63 116-61 1-26-3-47-28-47-18 1-26 9-28 27l-52-2c7-38 36-58 82-57s74 22 75 68l1 82c-1 14 12 18 25 15v27c-30 8-71 5-69-32zm-48 3c29 0 43-24 42-57-32 0-66-3-65 30 0 17 8 27 23 27" id="cg"/><path d="M135-194c53 0 70 44 70 98 0 56-19 98-73 100-31 1-45-17-59-34 3 33 2 69 2 105H25l-1-265h48c2 10 0 23 3 31 11-24 29-35 60-35zM114-30c33 0 39-31 40-66 0-38-9-64-40-64-56 0-55 130 0 130" id="ch"/><g id="u"><use transform="matrix(0.05,0,0,0.05,0,0)" xlink:href="#cg"/><use transform="matrix(0.05,0,0,0.05,10,0)" xlink:href="#ch"/><use transform="matrix(0.05,0,0,0.05,20.950000000000003,0)" xlink:href="#ch"/><use transform="matrix(0.05,0,0,0.05,31.900000000000006,0)" xlink:href="#bx"/><use transform="matrix(0.05,0,0,0.05,41.900000000000006,0)" xlink:href="#bw"/><use transform="matrix(0.05,0,0,0.05,46.900000000000006,0)" xlink:href="#bw"/><use transform="matrix(0.05,0,0,0.05,51.900000000000006,0)" xlink:href="#bx"/></g><path d="M190-63c-7 42-38 67-86 67-59 0-84-38-90-98-12-110 154-137 174-36l-49 2c-2-19-15-32-35-32-30 0-35 28-38 64-6 74 65 87 74 30" id="ci"/><path d="M114-157C55-157 80-60 75 0H25v-261h50l-1 109c12-26 28-41 61-42 86-1 58 113 63 194h-50c-7-57 23-157-34-157" id="cj"/><path d="M147 0L96-86 75-71V0H25v-261h50v150l67-79h53l-66 74L201 0h-54" id="ck"/><path d="M169-182c-1-43-94-46-97-3 18 66 151 10 154 114 3 95-165 93-204 36-6-8-10-19-12-30l50-8c3 46 112 56 116 5-17-69-150-10-154-114-4-87 153-88 188-35 5 8 8 18 10 28" id="cl"/><path d="M115-3C79 11 28 4 28-45v-112H4v-33h27l15-45h31v45h36v33H77v99c-1 23 16 31 38 25v30" id="cm"/><g id="v"><use transform="matrix(0.05,0,0,0.05,0,0)" xlink:href="#ci"/><use transform="matrix(0.05,0,0,0.05,10,0)" xlink:href="#cj"/><use transform="matrix(0.05,0,0,0.05,20.950000000000003,0)" xlink:href="#bx"/><use transform="matrix(0.05,0,0,0.05,30.950000000000003,0)" xlink:href="#ci"/><use transform="matrix(0.05,0,0,0.05,40.95,0)" xlink:href="#ck"/><use transform="matrix(0.05,0,0,0.05,50.95,0)" xlink:href="#cl"/><use transform="matrix(0.05,0,0,0.05,62.95,0)" xlink:href="#cj"/><use transform="matrix(0.05,0,0,0.05,73.9,0)" xlink:href="#bB"/><use transform="matrix(0.05,0,0,0.05,84.85000000000001,0)" xlink:href="#cm"/></g><path d="M135-143c-3-34-86-38-87 0 15 53 115 12 119 90S17 21 10-45l28-5c4 36 97 45 98 0-10-56-113-15-118-90-4-57 82-63 122-42 12 7 21 19 24 35" id="cn"/><path d="M84 4C-5 8 30-112 23-190h32v120c0 31 7 50 39 49 72-2 45-101 50-169h31l1 190h-30c-1-10 1-25-2-33-11 22-28 36-60 37" id="co"/><path d="M114-163C36-179 61-72 57 0H25l-1-190h30c1 12-1 29 2 39 6-27 23-49 58-41v29" id="cp"/><g id="w"><use transform="matrix(0.05,0,0,0.05,0,0)" xlink:href="#cn"/><use transform="matrix(0.05,0,0,0.05,9,0)" xlink:href="#co"/><use transform="matrix(0.05,0,0,0.05,19,0)" xlink:href="#cp"/></g><path d="M84 4C32 4 15-41 15-95c0-55 18-99 73-99 29 0 47 12 58 34l2-30h48l-1 265h-49V-32C136-9 114 4 84 4zm21-34c32 0 41-29 41-66 0-36-9-64-40-64-33 0-39 30-40 65 0 43 13 65 39 65" id="cq"/><g id="x"><use transform="matrix(0.05,0,0,0.05,0,0)" xlink:href="#ci"/><use transform="matrix(0.05,0,0,0.05,10,0)" xlink:href="#cj"/><use transform="matrix(0.05,0,0,0.05,20.950000000000003,0)" xlink:href="#cg"/><use transform="matrix(0.05,0,0,0.05,30.950000000000003,0)" xlink:href="#cq"/><use transform="matrix(0.05,0,0,0.05,41.900000000000006,0)" xlink:href="#bz"/><use transform="matrix(0.05,0,0,0.05,52.85,0)" xlink:href="#bx"/></g><g id="y"><use transform="matrix(0.05,0,0,0.05,0,0)" xlink:href="#cl"/><use transform="matrix(0.05,0,0,0.05,12,0)" xlink:href="#cj"/><use transform="matrix(0.05,0,0,0.05,22.950000000000003,0)" xlink:href="#bv"/><use transform="matrix(0.05,0,0,0.05,27.950000000000003,0)" xlink:href="#ch"/></g><path d="M100-194c63 0 86 42 84 106H49c0 40 14 67 53 68 26 1 43-12 49-29l28 8c-11 28-37 45-77 45C44 4 14-33 15-96c1-61 26-98 85-98zm52 81c6-60-76-77-97-28-3 7-6 17-6 28h103" id="cr"/><path d="M59-47c-2 24 18 29 38 22v24C64 9 27 4 27-40v-127H5v-23h24l9-43h21v43h35v23H59v120" id="cs"/><g id="z"><use transform="matrix(0.05,0,0,0.05,0,0)" xlink:href="#cr"/><use transform="matrix(0.05,0,0,0.05,10,0)" xlink:href="#cs"/></g><path d="M135-194c87-1 58 113 63 194h-50c-7-57 23-157-34-157-59 0-34 97-39 157H25l-1-190h47c2 12-1 28 3 38 12-26 28-41 61-42" id="ct"/><g id="A"><use transform="matrix(0.05,0,0,0.05,0,0)" xlink:href="#cm"/><use transform="matrix(0.05,0,0,0.05,5.95,0)" xlink:href="#cg"/><use transform="matrix(0.05,0,0,0.05,15.949999999999998,0)" xlink:href="#ct"/><use transform="matrix(0.05,0,0,0.05,26.899999999999995,0)" xlink:href="#cm"/></g><path d="M62-158H24l-5-90h48" id="cu"/><g id="B"><use transform="matrix(0.05,0,0,0.05,0,0)" xlink:href="#cq"/><use transform="matrix(0.05,0,0,0.05,10.950000000000001,0)" xlink:href="#bz"/><use transform="matrix(0.05,0,0,0.05,21.900000000000002,0)" xlink:href="#cu"/><use transform="matrix(0.05,0,0,0.05,26.150000000000002,0)" xlink:href="#bv"/><use transform="matrix(0.05,0,0,0.05,31.150000000000002,0)" xlink:href="#bw"/></g><path d="M123 10C108 53 80 86 19 72V37c35 8 53-11 59-39L3-190h52l48 148c12-52 28-100 44-148h51" id="cv"/><g id="C"><use transform="matrix(0.05,0,0,0.05,0,0)" xlink:href="#ct"/><use transform="matrix(0.05,0,0,0.05,10.950000000000001,0)" xlink:href="#cu"/><use transform="matrix(0.05,0,0,0.05,15.200000000000001,0)" xlink:href="#cv"/></g><use transform="matrix(0.05,0,0,0.05,0,0)" xlink:href="#cg" id="D"/><path d="M137-138c1-29-70-34-71-4 15 46 118 7 119 86 1 83-164 76-172 9l43-7c4 19 20 25 44 25 33 8 57-30 24-41C81-84 22-81 20-136c-2-80 154-74 161-7" id="cw"/><g id="E"><use transform="matrix(0.05,0,0,0.05,0,0)" xlink:href="#ch"/><use transform="matrix(0.05,0,0,0.05,10.950000000000001,0)" xlink:href="#cg"/><use transform="matrix(0.05,0,0,0.05,20.950000000000003,0)" xlink:href="#cw"/></g><g id="F"><use transform="matrix(0.05,0,0,0.05,0,0)" xlink:href="#by"/><use transform="matrix(0.05,0,0,0.05,10.950000000000001,0)" xlink:href="#bx"/></g><g id="G"><use transform="matrix(0.05,0,0,0.05,0,0)" xlink:href="#ci"/><use transform="matrix(0.05,0,0,0.05,10,0)" xlink:href="#bB"/><use transform="matrix(0.05,0,0,0.05,20.950000000000003,0)" xlink:href="#bw"/><use transform="matrix(0.05,0,0,0.05,25.950000000000003,0)" xlink:href="#bw"/><use transform="matrix(0.05,0,0,0.05,30.950000000000003,0)" xlink:href="#bv"/><use transform="matrix(0.05,0,0,0.05,35.95,0)" xlink:href="#cw"/><use transform="matrix(0.05,0,0,0.05,45.95,0)" xlink:href="#bv"/><use transform="matrix(0.05,0,0,0.05,50.95,0)" xlink:href="#bB"/><use transform="matrix(0.05,0,0,0.05,61.900000000000006,0)" xlink:href="#ct"/></g><path d="M87 75C49 33 22-17 22-94c0-76 28-126 65-167h31c-38 41-64 92-64 168S80 34 118 75H87" id="cx"/><path d="M115-194c53 0 69 39 70 98 0 66-23 100-70 100C84 3 66-7 56-30L54 0H23l1-261h32v101c10-23 28-34 59-34zm-8 174c40 0 45-34 45-75 0-40-5-75-45-74-42 0-51 32-51 76 0 43 10 73 51 73" id="cy"/><path d="M100-194c62-1 85 37 85 99 1 63-27 99-86 99S16-35 15-95c0-66 28-99 85-99zM99-20c44 1 53-31 53-75 0-43-8-75-51-75s-53 32-53 75 10 74 51 75" id="cz"/><path d="M24 0v-261h32V0H24" id="cA"/><path d="M100-194c63 0 86 42 84 106H49c0 40 14 67 53 68 26 1 43-12 49-29l28 8c-11 28-37 45-77 45C44 4 14-33 15-96c1-61 26-98 85-98zm52 81c6-60-76-77-97-28-3 7-6 17-6 28h103zm-74-98c8-23 27-35 38-54h36v5l-58 49H78" id="cB"/><g id="H"><use transform="matrix(0.05,0,0,0.05,0,0)" xlink:href="#cx"/><use transform="matrix(0.05,0,0,0.05,5.95,0)" xlink:href="#cy"/><use transform="matrix(0.05,0,0,0.05,15.949999999999998,0)" xlink:href="#cz"/><use transform="matrix(0.05,0,0,0.05,25.950000000000003,0)" xlink:href="#cz"/><use transform="matrix(0.05,0,0,0.05,35.95,0)" xlink:href="#cA"/><use transform="matrix(0.05,0,0,0.05,39.900000000000006,0)" xlink:href="#cB"/><use transform="matrix(0.05,0,0,0.05,49.900000000000006,0)" xlink:href="#cr"/><use transform="matrix(0.05,0,0,0.05,59.900000000000006,0)" xlink:href="#cf"/></g><g id="I"><use transform="matrix(0.05,0,0,0.05,0,0)" xlink:href="#cp"/><use transform="matrix(0.05,0,0,0.05,5.95,0)" xlink:href="#cr"/><use transform="matrix(0.05,0,0,0.05,15.949999999999998,0)" xlink:href="#cs"/><use transform="matrix(0.05,0,0,0.05,20.95,0)" xlink:href="#cz"/><use transform="matrix(0.05,0,0,0.05,30.950000000000003,0)" xlink:href="#co"/><use transform="matrix(0.05,0,0,0.05,40.95,0)" xlink:href="#cp"/><use transform="matrix(0.05,0,0,0.05,46.900000000000006,0)" xlink:href="#cf"/><use transform="matrix(0.05,0,0,0.05,56.900000000000006,0)" xlink:href="#cB"/></g><path d="M115-194c55 1 70 41 70 98S169 2 115 4C84 4 66-9 55-30l1 105H24l-1-265h31l2 30c10-21 28-34 59-34zm-8 174c40 0 45-34 45-75s-6-73-45-74c-42 0-51 32-51 76 0 43 10 73 51 73" id="cC"/><path d="M141-36C126-15 110 5 73 4 37 3 15-17 15-53c-1-64 63-63 125-63 3-35-9-54-41-54-24 1-41 7-42 31l-33-3c5-37 33-52 76-52 45 0 72 20 72 64v82c-1 20 7 32 28 27v20c-31 9-61-2-59-35zM48-53c0 20 12 33 32 33 41-3 63-29 60-74-43 2-92-5-92 41" id="cD"/><g id="J"><use transform="matrix(0.05,0,0,0.05,0,0)" xlink:href="#cC"/><use transform="matrix(0.05,0,0,0.05,10,0)" xlink:href="#cD"/><use transform="matrix(0.05,0,0,0.05,20,0)" xlink:href="#cp"/></g><path d="M96-169c-40 0-48 33-48 73s9 75 48 75c24 0 41-14 43-38l32 2c-6 37-31 61-74 61-59 0-76-41-82-99-10-93 101-131 147-64 4 7 5 14 7 22l-32 3c-4-21-16-35-41-35" id="cE"/><path d="M106-169C34-169 62-67 57 0H25v-261h32l-1 103c12-21 28-36 61-36 89 0 53 116 60 194h-32v-121c2-32-8-49-39-48" id="cF"/><path d="M143 0L79-87 56-68V0H24v-261h32v163l83-92h37l-77 82L181 0h-38" id="cG"/><path d="M185-189c-5-48-123-54-124 2 14 75 158 14 163 119 3 78-121 87-175 55-17-10-28-26-33-46l33-7c5 56 141 63 141-1 0-78-155-14-162-118-5-82 145-84 179-34 5 7 8 16 11 25" id="cH"/><path d="M33-261c38 41 65 92 65 168S71 34 33 75H2C39 34 66-17 66-93S39-220 2-261h31" id="cI"/><path d="M33 0v-38h34V0H33" id="cJ"/><g id="K"><use transform="matrix(0.05,0,0,0.05,0,0)" xlink:href="#cE"/><use transform="matrix(0.05,0,0,0.05,9,0)" xlink:href="#cF"/><use transform="matrix(0.05,0,0,0.05,19,0)" xlink:href="#cr"/><use transform="matrix(0.05,0,0,0.05,29,0)" xlink:href="#cE"/><use transform="matrix(0.05,0,0,0.05,38,0)" xlink:href="#cG"/><use transform="matrix(0.05,0,0,0.05,47,0)" xlink:href="#cH"/><use transform="matrix(0.05,0,0,0.05,59,0)" xlink:href="#cF"/><use transform="matrix(0.05,0,0,0.05,69,0)" xlink:href="#cz"/><use transform="matrix(0.05,0,0,0.05,79,0)" xlink:href="#cs"/><use transform="matrix(0.05,0,0,0.05,84,0)" xlink:href="#cI"/><use transform="matrix(0.05,0,0,0.05,89.95,0)" xlink:href="#cJ"/></g><path d="M220-157c-53 9-28 100-34 157h-49v-107c1-27-5-49-29-50C55-147 81-57 75 0H25l-1-190h47c2 12-1 28 3 38 10-53 101-56 108 0 13-22 24-43 59-42 82 1 51 116 57 194h-49v-107c-1-25-5-48-29-50" id="cK"/><g id="L"><use transform="matrix(0.05,0,0,0.05,0,0)" xlink:href="#ci"/><use transform="matrix(0.05,0,0,0.05,10,0)" xlink:href="#bB"/><use transform="matrix(0.05,0,0,0.05,20.950000000000003,0)" xlink:href="#cK"/><use transform="matrix(0.05,0,0,0.05,36.95,0)" xlink:href="#ch"/><use transform="matrix(0.05,0,0,0.05,47.900000000000006,0)" xlink:href="#cg"/><use transform="matrix(0.05,0,0,0.05,57.900000000000006,0)" xlink:href="#bu"/><use transform="matrix(0.05,0,0,0.05,64.9,0)" xlink:href="#bx"/></g><g id="M"><use transform="matrix(0.05,0,0,0.05,0,0)" xlink:href="#bw"/><use transform="matrix(0.05,0,0,0.05,5,0)" xlink:href="#bx"/><use transform="matrix(0.05,0,0,0.05,15,0)" xlink:href="#cw"/></g><g id="N"><use transform="matrix(0.05,0,0,0.05,0,0)" xlink:href="#ch"/><use transform="matrix(0.05,0,0,0.05,10.950000000000001,0)" xlink:href="#bB"/><use transform="matrix(0.05,0,0,0.05,21.900000000000002,0)" xlink:href="#cw"/><use transform="matrix(0.05,0,0,0.05,31.900000000000002,0)" xlink:href="#bv"/><use transform="matrix(0.05,0,0,0.05,36.900000000000006,0)" xlink:href="#cm"/><use transform="matrix(0.05,0,0,0.05,42.85000000000001,0)" xlink:href="#bv"/><use transform="matrix(0.05,0,0,0.05,47.85000000000001,0)" xlink:href="#bB"/><use transform="matrix(0.05,0,0,0.05,58.80000000000001,0)" xlink:href="#ct"/></g><g id="O"><use transform="matrix(0.05,0,0,0.05,0,0)" xlink:href="#cr"/><use transform="matrix(0.05,0,0,0.05,10,0)" xlink:href="#cs"/></g><g id="P"><use transform="matrix(0.05,0,0,0.05,0,0)" xlink:href="#bB"/><use transform="matrix(0.05,0,0,0.05,10.950000000000001,0)" xlink:href="#bu"/><use transform="matrix(0.05,0,0,0.05,17.950000000000003,0)" xlink:href="#bv"/><use transform="matrix(0.05,0,0,0.05,22.950000000000003,0)" xlink:href="#bx"/><use transform="matrix(0.05,0,0,0.05,32.95,0)" xlink:href="#ct"/><use transform="matrix(0.05,0,0,0.05,43.900000000000006,0)" xlink:href="#cm"/><use transform="matrix(0.05,0,0,0.05,49.85000000000001,0)" xlink:href="#cg"/><use transform="matrix(0.05,0,0,0.05,59.85,0)" xlink:href="#cm"/><use transform="matrix(0.05,0,0,0.05,65.80000000000001,0)" xlink:href="#bv"/><use transform="matrix(0.05,0,0,0.05,70.80000000000001,0)" xlink:href="#bB"/><use transform="matrix(0.05,0,0,0.05,81.75000000000001,0)" xlink:href="#ct"/></g><path d="M85-194c31 0 48 13 60 33l-1-100h32l1 261h-30c-2-10 0-23-3-31C134-8 116 4 85 4 32 4 16-35 15-94c0-66 23-100 70-100zm9 24c-40 0-46 34-46 75 0 40 6 74 45 74 42 0 51-32 51-76 0-42-9-74-50-73" id="cL"/><g id="Q"><use transform="matrix(0.05,0,0,0.05,0,0)" xlink:href="#cL"/><use transform="matrix(0.05,0,0,0.05,10,0)" xlink:href="#co"/></g><path d="M24-231v-30h32v30H24zM24 0v-190h32V0H24" id="cM"/><g id="R"><use transform="matrix(0.05,0,0,0.05,0,0)" xlink:href="#cH"/><use transform="matrix(0.05,0,0,0.05,12,0)" xlink:href="#cF"/><use transform="matrix(0.05,0,0,0.05,22,0)" xlink:href="#cM"/><use transform="matrix(0.05,0,0,0.05,25.950000000000003,0)" xlink:href="#cC"/></g><path d="M141-36C126-15 110 5 73 4 37 3 15-17 15-53c-1-64 63-63 125-63 3-35-9-54-41-54-24 1-41 7-42 31l-33-3c5-37 33-52 76-52 45 0 72 20 72 64v82c-1 20 7 32 28 27v20c-31 9-61-2-59-35zM48-53c0 20 12 33 32 33 41-3 63-29 60-74-43 2-92-5-92 41zm62-158l-58-49v-5h36c12 19 30 32 38 54h-16" id="cN"/><use transform="matrix(0.05,0,0,0.05,0,0)" xlink:href="#cN" id="S"/><g id="T"><use transform="matrix(0.05,0,0,0.05,0,0)" xlink:href="#cA"/><use transform="matrix(0.05,0,0,0.05,3.95,0)" xlink:href="#cD"/></g><g id="U"><use transform="matrix(0.05,0,0,0.05,0,0)" xlink:href="#ch"/><use transform="matrix(0.05,0,0,0.05,10.950000000000001,0)" xlink:href="#bB"/><use transform="matrix(0.05,0,0,0.05,21.900000000000002,0)" xlink:href="#cw"/><use transform="matrix(0.05,0,0,0.05,31.900000000000002,0)" xlink:href="#bv"/><use transform="matrix(0.05,0,0,0.05,36.900000000000006,0)" xlink:href="#cm"/><use transform="matrix(0.05,0,0,0.05,42.85000000000001,0)" xlink:href="#bv"/><use transform="matrix(0.05,0,0,0.05,47.85000000000001,0)" xlink:href="#bB"/><use transform="matrix(0.05,0,0,0.05,58.80000000000001,0)" xlink:href="#ct"/></g><g id="V"><use transform="matrix(0.05,0,0,0.05,0,0)" xlink:href="#by"/><use transform="matrix(0.05,0,0,0.05,10.950000000000001,0)" xlink:href="#bz"/></g><g id="W"><use transform="matrix(0.05,0,0,0.05,0,0)" xlink:href="#cm"/><use transform="matrix(0.05,0,0,0.05,5.95,0)" xlink:href="#bv"/><use transform="matrix(0.05,0,0,0.05,10.95,0)" xlink:href="#bu"/></g><g id="X"><use transform="matrix(0.05,0,0,0.05,0,0)" xlink:href="#cC"/><use transform="matrix(0.05,0,0,0.05,10,0)" xlink:href="#cz"/><use transform="matrix(0.05,0,0,0.05,20,0)" xlink:href="#co"/><use transform="matrix(0.05,0,0,0.05,30,0)" xlink:href="#cp"/></g><path d="M108 0H70L1-190h34L89-25l56-165h34" id="cO"/><g id="Y"><use transform="matrix(0.05,0,0,0.05,0,0)" xlink:href="#cn"/><use transform="matrix(0.05,0,0,0.05,9,0)" xlink:href="#cD"/><use transform="matrix(0.05,0,0,0.05,19,0)" xlink:href="#cO"/><use transform="matrix(0.05,0,0,0.05,28,0)" xlink:href="#cz"/><use transform="matrix(0.05,0,0,0.05,38,0)" xlink:href="#cM"/><use transform="matrix(0.05,0,0,0.05,41.95,0)" xlink:href="#cp"/></g><g id="Z"><use transform="matrix(0.05,0,0,0.05,0,0)" xlink:href="#cn"/><use transform="matrix(0.05,0,0,0.05,9,0)" xlink:href="#cM"/></g><g id="aa"><use transform="matrix(0.05,0,0,0.05,0,0)" xlink:href="#cM"/><use transform="matrix(0.05,0,0,0.05,3.95,0)" xlink:href="#cA"/></g><use transform="matrix(0.05,0,0,0.05,0,0)" xlink:href="#cD" id="ab"/><g id="ac"><use transform="matrix(0.05,0,0,0.05,0,0)" xlink:href="#cB"/><use transform="matrix(0.05,0,0,0.05,10,0)" xlink:href="#cs"/><use transform="matrix(0.05,0,0,0.05,15,0)" xlink:href="#cB"/></g><g id="ad"><use transform="matrix(0.05,0,0,0.05,0,0)" xlink:href="#cs"/><use transform="matrix(0.05,0,0,0.05,5,0)" xlink:href="#cz"/><use transform="matrix(0.05,0,0,0.05,15,0)" xlink:href="#co"/><use transform="matrix(0.05,0,0,0.05,25,0)" xlink:href="#cE"/><use transform="matrix(0.05,0,0,0.05,34,0)" xlink:href="#cF"/><use transform="matrix(0.05,0,0,0.05,44,0)" xlink:href="#cB"/><use transform="matrix(0.05,0,0,0.05,54,0)" xlink:href="#cJ"/></g><path fill="#333" d="M177-190C167-65 218 103 67 71c-23-6-38-20-44-43l32-5c15 47 100 32 89-28v-30C133-14 115 1 83 1 29 1 15-40 15-95c0-56 16-97 71-98 29-1 48 16 59 35 1-10 0-23 2-32h30zM94-22c36 0 50-32 50-73 0-42-14-75-50-75-39 0-46 34-46 75s6 73 46 73" id="cP"/><path fill="#333" d="M85-194c31 0 48 13 60 33l-1-100h32l1 261h-30c-2-10 0-23-3-31C134-8 116 4 85 4 32 4 16-35 15-94c0-66 23-100 70-100zm9 24c-40 0-46 34-46 75 0 40 6 74 45 74 42 0 51-32 51-76 0-42-9-74-50-73" id="cQ"/><path fill="#333" d="M141 0L90-78 38 0H4l68-98-65-92h35l48 74 47-74h35l-64 92 68 98h-35" id="cR"/><path fill="#333" d="M179-190L93 31C79 59 56 82 12 73V49c39 6 53-20 64-50L1-190h34L92-34l54-156h33" id="cS"/><g id="ae"><use transform="matrix(0.05,0,0,0.05,0,0)" xlink:href="#cb"/><use transform="matrix(0.05,0,0,0.05,5,0)" xlink:href="#cP"/><use transform="matrix(0.05,0,0,0.05,15,0)" xlink:href="#bW"/><use transform="matrix(0.05,0,0,0.05,20.95,0)" xlink:href="#bZ"/><use transform="matrix(0.05,0,0,0.05,24.9,0)" xlink:href="#cQ"/><use transform="matrix(0.05,0,0,0.05,34.9,0)" xlink:href="#cb"/><use transform="matrix(0.05,0,0,0.05,39.9,0)" xlink:href="#cR"/><use transform="matrix(0.05,0,0,0.05,48.9,0)" xlink:href="#cd"/><use transform="matrix(0.05,0,0,0.05,53.900000000000006,0)" xlink:href="#cb"/><use transform="matrix(0.05,0,0,0.05,58.900000000000006,0)" xlink:href="#cS"/><use transform="matrix(0.05,0,0,0.05,67.9,0)" xlink:href="#cd"/></g><path fill="#333" d="M18-150v-26h174v26H18zm0 90v-26h174v26H18" id="cT"/><g id="af"><use transform="matrix(0.05,0,0,0.05,0,0)" xlink:href="#cT"/><use transform="matrix(0.05,0,0,0.05,10.5,0)" xlink:href="#cT"/></g><path fill="#333" d="M190 0L58-211 59 0H30v-248h39L202-35l-2-213h31V0h-41" id="cU"/><path fill="#333" d="M140-251c81 0 123 46 123 126C263-46 219 4 140 4 59 4 17-45 17-125s42-126 123-126zm0 227c63 0 89-41 89-101s-29-99-89-99c-61 0-89 39-89 99S79-25 140-24" id="cV"/><path fill="#333" d="M233-177c-1 41-23 64-60 70L243 0h-38l-65-103H63V0H30v-248c88 3 205-21 203 71zM63-129c60-2 137 13 137-47 0-61-80-42-137-45v92" id="cW"/><path fill="#333" d="M240 0l2-218c-23 76-54 145-80 218h-23L58-218 59 0H30v-248h44l77 211c21-75 51-140 76-211h43V0h-30" id="cX"/><path fill="#333" d="M30 0v-248h33v221h125V0H30" id="cY"/><g id="ag"><use transform="matrix(0.05,0,0,0.05,0,0)" xlink:href="#cU"/><use transform="matrix(0.05,0,0,0.05,12.950000000000001,0)" xlink:href="#cV"/><use transform="matrix(0.05,0,0,0.05,26.950000000000003,0)" xlink:href="#cW"/><use transform="matrix(0.05,0,0,0.05,39.900000000000006,0)" xlink:href="#cX"/><use transform="matrix(0.05,0,0,0.05,54.85,0)" xlink:href="#bS"/><use transform="matrix(0.05,0,0,0.05,66.85000000000001,0)" xlink:href="#cY"/><use transform="matrix(0.05,0,0,0.05,76.85000000000001,0)" xlink:href="#cd"/></g><path fill="#333" d="M30 0v-248h187v28H63v79h144v27H63v87h162V0H30" id="cZ"/><path fill="#333" d="M135-143c-3-34-86-38-87 0 15 53 115 12 119 90S17 21 10-45l28-5c4 36 97 45 98 0-10-56-113-15-118-90-4-57 82-63 122-42 12 7 21 19 24 35" id="da"/><g id="ah"><use transform="matrix(0.05,0,0,0.05,0,0)" xlink:href="#cb"/><use transform="matrix(0.05,0,0,0.05,5,0)" xlink:href="#cZ"/><use transform="matrix(0.05,0,0,0.05,17,0)" xlink:href="#bT"/><use transform="matrix(0.05,0,0,0.05,20.95,0)" xlink:href="#da"/><use transform="matrix(0.05,0,0,0.05,29.950000000000003,0)" xlink:href="#bV"/><use transform="matrix(0.05,0,0,0.05,39.95,0)" xlink:href="#cd"/></g><path fill="#333" d="M135-150c-39-12-60 13-60 57V0H25l-1-190h47c2 13-1 29 3 40 6-28 27-53 61-41v41" id="db"/><path fill="#333" d="M128 0H69L1-190h53L99-40l48-150h52" id="dc"/><g id="ai"><use transform="matrix(0.05,0,0,0.05,0,0)" xlink:href="#db"/><use transform="matrix(0.05,0,0,0.05,7,0)" xlink:href="#bD"/><use transform="matrix(0.05,0,0,0.05,17,0)" xlink:href="#bC"/><use transform="matrix(0.05,0,0,0.05,27,0)" xlink:href="#bD"/><use transform="matrix(0.05,0,0,0.05,37,0)" xlink:href="#bL"/><use transform="matrix(0.05,0,0,0.05,42,0)" xlink:href="#dc"/><use transform="matrix(0.05,0,0,0.05,52,0)" xlink:href="#bD"/><use transform="matrix(0.05,0,0,0.05,62,0)" xlink:href="#bh"/><use transform="matrix(0.05,0,0,0.05,74,0)" xlink:href="#bj"/><use transform="matrix(0.05,0,0,0.05,84.95,0)" xlink:href="#bk"/><use transform="matrix(0.05,0,0,0.05,95.9,0)" xlink:href="#bl"/><use transform="matrix(0.05,0,0,0.05,101.85000000000001,0)" xlink:href="#bm"/><use transform="matrix(0.05,0,0,0.05,107.80000000000001,0)" xlink:href="#bn"/><use transform="matrix(0.05,0,0,0.05,117.80000000000001,0)" xlink:href="#bo"/></g><g id="aj"><use transform="matrix(0.05,0,0,0.05,0,0)" xlink:href="#ce"/><use transform="matrix(0.05,0,0,0.05,14,0)" xlink:href="#cf"/></g><path d="M101-234c-31-9-42 10-38 44h38v23H63V0H32v-167H5v-23h27c-7-52 17-82 69-68v24" id="dd"/><g id="ak"><use transform="matrix(0.05,0,0,0.05,0,0)" xlink:href="#cO"/><use transform="matrix(0.05,0,0,0.05,9,0)" xlink:href="#cB"/><use transform="matrix(0.05,0,0,0.05,19,0)" xlink:href="#cp"/><use transform="matrix(0.05,0,0,0.05,24.95,0)" xlink:href="#cM"/><use transform="matrix(0.05,0,0,0.05,28.899999999999995,0)" xlink:href="#dd"/><use transform="matrix(0.05,0,0,0.05,33.9,0)" xlink:href="#cM"/><use transform="matrix(0.05,0,0,0.05,37.85,0)" xlink:href="#cr"/></g><g id="al"><use transform="matrix(0.05,0,0,0.05,0,0)" xlink:href="#cA"/><use transform="matrix(0.05,0,0,0.05,3.95,0)" xlink:href="#cr"/></g><g id="am"><use transform="matrix(0.05,0,0,0.05,0,0)" xlink:href="#cm"/><use transform="matrix(0.05,0,0,0.05,5.95,0)" xlink:href="#bv"/><use transform="matrix(0.05,0,0,0.05,10.95,0)" xlink:href="#bu"/></g><g id="an"><use transform="matrix(0.05,0,0,0.05,0,0)" xlink:href="#bx"/><use transform="matrix(0.05,0,0,0.05,10,0)" xlink:href="#cw"/><use transform="matrix(0.05,0,0,0.05,20,0)" xlink:href="#cm"/></g><path d="M128 0H69L1-190h53L99-40l48-150h52" id="de"/><g id="ao"><use transform="matrix(0.05,0,0,0.05,0,0)" xlink:href="#de"/><use transform="matrix(0.05,0,0,0.05,10,0)" xlink:href="#cg"/><use transform="matrix(0.05,0,0,0.05,20,0)" xlink:href="#bw"/><use transform="matrix(0.05,0,0,0.05,25,0)" xlink:href="#bv"/><use transform="matrix(0.05,0,0,0.05,30,0)" xlink:href="#by"/><use transform="matrix(0.05,0,0,0.05,40.95,0)" xlink:href="#bx"/></g><path d="M18-150v-26h174v26H18zm0 90v-26h174v26H18" id="df"/><g id="ap"><use transform="matrix(0.05,0,0,0.05,0,0)" xlink:href="#cx"/><use transform="matrix(0.05,0,0,0.05,5.95,0)" xlink:href="#df"/></g><g id="aq"><use transform="matrix(0.05,0,0,0.05,0,0)" xlink:href="#cz"/><use transform="matrix(0.05,0,0,0.05,10,0)" xlink:href="#cf"/></g><use transform="matrix(0.05,0,0,0.05,0,0)" xlink:href="#cD" id="ar"/><path d="M24-231v-30h32v30H24zM-9 49c24 4 33-6 33-30v-209h32V24c2 40-23 58-65 49V49" id="dg"/><path d="M210-169c-67 3-38 105-44 169h-31v-121c0-29-5-50-35-48C34-165 62-65 56 0H25l-1-190h30c1 10-1 24 2 32 10-44 99-50 107 0 11-21 27-35 58-36 85-2 47 119 55 194h-31v-121c0-29-5-49-35-48" id="dh"/><g id="as"><use transform="matrix(0.05,0,0,0.05,0,0)" xlink:href="#dg"/><use transform="matrix(0.05,0,0,0.05,3.95,0)" xlink:href="#cD"/><use transform="matrix(0.05,0,0,0.05,13.949999999999998,0)" xlink:href="#dh"/><use transform="matrix(0.05,0,0,0.05,28.899999999999995,0)" xlink:href="#cD"/><use transform="matrix(0.05,0,0,0.05,38.9,0)" xlink:href="#cM"/><use transform="matrix(0.05,0,0,0.05,42.85,0)" xlink:href="#cn"/></g><g id="at"><use transform="matrix(0.05,0,0,0.05,0,0)" xlink:href="#cs"/><use transform="matrix(0.05,0,0,0.05,5,0)" xlink:href="#cM"/><use transform="matrix(0.05,0,0,0.05,8.95,0)" xlink:href="#cp"/><use transform="matrix(0.05,0,0,0.05,14.899999999999999,0)" xlink:href="#cB"/></g><g id="au"><use transform="matrix(0.05,0,0,0.05,0,0)" xlink:href="#cA"/><use transform="matrix(0.05,0,0,0.05,3.95,0)" xlink:href="#cN"/><use transform="matrix(0.05,0,0,0.05,13.949999999999998,0)" xlink:href="#cJ"/></g><g id="av"><use transform="matrix(0.05,0,0,0.05,0,0)" xlink:href="#dc"/><use transform="matrix(0.05,0,0,0.05,10,0)" xlink:href="#bH"/><use transform="matrix(0.05,0,0,0.05,20,0)" xlink:href="#bO"/><use transform="matrix(0.05,0,0,0.05,25,0)" xlink:href="#bL"/><use transform="matrix(0.05,0,0,0.05,30,0)" xlink:href="#bQ"/><use transform="matrix(0.05,0,0,0.05,40.95,0)" xlink:href="#bh"/><use transform="matrix(0.05,0,0,0.05,52.95,0)" xlink:href="#bj"/><use transform="matrix(0.05,0,0,0.05,63.900000000000006,0)" xlink:href="#bk"/><use transform="matrix(0.05,0,0,0.05,74.85000000000001,0)" xlink:href="#bl"/></g><path fill="#333" d="M15-148v-39h180v39H15zm0 97v-39h180v39H15" id="di"/><use transform="matrix(0.05,0,0,0.05,0,0)" xlink:href="#di" id="aw"/><path fill="#333" d="M121-226c-27-7-43 5-38 36h38v33H83V0H34v-157H6v-33h28c-9-59 32-81 87-68v32" id="dj"/><g id="ax"><use transform="matrix(0.05,0,0,0.05,0,0)" xlink:href="#dj"/><use transform="matrix(0.05,0,0,0.05,5.95,0)" xlink:href="#bH"/><use transform="matrix(0.05,0,0,0.05,15.949999999999998,0)" xlink:href="#bO"/><use transform="matrix(0.05,0,0,0.05,20.95,0)" xlink:href="#bi"/><use transform="matrix(0.05,0,0,0.05,30.950000000000003,0)" xlink:href="#bD"/></g><path fill="#333" d="M85 4C-2 5 27-109 22-190h50c7 57-23 150 33 157 60-5 35-97 40-157h50l1 190h-47c-2-12 1-28-3-38-12 25-28 42-61 42" id="dk"/><g id="ay"><use transform="matrix(0.05,0,0,0.05,0,0)" xlink:href="#bl"/><use transform="matrix(0.05,0,0,0.05,5.95,0)" xlink:href="#bk"/><use transform="matrix(0.05,0,0,0.05,16.900000000000002,0)" xlink:href="#dk"/><use transform="matrix(0.05,0,0,0.05,27.85,0)" xlink:href="#bC"/><use transform="matrix(0.05,0,0,0.05,37.85,0)" xlink:href="#bj"/><use transform="matrix(0.05,0,0,0.05,48.800000000000004,0)" xlink:href="#bD"/><use transform="matrix(0.05,0,0,0.05,58.800000000000004,0)" xlink:href="#bQ"/></g><g id="az"><use transform="matrix(0.05,0,0,0.05,0,0)" xlink:href="#bl"/><use transform="matrix(0.05,0,0,0.05,5.95,0)" xlink:href="#db"/><use transform="matrix(0.05,0,0,0.05,12.949999999999998,0)" xlink:href="#dk"/><use transform="matrix(0.05,0,0,0.05,23.9,0)" xlink:href="#bD"/></g><path fill="#333" d="M135-194c53 0 70 44 70 98 0 56-19 98-73 100-31 1-45-17-59-34 3 33 2 69 2 105H25l-1-265h48c2 10 0 23 3 31 11-24 29-35 60-35zM114-30c33 0 39-31 40-66 0-38-9-64-40-64-56 0-55 130 0 130" id="dl"/><path fill="#333" d="M182-130c37 4 62 22 62 59C244 23 116-4 24 0v-248c84 5 203-23 205 63 0 31-19 50-47 55zM76-148c40-3 101 13 101-30 0-44-60-28-101-31v61zm0 110c48-3 116 14 116-37 0-48-69-32-116-35v72" id="dm"/><g id="aA"><use transform="matrix(0.05,0,0,0.05,0,0)" xlink:href="#dk"/><use transform="matrix(0.05,0,0,0.05,10.950000000000001,0)" xlink:href="#dl"/><use transform="matrix(0.05,0,0,0.05,21.900000000000002,0)" xlink:href="#bQ"/><use transform="matrix(0.05,0,0,0.05,32.85,0)" xlink:href="#bH"/><use transform="matrix(0.05,0,0,0.05,42.85,0)" xlink:href="#bl"/><use transform="matrix(0.05,0,0,0.05,48.800000000000004,0)" xlink:href="#bD"/><use transform="matrix(0.05,0,0,0.05,58.800000000000004,0)" xlink:href="#dm"/><use transform="matrix(0.05,0,0,0.05,71.75,0)" xlink:href="#bk"/><use transform="matrix(0.05,0,0,0.05,82.7,0)" xlink:href="#bn"/><use transform="matrix(0.05,0,0,0.05,92.7,0)" xlink:href="#bh"/><use transform="matrix(0.05,0,0,0.05,104.7,0)" xlink:href="#bl"/><use transform="matrix(0.05,0,0,0.05,110.65,0)" xlink:href="#bH"/><use transform="matrix(0.05,0,0,0.05,120.65,0)" xlink:href="#bl"/><use transform="matrix(0.05,0,0,0.05,126.60000000000001,0)" xlink:href="#bD"/><use transform="matrix(0.05,0,0,0.05,136.60000000000002,0)" xlink:href="#bm"/><use transform="matrix(0.05,0,0,0.05,142.55,0)" xlink:href="#bn"/><use transform="matrix(0.05,0,0,0.05,152.55,0)" xlink:href="#bo"/></g><g id="aB"><use transform="matrix(0.05,0,0,0.05,0,0)" xlink:href="#bp"/><use transform="matrix(0.05,0,0,0.05,8.65,0)" xlink:href="#bo"/></g><g id="aC"><use transform="matrix(0.05,0,0,0.05,0,0)" xlink:href="#bl"/><use transform="matrix(0.05,0,0,0.05,5.95,0)" xlink:href="#bk"/><use transform="matrix(0.05,0,0,0.05,16.900000000000002,0)" xlink:href="#dk"/><use transform="matrix(0.05,0,0,0.05,27.85,0)" xlink:href="#bC"/><use transform="matrix(0.05,0,0,0.05,37.85,0)" xlink:href="#bj"/><use transform="matrix(0.05,0,0,0.05,48.800000000000004,0)" xlink:href="#bD"/><use transform="matrix(0.05,0,0,0.05,58.800000000000004,0)" xlink:href="#bQ"/><use transform="matrix(0.05,0,0,0.05,69.75,0)" xlink:href="#bq"/></g><g id="aD"><use transform="matrix(0.05,0,0,0.05,0,0)" xlink:href="#cK"/><use transform="matrix(0.05,0,0,0.05,16,0)" xlink:href="#bx"/><use transform="matrix(0.05,0,0,0.05,26,0)" xlink:href="#cm"/></g><path d="M132-34C116-15 102 5 68 4 31 3 10-16 10-54c-1-60 55-63 116-61 1-26-3-47-28-47-18 1-26 9-28 27l-52-2c7-38 36-58 82-57s74 22 75 68l1 82c-1 14 12 18 25 15v27c-30 8-71 5-69-32zm-48 3c29 0 43-24 42-57-32 0-66-3-65 30 0 17 8 27 23 27zm18-177l-59-48v-8h45l44 51v5h-30" id="dn"/><use transform="matrix(0.05,0,0,0.05,0,0)" xlink:href="#dn" id="aE"/><g id="aF"><use transform="matrix(0.05,0,0,0.05,0,0)" xlink:href="#bA"/><use transform="matrix(0.05,0,0,0.05,5,0)" xlink:href="#bB"/><use transform="matrix(0.05,0,0,0.05,15.950000000000001,0)" xlink:href="#bz"/><use transform="matrix(0.05,0,0,0.05,26.900000000000002,0)" xlink:href="#bu"/></g><path d="M47-170H22l-4-78h33" id="do"/><g id="aG"><use transform="matrix(0.05,0,0,0.05,0,0)" xlink:href="#cA"/><use transform="matrix(0.05,0,0,0.05,3.95,0)" xlink:href="#do"/><use transform="matrix(0.05,0,0,0.05,7.3500000000000005,0)" xlink:href="#cB"/><use transform="matrix(0.05,0,0,0.05,17.35,0)" xlink:href="#cs"/><use transform="matrix(0.05,0,0,0.05,22.35,0)" xlink:href="#cD"/><use transform="matrix(0.05,0,0,0.05,32.35,0)" xlink:href="#cs"/></g><g id="aH"><use transform="matrix(0.05,0,0,0.05,0,0)" xlink:href="#cL"/><use transform="matrix(0.05,0,0,0.05,10,0)" xlink:href="#cr"/></g><g id="aI"><use transform="matrix(0.05,0,0,0.05,0,0)" xlink:href="#cA"/><use transform="matrix(0.05,0,0,0.05,3.95,0)" xlink:href="#cD"/></g><g id="aJ"><use transform="matrix(0.05,0,0,0.05,0,0)" xlink:href="#by"/><use transform="matrix(0.05,0,0,0.05,10.950000000000001,0)" xlink:href="#cg"/><use transform="matrix(0.05,0,0,0.05,20.950000000000003,0)" xlink:href="#ct"/><use transform="matrix(0.05,0,0,0.05,31.900000000000006,0)" xlink:href="#cw"/></g><g id="aK"><use transform="matrix(0.05,0,0,0.05,0,0)" xlink:href="#bw"/><use transform="matrix(0.05,0,0,0.05,5,0)" xlink:href="#cg"/></g><path d="M195-6C206 82 75 100 31 46c-4-6-6-13-8-21l49-6c3 16 16 24 34 25 40 0 42-37 40-79-11 22-30 35-61 35-53 0-70-43-70-97 0-56 18-96 73-97 30 0 46 14 59 34l2-30h47zm-90-29c32 0 41-27 41-63 0-35-9-62-40-62-32 0-39 29-40 63 0 36 9 62 39 62" id="dp"/><g id="aL"><use transform="matrix(0.05,0,0,0.05,0,0)" xlink:href="#dp"/><use transform="matrix(0.05,0,0,0.05,10.950000000000001,0)" xlink:href="#bu"/><use transform="matrix(0.05,0,0,0.05,17.950000000000003,0)" xlink:href="#bv"/><use transform="matrix(0.05,0,0,0.05,22.950000000000003,0)" xlink:href="#bw"/><use transform="matrix(0.05,0,0,0.05,27.950000000000003,0)" xlink:href="#bw"/><use transform="matrix(0.05,0,0,0.05,32.95,0)" xlink:href="#bx"/><use transform="matrix(0.05,0,0,0.05,42.95,0)" xlink:href="#cJ"/></g><g id="aM"><use transform="matrix(0.05,0,0,0.05,0,0)" xlink:href="#dc"/><use transform="matrix(0.05,0,0,0.05,10,0)" xlink:href="#bH"/><use transform="matrix(0.05,0,0,0.05,20,0)" xlink:href="#bO"/><use transform="matrix(0.05,0,0,0.05,25,0)" xlink:href="#bL"/><use transform="matrix(0.05,0,0,0.05,30,0)" xlink:href="#bQ"/><use transform="matrix(0.05,0,0,0.05,40.95,0)" xlink:href="#bh"/><use transform="matrix(0.05,0,0,0.05,52.95,0)" xlink:href="#bj"/><use transform="matrix(0.05,0,0,0.05,63.900000000000006,0)" xlink:href="#bk"/><use transform="matrix(0.05,0,0,0.05,74.85000000000001,0)" xlink:href="#bl"/></g><path d="M30-248c87 1 191-15 191 75 0 78-77 80-158 76V0H30v-248zm33 125c57 0 124 11 124-50 0-59-68-47-124-48v98" id="dq"/><g id="aN"><use transform="matrix(0.05,0,0,0.05,0,0)" xlink:href="#dq"/><use transform="matrix(0.05,0,0,0.05,12,0)" xlink:href="#cr"/><use transform="matrix(0.05,0,0,0.05,22,0)" xlink:href="#cp"/><use transform="matrix(0.05,0,0,0.05,27.950000000000003,0)" xlink:href="#dh"/><use transform="matrix(0.05,0,0,0.05,42.9,0)" xlink:href="#cr"/><use transform="matrix(0.05,0,0,0.05,52.900000000000006,0)" xlink:href="#cs"/></g><g id="aO"><use transform="matrix(0.05,0,0,0.05,0,0)" xlink:href="#cD"/><use transform="matrix(0.05,0,0,0.05,10,0)" xlink:href="#co"/></g><g id="aP"><use transform="matrix(0.05,0,0,0.05,0,0)" xlink:href="#dg"/><use transform="matrix(0.05,0,0,0.05,3.95,0)" xlink:href="#cr"/><use transform="matrix(0.05,0,0,0.05,13.949999999999998,0)" xlink:href="#co"/></g><g id="aQ"><use transform="matrix(0.05,0,0,0.05,0,0)" xlink:href="#cw"/><use transform="matrix(0.05,0,0,0.05,10,0)" xlink:href="#cg"/><use transform="matrix(0.05,0,0,0.05,20,0)" xlink:href="#de"/><use transform="matrix(0.05,0,0,0.05,30,0)" xlink:href="#bB"/><use transform="matrix(0.05,0,0,0.05,40.95,0)" xlink:href="#bv"/><use transform="matrix(0.05,0,0,0.05,45.95,0)" xlink:href="#bu"/></g><g id="aR"><use transform="matrix(0.05,0,0,0.05,0,0)" xlink:href="#bA"/><use transform="matrix(0.05,0,0,0.05,5,0)" xlink:href="#bB"/><use transform="matrix(0.05,0,0,0.05,15.950000000000001,0)" xlink:href="#bz"/><use transform="matrix(0.05,0,0,0.05,26.900000000000002,0)" xlink:href="#bx"/><use transform="matrix(0.05,0,0,0.05,36.900000000000006,0)" xlink:href="#bz"/><use transform="matrix(0.05,0,0,0.05,47.85000000000001,0)" xlink:href="#bu"/></g><g id="aS"><use transform="matrix(0.05,0,0,0.05,0,0)" xlink:href="#cr"/><use transform="matrix(0.05,0,0,0.05,10,0)" xlink:href="#dd"/><use transform="matrix(0.05,0,0,0.05,14.65,0)" xlink:href="#dd"/><use transform="matrix(0.05,0,0,0.05,19.65,0)" xlink:href="#cr"/><use transform="matrix(0.05,0,0,0.05,29.649999999999995,0)" xlink:href="#cE"/><use transform="matrix(0.05,0,0,0.05,38.65,0)" xlink:href="#cs"/><use transform="matrix(0.05,0,0,0.05,43.65,0)" xlink:href="#co"/><use transform="matrix(0.05,0,0,0.05,53.650000000000006,0)" xlink:href="#cB"/></g><g id="aT"><use transform="matrix(0.05,0,0,0.05,0,0)" xlink:href="#co"/><use transform="matrix(0.05,0,0,0.05,10,0)" xlink:href="#cf"/><use transform="matrix(0.05,0,0,0.05,20,0)" xlink:href="#cr"/></g><g id="aU"><use transform="matrix(0.05,0,0,0.05,0,0)" xlink:href="#cD"/><use transform="matrix(0.05,0,0,0.05,10,0)" xlink:href="#cE"/><use transform="matrix(0.05,0,0,0.05,19,0)" xlink:href="#cs"/><use transform="matrix(0.05,0,0,0.05,24,0)" xlink:href="#cM"/><use transform="matrix(0.05,0,0,0.05,27.950000000000003,0)" xlink:href="#cz"/><use transform="matrix(0.05,0,0,0.05,37.95,0)" xlink:href="#cf"/></g><g id="aV"><use transform="matrix(0.05,0,0,0.05,0,0)" xlink:href="#cn"/><use transform="matrix(0.05,0,0,0.05,9,0)" xlink:href="#cM"/></g><g id="aW"><use transform="matrix(0.05,0,0,0.05,0,0)" xlink:href="#cw"/><use transform="matrix(0.05,0,0,0.05,10,0)" xlink:href="#bB"/><use transform="matrix(0.05,0,0,0.05,20.950000000000003,0)" xlink:href="#ct"/></g><g id="aX"><use transform="matrix(0.05,0,0,0.05,0,0)" xlink:href="#cm"/><use transform="matrix(0.05,0,0,0.05,5.95,0)" xlink:href="#bB"/><use transform="matrix(0.05,0,0,0.05,16.900000000000002,0)" xlink:href="#bz"/><use transform="matrix(0.05,0,0,0.05,27.85,0)" xlink:href="#bu"/></g><g id="aY"><use transform="matrix(0.05,0,0,0.05,0,0)" xlink:href="#ch"/><use transform="matrix(0.05,0,0,0.05,10.950000000000001,0)" xlink:href="#bx"/><use transform="matrix(0.05,0,0,0.05,20.950000000000003,0)" xlink:href="#bz"/><use transform="matrix(0.05,0,0,0.05,31.900000000000006,0)" xlink:href="#cm"/></g><g id="aZ"><use transform="matrix(0.05,0,0,0.05,0,0)" xlink:href="#cw"/><use transform="matrix(0.05,0,0,0.05,10,0)" xlink:href="#bx"/></g><g id="ba"><use transform="matrix(0.05,0,0,0.05,0,0)" xlink:href="#cm"/><use transform="matrix(0.05,0,0,0.05,5.95,0)" xlink:href="#bx"/><use transform="matrix(0.05,0,0,0.05,15.949999999999998,0)" xlink:href="#bu"/><use transform="matrix(0.05,0,0,0.05,22.95,0)" xlink:href="#cK"/><use transform="matrix(0.05,0,0,0.05,38.95,0)" xlink:href="#bv"/><use transform="matrix(0.05,0,0,0.05,43.95,0)" xlink:href="#ct"/><use transform="matrix(0.05,0,0,0.05,54.900000000000006,0)" xlink:href="#bx"/><use transform="matrix(0.05,0,0,0.05,64.9,0)" xlink:href="#bu"/><use transform="matrix(0.05,0,0,0.05,71.9,0)" xlink:href="#cJ"/></g></defs></g></svg>