<svg xmlns="http://www.w3.org/2000/svg" xmlns:xlink="http://www.w3.org/1999/xlink" width="1160" height="1020"><g transform="translate(-300 -140)"><path d="M840 165c0-2.76 2.24-5 5-5h150c2.76 0 5 2.24 5 5v110c0 2.76-2.24 5-5 5H845c-2.76 0-5-2.24-5-5z" stroke="#666" stroke-width="2" fill="#ff8f80"/><use xlink:href="#a" transform="matrix(1,0,0,1,840,160) translate(53.38271604938271 62.97222222222222)"/><path d="M920 280v780" fill="none"/><path d="M920 280v10m0 10v20m0 10v20m0 10v20m0 10v20m0 10v20m0 10v20m0 10v20m0 10v20m0 10v20m0 10v20m0 10v20m0 10v20m0 10v20m0 10v20m0 10v20m0 10v20m0 10v20m0 10v20m0 10v20m0 10v20m0 10v20m0 10v20m0 10v20m0 10v20m0 10v20m0 10v10" stroke="#999" stroke-width="2" fill="none"/><path d="M900 345c0-2.76 2.24-5 5-5h30c2.76 0 5 2.24 5 5v690c0 2.76-2.24 5-5 5h-30c-2.76 0-5-2.24-5-5z" stroke="#666" stroke-width="2" fill="#f2f2f2"/><path d="M880 1065c0-2.76 2.24-5 5-5h70c2.76 0 5 2.24 5 5v70c0 2.76-2.24 5-5 5h-70c-2.76 0-5-2.24-5-5z" fill="none"/><path d="M888 1068l64 64m0-64l-64 64" stroke="#666" stroke-width="8" fill="none"/><path d="M940 410h35c2.76 0 5 2.24 5 5v39.04c0 2.76-2.24 5-5 5h-35" stroke="#999" stroke-width="2" fill="none"/><path d="M954.27 463.67L940 459.04l14.27-4.64z" fill="#999"/><path d="M955.27 465.05L940 460.1v-2.12l15.27-4.96zm-12.03-6l10.03 3.24v-6.52z" fill="#999"/><use xlink:href="#b" transform="matrix(1,0,0,1,988,423.71766706598083) translate(0 14.4)"/><use xlink:href="#c" transform="matrix(1,0,0,1,988,423.71766706598083) translate(73.8 14.4)"/><use xlink:href="#d" transform="matrix(1,0,0,1,988,423.71766706598083) translate(166.75 14.4)"/><use xlink:href="#e" transform="matrix(1,0,0,1,988,423.71766706598083) translate(182.25 14.4)"/><path d="M640 380h260" stroke="#999" stroke-width="2" fill="none"/><path d="M900 380l-14.27 4.64v-9.28z" fill="#999"/><path d="M900 378.95v2.1L884.73 386v-12zm-13.27 4.3l10.03-3.25-10.03-3.26z" fill="#999"/><use xlink:href="#f" transform="matrix(1,0,0,1,728.85,354.4) translate(0 14.4)"/><path d="M320 300h288l32 32v128H320z" stroke="#d9be60" stroke-width="2" fill="#ffdf71"/><path d="M608 300l32 32h-32z" fill="#d9be60"/><use xlink:href="#g" transform="matrix(1,0,0,1,320,300) translate(29.930000000000014 74.4)"/><use xlink:href="#h" transform="matrix(1,0,0,1,320,300) translate(99.88000000000002 74.4)"/><use xlink:href="#i" transform="matrix(1,0,0,1,320,300) translate(119.88000000000002 74.4)"/><use xlink:href="#j" transform="matrix(1,0,0,1,320,300) translate(159.73000000000002 74.4)"/><use xlink:href="#k" transform="matrix(1,0,0,1,320,300) translate(184.73000000000002 74.4)"/><use xlink:href="#l" transform="matrix(1,0,0,1,320,300) translate(217.08 74.4)"/><use xlink:href="#m" transform="matrix(1,0,0,1,320,300) translate(251.08 74.4)"/><use xlink:href="#n" transform="matrix(1,0,0,1,320,300) translate(80.605 96)"/><use xlink:href="#o" transform="matrix(1,0,0,1,320,300) translate(144.505 96)"/><use xlink:href="#p" transform="matrix(1,0,0,1,320,300) translate(169.505 96)"/><path d="M1020 340h164l16 16v64h-180z" stroke="#d9be60" stroke-width="2" fill="#ffdf71"/><path d="M1184 340l16 16h-16z" fill="#d9be60"/><use xlink:href="#q" transform="matrix(1,0,0,1,1020,340) translate(25.129999999999995 31.9)"/><use xlink:href="#r" transform="matrix(1,0,0,1,1020,340) translate(54.129999999999995 31.9)"/><use xlink:href="#s" transform="matrix(1,0,0,1,1020,340) translate(106.97999999999999 31.9)"/><use xlink:href="#t" transform="matrix(1,0,0,1,1020,340) translate(124.93 31.9)"/><use xlink:href="#u" transform="matrix(1,0,0,1,1020,340) translate(13.130000000000004 53.5)"/><use xlink:href="#v" transform="matrix(1,0,0,1,1020,340) translate(63.03 53.5)"/><use xlink:href="#w" transform="matrix(1,0,0,1,1020,340) translate(92.03 53.5)"/><path d="M660 505c0-2.76 2.24-5 5-5h90c2.76 0 5 2.24 5 5v10c0 2.76-1.58 6.58-3.54 8.54l-2.92 2.92c-1.96 1.96-5.78 3.54-8.54 3.54h-80c-2.76 0-5-2.24-5-5z" fill="#fff"/><path d="M660 505c0-2.76 2.24-5 5-5h770c2.76 0 5 2.24 5 5v510c0 2.76-2.24 5-5 5H665c-2.76 0-5-2.24-5-5z" stroke="#666" stroke-width="2" fill="none"/><path d="M760 500v20l-10 10h-90" stroke="#666" stroke-width="2" fill="#fff"/><use xlink:href="#x" transform="matrix(1,0,0,1,668,500) translate(-1.4249999999999972 18.6)"/><use xlink:href="#y" transform="matrix(1,0,0,1,672,538) translate(10.549999999999997 18.6)"/><path d="M680 580h156l24 24v96H680z" stroke="#d9be60" stroke-width="2" fill="#ffdf71"/><path d="M836 580l24 24h-24z" fill="#d9be60"/><use xlink:href="#z" transform="matrix(1,0,0,1,680,580) translate(9.404999999999996 51.9)"/><use xlink:href="#A" transform="matrix(1,0,0,1,680,580) translate(30.354999999999997 51.9)"/><use xlink:href="#u" transform="matrix(1,0,0,1,680,580) translate(49.30499999999999 51.9)"/><use xlink:href="#B" transform="matrix(1,0,0,1,680,580) translate(99.205 51.9)"/><use xlink:href="#C" transform="matrix(1,0,0,1,680,580) translate(141.60500000000002 51.9)"/><use xlink:href="#w" transform="matrix(1,0,0,1,680,580) translate(52.58 73.5)"/><path d="M940 550.4h35c2.76 0 5 2.23 5 5v41.1c0 2.75-2.24 5-5 5h-35" stroke="#999" stroke-width="2" fill="none"/><path d="M954.27 606.12L940 601.5l14.27-4.65z" fill="#999"/><path d="M955.27 607.5L940 602.54v-2.1l15.27-4.97zm-12.03-6l10.03 3.24v-6.5z" fill="#999"/><use xlink:href="#D" transform="matrix(1,0,0,1,988,565.140372690431) translate(0 14.4)"/><use xlink:href="#E" transform="matrix(1,0,0,1,988,565.140372690431) translate(96.45 14.4)"/><use xlink:href="#F" transform="matrix(1,0,0,1,988,565.140372690431) translate(111.95 14.4)"/><use xlink:href="#G" transform="matrix(1,0,0,1,988,565.140372690431) translate(126.95 14.4)"/><use xlink:href="#H" transform="matrix(1,0,0,1,988,565.140372690431) translate(137.9 14.4)"/><path d="M990 600h336l24 24v96H990z" stroke="#d9be60" stroke-width="2" fill="#ffdf71"/><path d="M1326 600l24 24h-24z" fill="#d9be60"/><g><use xlink:href="#q" transform="matrix(1,0,0,1,990,600) translate(23.104999999999997 19.41)"/><use xlink:href="#I" transform="matrix(1,0,0,1,990,600) translate(52.105 19.41)"/><use xlink:href="#J" transform="matrix(1,0,0,1,990,600) translate(105.10499999999999 19.41)"/><use xlink:href="#K" transform="matrix(1,0,0,1,990,600) translate(130.105 19.41)"/><use xlink:href="#L" transform="matrix(1,0,0,1,990,600) translate(166.05499999999998 19.41)"/><use xlink:href="#M" transform="matrix(1,0,0,1,990,600) translate(191.05499999999998 19.41)"/><use xlink:href="#N" transform="matrix(1,0,0,1,990,600) translate(245.95499999999998 19.41)"/><use xlink:href="#O" transform="matrix(1,0,0,1,990,600) translate(307.905 19.41)"/><use xlink:href="#P" transform="matrix(1,0,0,1,990,600) translate(86.08 41.01)"/><use xlink:href="#Q" transform="matrix(1,0,0,1,990,600) translate(182.53 41.01)"/><use xlink:href="#R" transform="matrix(1,0,0,1,990,600) translate(198.03 41.01)"/><use xlink:href="#S" transform="matrix(1,0,0,1,990,600) translate(213.03 41.01)"/><use xlink:href="#T" transform="matrix(1,0,0,1,990,600) translate(239.93 41.01)"/><use xlink:href="#U" transform="matrix(1,0,0,1,990,600) translate(42.38 62.61)"/><use xlink:href="#V" transform="matrix(1,0,0,1,990,600) translate(57.38 62.61)"/><use xlink:href="#W" transform="matrix(1,0,0,1,990,600) translate(68.33 62.61)"/><use xlink:href="#X" transform="matrix(1,0,0,1,990,600) translate(164.78 62.61)"/><use xlink:href="#Y" transform="matrix(1,0,0,1,990,600) translate(180.28 62.61)"/><use xlink:href="#U" transform="matrix(1,0,0,1,990,600) translate(146.78 84.21000000000001)"/><use xlink:href="#V" transform="matrix(1,0,0,1,990,600) translate(161.78 84.21000000000001)"/><use xlink:href="#R" transform="matrix(1,0,0,1,990,600) translate(172.73000000000002 84.21000000000001)"/><use xlink:href="#X" transform="matrix(1,0,0,1,990,600) translate(187.73000000000002 84.21000000000001)"/><use xlink:href="#T" transform="matrix(1,0,0,1,990,600) translate(203.23000000000002 84.21000000000001)"/><use xlink:href="#U" transform="matrix(1,0,0,1,990,600) translate(146.78 105.81)"/><use xlink:href="#V" transform="matrix(1,0,0,1,990,600) translate(161.78 105.81)"/><use xlink:href="#Z" transform="matrix(1,0,0,1,990,600) translate(172.73000000000002 105.81)"/><use xlink:href="#X" transform="matrix(1,0,0,1,990,600) translate(187.73000000000002 105.81)"/><use xlink:href="#aa" transform="matrix(1,0,0,1,990,600) translate(203.23000000000002 105.81)"/></g><path d="M700 765c0-2.76 2.24-5 5-5h90c2.76 0 5 2.24 5 5v10c0 2.76-1.58 6.58-3.54 8.54l-2.92 2.92c-1.96 1.96-5.78 3.54-8.54 3.54h-80c-2.76 0-5-2.24-5-5z" fill="#fff"/><path d="M700 765c0-2.76 2.24-5 5-5h690c2.76 0 5 2.24 5 5v230c0 2.76-2.24 5-5 5H705c-2.76 0-5-2.24-5-5z" stroke="#666" stroke-width="2" fill="none"/><path d="M800 760v20l-10 10h-90" stroke="#666" stroke-width="2" fill="#fff"/><g><use xlink:href="#x" transform="matrix(1,0,0,1,708,760) translate(-1.4249999999999972 18.6)"/></g><g><use xlink:href="#ab" transform="matrix(1,0,0,1,712,798) translate(31.924999999999997 14.4)"/><use xlink:href="#ac" transform="matrix(1,0,0,1,712,798) translate(127.075 14.4)"/><use xlink:href="#ad" transform="matrix(1,0,0,1,712,798) translate(6.2250000000000085 36)"/></g><path d="M720 860h136l24 24v96H720z" stroke="#d9be60" stroke-width="2" fill="#ffdf71"/><path d="M856 860l24 24h-24z" fill="#d9be60"/><g><use xlink:href="#z" transform="matrix(1,0,0,1,720,860) translate(11.380000000000004 51.9)"/><use xlink:href="#ae" transform="matrix(1,0,0,1,720,860) translate(32.330000000000005 51.9)"/><use xlink:href="#af" transform="matrix(1,0,0,1,720,860) translate(73.73 51.9)"/><use xlink:href="#K" transform="matrix(1,0,0,1,720,860) translate(92.68 51.9)"/><use xlink:href="#ag" transform="matrix(1,0,0,1,720,860) translate(128.63 51.9)"/><use xlink:href="#ah" transform="matrix(1,0,0,1,720,860) translate(33.904999999999994 73.5)"/></g><path d="M940 814h35c2.76 0 5 2.24 5 5v40.67c0 2.76-2.24 5-5 5h-35" stroke="#999" stroke-width="2" fill="none"/><path d="M954.27 869.3L940 864.67l14.27-4.64z" fill="#999"/><path d="M955.27 870.68L940 865.72v-2.1l15.27-4.97zm-12.03-6l10.03 3.25v-6.52z" fill="#999"/><g><use xlink:href="#ai" transform="matrix(1,0,0,1,988,828.5333333333334) translate(0 14.4)"/></g><path d="M940 912.67h35c2.76 0 5 2.24 5 5V961c0 2.76-2.24 5-5 5h-35" stroke="#999" stroke-width="2" fill="none"/><path d="M954.27 970.64L940 966l14.27-4.64z" fill="#999"/><path d="M955.27 972L940 967.06v-2.1l15.27-4.96zm-12.03-6l10.03 3.26v-6.52z" fill="#999"/><g><use xlink:href="#f" transform="matrix(1,0,0,1,988.0000000000001,928.5333333333334) translate(0 14.4)"/></g><path d="M1180 850h170l20 20v80h-190z" stroke="#d9be60" stroke-width="2" fill="#ffdf71"/><path d="M1350 850l20 20h-20z" fill="#d9be60"/><g><use xlink:href="#q" transform="matrix(1,0,0,1,1180,850) translate(14.104999999999999 42.525)"/><use xlink:href="#af" transform="matrix(1,0,0,1,1180,850) translate(43.105 42.525)"/><use xlink:href="#aj" transform="matrix(1,0,0,1,1180,850) translate(62.05499999999999 42.525)"/><use xlink:href="#ak" transform="matrix(1,0,0,1,1180,850) translate(91.005 42.525)"/><use xlink:href="#al" transform="matrix(1,0,0,1,1180,850) translate(135.905 42.525)"/><use xlink:href="#am" transform="matrix(1,0,0,1,1180,850) translate(155.905 42.525)"/><use xlink:href="#an" transform="matrix(1,0,0,1,1180,850) translate(28.104999999999997 64.125)"/><use xlink:href="#ao" transform="matrix(1,0,0,1,1180,850) translate(92.955 64.125)"/><use xlink:href="#ap" transform="matrix(1,0,0,1,1180,850) translate(126.955 64.125)"/></g><defs><path fill="#333" d="M67-125c0 54 23 88 75 88 28 0 53-7 68-21v-34h-60v-39h108v91C232-14 192 4 140 4 58 4 20-42 15-125 8-236 126-280 215-234c19 10 29 26 37 47l-47 15c-11-23-29-39-63-39-53 1-75 33-75 86" id="aq"/><path fill="#333" d="M199 0l-22-63H83L61 0H9l90-248h61L250 0h-51zm-33-102l-36-108c-10 38-24 72-36 108h72" id="ar"/><path fill="#333" d="M230 0l2-204L168 0h-37L68-204 70 0H24v-248h70l56 185 57-185h69V0h-46" id="as"/><path fill="#333" d="M24 0v-248h195v40H76v63h132v40H76v65h150V0H24" id="at"/><g id="a"><use transform="matrix(0.04938271604938272,0,0,0.04938271604938272,0,0)" xlink:href="#aq"/><use transform="matrix(0.04938271604938272,0,0,0.04938271604938272,13.827160493827162,0)" xlink:href="#ar"/><use transform="matrix(0.04938271604938272,0,0,0.04938271604938272,26.617283950617285,0)" xlink:href="#as"/><use transform="matrix(0.04938271604938272,0,0,0.04938271604938272,41.38271604938272,0)" xlink:href="#at"/></g><path fill="#333" d="M135-194c52 0 70 43 70 98 0 56-19 99-73 100-30 1-46-15-58-35L72 0H24l1-261h50v104c11-23 29-37 60-37zM114-30c31 0 40-27 40-66 0-37-7-63-39-63s-41 28-41 65c0 36 8 64 40 64" id="au"/><path fill="#333" d="M110-194c64 0 96 36 96 99 0 64-35 99-97 99-61 0-95-36-95-99 0-62 34-99 96-99zm-1 164c35 0 45-28 45-65 0-40-10-65-43-65-34 0-45 26-45 65 0 36 10 65 43 65" id="av"/><path fill="#333" d="M25 0v-261h50V0H25" id="aw"/><path fill="#333" d="M185-48c-13 30-37 53-82 52C43 2 14-33 14-96s30-98 90-98c62 0 83 45 84 108H66c0 31 8 55 39 56 18 0 30-7 34-22zm-45-69c5-46-57-63-70-21-2 6-4 13-4 21h74" id="ax"/><path fill="#333" d="M133-34C117-15 103 5 69 4 32 3 11-16 11-54c-1-60 55-63 116-61 1-26-3-47-28-47-18 1-26 9-28 27l-52-2c7-38 36-58 82-57s74 22 75 68l1 82c-1 14 12 18 25 15v27c-30 8-71 5-69-32zm-48 3c29 0 43-24 42-57-32 0-66-3-65 30 0 17 8 27 23 27" id="ay"/><path fill="#333" d="M135-194c87-1 58 113 63 194h-50c-7-57 23-157-34-157-59 0-34 97-39 157H25l-1-190h47c2 12-1 28 3 38 12-26 28-41 61-42" id="az"/><g id="b"><use transform="matrix(0.05,0,0,0.05,0,0)" xlink:href="#au"/><use transform="matrix(0.05,0,0,0.05,10.950000000000001,0)" xlink:href="#av"/><use transform="matrix(0.05,0,0,0.05,21.900000000000002,0)" xlink:href="#av"/><use transform="matrix(0.05,0,0,0.05,32.85,0)" xlink:href="#aw"/><use transform="matrix(0.05,0,0,0.05,37.85,0)" xlink:href="#ax"/><use transform="matrix(0.05,0,0,0.05,47.85,0)" xlink:href="#ay"/><use transform="matrix(0.05,0,0,0.05,57.85,0)" xlink:href="#az"/></g><path fill="#333" d="M195-6C206 82 75 100 31 46c-4-6-6-13-8-21l49-6c3 16 16 24 34 25 40 0 42-37 40-79-11 22-30 35-61 35-53 0-70-43-70-97 0-56 18-96 73-97 30 0 46 14 59 34l2-30h47zm-90-29c32 0 41-27 41-63 0-35-9-62-40-62-32 0-39 29-40 63 0 36 9 62 39 62" id="aA"/><path fill="#333" d="M220-157c-53 9-28 100-34 157h-49v-107c1-27-5-49-29-50C55-147 81-57 75 0H25l-1-190h47c2 12-1 28 3 38 10-53 101-56 108 0 13-22 24-43 59-42 82 1 51 116 57 194h-49v-107c-1-25-5-48-29-50" id="aB"/><path fill="#333" d="M140-251c80 0 125 45 125 126S219 4 139 4C58 4 15-44 15-125s44-126 125-126zm-1 214c52 0 73-35 73-88 0-50-21-86-72-86-52 0-73 35-73 86s22 88 72 88" id="aC"/><path fill="#333" d="M128 0H69L1-190h53L99-40l48-150h52" id="aD"/><path fill="#333" d="M135-150c-39-12-60 13-60 57V0H25l-1-190h47c2 13-1 29 3 40 6-28 27-53 61-41v41" id="aE"/><g id="c"><use transform="matrix(0.05,0,0,0.05,0,0)" xlink:href="#aA"/><use transform="matrix(0.05,0,0,0.05,10.950000000000001,0)" xlink:href="#ay"/><use transform="matrix(0.05,0,0,0.05,20.950000000000003,0)" xlink:href="#aB"/><use transform="matrix(0.05,0,0,0.05,36.95,0)" xlink:href="#ax"/><use transform="matrix(0.05,0,0,0.05,46.95,0)" xlink:href="#aC"/><use transform="matrix(0.05,0,0,0.05,60.95,0)" xlink:href="#aD"/><use transform="matrix(0.05,0,0,0.05,70.95,0)" xlink:href="#ax"/><use transform="matrix(0.05,0,0,0.05,80.95,0)" xlink:href="#aE"/></g><path fill="#333" d="M15-148v-39h180v39H15zm0 97v-39h180v39H15" id="aF"/><use transform="matrix(0.05,0,0,0.05,0,0)" xlink:href="#aF" id="d"/><path fill="#333" d="M190-63c-7 42-38 67-86 67-59 0-84-38-90-98-12-110 154-137 174-36l-49 2c-2-19-15-32-35-32-30 0-35 28-38 64-6 74 65 87 74 30" id="aG"/><path fill="#333" d="M114-157C55-157 80-60 75 0H25v-261h50l-1 109c12-26 28-41 61-42 86-1 58 113 63 194h-50c-7-57 23-157-34-157" id="aH"/><path fill="#333" d="M147 0L96-86 75-71V0H25v-261h50v150l67-79h53l-66 74L201 0h-54" id="aI"/><path fill="#333" d="M67-93c0 74 22 123 53 168H70C40 30 18-18 18-93s22-123 52-168h50c-32 44-53 94-53 168" id="aJ"/><path fill="#333" d="M102-93c0 74-22 123-52 168H0C30 29 54-18 53-93c0-74-22-123-53-168h50c30 45 52 94 52 168" id="aK"/><g id="e"><use transform="matrix(0.05,0,0,0.05,0,0)" xlink:href="#aG"/><use transform="matrix(0.05,0,0,0.05,10,0)" xlink:href="#aH"/><use transform="matrix(0.05,0,0,0.05,20.950000000000003,0)" xlink:href="#ax"/><use transform="matrix(0.05,0,0,0.05,30.950000000000003,0)" xlink:href="#aG"/><use transform="matrix(0.05,0,0,0.05,40.95,0)" xlink:href="#aI"/><use transform="matrix(0.05,0,0,0.05,50.95,0)" xlink:href="#aq"/><use transform="matrix(0.05,0,0,0.05,64.95,0)" xlink:href="#ay"/><use transform="matrix(0.05,0,0,0.05,74.95,0)" xlink:href="#aB"/><use transform="matrix(0.05,0,0,0.05,90.95,0)" xlink:href="#ax"/><use transform="matrix(0.05,0,0,0.05,100.95,0)" xlink:href="#aC"/><use transform="matrix(0.05,0,0,0.05,114.95,0)" xlink:href="#aD"/><use transform="matrix(0.05,0,0,0.05,124.95,0)" xlink:href="#ax"/><use transform="matrix(0.05,0,0,0.05,134.95,0)" xlink:href="#aE"/><use transform="matrix(0.05,0,0,0.05,141.95,0)" xlink:href="#aJ"/><use transform="matrix(0.05,0,0,0.05,147.89999999999998,0)" xlink:href="#aK"/></g><path fill="#333" d="M88-194c31-1 46 15 58 34l-1-101h50l1 261h-48c-2-10 0-23-3-31C134-8 116 4 84 4 32 4 16-41 15-95c0-56 19-97 73-99zm17 164c33 0 40-30 41-66 1-37-9-64-41-64s-38 30-39 65c0 43 13 65 39 65" id="aL"/><path fill="#333" d="M136-208V0H84v-208H4v-40h212v40h-80" id="aM"/><path fill="#333" d="M85 4C-2 5 27-109 22-190h50c7 57-23 150 33 157 60-5 35-97 40-157h50l1 190h-47c-2-12 1-28-3-38-12 25-28 42-61 42" id="aN"/><g id="f"><use transform="matrix(0.05,0,0,0.05,0,0)" xlink:href="#ax"/><use transform="matrix(0.05,0,0,0.05,10,0)" xlink:href="#az"/><use transform="matrix(0.05,0,0,0.05,20.950000000000003,0)" xlink:href="#aL"/><use transform="matrix(0.05,0,0,0.05,31.900000000000006,0)" xlink:href="#aM"/><use transform="matrix(0.05,0,0,0.05,41.50000000000001,0)" xlink:href="#aN"/><use transform="matrix(0.05,0,0,0.05,52.45000000000002,0)" xlink:href="#aE"/><use transform="matrix(0.05,0,0,0.05,59.45000000000002,0)" xlink:href="#az"/><use transform="matrix(0.05,0,0,0.05,70.4,0)" xlink:href="#aJ"/><use transform="matrix(0.05,0,0,0.05,76.35000000000001,0)" xlink:href="#aK"/></g><path d="M30 0v-248h33v221h125V0H30" id="aO"/><path d="M100-194c62-1 85 37 85 99 1 63-27 99-86 99S16-35 15-95c0-66 28-99 85-99zM99-20c44 1 53-31 53-75 0-43-8-75-51-75s-53 32-53 75 10 74 51 75" id="aP"/><path d="M114-163C36-179 61-72 57 0H25l-1-190h30c1 12-1 29 2 39 6-27 23-49 58-41v29" id="aQ"/><path d="M135-143c-3-34-86-38-87 0 15 53 115 12 119 90S17 21 10-45l28-5c4 36 97 45 98 0-10-56-113-15-118-90-4-57 82-63 122-42 12 7 21 19 24 35" id="aR"/><path d="M145-31C134-9 116 4 85 4 32 4 16-35 15-94c0-59 17-99 70-100 32-1 48 14 60 33 0-11-1-24 2-32h30l-1 268h-32zM93-21c41 0 51-33 51-76s-8-73-50-73c-40 0-46 35-46 75s5 74 45 74" id="aS"/><path d="M84 4C-5 8 30-112 23-190h32v120c0 31 7 50 39 49 72-2 45-101 50-169h31l1 190h-30c-1-10 1-25-2-33-11 22-28 36-60 37" id="aT"/><path d="M100-194c63 0 86 42 84 106H49c0 40 14 67 53 68 26 1 43-12 49-29l28 8c-11 28-37 45-77 45C44 4 14-33 15-96c1-61 26-98 85-98zm52 81c6-60-76-77-97-28-3 7-6 17-6 28h103" id="aU"/><g id="g"><use transform="matrix(0.05,0,0,0.05,0,0)" xlink:href="#aO"/><use transform="matrix(0.05,0,0,0.05,10,0)" xlink:href="#aP"/><use transform="matrix(0.05,0,0,0.05,20,0)" xlink:href="#aQ"/><use transform="matrix(0.05,0,0,0.05,25.950000000000003,0)" xlink:href="#aR"/><use transform="matrix(0.05,0,0,0.05,34.95,0)" xlink:href="#aS"/><use transform="matrix(0.05,0,0,0.05,44.95,0)" xlink:href="#aT"/><use transform="matrix(0.05,0,0,0.05,54.95,0)" xlink:href="#aU"/></g><path d="M25 0v-261h50V0H25" id="aV"/><path d="M185-48c-13 30-37 53-82 52C43 2 14-33 14-96s30-98 90-98c62 0 83 45 84 108H66c0 31 8 55 39 56 18 0 30-7 34-22zm-45-69c5-46-57-63-70-21-2 6-4 13-4 21h74" id="aW"/><g id="h"><use transform="matrix(0.05,0,0,0.05,0,0)" xlink:href="#aV"/><use transform="matrix(0.05,0,0,0.05,5,0)" xlink:href="#aW"/></g><path d="M115-3C79 11 28 4 28-45v-112H4v-33h27l15-45h31v45h36v33H77v99c-1 23 16 31 38 25v30" id="aX"/><path d="M110-194c64 0 96 36 96 99 0 64-35 99-97 99-61 0-95-36-95-99 0-62 34-99 96-99zm-1 164c35 0 45-28 45-65 0-40-10-65-43-65-34 0-45 26-45 65 0 36 10 65 43 65" id="aY"/><path d="M85 4C-2 5 27-109 22-190h50c7 57-23 150 33 157 60-5 35-97 40-157h50l1 190h-47c-2-12 1-28-3-38-12 25-28 42-61 42" id="aZ"/><path d="M135-150c-39-12-60 13-60 57V0H25l-1-190h47c2 13-1 29 3 40 6-28 27-53 61-41v41" id="ba"/><g id="i"><use transform="matrix(0.05,0,0,0.05,0,0)" xlink:href="#aX"/><use transform="matrix(0.05,0,0,0.05,5.95,0)" xlink:href="#aY"/><use transform="matrix(0.05,0,0,0.05,16.900000000000002,0)" xlink:href="#aZ"/><use transform="matrix(0.05,0,0,0.05,27.85,0)" xlink:href="#ba"/></g><path d="M85-194c31 0 48 13 60 33l-1-100h32l1 261h-30c-2-10 0-23-3-31C134-8 116 4 85 4 32 4 16-35 15-94c0-66 23-100 70-100zm9 24c-40 0-46 34-46 75 0 40 6 74 45 74 42 0 51-32 51-76 0-42-9-74-50-73" id="bb"/><g id="j"><use transform="matrix(0.05,0,0,0.05,0,0)" xlink:href="#bb"/><use transform="matrix(0.05,0,0,0.05,10,0)" xlink:href="#aU"/></g><path d="M24 0v-261h32V0H24" id="bc"/><path d="M47-170H22l-4-78h33" id="bd"/><path d="M117-194c89-4 53 116 60 194h-32v-121c0-31-8-49-39-48C34-167 62-67 57 0H25l-1-190h30c1 10-1 24 2 32 11-22 29-35 61-36" id="be"/><g id="k"><use transform="matrix(0.05,0,0,0.05,0,0)" xlink:href="#bc"/><use transform="matrix(0.05,0,0,0.05,3.95,0)" xlink:href="#bd"/><use transform="matrix(0.05,0,0,0.05,7.3500000000000005,0)" xlink:href="#aT"/><use transform="matrix(0.05,0,0,0.05,17.35,0)" xlink:href="#be"/></g><g id="l"><use transform="matrix(0.05,0,0,0.05,0,0)" xlink:href="#bb"/><use transform="matrix(0.05,0,0,0.05,10,0)" xlink:href="#aU"/><use transform="matrix(0.05,0,0,0.05,20,0)" xlink:href="#aR"/></g><path d="M141 0L90-78 38 0H4l68-98-65-92h35l48 74 47-74h35l-64 92 68 98h-35" id="bf"/><g id="m"><use transform="matrix(0.05,0,0,0.05,0,0)" xlink:href="#bb"/><use transform="matrix(0.05,0,0,0.05,10,0)" xlink:href="#aU"/><use transform="matrix(0.05,0,0,0.05,20,0)" xlink:href="#aT"/><use transform="matrix(0.05,0,0,0.05,30,0)" xlink:href="#bf"/></g><path d="M24-231v-30h32v30H24zM-9 49c24 4 33-6 33-30v-209h32V24c2 40-23 58-65 49V49" id="bg"/><g id="n"><use transform="matrix(0.05,0,0,0.05,0,0)" xlink:href="#bg"/><use transform="matrix(0.05,0,0,0.05,3.95,0)" xlink:href="#aP"/><use transform="matrix(0.05,0,0,0.05,13.949999999999998,0)" xlink:href="#aT"/><use transform="matrix(0.05,0,0,0.05,23.95,0)" xlink:href="#aU"/><use transform="matrix(0.05,0,0,0.05,33.95,0)" xlink:href="#aT"/><use transform="matrix(0.05,0,0,0.05,43.95,0)" xlink:href="#aQ"/><use transform="matrix(0.05,0,0,0.05,49.900000000000006,0)" xlink:href="#aR"/></g><path d="M137-138c1-29-70-34-71-4 15 46 118 7 119 86 1 83-164 76-172 9l43-7c4 19 20 25 44 25 33 8 57-30 24-41C81-84 22-81 20-136c-2-80 154-74 161-7" id="bh"/><g id="o"><use transform="matrix(0.05,0,0,0.05,0,0)" xlink:href="#bh"/><use transform="matrix(0.05,0,0,0.05,10,0)" xlink:href="#aW"/></g><path d="M220-157c-53 9-28 100-34 157h-49v-107c1-27-5-49-29-50C55-147 81-57 75 0H25l-1-190h47c2 12-1 28 3 38 10-53 101-56 108 0 13-22 24-43 59-42 82 1 51 116 57 194h-49v-107c-1-25-5-48-29-50" id="bi"/><path d="M25-224v-37h50v37H25zM25 0v-190h50V0H25" id="bj"/><path d="M135-194c87-1 58 113 63 194h-50c-7-57 23-157-34-157-59 0-34 97-39 157H25l-1-190h47c2 12-1 28 3 38 12-26 28-41 61-42" id="bk"/><path d="M33 0v-38h34V0H33" id="bl"/><g id="p"><use transform="matrix(0.05,0,0,0.05,0,0)" xlink:href="#aX"/><use transform="matrix(0.05,0,0,0.05,5.95,0)" xlink:href="#aW"/><use transform="matrix(0.05,0,0,0.05,15.949999999999998,0)" xlink:href="#ba"/><use transform="matrix(0.05,0,0,0.05,22.95,0)" xlink:href="#bi"/><use transform="matrix(0.05,0,0,0.05,38.95,0)" xlink:href="#bj"/><use transform="matrix(0.05,0,0,0.05,43.95,0)" xlink:href="#bk"/><use transform="matrix(0.05,0,0,0.05,54.900000000000006,0)" xlink:href="#aW"/><use transform="matrix(0.05,0,0,0.05,64.9,0)" xlink:href="#bl"/></g><path d="M140-251c81 0 123 46 123 126C263-46 219 4 140 4 59 4 17-45 17-125s42-126 123-126zm0 227c63 0 89-41 89-101s-29-99-89-99c-61 0-89 39-89 99S79-25 140-24" id="bm"/><g id="q"><use transform="matrix(0.05,0,0,0.05,0,0)" xlink:href="#bm"/><use transform="matrix(0.05,0,0,0.05,14,0)" xlink:href="#be"/></g><path d="M108 0H70L1-190h34L89-25l56-165h34" id="bn"/><path d="M100-194c63 0 86 42 84 106H49c0 40 14 67 53 68 26 1 43-12 49-29l28 8c-11 28-37 45-77 45C44 4 14-33 15-96c1-61 26-98 85-98zm52 81c6-60-76-77-97-28-3 7-6 17-6 28h103zm-74-98c8-23 27-35 38-54h36v5l-58 49H78" id="bo"/><path d="M24-231v-30h32v30H24zM24 0v-190h32V0H24" id="bp"/><path d="M101-234c-31-9-42 10-38 44h38v23H63V0H32v-167H5v-23h27c-7-52 17-82 69-68v24" id="bq"/><g id="r"><use transform="matrix(0.05,0,0,0.05,0,0)" xlink:href="#bn"/><use transform="matrix(0.05,0,0,0.05,9,0)" xlink:href="#bo"/><use transform="matrix(0.05,0,0,0.05,19,0)" xlink:href="#aQ"/><use transform="matrix(0.05,0,0,0.05,24.95,0)" xlink:href="#bp"/><use transform="matrix(0.05,0,0,0.05,28.899999999999995,0)" xlink:href="#bq"/><use transform="matrix(0.05,0,0,0.05,33.9,0)" xlink:href="#bp"/><use transform="matrix(0.05,0,0,0.05,37.85,0)" xlink:href="#aU"/></g><g id="s"><use transform="matrix(0.05,0,0,0.05,0,0)" xlink:href="#aR"/><use transform="matrix(0.05,0,0,0.05,9,0)" xlink:href="#bp"/></g><path d="M141-36C126-15 110 5 73 4 37 3 15-17 15-53c-1-64 63-63 125-63 3-35-9-54-41-54-24 1-41 7-42 31l-33-3c5-37 33-52 76-52 45 0 72 20 72 64v82c-1 20 7 32 28 27v20c-31 9-61-2-59-35zM48-53c0 20 12 33 32 33 41-3 63-29 60-74-43 2-92-5-92 41" id="br"/><g id="t"><use transform="matrix(0.05,0,0,0.05,0,0)" xlink:href="#bc"/><use transform="matrix(0.05,0,0,0.05,3.95,0)" xlink:href="#br"/></g><path d="M115-194c55 1 70 41 70 98S169 2 115 4C84 4 66-9 55-30l1 105H24l-1-265h31l2 30c10-21 28-34 59-34zm-8 174c40 0 45-34 45-75s-6-73-45-74c-42 0-51 32-51 76 0 43 10 73 51 73" id="bs"/><path d="M59-47c-2 24 18 29 38 22v24C64 9 27 4 27-40v-127H5v-23h24l9-43h21v43h35v23H59v120" id="bt"/><g id="u"><use transform="matrix(0.05,0,0,0.05,0,0)" xlink:href="#bs"/><use transform="matrix(0.05,0,0,0.05,10,0)" xlink:href="#br"/><use transform="matrix(0.05,0,0,0.05,20,0)" xlink:href="#aQ"/><use transform="matrix(0.05,0,0,0.05,25.950000000000003,0)" xlink:href="#bt"/><use transform="matrix(0.05,0,0,0.05,30.950000000000003,0)" xlink:href="#bp"/><use transform="matrix(0.05,0,0,0.05,34.9,0)" xlink:href="#aU"/></g><g id="v"><use transform="matrix(0.05,0,0,0.05,0,0)" xlink:href="#aU"/><use transform="matrix(0.05,0,0,0.05,10,0)" xlink:href="#aR"/><use transform="matrix(0.05,0,0,0.05,19,0)" xlink:href="#bt"/></g><path d="M210-169c-67 3-38 105-44 169h-31v-121c0-29-5-50-35-48C34-165 62-65 56 0H25l-1-190h30c1 10-1 24 2 32 10-44 99-50 107 0 11-21 27-35 58-36 85-2 47 119 55 194h-31v-121c0-29-5-49-35-48" id="bu"/><g id="w"><use transform="matrix(0.05,0,0,0.05,0,0)" xlink:href="#bt"/><use transform="matrix(0.05,0,0,0.05,5,0)" xlink:href="#aU"/><use transform="matrix(0.05,0,0,0.05,15,0)" xlink:href="#aQ"/><use transform="matrix(0.05,0,0,0.05,20.95,0)" xlink:href="#bu"/><use transform="matrix(0.05,0,0,0.05,35.9,0)" xlink:href="#bp"/><use transform="matrix(0.05,0,0,0.05,39.85,0)" xlink:href="#be"/><use transform="matrix(0.05,0,0,0.05,49.85,0)" xlink:href="#bo"/><use transform="matrix(0.05,0,0,0.05,59.85,0)" xlink:href="#aU"/><use transform="matrix(0.05,0,0,0.05,69.85,0)" xlink:href="#bl"/></g><path fill="#333" d="M205 0l-28-72H64L36 0H1l101-248h38L239 0h-34zm-38-99l-47-123c-12 45-31 82-46 123h93" id="bv"/><path fill="#333" d="M24 0v-261h32V0H24" id="bw"/><path fill="#333" d="M59-47c-2 24 18 29 38 22v24C64 9 27 4 27-40v-127H5v-23h24l9-43h21v43h35v23H59v120" id="bx"/><path fill="#333" d="M100-194c63 0 86 42 84 106H49c0 40 14 67 53 68 26 1 43-12 49-29l28 8c-11 28-37 45-77 45C44 4 14-33 15-96c1-61 26-98 85-98zm52 81c6-60-76-77-97-28-3 7-6 17-6 28h103" id="by"/><path fill="#333" d="M114-163C36-179 61-72 57 0H25l-1-190h30c1 12-1 29 2 39 6-27 23-49 58-41v29" id="bz"/><path fill="#333" d="M117-194c89-4 53 116 60 194h-32v-121c0-31-8-49-39-48C34-167 62-67 57 0H25l-1-190h30c1 10-1 24 2 32 11-22 29-35 61-36" id="bA"/><path fill="#333" d="M141-36C126-15 110 5 73 4 37 3 15-17 15-53c-1-64 63-63 125-63 3-35-9-54-41-54-24 1-41 7-42 31l-33-3c5-37 33-52 76-52 45 0 72 20 72 64v82c-1 20 7 32 28 27v20c-31 9-61-2-59-35zM48-53c0 20 12 33 32 33 41-3 63-29 60-74-43 2-92-5-92 41" id="bB"/><path fill="#333" d="M24-231v-30h32v30H24zM24 0v-190h32V0H24" id="bC"/><path fill="#333" d="M108 0H70L1-190h34L89-25l56-165h34" id="bD"/><g id="x"><use transform="matrix(0.05,0,0,0.05,0,0)" xlink:href="#bv"/><use transform="matrix(0.05,0,0,0.05,12,0)" xlink:href="#bw"/><use transform="matrix(0.05,0,0,0.05,15.949999999999998,0)" xlink:href="#bx"/><use transform="matrix(0.05,0,0,0.05,20.95,0)" xlink:href="#by"/><use transform="matrix(0.05,0,0,0.05,30.950000000000003,0)" xlink:href="#bz"/><use transform="matrix(0.05,0,0,0.05,36.9,0)" xlink:href="#bA"/><use transform="matrix(0.05,0,0,0.05,46.9,0)" xlink:href="#bB"/><use transform="matrix(0.05,0,0,0.05,56.900000000000006,0)" xlink:href="#bx"/><use transform="matrix(0.05,0,0,0.05,61.900000000000006,0)" xlink:href="#bC"/><use transform="matrix(0.05,0,0,0.05,65.85,0)" xlink:href="#bD"/><use transform="matrix(0.05,0,0,0.05,74.85,0)" xlink:href="#by"/></g><path fill="#333" d="M26 75v-336h71v23H56V52h41v23H26" id="bE"/><path fill="#333" d="M63-70H37l-4-178h34zM33 0v-35h34V0H33" id="bF"/><path fill="#333" d="M177-190C167-65 218 103 67 71c-23-6-38-20-44-43l32-5c15 47 100 32 89-28v-30C133-14 115 1 83 1 29 1 15-40 15-95c0-56 16-97 71-98 29-1 48 16 59 35 1-10 0-23 2-32h30zM94-22c36 0 50-32 50-73 0-42-14-75-50-75-39 0-46 34-46 75s6 73 46 73" id="bG"/><path fill="#333" d="M210-169c-67 3-38 105-44 169h-31v-121c0-29-5-50-35-48C34-165 62-65 56 0H25l-1-190h30c1 10-1 24 2 32 10-44 99-50 107 0 11-21 27-35 58-36 85-2 47 119 55 194h-31v-121c0-29-5-49-35-48" id="bH"/><path fill="#333" d="M140-251c81 0 123 46 123 126C263-46 219 4 140 4 59 4 17-45 17-125s42-126 123-126zm0 227c63 0 89-41 89-101s-29-99-89-99c-61 0-89 39-89 99S79-25 140-24" id="bI"/><path fill="#333" d="M3 75V52h41v-290H3v-23h71V75H3" id="bJ"/><g id="y"><use transform="matrix(0.05,0,0,0.05,0,0)" xlink:href="#bE"/><use transform="matrix(0.05,0,0,0.05,5,0)" xlink:href="#bF"/><use transform="matrix(0.05,0,0,0.05,10,0)" xlink:href="#bG"/><use transform="matrix(0.05,0,0,0.05,20,0)" xlink:href="#bB"/><use transform="matrix(0.05,0,0,0.05,30,0)" xlink:href="#bH"/><use transform="matrix(0.05,0,0,0.05,44.95,0)" xlink:href="#by"/><use transform="matrix(0.05,0,0,0.05,54.95,0)" xlink:href="#bI"/><use transform="matrix(0.05,0,0,0.05,68.95,0)" xlink:href="#bD"/><use transform="matrix(0.05,0,0,0.05,77.95,0)" xlink:href="#by"/><use transform="matrix(0.05,0,0,0.05,87.95,0)" xlink:href="#bz"/><use transform="matrix(0.05,0,0,0.05,93.9,0)" xlink:href="#bJ"/></g><path d="M185-189c-5-48-123-54-124 2 14 75 158 14 163 119 3 78-121 87-175 55-17-10-28-26-33-46l33-7c5 56 141 63 141-1 0-78-155-14-162-118-5-82 145-84 179-34 5 7 8 16 11 25" id="bK"/><g id="z"><use transform="matrix(0.05,0,0,0.05,0,0)" xlink:href="#bK"/><use transform="matrix(0.05,0,0,0.05,12,0)" xlink:href="#bp"/></g><g id="A"><use transform="matrix(0.05,0,0,0.05,0,0)" xlink:href="#bc"/><use transform="matrix(0.05,0,0,0.05,3.95,0)" xlink:href="#br"/></g><g id="B"><use transform="matrix(0.05,0,0,0.05,0,0)" xlink:href="#be"/><use transform="matrix(0.05,0,0,0.05,10,0)" xlink:href="#bd"/><use transform="matrix(0.05,0,0,0.05,13.4,0)" xlink:href="#aU"/><use transform="matrix(0.05,0,0,0.05,23.4,0)" xlink:href="#aR"/><use transform="matrix(0.05,0,0,0.05,32.4,0)" xlink:href="#bt"/></g><g id="C"><use transform="matrix(0.05,0,0,0.05,0,0)" xlink:href="#bs"/><use transform="matrix(0.05,0,0,0.05,10,0)" xlink:href="#br"/><use transform="matrix(0.05,0,0,0.05,20,0)" xlink:href="#aR"/></g><path fill="#333" d="M135-194c53 0 70 44 70 98 0 56-19 98-73 100-31 1-45-17-59-34 3 33 2 69 2 105H25l-1-265h48c2 10 0 23 3 31 11-24 29-35 60-35zM114-30c33 0 39-31 40-66 0-38-9-64-40-64-56 0-55 130 0 130" id="bL"/><path fill="#333" d="M123 10C108 53 80 86 19 72V37c35 8 53-11 59-39L3-190h52l48 148c12-52 28-100 44-148h51" id="bM"/><g id="D"><use transform="matrix(0.05,0,0,0.05,0,0)" xlink:href="#bL"/><use transform="matrix(0.05,0,0,0.05,10.950000000000001,0)" xlink:href="#aw"/><use transform="matrix(0.05,0,0,0.05,15.950000000000001,0)" xlink:href="#ay"/><use transform="matrix(0.05,0,0,0.05,25.950000000000003,0)" xlink:href="#bM"/><use transform="matrix(0.05,0,0,0.05,35.95,0)" xlink:href="#ax"/><use transform="matrix(0.05,0,0,0.05,45.95,0)" xlink:href="#aE"/><use transform="matrix(0.05,0,0,0.05,52.95,0)" xlink:href="#aM"/><use transform="matrix(0.05,0,0,0.05,62.550000000000004,0)" xlink:href="#aN"/><use transform="matrix(0.05,0,0,0.05,73.5,0)" xlink:href="#aE"/><use transform="matrix(0.05,0,0,0.05,80.5,0)" xlink:href="#az"/></g><use transform="matrix(0.05,0,0,0.05,0,0)" xlink:href="#aF" id="E"/><path fill="#333" d="M23 0v-37h61v-169l-59 37v-38l62-41h46v211h57V0H23" id="bN"/><use transform="matrix(0.05,0,0,0.05,0,0)" xlink:href="#bN" id="F"/><path fill="#333" d="M14-72v-43h91v43H14" id="bO"/><use transform="matrix(0.05,0,0,0.05,0,0)" xlink:href="#bO" id="G"/><g id="H"><use transform="matrix(0.05,0,0,0.05,0,0)" xlink:href="#bL"/><use transform="matrix(0.05,0,0,0.05,10.950000000000001,0)" xlink:href="#aw"/><use transform="matrix(0.05,0,0,0.05,15.950000000000001,0)" xlink:href="#ay"/><use transform="matrix(0.05,0,0,0.05,25.950000000000003,0)" xlink:href="#bM"/><use transform="matrix(0.05,0,0,0.05,35.95,0)" xlink:href="#ax"/><use transform="matrix(0.05,0,0,0.05,45.95,0)" xlink:href="#aE"/><use transform="matrix(0.05,0,0,0.05,52.95,0)" xlink:href="#aM"/><use transform="matrix(0.05,0,0,0.05,62.550000000000004,0)" xlink:href="#aN"/><use transform="matrix(0.05,0,0,0.05,73.5,0)" xlink:href="#aE"/><use transform="matrix(0.05,0,0,0.05,80.5,0)" xlink:href="#az"/></g><g id="I"><use transform="matrix(0.05,0,0,0.05,0,0)" xlink:href="#bs"/><use transform="matrix(0.05,0,0,0.05,10,0)" xlink:href="#br"/><use transform="matrix(0.05,0,0,0.05,20,0)" xlink:href="#aR"/><use transform="matrix(0.05,0,0,0.05,29,0)" xlink:href="#aR"/><use transform="matrix(0.05,0,0,0.05,38,0)" xlink:href="#aU"/></g><g id="J"><use transform="matrix(0.05,0,0,0.05,0,0)" xlink:href="#br"/><use transform="matrix(0.05,0,0,0.05,10,0)" xlink:href="#aT"/></g><g id="K"><use transform="matrix(0.05,0,0,0.05,0,0)" xlink:href="#bt"/><use transform="matrix(0.05,0,0,0.05,5,0)" xlink:href="#aP"/><use transform="matrix(0.05,0,0,0.05,15,0)" xlink:href="#aT"/><use transform="matrix(0.05,0,0,0.05,25,0)" xlink:href="#aQ"/></g><g id="L"><use transform="matrix(0.05,0,0,0.05,0,0)" xlink:href="#bb"/><use transform="matrix(0.05,0,0,0.05,10,0)" xlink:href="#aT"/></g><g id="M"><use transform="matrix(0.05,0,0,0.05,0,0)" xlink:href="#bg"/><use transform="matrix(0.05,0,0,0.05,3.95,0)" xlink:href="#aP"/><use transform="matrix(0.05,0,0,0.05,13.949999999999998,0)" xlink:href="#aT"/><use transform="matrix(0.05,0,0,0.05,23.95,0)" xlink:href="#aU"/><use transform="matrix(0.05,0,0,0.05,33.95,0)" xlink:href="#aT"/><use transform="matrix(0.05,0,0,0.05,43.95,0)" xlink:href="#aQ"/></g><g id="N"><use transform="matrix(0.05,0,0,0.05,0,0)" xlink:href="#aR"/><use transform="matrix(0.05,0,0,0.05,9,0)" xlink:href="#aT"/><use transform="matrix(0.05,0,0,0.05,19,0)" xlink:href="#bp"/><use transform="matrix(0.05,0,0,0.05,22.95,0)" xlink:href="#bn"/><use transform="matrix(0.05,0,0,0.05,31.950000000000003,0)" xlink:href="#br"/><use transform="matrix(0.05,0,0,0.05,41.95,0)" xlink:href="#be"/><use transform="matrix(0.05,0,0,0.05,51.95,0)" xlink:href="#bt"/></g><path d="M33-154v-36h34v36H33zM33 0v-36h34V0H33" id="bP"/><use transform="matrix(0.05,0,0,0.05,0,0)" xlink:href="#bP" id="O"/><path d="M135-194c53 0 70 44 70 98 0 56-19 98-73 100-31 1-45-17-59-34 3 33 2 69 2 105H25l-1-265h48c2 10 0 23 3 31 11-24 29-35 60-35zM114-30c33 0 39-31 40-66 0-38-9-64-40-64-56 0-55 130 0 130" id="bQ"/><path d="M133-34C117-15 103 5 69 4 32 3 11-16 11-54c-1-60 55-63 116-61 1-26-3-47-28-47-18 1-26 9-28 27l-52-2c7-38 36-58 82-57s74 22 75 68l1 82c-1 14 12 18 25 15v27c-30 8-71 5-69-32zm-48 3c29 0 43-24 42-57-32 0-66-3-65 30 0 17 8 27 23 27" id="bR"/><path d="M123 10C108 53 80 86 19 72V37c35 8 53-11 59-39L3-190h52l48 148c12-52 28-100 44-148h51" id="bS"/><path d="M136-208V0H84v-208H4v-40h212v40h-80" id="bT"/><g id="P"><use transform="matrix(0.05,0,0,0.05,0,0)" xlink:href="#bQ"/><use transform="matrix(0.05,0,0,0.05,10.950000000000001,0)" xlink:href="#aV"/><use transform="matrix(0.05,0,0,0.05,15.950000000000001,0)" xlink:href="#bR"/><use transform="matrix(0.05,0,0,0.05,25.950000000000003,0)" xlink:href="#bS"/><use transform="matrix(0.05,0,0,0.05,35.95,0)" xlink:href="#aW"/><use transform="matrix(0.05,0,0,0.05,45.95,0)" xlink:href="#ba"/><use transform="matrix(0.05,0,0,0.05,52.95,0)" xlink:href="#bT"/><use transform="matrix(0.05,0,0,0.05,62.550000000000004,0)" xlink:href="#aZ"/><use transform="matrix(0.05,0,0,0.05,73.5,0)" xlink:href="#ba"/><use transform="matrix(0.05,0,0,0.05,80.5,0)" xlink:href="#bk"/></g><path d="M15-148v-39h180v39H15zm0 97v-39h180v39H15" id="bU"/><use transform="matrix(0.05,0,0,0.05,0,0)" xlink:href="#bU" id="Q"/><path d="M101-251c68 0 84 54 84 127C185-50 166 4 99 4S15-52 14-124c-1-75 17-127 87-127zm-1 216c37-5 36-46 36-89s4-89-36-89c-39 0-36 45-36 89 0 43-3 85 36 89" id="bV"/><use transform="matrix(0.05,0,0,0.05,0,0)" xlink:href="#bV" id="R"/><g id="S"><use transform="matrix(0.05,0,0,0.05,0,0)" xlink:href="#aY"/><use transform="matrix(0.05,0,0,0.05,10.950000000000001,0)" xlink:href="#aZ"/></g><path d="M23 0v-37h61v-169l-59 37v-38l62-41h46v211h57V0H23" id="bW"/><use transform="matrix(0.05,0,0,0.05,0,0)" xlink:href="#bW" id="T"/><use transform="matrix(0.05,0,0,0.05,0,0)" xlink:href="#bW" id="U"/><path d="M14-72v-43h91v43H14" id="bX"/><use transform="matrix(0.05,0,0,0.05,0,0)" xlink:href="#bX" id="V"/><g id="W"><use transform="matrix(0.05,0,0,0.05,0,0)" xlink:href="#bQ"/><use transform="matrix(0.05,0,0,0.05,10.950000000000001,0)" xlink:href="#aV"/><use transform="matrix(0.05,0,0,0.05,15.950000000000001,0)" xlink:href="#bR"/><use transform="matrix(0.05,0,0,0.05,25.950000000000003,0)" xlink:href="#bS"/><use transform="matrix(0.05,0,0,0.05,35.95,0)" xlink:href="#aW"/><use transform="matrix(0.05,0,0,0.05,45.95,0)" xlink:href="#ba"/><use transform="matrix(0.05,0,0,0.05,52.95,0)" xlink:href="#bT"/><use transform="matrix(0.05,0,0,0.05,62.550000000000004,0)" xlink:href="#aZ"/><use transform="matrix(0.05,0,0,0.05,73.5,0)" xlink:href="#ba"/><use transform="matrix(0.05,0,0,0.05,80.5,0)" xlink:href="#bk"/></g><use transform="matrix(0.05,0,0,0.05,0,0)" xlink:href="#bU" id="X"/><path d="M114-157C55-157 80-60 75 0H25v-261h50l-1 109c12-26 28-41 61-42 86-1 58 113 63 194h-50c-7-57 23-157-34-157" id="bY"/><path d="M24-248c93 1 206-16 204 79-1 75-69 88-152 82V0H24v-248zm52 121c47 0 100 7 100-41 0-47-54-39-100-39v80" id="bZ"/><g id="Y"><use transform="matrix(0.05,0,0,0.05,0,0)" xlink:href="#aY"/><use transform="matrix(0.05,0,0,0.05,10.950000000000001,0)" xlink:href="#aX"/><use transform="matrix(0.05,0,0,0.05,16.900000000000002,0)" xlink:href="#bY"/><use transform="matrix(0.05,0,0,0.05,27.85,0)" xlink:href="#aW"/><use transform="matrix(0.05,0,0,0.05,37.85,0)" xlink:href="#ba"/><use transform="matrix(0.05,0,0,0.05,44.85,0)" xlink:href="#bZ"/><use transform="matrix(0.05,0,0,0.05,56.85,0)" xlink:href="#aV"/><use transform="matrix(0.05,0,0,0.05,61.85,0)" xlink:href="#bR"/><use transform="matrix(0.05,0,0,0.05,71.85,0)" xlink:href="#bS"/><use transform="matrix(0.05,0,0,0.05,81.85,0)" xlink:href="#aW"/><use transform="matrix(0.05,0,0,0.05,91.85,0)" xlink:href="#ba"/><use transform="matrix(0.05,0,0,0.05,98.85,0)" xlink:href="#bT"/><use transform="matrix(0.05,0,0,0.05,108.45,0)" xlink:href="#aZ"/><use transform="matrix(0.05,0,0,0.05,119.4,0)" xlink:href="#ba"/><use transform="matrix(0.05,0,0,0.05,126.4,0)" xlink:href="#bk"/></g><use transform="matrix(0.05,0,0,0.05,0,0)" xlink:href="#bW" id="Z"/><use transform="matrix(0.05,0,0,0.05,0,0)" xlink:href="#bV" id="aa"/><path fill="#333" d="M115-194c55 1 70 41 70 98S169 2 115 4C84 4 66-9 55-30l1 105H24l-1-265h31l2 30c10-21 28-34 59-34zm-8 174c40 0 45-34 45-75s-6-73-45-74c-42 0-51 32-51 76 0 43 10 73 51 73" id="ca"/><path fill="#333" d="M179-190L93 31C79 59 56 82 12 73V49c39 6 53-20 64-50L1-190h34L92-34l54-156h33" id="cb"/><path fill="#333" d="M127-220V0H93v-220H8v-28h204v28h-85" id="cc"/><path fill="#333" d="M84 4C-5 8 30-112 23-190h32v120c0 31 7 50 39 49 72-2 45-101 50-169h31l1 190h-30c-1-10 1-25-2-33-11 22-28 36-60 37" id="cd"/><g id="ab"><use transform="matrix(0.05,0,0,0.05,0,0)" xlink:href="#bE"/><use transform="matrix(0.05,0,0,0.05,5,0)" xlink:href="#ca"/><use transform="matrix(0.05,0,0,0.05,15,0)" xlink:href="#bw"/><use transform="matrix(0.05,0,0,0.05,18.95,0)" xlink:href="#bB"/><use transform="matrix(0.05,0,0,0.05,28.950000000000003,0)" xlink:href="#cb"/><use transform="matrix(0.05,0,0,0.05,37.95,0)" xlink:href="#by"/><use transform="matrix(0.05,0,0,0.05,47.95,0)" xlink:href="#bz"/><use transform="matrix(0.05,0,0,0.05,53.900000000000006,0)" xlink:href="#cc"/><use transform="matrix(0.05,0,0,0.05,64.2,0)" xlink:href="#cd"/><use transform="matrix(0.05,0,0,0.05,74.2,0)" xlink:href="#bz"/><use transform="matrix(0.05,0,0,0.05,80.15,0)" xlink:href="#bA"/></g><path fill="#333" d="M18-150v-26h174v26H18zm0 90v-26h174v26H18" id="ce"/><g id="ac"><use transform="matrix(0.05,0,0,0.05,0,0)" xlink:href="#ce"/><use transform="matrix(0.05,0,0,0.05,10.5,0)" xlink:href="#ce"/></g><path fill="#333" d="M212-179c-10-28-35-45-73-45-59 0-87 40-87 99 0 60 29 101 89 101 43 0 62-24 78-52l27 14C228-24 195 4 139 4 59 4 22-46 18-125c-6-104 99-153 187-111 19 9 31 26 39 46" id="cf"/><path fill="#333" d="M240 0l2-218c-23 76-54 145-80 218h-23L58-218 59 0H30v-248h44l77 211c21-75 51-140 76-211h43V0h-30" id="cg"/><path fill="#333" d="M30-248c87 1 191-15 191 75 0 78-77 80-158 76V0H30v-248zm33 125c57 0 124 11 124-50 0-59-68-47-124-48v98" id="ch"/><path fill="#333" d="M232-93c-1 65-40 97-104 97C67 4 28-28 28-90v-158h33c8 89-33 224 67 224 102 0 64-133 71-224h33v155" id="ci"/><path fill="#333" d="M30 0v-248h187v28H63v79h144v27H63v87h162V0H30" id="cj"/><path fill="#333" d="M233-177c-1 41-23 64-60 70L243 0h-38l-65-103H63V0H30v-248c88 3 205-21 203 71zM63-129c60-2 137 13 137-47 0-61-80-42-137-45v92" id="ck"/><path fill="#333" d="M-5 72V49h209v23H-5" id="cl"/><path fill="#333" d="M190 0L58-211 59 0H30v-248h39L202-35l-2-213h31V0h-41" id="cm"/><g id="ad"><use transform="matrix(0.05,0,0,0.05,0,0)" xlink:href="#cf"/><use transform="matrix(0.05,0,0,0.05,12.950000000000001,0)" xlink:href="#bI"/><use transform="matrix(0.05,0,0,0.05,26.950000000000003,0)" xlink:href="#cg"/><use transform="matrix(0.05,0,0,0.05,41.900000000000006,0)" xlink:href="#ch"/><use transform="matrix(0.05,0,0,0.05,53.900000000000006,0)" xlink:href="#ci"/><use transform="matrix(0.05,0,0,0.05,66.85000000000001,0)" xlink:href="#cc"/><use transform="matrix(0.05,0,0,0.05,77.80000000000001,0)" xlink:href="#cj"/><use transform="matrix(0.05,0,0,0.05,89.80000000000001,0)" xlink:href="#ck"/><use transform="matrix(0.05,0,0,0.05,102.75,0)" xlink:href="#cl"/><use transform="matrix(0.05,0,0,0.05,112.75,0)" xlink:href="#cc"/><use transform="matrix(0.05,0,0,0.05,123.7,0)" xlink:href="#ci"/><use transform="matrix(0.05,0,0,0.05,136.65,0)" xlink:href="#ck"/><use transform="matrix(0.05,0,0,0.05,149.6,0)" xlink:href="#cm"/><use transform="matrix(0.05,0,0,0.05,162.54999999999998,0)" xlink:href="#bJ"/></g><path d="M96-169c-40 0-48 33-48 73s9 75 48 75c24 0 41-14 43-38l32 2c-6 37-31 61-74 61-59 0-76-41-82-99-10-93 101-131 147-64 4 7 5 14 7 22l-32 3c-4-21-16-35-41-35" id="cn"/><g id="ae"><use transform="matrix(0.05,0,0,0.05,0,0)" xlink:href="#cn"/><use transform="matrix(0.05,0,0,0.05,9,0)" xlink:href="#bd"/><use transform="matrix(0.05,0,0,0.05,12.4,0)" xlink:href="#aU"/><use transform="matrix(0.05,0,0,0.05,22.4,0)" xlink:href="#aR"/><use transform="matrix(0.05,0,0,0.05,31.399999999999995,0)" xlink:href="#bt"/></g><g id="af"><use transform="matrix(0.05,0,0,0.05,0,0)" xlink:href="#bc"/><use transform="matrix(0.05,0,0,0.05,3.95,0)" xlink:href="#aU"/></g><g id="ag"><use transform="matrix(0.05,0,0,0.05,0,0)" xlink:href="#bb"/><use transform="matrix(0.05,0,0,0.05,10,0)" xlink:href="#aU"/></g><g id="ah"><use transform="matrix(0.05,0,0,0.05,0,0)" xlink:href="#bc"/><use transform="matrix(0.05,0,0,0.05,3.95,0)" xlink:href="#bd"/><use transform="matrix(0.05,0,0,0.05,7.3500000000000005,0)" xlink:href="#aP"/><use transform="matrix(0.05,0,0,0.05,17.35,0)" xlink:href="#aQ"/><use transform="matrix(0.05,0,0,0.05,23.3,0)" xlink:href="#bb"/><use transform="matrix(0.05,0,0,0.05,33.3,0)" xlink:href="#bp"/><use transform="matrix(0.05,0,0,0.05,37.25,0)" xlink:href="#be"/><use transform="matrix(0.05,0,0,0.05,47.25,0)" xlink:href="#br"/><use transform="matrix(0.05,0,0,0.05,57.25,0)" xlink:href="#bt"/><use transform="matrix(0.05,0,0,0.05,62.25,0)" xlink:href="#aU"/><use transform="matrix(0.05,0,0,0.05,72.25,0)" xlink:href="#aT"/><use transform="matrix(0.05,0,0,0.05,82.25,0)" xlink:href="#aQ"/><use transform="matrix(0.05,0,0,0.05,87.2,0)" xlink:href="#bl"/></g><path fill="#333" d="M67-125c0 53 21 87 73 88 37 1 54-22 65-47l45 17C233-25 199 4 140 4 58 4 20-42 15-125 8-235 124-281 211-232c18 10 29 29 36 50l-46 12c-8-25-30-41-62-41-52 0-71 34-72 86" id="co"/><path fill="#333" d="M115-3C79 11 28 4 28-45v-112H4v-33h27l15-45h31v45h36v33H77v99c-1 23 16 31 38 25v30" id="cp"/><g id="ai"><use transform="matrix(0.05,0,0,0.05,0,0)" xlink:href="#bL"/><use transform="matrix(0.05,0,0,0.05,10.950000000000001,0)" xlink:href="#aw"/><use transform="matrix(0.05,0,0,0.05,15.950000000000001,0)" xlink:href="#ay"/><use transform="matrix(0.05,0,0,0.05,25.950000000000003,0)" xlink:href="#bM"/><use transform="matrix(0.05,0,0,0.05,35.95,0)" xlink:href="#co"/><use transform="matrix(0.05,0,0,0.05,48.900000000000006,0)" xlink:href="#av"/><use transform="matrix(0.05,0,0,0.05,59.85,0)" xlink:href="#aB"/><use transform="matrix(0.05,0,0,0.05,75.85000000000001,0)" xlink:href="#bL"/><use transform="matrix(0.05,0,0,0.05,86.80000000000001,0)" xlink:href="#aN"/><use transform="matrix(0.05,0,0,0.05,97.75000000000001,0)" xlink:href="#cp"/><use transform="matrix(0.05,0,0,0.05,103.7,0)" xlink:href="#ax"/><use transform="matrix(0.05,0,0,0.05,113.7,0)" xlink:href="#aE"/><use transform="matrix(0.05,0,0,0.05,120.7,0)" xlink:href="#aM"/><use transform="matrix(0.05,0,0,0.05,130.3,0)" xlink:href="#aN"/><use transform="matrix(0.05,0,0,0.05,141.25,0)" xlink:href="#aE"/><use transform="matrix(0.05,0,0,0.05,148.25,0)" xlink:href="#az"/><use transform="matrix(0.05,0,0,0.05,159.2,0)" xlink:href="#aJ"/><use transform="matrix(0.05,0,0,0.05,165.14999999999998,0)" xlink:href="#aK"/></g><g id="aj"><use transform="matrix(0.05,0,0,0.05,0,0)" xlink:href="#bq"/><use transform="matrix(0.05,0,0,0.05,5,0)" xlink:href="#br"/><use transform="matrix(0.05,0,0,0.05,15,0)" xlink:href="#bp"/><use transform="matrix(0.05,0,0,0.05,18.95,0)" xlink:href="#bt"/></g><g id="ak"><use transform="matrix(0.05,0,0,0.05,0,0)" xlink:href="#bg"/><use transform="matrix(0.05,0,0,0.05,3.95,0)" xlink:href="#aP"/><use transform="matrix(0.05,0,0,0.05,13.949999999999998,0)" xlink:href="#aT"/><use transform="matrix(0.05,0,0,0.05,23.95,0)" xlink:href="#aU"/><use transform="matrix(0.05,0,0,0.05,33.95,0)" xlink:href="#aQ"/></g><g id="al"><use transform="matrix(0.05,0,0,0.05,0,0)" xlink:href="#aU"/><use transform="matrix(0.05,0,0,0.05,10,0)" xlink:href="#bt"/></g><g id="am"><use transform="matrix(0.05,0,0,0.05,0,0)" xlink:href="#aP"/><use transform="matrix(0.05,0,0,0.05,10,0)" xlink:href="#be"/></g><g id="an"><use transform="matrix(0.05,0,0,0.05,0,0)" xlink:href="#bt"/><use transform="matrix(0.05,0,0,0.05,5,0)" xlink:href="#aU"/><use transform="matrix(0.05,0,0,0.05,15,0)" xlink:href="#aQ"/><use transform="matrix(0.05,0,0,0.05,20.95,0)" xlink:href="#bu"/><use transform="matrix(0.05,0,0,0.05,35.9,0)" xlink:href="#bp"/><use transform="matrix(0.05,0,0,0.05,39.85,0)" xlink:href="#be"/><use transform="matrix(0.05,0,0,0.05,49.85,0)" xlink:href="#aU"/></g><g id="ao"><use transform="matrix(0.05,0,0,0.05,0,0)" xlink:href="#aR"/><use transform="matrix(0.05,0,0,0.05,9,0)" xlink:href="#aP"/><use transform="matrix(0.05,0,0,0.05,19,0)" xlink:href="#be"/></g><g id="ap"><use transform="matrix(0.05,0,0,0.05,0,0)" xlink:href="#bt"/><use transform="matrix(0.05,0,0,0.05,5,0)" xlink:href="#aP"/><use transform="matrix(0.05,0,0,0.05,15,0)" xlink:href="#aT"/><use transform="matrix(0.05,0,0,0.05,25,0)" xlink:href="#aQ"/><use transform="matrix(0.05,0,0,0.05,29.950000000000003,0)" xlink:href="#bl"/></g></defs></g></svg>