<svg xmlns="http://www.w3.org/2000/svg" xmlns:xlink="http://www.w3.org/1999/xlink" width="1320" height="1600"><g transform="translate(11620 1700)"><path d="M-11440-1575c0-2.76 2.24-5 5-5h150c2.76 0 5 2.24 5 5v110c0 2.76-2.24 5-5 5h-150c-2.76 0-5-2.24-5-5z" stroke="#666" stroke-width="2" fill="#5abaa7"/><use xlink:href="#a" transform="matrix(1,0,0,1,-11440,-1580) translate(53.38271604938271 62.97222222222222)"/><path d="M-11360-1460v1260" fill="none"/><path d="M-11360-1460v10m0 10v20m0 10v20m0 10v20m0 10v20m0 10v20m0 10v20m0 10v20m0 10v20m0 10v20m0 10v20m0 10v20m0 10v20m0 10v20m0 10v20m0 10v20m0 10v20m0 10v20m0 10v20m0 10v20m0 10v20m0 10v20m0 10v20m0 10v20m0 10v20m0 10v20m0 10v20m0 10v20m0 10v20m0 10v20m0 10v20m0 10v20m0 10v20m0 10v20m0 10v20m0 10v20m0 10v20m0 10v20m0 10v20m0 10v20m0 10v20m0 10v20m0 10v10" stroke="#999" stroke-width="2" fill="none"/><path d="M-11380-1395c0-2.76 2.24-5 5-5h30c2.76 0 5 2.24 5 5v1130c0 2.76-2.24 5-5 5h-30c-2.76 0-5-2.24-5-5z" stroke="#666" stroke-width="2" fill="#f2f2f2"/><path d="M-11400-195c0-2.76 2.24-5 5-5h70c2.76 0 5 2.24 5 5v70c0 2.76-2.24 5-5 5h-70c-2.76 0-5-2.24-5-5z" fill="none"/><path d="M-11392-192l64 64m0-64l-64 64" stroke="#666" stroke-width="8" fill="none"/><path d="M-11120-1575c0-2.76 2.24-5 5-5h150c2.76 0 5 2.24 5 5v110c0 2.76-2.24 5-5 5h-150c-2.76 0-5-2.24-5-5z" stroke="#666" stroke-width="2" fill="#de5f85"/><use xlink:href="#b" transform="matrix(1,0,0,1,-11120,-1580) translate(29.25925925925926 51.72222222222222)"/><use xlink:href="#c" transform="matrix(1,0,0,1,-11120,-1580) translate(18.444444444444443 73.05555555555556)"/><path d="M-11040-1460v1260" fill="none"/><path d="M-11040-1460v10m0 10v20m0 10v20m0 10v20m0 10v20m0 10v20m0 10v20m0 10v20m0 10v20m0 10v20m0 10v20m0 10v20m0 10v20m0 10v20m0 10v20m0 10v20m0 10v20m0 10v20m0 10v20m0 10v20m0 10v20m0 10v20m0 10v20m0 10v20m0 10v20m0 10v20m0 10v20m0 10v20m0 10v20m0 10v20m0 10v20m0 10v20m0 10v20m0 10v20m0 10v20m0 10v20m0 10v20m0 10v20m0 10v20m0 10v20m0 10v20m0 10v20m0 10v10" stroke="#999" stroke-width="2" fill="none"/><path d="M-11060-1395c0-2.76 2.24-5 5-5h30c2.76 0 5 2.24 5 5v1130c0 2.76-2.24 5-5 5h-30c-2.76 0-5-2.24-5-5z" stroke="#666" stroke-width="2" fill="#f2f2f2"/><path d="M-11080-195c0-2.76 2.24-5 5-5h70c2.76 0 5 2.24 5 5v70c0 2.76-2.24 5-5 5h-70c-2.76 0-5-2.24-5-5z" fill="none"/><path d="M-11072-192l64 64m0-64l-64 64" stroke="#666" stroke-width="8" fill="none"/><path d="M-11339-1260.5h278" stroke="#666" stroke-width="2" fill="none"/><path d="M-11339-1259.5h-1v-2h1zM-11061-1260.5l-14.27 4.64v-9.27z" fill="#666"/><path d="M-11060-1261.22v1.45l-16.27 5.3v-12.03zm-14.27 4l10.03-3.27-10.03-3.25z" fill="#666"/><use xlink:href="#d" transform="matrix(1,0,0,1,-11264.85,-1286.0919464055205) translate(0 14.4)"/><path d="M-11600-1300h100v20l-10 10h-90z" fill="#fff"/><path d="M-11500-1300v20l-10 10h-90" stroke="#666" stroke-width="2" fill="none"/><path d="M-11600-1300h1260v540h-1260zM-11600-1030h20m15 0h20m15 0h20m15 0h20m15 0h20m15 0h20m15 0h20m15 0h20m15 0h20m15 0h20m15 0h20m15 0h20m15 0h20m15 0h20m15 0h20m15 0h20m15 0h20m15 0h20m15 0h20m15 0h20m15 0h20m15 0h20m15 0h20m15 0h20m15 0h20m15 0h20m15 0h20m15 0h20m15 0h20m15 0h20m15 0h20m15 0h20m15 0h20m15 0h20m15 0h20m15 0h20" stroke="#666" stroke-width="2" fill="none"/><use xlink:href="#e" transform="matrix(1,0,0,1,-11592,-1300) translate(0 18.6)"/><use xlink:href="#f" transform="matrix(1,0,0,1,-11588,-1262) translate(0 18.6)"/><use xlink:href="#g" transform="matrix(1,0,0,1,-11588,-1022) translate(0 18.6)"/><path d="M-11590-1340.55h209" stroke="#666" stroke-width="2" fill="none"/><path d="M-11381-1340.55l-14.27 4.64v-9.28z" fill="#666"/><path d="M-11380-1341.27v1.45l-16.27 5.28v-12.02zm-14.27 3.98l10.03-3.25-10.03-3.26z" fill="#666"/><use xlink:href="#h" transform="matrix(1,0,0,1,-11571.05,-1366.1475101315818) translate(0 14.4)"/><path d="M-10800-1575c0-2.76 2.24-5 5-5h150c2.76 0 5 2.24 5 5v110c0 2.76-2.24 5-5 5h-150c-2.76 0-5-2.24-5-5z" stroke="#666" stroke-width="2" fill="#a3d977"/><use xlink:href="#i" transform="matrix(1,0,0,1,-10800,-1580) translate(44.8395061728395 62.97222222222222)"/><path d="M-10720-1460v1260" fill="none"/><path d="M-10720-1460v10m0 10v20m0 10v20m0 10v20m0 10v20m0 10v20m0 10v20m0 10v20m0 10v20m0 10v20m0 10v20m0 10v20m0 10v20m0 10v20m0 10v20m0 10v20m0 10v20m0 10v20m0 10v20m0 10v20m0 10v20m0 10v20m0 10v20m0 10v20m0 10v20m0 10v20m0 10v20m0 10v20m0 10v20m0 10v20m0 10v20m0 10v20m0 10v20m0 10v20m0 10v20m0 10v20m0 10v20m0 10v20m0 10v20m0 10v20m0 10v20m0 10v20m0 10v10" stroke="#999" stroke-width="2" fill="none"/><path d="M-10740-1395c0-2.76 2.24-5 5-5h30c2.76 0 5 2.24 5 5v1130c0 2.76-2.24 5-5 5h-30c-2.76 0-5-2.24-5-5z" stroke="#666" stroke-width="2" fill="#f2f2f2"/><path d="M-10760-195c0-2.76 2.24-5 5-5h70c2.76 0 5 2.24 5 5v70c0 2.76-2.24 5-5 5h-70c-2.76 0-5-2.24-5-5z" fill="none"/><path d="M-10752-192l64 64m0-64l-64 64" stroke="#666" stroke-width="8" fill="none"/><path d="M-11019-1200.5h278" stroke="#666" stroke-width="2" fill="none"/><path d="M-10741-1200.5l-14.27 4.64v-9.27z" fill="#666"/><path d="M-10740-1201.22v1.45l-16.27 5.3v-12.03zm-14.27 4l10.03-3.27-10.03-3.25z" fill="#666"/><use xlink:href="#j" transform="matrix(1,0,0,1,-10943.375,-1226.0919464055205) translate(0 14.4)"/><use xlink:href="#k" transform="matrix(1,0,0,1,-10943.375,-1226.0919464055205) translate(110.80000000000001 14.4)"/><path d="M-11320-1240h196l24 24v96h-220z" stroke="#d9be60" stroke-width="2" fill="#ffdf71"/><path d="M-11124-1240l24 24h-24z" fill="#d9be60"/><use xlink:href="#l" transform="matrix(1,0,0,1,-11315,-1235) translate(12.099999999999994 37)"/><use xlink:href="#m" transform="matrix(1,0,0,1,-11315,-1235) translate(41.099999999999994 37)"/><use xlink:href="#n" transform="matrix(1,0,0,1,-11315,-1235) translate(66.1 37)"/><use xlink:href="#o" transform="matrix(1,0,0,1,-11315,-1235) translate(143.9 37)"/><use xlink:href="#p" transform="matrix(1,0,0,1,-11315,-1235) translate(177.9 37)"/><use xlink:href="#q" transform="matrix(1,0,0,1,-11315,-1235) translate(21.674999999999997 58.6)"/><use xlink:href="#r" transform="matrix(1,0,0,1,-11315,-1235) translate(69.575 58.6)"/><use xlink:href="#s" transform="matrix(1,0,0,1,-11315,-1235) translate(88.525 58.6)"/><use xlink:href="#t" transform="matrix(1,0,0,1,-11315,-1235) translate(168.325 58.6)"/><use xlink:href="#u" transform="matrix(1,0,0,1,-11315,-1235) translate(3.674999999999983 80.20000000000002)"/><use xlink:href="#v" transform="matrix(1,0,0,1,-11315,-1235) translate(97.52499999999999 80.20000000000002)"/><use xlink:href="#w" transform="matrix(1,0,0,1,-11315,-1235) translate(133.475 80.20000000000002)"/><path d="M-11010-1180h236l24 24v96h-260z" stroke="#d9be60" stroke-width="2" fill="#ffdf71"/><path d="M-10774-1180l24 24h-24z" fill="#d9be60"/><use xlink:href="#x" transform="matrix(1,0,0,1,-11005,-1175) translate(6.224999999999994 26.19999999999999)"/><use xlink:href="#y" transform="matrix(1,0,0,1,-11005,-1175) translate(20.174999999999994 26.19999999999999)"/><use xlink:href="#z" transform="matrix(1,0,0,1,-11005,-1175) translate(34.175 26.19999999999999)"/><use xlink:href="#A" transform="matrix(1,0,0,1,-11005,-1175) translate(75.125 26.19999999999999)"/><use xlink:href="#B" transform="matrix(1,0,0,1,-11005,-1175) translate(171.92499999999998 26.19999999999999)"/><use xlink:href="#C" transform="matrix(1,0,0,1,-11005,-1175) translate(8.175000000000011 47.79999999999999)"/><use xlink:href="#D" transform="matrix(1,0,0,1,-11005,-1175) translate(66.12500000000001 47.79999999999999)"/><use xlink:href="#E" transform="matrix(1,0,0,1,-11005,-1175) translate(81.12500000000001 47.79999999999999)"/><use xlink:href="#F" transform="matrix(1,0,0,1,-11005,-1175) translate(191.925 47.79999999999999)"/><use xlink:href="#G" transform="matrix(1,0,0,1,-11005,-1175) translate(212.875 47.79999999999999)"/><use xlink:href="#H" transform="matrix(1,0,0,1,-11005,-1175) translate(0.5999999999999943 69.39999999999999)"/><use xlink:href="#I" transform="matrix(1,0,0,1,-11005,-1175) translate(25.599999999999994 69.39999999999999)"/><use xlink:href="#J" transform="matrix(1,0,0,1,-11005,-1175) translate(118.45 69.39999999999999)"/><use xlink:href="#K" transform="matrix(1,0,0,1,-11005,-1175) translate(157.45000000000002 69.39999999999999)"/><use xlink:href="#L" transform="matrix(1,0,0,1,-11005,-1175) translate(185.4 69.39999999999999)"/><use xlink:href="#H" transform="matrix(1,0,0,1,-11005,-1175) translate(66.4 91)"/><use xlink:href="#M" transform="matrix(1,0,0,1,-11005,-1175) translate(91.4 91)"/><path d="M-10480-1575c0-2.76 2.24-5 5-5h150c2.76 0 5 2.24 5 5v110c0 2.76-2.24 5-5 5h-150c-2.76 0-5-2.24-5-5z" stroke="#666" stroke-width="2" fill="#e0b036"/><g><use xlink:href="#N" transform="matrix(1,0,0,1,-10480,-1580) translate(32.66666666666666 51.72222222222222)"/><use xlink:href="#O" transform="matrix(1,0,0,1,-10480,-1580) translate(32.37037037037037 73.05555555555556)"/></g><path d="M-10400-1460v1260" fill="none"/><path d="M-10400-1460v10m0 10v20m0 10v20m0 10v20m0 10v20m0 10v20m0 10v20m0 10v20m0 10v20m0 10v20m0 10v20m0 10v20m0 10v20m0 10v20m0 10v20m0 10v20m0 10v20m0 10v20m0 10v20m0 10v20m0 10v20m0 10v20m0 10v20m0 10v20m0 10v20m0 10v20m0 10v20m0 10v20m0 10v20m0 10v20m0 10v20m0 10v20m0 10v20m0 10v20m0 10v20m0 10v20m0 10v20m0 10v20m0 10v20m0 10v20m0 10v20m0 10v20m0 10v10" stroke="#999" stroke-width="2" fill="none"/><path d="M-10420-1395c0-2.76 2.24-5 5-5h30c2.76 0 5 2.24 5 5v1130c0 2.76-2.24 5-5 5h-30c-2.76 0-5-2.24-5-5z" stroke="#666" stroke-width="2" fill="#f2f2f2"/><path d="M-10440-195c0-2.76 2.24-5 5-5h70c2.76 0 5 2.24 5 5v70c0 2.76-2.24 5-5 5h-70c-2.76 0-5-2.24-5-5z" fill="none"/><path d="M-10432-192l64 64m0-64l-64 64" stroke="#666" stroke-width="8" fill="none"/><path d="M-11019-940.33h598" stroke="#666" stroke-width="2" fill="none"/><path d="M-10421-940.33l-14.27 4.64v-9.26z" stroke="#666" stroke-width="2" fill="#666"/><g><use xlink:href="#P" transform="matrix(1,0,0,1,-10954.991666666669,-965.9252552273365) translate(0 14.4)"/></g><path d="M-11019-880.33h598" fill="none"/><path d="M-11019-880.33h9.97m9.96 0h19.94m9.96 0h19.94m9.96 0h19.94m9.96 0h19.94m9.96 0h19.94m9.96 0h19.94m9.96 0h19.94m9.96 0h19.94m9.96 0h19.94m9.96 0h19.94m9.96 0h19.94m9.96 0h19.94m9.96 0h19.94m9.96 0h19.94m9.96 0h19.94m9.96 0h19.94m9.96 0h19.94m9.96 0h19.94m9.96 0h19.94m9.96 0h9.97" stroke="#666" stroke-width="2" fill="none"/><path d="M-11019-880.33l14.27-4.63v9.27z" stroke="#666" stroke-width="2" fill="#666"/><g><use xlink:href="#Q" transform="matrix(1,0,0,1,-10981.675000000001,-905.9252552273363) translate(0 14.4)"/><use xlink:href="#R" transform="matrix(1,0,0,1,-10981.675000000001,-905.9252552273363) translate(37.849999999999994 14.4)"/><use xlink:href="#S" transform="matrix(1,0,0,1,-10981.675000000001,-905.9252552273363) translate(70.69999999999999 14.4)"/></g><path d="M-11019-798.73h278" stroke="#666" stroke-width="2" fill="none"/><path d="M-10741-798.73l-14.27 4.64v-9.27z" stroke="#666" stroke-width="2" fill="#666"/><g><use xlink:href="#T" transform="matrix(1,0,0,1,-10971.7,-845.93016142962) translate(0 14.4)"/><use xlink:href="#U" transform="matrix(1,0,0,1,-10971.7,-845.93016142962) translate(0 36)"/></g><path d="M-11339-980.33h278" stroke="#666" stroke-width="2" fill="none"/><path d="M-11061-980.33l-14.27 4.64v-9.26z" stroke="#666" stroke-width="2" fill="#666"/><g><use xlink:href="#V" transform="matrix(1,0,0,1,-11249.325,-1005.9252552273364) translate(0 14.4)"/></g><path d="M-10880-1680h176l24 24v96h-200z" stroke="#d9be60" stroke-width="2" fill="#ffdf71"/><path d="M-10704-1680l24 24h-24z" fill="#d9be60"/><g><use xlink:href="#W" transform="matrix(1,0,0,1,-10875,-1675) translate(44.55 15.399999999999993)"/><use xlink:href="#X" transform="matrix(1,0,0,1,-10875,-1675) translate(92.5 15.399999999999993)"/><use xlink:href="#Y" transform="matrix(1,0,0,1,-10875,-1675) translate(24.674999999999983 36.99999999999999)"/><use xlink:href="#Z" transform="matrix(1,0,0,1,-10875,-1675) translate(155.32500000000002 36.99999999999999)"/><use xlink:href="#aa" transform="matrix(1,0,0,1,-10875,-1675) translate(21.52499999999999 58.599999999999994)"/><use xlink:href="#ab" transform="matrix(1,0,0,1,-10875,-1675) translate(124.525 58.599999999999994)"/><use xlink:href="#ac" transform="matrix(1,0,0,1,-10875,-1675) translate(144.525 58.599999999999994)"/><use xlink:href="#ad" transform="matrix(1,0,0,1,-10875,-1675) translate(10.5 80.20000000000002)"/><use xlink:href="#ae" transform="matrix(1,0,0,1,-10875,-1675) translate(74.5 80.20000000000002)"/><use xlink:href="#af" transform="matrix(1,0,0,1,-10875,-1675) translate(118.5 80.20000000000002)"/><use xlink:href="#ag" transform="matrix(1,0,0,1,-10875,-1675) translate(160.5 80.20000000000002)"/><use xlink:href="#ah" transform="matrix(1,0,0,1,-10875,-1675) translate(73.6 101.80000000000001)"/></g><defs><path fill="#333" d="M67-125c0 54 23 88 75 88 28 0 53-7 68-21v-34h-60v-39h108v91C232-14 192 4 140 4 58 4 20-42 15-125 8-236 126-280 215-234c19 10 29 26 37 47l-47 15c-11-23-29-39-63-39-53 1-75 33-75 86" id="ai"/><path fill="#333" d="M199 0l-22-63H83L61 0H9l90-248h61L250 0h-51zm-33-102l-36-108c-10 38-24 72-36 108h72" id="aj"/><path fill="#333" d="M230 0l2-204L168 0h-37L68-204 70 0H24v-248h70l56 185 57-185h69V0h-46" id="ak"/><path fill="#333" d="M24 0v-248h195v40H76v63h132v40H76v65h150V0H24" id="al"/><g id="a"><use transform="matrix(0.04938271604938272,0,0,0.04938271604938272,0,0)" xlink:href="#ai"/><use transform="matrix(0.04938271604938272,0,0,0.04938271604938272,13.827160493827162,0)" xlink:href="#aj"/><use transform="matrix(0.04938271604938272,0,0,0.04938271604938272,26.617283950617285,0)" xlink:href="#ak"/><use transform="matrix(0.04938271604938272,0,0,0.04938271604938272,41.38271604938272,0)" xlink:href="#al"/></g><path fill="#333" d="M67-125c0 53 21 87 73 88 37 1 54-22 65-47l45 17C233-25 199 4 140 4 58 4 20-42 15-125 8-235 124-281 211-232c18 10 29 29 36 50l-46 12c-8-25-30-41-62-41-52 0-71 34-72 86" id="am"/><path fill="#333" d="M140-251c80 0 125 45 125 126S219 4 139 4C58 4 15-44 15-125s44-126 125-126zm-1 214c52 0 73-35 73-88 0-50-21-86-72-86-52 0-73 35-73 86s22 88 72 88" id="an"/><path fill="#333" d="M24-248c93 1 206-16 204 79-1 75-69 88-152 82V0H24v-248zm52 121c47 0 100 7 100-41 0-47-54-39-100-39v80" id="ao"/><path fill="#333" d="M238-95c0 69-44 99-111 99C63 4 22-25 22-93v-155h51v151c-1 38 19 59 55 60 90 1 49-130 58-211h52v153" id="ap"/><path fill="#333" d="M136-208V0H84v-208H4v-40h212v40h-80" id="aq"/><path fill="#333" d="M240-174c0 40-23 61-54 70L253 0h-59l-57-94H76V0H24v-248c93 4 217-23 216 74zM76-134c48-2 112 12 112-38 0-48-66-32-112-35v73" id="ar"/><g id="b"><use transform="matrix(0.04938271604938272,0,0,0.04938271604938272,0,0)" xlink:href="#am"/><use transform="matrix(0.04938271604938272,0,0,0.04938271604938272,12.790123456790125,0)" xlink:href="#an"/><use transform="matrix(0.04938271604938272,0,0,0.04938271604938272,26.617283950617285,0)" xlink:href="#ak"/><use transform="matrix(0.04938271604938272,0,0,0.04938271604938272,41.38271604938272,0)" xlink:href="#ao"/><use transform="matrix(0.04938271604938272,0,0,0.04938271604938272,53.23456790123457,0)" xlink:href="#ap"/><use transform="matrix(0.04938271604938272,0,0,0.04938271604938272,66.0246913580247,0)" xlink:href="#aq"/><use transform="matrix(0.04938271604938272,0,0,0.04938271604938272,76.8395061728395,0)" xlink:href="#al"/><use transform="matrix(0.04938271604938272,0,0,0.04938271604938272,88.69135802469135,0)" xlink:href="#ar"/></g><path fill="#333" d="M175 0L67-191c6 58 2 128 3 191H24v-248h59L193-55c-6-58-2-129-3-193h46V0h-61" id="as"/><path fill="#333" d="M24 0v-248h52v208h133V0H24" id="at"/><g id="c"><use transform="matrix(0.04938271604938272,0,0,0.04938271604938272,0,0)" xlink:href="#am"/><use transform="matrix(0.04938271604938272,0,0,0.04938271604938272,12.790123456790125,0)" xlink:href="#an"/><use transform="matrix(0.04938271604938272,0,0,0.04938271604938272,26.617283950617285,0)" xlink:href="#as"/><use transform="matrix(0.04938271604938272,0,0,0.04938271604938272,39.40740740740741,0)" xlink:href="#aq"/><use transform="matrix(0.04938271604938272,0,0,0.04938271604938272,50.22222222222223,0)" xlink:href="#ar"/><use transform="matrix(0.04938271604938272,0,0,0.04938271604938272,63.01234567901235,0)" xlink:href="#an"/><use transform="matrix(0.04938271604938272,0,0,0.04938271604938272,76.83950617283952,0)" xlink:href="#at"/><use transform="matrix(0.04938271604938272,0,0,0.04938271604938272,87.65432098765433,0)" xlink:href="#at"/><use transform="matrix(0.04938271604938272,0,0,0.04938271604938272,98.46913580246914,0)" xlink:href="#al"/><use transform="matrix(0.04938271604938272,0,0,0.04938271604938272,110.320987654321,0)" xlink:href="#ar"/></g><path fill="#333" d="M135-194c53 0 70 44 70 98 0 56-19 98-73 100-31 1-45-17-59-34 3 33 2 69 2 105H25l-1-265h48c2 10 0 23 3 31 11-24 29-35 60-35zM114-30c33 0 39-31 40-66 0-38-9-64-40-64-56 0-55 130 0 130" id="au"/><path fill="#333" d="M25 0v-261h50V0H25" id="av"/><path fill="#333" d="M133-34C117-15 103 5 69 4 32 3 11-16 11-54c-1-60 55-63 116-61 1-26-3-47-28-47-18 1-26 9-28 27l-52-2c7-38 36-58 82-57s74 22 75 68l1 82c-1 14 12 18 25 15v27c-30 8-71 5-69-32zm-48 3c29 0 43-24 42-57-32 0-66-3-65 30 0 17 8 27 23 27" id="aw"/><path fill="#333" d="M190-63c-7 42-38 67-86 67-59 0-84-38-90-98-12-110 154-137 174-36l-49 2c-2-19-15-32-35-32-30 0-35 28-38 64-6 74 65 87 74 30" id="ax"/><path fill="#333" d="M185-48c-13 30-37 53-82 52C43 2 14-33 14-96s30-98 90-98c62 0 83 45 84 108H66c0 31 8 55 39 56 18 0 30-7 34-22zm-45-69c5-46-57-63-70-21-2 6-4 13-4 21h74" id="ay"/><path fill="#333" d="M169-182c-1-43-94-46-97-3 18 66 151 10 154 114 3 95-165 93-204 36-6-8-10-19-12-30l50-8c3 46 112 56 116 5-17-69-150-10-154-114-4-87 153-88 188-35 5 8 8 18 10 28" id="az"/><path fill="#333" d="M114-157C55-157 80-60 75 0H25v-261h50l-1 109c12-26 28-41 61-42 86-1 58 113 63 194h-50c-7-57 23-157-34-157" id="aA"/><path fill="#333" d="M25-224v-37h50v37H25zM25 0v-190h50V0H25" id="aB"/><path fill="#333" d="M137-138c1-29-70-34-71-4 15 46 118 7 119 86 1 83-164 76-172 9l43-7c4 19 20 25 44 25 33 8 57-30 24-41C81-84 22-81 20-136c-2-80 154-74 161-7" id="aC"/><path fill="#333" d="M67-93c0 74 22 123 53 168H70C40 30 18-18 18-93s22-123 52-168h50c-32 44-53 94-53 168" id="aD"/><path fill="#333" d="M102-93c0 74-22 123-52 168H0C30 29 54-18 53-93c0-74-22-123-53-168h50c30 45 52 94 52 168" id="aE"/><g id="d"><use transform="matrix(0.05,0,0,0.05,0,0)" xlink:href="#au"/><use transform="matrix(0.05,0,0,0.05,10.950000000000001,0)" xlink:href="#av"/><use transform="matrix(0.05,0,0,0.05,15.950000000000001,0)" xlink:href="#aw"/><use transform="matrix(0.05,0,0,0.05,25.950000000000003,0)" xlink:href="#ax"/><use transform="matrix(0.05,0,0,0.05,35.95,0)" xlink:href="#ay"/><use transform="matrix(0.05,0,0,0.05,45.95,0)" xlink:href="#aj"/><use transform="matrix(0.05,0,0,0.05,58.900000000000006,0)" xlink:href="#av"/><use transform="matrix(0.05,0,0,0.05,63.900000000000006,0)" xlink:href="#av"/><use transform="matrix(0.05,0,0,0.05,68.9,0)" xlink:href="#az"/><use transform="matrix(0.05,0,0,0.05,80.9,0)" xlink:href="#aA"/><use transform="matrix(0.05,0,0,0.05,91.85000000000001,0)" xlink:href="#aB"/><use transform="matrix(0.05,0,0,0.05,96.85000000000001,0)" xlink:href="#au"/><use transform="matrix(0.05,0,0,0.05,107.80000000000001,0)" xlink:href="#aC"/><use transform="matrix(0.05,0,0,0.05,117.80000000000001,0)" xlink:href="#aD"/><use transform="matrix(0.05,0,0,0.05,123.75,0)" xlink:href="#aE"/></g><path fill="#333" d="M205 0l-28-72H64L36 0H1l101-248h38L239 0h-34zm-38-99l-47-123c-12 45-31 82-46 123h93" id="aF"/><path fill="#333" d="M24 0v-261h32V0H24" id="aG"/><path fill="#333" d="M59-47c-2 24 18 29 38 22v24C64 9 27 4 27-40v-127H5v-23h24l9-43h21v43h35v23H59v120" id="aH"/><path fill="#333" d="M100-194c63 0 86 42 84 106H49c0 40 14 67 53 68 26 1 43-12 49-29l28 8c-11 28-37 45-77 45C44 4 14-33 15-96c1-61 26-98 85-98zm52 81c6-60-76-77-97-28-3 7-6 17-6 28h103" id="aI"/><path fill="#333" d="M114-163C36-179 61-72 57 0H25l-1-190h30c1 12-1 29 2 39 6-27 23-49 58-41v29" id="aJ"/><path fill="#333" d="M117-194c89-4 53 116 60 194h-32v-121c0-31-8-49-39-48C34-167 62-67 57 0H25l-1-190h30c1 10-1 24 2 32 11-22 29-35 61-36" id="aK"/><path fill="#333" d="M141-36C126-15 110 5 73 4 37 3 15-17 15-53c-1-64 63-63 125-63 3-35-9-54-41-54-24 1-41 7-42 31l-33-3c5-37 33-52 76-52 45 0 72 20 72 64v82c-1 20 7 32 28 27v20c-31 9-61-2-59-35zM48-53c0 20 12 33 32 33 41-3 63-29 60-74-43 2-92-5-92 41" id="aL"/><path fill="#333" d="M24-231v-30h32v30H24zM24 0v-190h32V0H24" id="aM"/><path fill="#333" d="M108 0H70L1-190h34L89-25l56-165h34" id="aN"/><g id="e"><use transform="matrix(0.05,0,0,0.05,0,0)" xlink:href="#aF"/><use transform="matrix(0.05,0,0,0.05,12,0)" xlink:href="#aG"/><use transform="matrix(0.05,0,0,0.05,15.949999999999998,0)" xlink:href="#aH"/><use transform="matrix(0.05,0,0,0.05,20.95,0)" xlink:href="#aI"/><use transform="matrix(0.05,0,0,0.05,30.950000000000003,0)" xlink:href="#aJ"/><use transform="matrix(0.05,0,0,0.05,36.9,0)" xlink:href="#aK"/><use transform="matrix(0.05,0,0,0.05,46.9,0)" xlink:href="#aL"/><use transform="matrix(0.05,0,0,0.05,56.900000000000006,0)" xlink:href="#aH"/><use transform="matrix(0.05,0,0,0.05,61.900000000000006,0)" xlink:href="#aM"/><use transform="matrix(0.05,0,0,0.05,65.85,0)" xlink:href="#aN"/><use transform="matrix(0.05,0,0,0.05,74.85,0)" xlink:href="#aI"/></g><path fill="#333" d="M26 75v-336h71v23H56V52h41v23H26" id="aO"/><path fill="#333" d="M135-143c-3-34-86-38-87 0 15 53 115 12 119 90S17 21 10-45l28-5c4 36 97 45 98 0-10-56-113-15-118-90-4-57 82-63 122-42 12 7 21 19 24 35" id="aP"/><path fill="#333" d="M33 0v-248h34V0H33" id="aQ"/><path fill="#333" d="M30-248c87 1 191-15 191 75 0 78-77 80-158 76V0H30v-248zm33 125c57 0 124 11 124-50 0-59-68-47-124-48v98" id="aR"/><path fill="#333" d="M100-194c62-1 85 37 85 99 1 63-27 99-86 99S16-35 15-95c0-66 28-99 85-99zM99-20c44 1 53-31 53-75 0-43-8-75-51-75s-53 32-53 75 10 74 51 75" id="aS"/><path fill="#333" d="M177-190C167-65 218 103 67 71c-23-6-38-20-44-43l32-5c15 47 100 32 89-28v-30C133-14 115 1 83 1 29 1 15-40 15-95c0-56 16-97 71-98 29-1 48 16 59 35 1-10 0-23 2-32h30zM94-22c36 0 50-32 50-73 0-42-14-75-50-75-39 0-46 34-46 75s6 73 46 73" id="aT"/><path fill="#333" d="M106-169C34-169 62-67 57 0H25v-261h32l-1 103c12-21 28-36 61-36 89 0 53 116 60 194h-32v-121c2-32-8-49-39-48" id="aU"/><path fill="#333" d="M87 75C49 33 22-17 22-94c0-76 28-126 65-167h31c-38 41-64 92-64 168S80 34 118 75H87" id="aV"/><path fill="#333" d="M33-261c38 41 65 92 65 168S71 34 33 75H2C39 34 66-17 66-93S39-220 2-261h31" id="aW"/><path fill="#333" d="M3 75V52h41v-290H3v-23h71V75H3" id="aX"/><g id="f"><use transform="matrix(0.05,0,0,0.05,0,0)" xlink:href="#aO"/><use transform="matrix(0.05,0,0,0.05,5,0)" xlink:href="#aM"/><use transform="matrix(0.05,0,0,0.05,8.95,0)" xlink:href="#aP"/><use transform="matrix(0.05,0,0,0.05,17.95,0)" xlink:href="#aQ"/><use transform="matrix(0.05,0,0,0.05,22.95,0)" xlink:href="#aK"/><use transform="matrix(0.05,0,0,0.05,32.95,0)" xlink:href="#aR"/><use transform="matrix(0.05,0,0,0.05,44.95,0)" xlink:href="#aS"/><use transform="matrix(0.05,0,0,0.05,54.95,0)" xlink:href="#aP"/><use transform="matrix(0.05,0,0,0.05,63.95,0)" xlink:href="#aM"/><use transform="matrix(0.05,0,0,0.05,67.9,0)" xlink:href="#aH"/><use transform="matrix(0.05,0,0,0.05,72.9,0)" xlink:href="#aM"/><use transform="matrix(0.05,0,0,0.05,76.85000000000001,0)" xlink:href="#aS"/><use transform="matrix(0.05,0,0,0.05,86.85000000000001,0)" xlink:href="#aK"/><use transform="matrix(0.05,0,0,0.05,96.85000000000001,0)" xlink:href="#aK"/><use transform="matrix(0.05,0,0,0.05,106.85000000000001,0)" xlink:href="#aM"/><use transform="matrix(0.05,0,0,0.05,110.80000000000001,0)" xlink:href="#aK"/><use transform="matrix(0.05,0,0,0.05,120.80000000000001,0)" xlink:href="#aT"/><use transform="matrix(0.05,0,0,0.05,130.8,0)" xlink:href="#aR"/><use transform="matrix(0.05,0,0,0.05,142.8,0)" xlink:href="#aU"/><use transform="matrix(0.05,0,0,0.05,152.8,0)" xlink:href="#aL"/><use transform="matrix(0.05,0,0,0.05,162.8,0)" xlink:href="#aP"/><use transform="matrix(0.05,0,0,0.05,171.8,0)" xlink:href="#aI"/><use transform="matrix(0.05,0,0,0.05,181.8,0)" xlink:href="#aV"/><use transform="matrix(0.05,0,0,0.05,187.75,0)" xlink:href="#aW"/><use transform="matrix(0.05,0,0,0.05,193.7,0)" xlink:href="#aX"/></g><path fill="#333" d="M30 0v-248h187v28H63v79h144v27H63v87h162V0H30" id="aY"/><g id="g"><use transform="matrix(0.05,0,0,0.05,0,0)" xlink:href="#aO"/><use transform="matrix(0.05,0,0,0.05,5,0)" xlink:href="#aY"/><use transform="matrix(0.05,0,0,0.05,17,0)" xlink:href="#aG"/><use transform="matrix(0.05,0,0,0.05,20.95,0)" xlink:href="#aP"/><use transform="matrix(0.05,0,0,0.05,29.950000000000003,0)" xlink:href="#aI"/><use transform="matrix(0.05,0,0,0.05,39.95,0)" xlink:href="#aX"/></g><path fill="#333" d="M123 10C108 53 80 86 19 72V37c35 8 53-11 59-39L3-190h52l48 148c12-52 28-100 44-148h51" id="aZ"/><path fill="#333" d="M110-194c64 0 96 36 96 99 0 64-35 99-97 99-61 0-95-36-95-99 0-62 34-99 96-99zm-1 164c35 0 45-28 45-65 0-40-10-65-43-65-34 0-45 26-45 65 0 36 10 65 43 65" id="ba"/><path fill="#333" d="M220-157c-53 9-28 100-34 157h-49v-107c1-27-5-49-29-50C55-147 81-57 75 0H25l-1-190h47c2 12-1 28 3 38 10-53 101-56 108 0 13-22 24-43 59-42 82 1 51 116 57 194h-49v-107c-1-25-5-48-29-50" id="bb"/><path fill="#333" d="M85 4C-2 5 27-109 22-190h50c7 57-23 150 33 157 60-5 35-97 40-157h50l1 190h-47c-2-12 1-28-3-38-12 25-28 42-61 42" id="bc"/><path fill="#333" d="M115-3C79 11 28 4 28-45v-112H4v-33h27l15-45h31v45h36v33H77v99c-1 23 16 31 38 25v30" id="bd"/><path fill="#333" d="M135-150c-39-12-60 13-60 57V0H25l-1-190h47c2 13-1 29 3 40 6-28 27-53 61-41v41" id="be"/><path fill="#333" d="M135-194c87-1 58 113 63 194h-50c-7-57 23-157-34-157-59 0-34 97-39 157H25l-1-190h47c2 12-1 28 3 38 12-26 28-41 61-42" id="bf"/><g id="h"><use transform="matrix(0.05,0,0,0.05,0,0)" xlink:href="#au"/><use transform="matrix(0.05,0,0,0.05,10.950000000000001,0)" xlink:href="#av"/><use transform="matrix(0.05,0,0,0.05,15.950000000000001,0)" xlink:href="#aw"/><use transform="matrix(0.05,0,0,0.05,25.950000000000003,0)" xlink:href="#aZ"/><use transform="matrix(0.05,0,0,0.05,35.95,0)" xlink:href="#am"/><use transform="matrix(0.05,0,0,0.05,48.900000000000006,0)" xlink:href="#ba"/><use transform="matrix(0.05,0,0,0.05,59.85,0)" xlink:href="#bb"/><use transform="matrix(0.05,0,0,0.05,75.85000000000001,0)" xlink:href="#au"/><use transform="matrix(0.05,0,0,0.05,86.80000000000001,0)" xlink:href="#bc"/><use transform="matrix(0.05,0,0,0.05,97.75000000000001,0)" xlink:href="#bd"/><use transform="matrix(0.05,0,0,0.05,103.7,0)" xlink:href="#ay"/><use transform="matrix(0.05,0,0,0.05,113.7,0)" xlink:href="#be"/><use transform="matrix(0.05,0,0,0.05,120.7,0)" xlink:href="#aq"/><use transform="matrix(0.05,0,0,0.05,130.3,0)" xlink:href="#bc"/><use transform="matrix(0.05,0,0,0.05,141.25,0)" xlink:href="#be"/><use transform="matrix(0.05,0,0,0.05,148.25,0)" xlink:href="#bf"/><use transform="matrix(0.05,0,0,0.05,159.2,0)" xlink:href="#aD"/><use transform="matrix(0.05,0,0,0.05,165.14999999999998,0)" xlink:href="#aE"/></g><path fill="#333" d="M146-102V0H94v-102L6-248h54l60 105 60-105h54" id="bg"/><g id="i"><use transform="matrix(0.04938271604938272,0,0,0.04938271604938272,0,0)" xlink:href="#ao"/><use transform="matrix(0.04938271604938272,0,0,0.04938271604938272,11.851851851851853,0)" xlink:href="#at"/><use transform="matrix(0.04938271604938272,0,0,0.04938271604938272,22.666666666666668,0)" xlink:href="#aj"/><use transform="matrix(0.04938271604938272,0,0,0.04938271604938272,33.827160493827165,0)" xlink:href="#bg"/><use transform="matrix(0.04938271604938272,0,0,0.04938271604938272,45.67901234567902,0)" xlink:href="#al"/><use transform="matrix(0.04938271604938272,0,0,0.04938271604938272,57.53086419753087,0)" xlink:href="#ar"/></g><path fill="#333" d="M144 0l-44-69L55 0H2l70-98-66-92h53l41 62 40-62h54l-67 91 71 99h-54" id="bh"/><path fill="#333" d="M76-54c-1 42 2 86-19 110H24C36 42 46 24 48 0H25v-54h51" id="bi"/><g id="j"><use transform="matrix(0.05,0,0,0.05,0,0)" xlink:href="#au"/><use transform="matrix(0.05,0,0,0.05,10.950000000000001,0)" xlink:href="#av"/><use transform="matrix(0.05,0,0,0.05,15.950000000000001,0)" xlink:href="#aw"/><use transform="matrix(0.05,0,0,0.05,25.950000000000003,0)" xlink:href="#ax"/><use transform="matrix(0.05,0,0,0.05,35.95,0)" xlink:href="#ay"/><use transform="matrix(0.05,0,0,0.05,45.95,0)" xlink:href="#az"/><use transform="matrix(0.05,0,0,0.05,57.95,0)" xlink:href="#aA"/><use transform="matrix(0.05,0,0,0.05,68.9,0)" xlink:href="#aB"/><use transform="matrix(0.05,0,0,0.05,73.9,0)" xlink:href="#au"/><use transform="matrix(0.05,0,0,0.05,84.85000000000001,0)" xlink:href="#aD"/><use transform="matrix(0.05,0,0,0.05,90.80000000000001,0)" xlink:href="#bh"/><use transform="matrix(0.05,0,0,0.05,100.80000000000001,0)" xlink:href="#bi"/></g><g id="k"><use transform="matrix(0.05,0,0,0.05,0,0)" xlink:href="#aZ"/><use transform="matrix(0.05,0,0,0.05,10,0)" xlink:href="#aE"/></g><path d="M140-251c81 0 123 46 123 126C263-46 219 4 140 4 59 4 17-45 17-125s42-126 123-126zm0 227c63 0 89-41 89-101s-29-99-89-99c-61 0-89 39-89 99S79-25 140-24" id="bj"/><path d="M117-194c89-4 53 116 60 194h-32v-121c0-31-8-49-39-48C34-167 62-67 57 0H25l-1-190h30c1 10-1 24 2 32 11-22 29-35 61-36" id="bk"/><g id="l"><use transform="matrix(0.05,0,0,0.05,0,0)" xlink:href="#bj"/><use transform="matrix(0.05,0,0,0.05,14,0)" xlink:href="#bk"/></g><path d="M100-194c63 0 86 42 84 106H49c0 40 14 67 53 68 26 1 43-12 49-29l28 8c-11 28-37 45-77 45C44 4 14-33 15-96c1-61 26-98 85-98zm52 81c6-60-76-77-97-28-3 7-6 17-6 28h103" id="bl"/><g id="m"><use transform="matrix(0.05,0,0,0.05,0,0)" xlink:href="#bk"/><use transform="matrix(0.05,0,0,0.05,10,0)" xlink:href="#bl"/></g><path d="M85-194c31 0 48 13 60 33l-1-100h32l1 261h-30c-2-10 0-23-3-31C134-8 116 4 85 4 32 4 16-35 15-94c0-66 23-100 70-100zm9 24c-40 0-46 34-46 75 0 40 6 74 45 74 42 0 51-32 51-76 0-42-9-74-50-73" id="bm"/><path d="M100-194c63 0 86 42 84 106H49c0 40 14 67 53 68 26 1 43-12 49-29l28 8c-11 28-37 45-77 45C44 4 14-33 15-96c1-61 26-98 85-98zm52 81c6-60-76-77-97-28-3 7-6 17-6 28h103zm-74-98c8-23 27-35 38-54h36v5l-58 49H78" id="bn"/><path d="M59-47c-2 24 18 29 38 22v24C64 9 27 4 27-40v-127H5v-23h24l9-43h21v43h35v23H59v120" id="bo"/><path d="M141-36C126-15 110 5 73 4 37 3 15-17 15-53c-1-64 63-63 125-63 3-35-9-54-41-54-24 1-41 7-42 31l-33-3c5-37 33-52 76-52 45 0 72 20 72 64v82c-1 20 7 32 28 27v20c-31 9-61-2-59-35zM48-53c0 20 12 33 32 33 41-3 63-29 60-74-43 2-92-5-92 41" id="bp"/><path d="M24-231v-30h32v30H24zM24 0v-190h32V0H24" id="bq"/><path d="M24 0v-261h32V0H24" id="br"/><path d="M114-163C36-179 61-72 57 0H25l-1-190h30c1 12-1 29 2 39 6-27 23-49 58-41v29" id="bs"/><g id="n"><use transform="matrix(0.05,0,0,0.05,0,0)" xlink:href="#bm"/><use transform="matrix(0.05,0,0,0.05,10,0)" xlink:href="#bn"/><use transform="matrix(0.05,0,0,0.05,20,0)" xlink:href="#bo"/><use transform="matrix(0.05,0,0,0.05,25,0)" xlink:href="#bp"/><use transform="matrix(0.05,0,0,0.05,35,0)" xlink:href="#bq"/><use transform="matrix(0.05,0,0,0.05,38.95,0)" xlink:href="#br"/><use transform="matrix(0.05,0,0,0.05,42.900000000000006,0)" xlink:href="#br"/><use transform="matrix(0.05,0,0,0.05,46.85000000000001,0)" xlink:href="#bl"/><use transform="matrix(0.05,0,0,0.05,56.85,0)" xlink:href="#bs"/><use transform="matrix(0.05,0,0,0.05,62.80000000000001,0)" xlink:href="#bp"/></g><path d="M115-194c55 1 70 41 70 98S169 2 115 4C84 4 66-9 55-30l1 105H24l-1-265h31l2 30c10-21 28-34 59-34zm-8 174c40 0 45-34 45-75s-6-73-45-74c-42 0-51 32-51 76 0 43 10 73 51 73" id="bt"/><path d="M135-143c-3-34-86-38-87 0 15 53 115 12 119 90S17 21 10-45l28-5c4 36 97 45 98 0-10-56-113-15-118-90-4-57 82-63 122-42 12 7 21 19 24 35" id="bu"/><g id="o"><use transform="matrix(0.05,0,0,0.05,0,0)" xlink:href="#bt"/><use transform="matrix(0.05,0,0,0.05,10,0)" xlink:href="#bp"/><use transform="matrix(0.05,0,0,0.05,20,0)" xlink:href="#bu"/></g><g id="p"><use transform="matrix(0.05,0,0,0.05,0,0)" xlink:href="#bl"/><use transform="matrix(0.05,0,0,0.05,10,0)" xlink:href="#bk"/></g><g id="q"><use transform="matrix(0.05,0,0,0.05,0,0)" xlink:href="#bm"/><use transform="matrix(0.05,0,0,0.05,10,0)" xlink:href="#bn"/><use transform="matrix(0.05,0,0,0.05,20,0)" xlink:href="#bo"/><use transform="matrix(0.05,0,0,0.05,25,0)" xlink:href="#bp"/><use transform="matrix(0.05,0,0,0.05,35,0)" xlink:href="#bq"/><use transform="matrix(0.05,0,0,0.05,38.95,0)" xlink:href="#br"/></g><g id="r"><use transform="matrix(0.05,0,0,0.05,0,0)" xlink:href="#br"/><use transform="matrix(0.05,0,0,0.05,3.95,0)" xlink:href="#bp"/></g><path d="M220-157c-53 9-28 100-34 157h-49v-107c1-27-5-49-29-50C55-147 81-57 75 0H25l-1-190h47c2 12-1 28 3 38 10-53 101-56 108 0 13-22 24-43 59-42 82 1 51 116 57 194h-49v-107c-1-25-5-48-29-50" id="bv"/><path d="M185-48c-13 30-37 53-82 52C43 2 14-33 14-96s30-98 90-98c62 0 83 45 84 108H66c0 31 8 55 39 56 18 0 30-7 34-22zm-45-69c5-46-57-63-70-21-2 6-4 13-4 21h74zm-67-91v-5l45-51h45v8l-60 48H73" id="bw"/><path d="M115-3C79 11 28 4 28-45v-112H4v-33h27l15-45h31v45h36v33H77v99c-1 23 16 31 38 25v30" id="bx"/><path d="M114-157C55-157 80-60 75 0H25v-261h50l-1 109c12-26 28-41 61-42 86-1 58 113 63 194h-50c-7-57 23-157-34-157" id="by"/><path d="M110-194c64 0 96 36 96 99 0 64-35 99-97 99-61 0-95-36-95-99 0-62 34-99 96-99zm-1 164c35 0 45-28 45-65 0-40-10-65-43-65-34 0-45 26-45 65 0 36 10 65 43 65" id="bz"/><path d="M88-194c31-1 46 15 58 34l-1-101h50l1 261h-48c-2-10 0-23-3-31C134-8 116 4 84 4 32 4 16-41 15-95c0-56 19-97 73-99zm17 164c33 0 40-30 41-66 1-37-9-64-41-64s-38 30-39 65c0 43 13 65 39 65" id="bA"/><path d="M185-48c-13 30-37 53-82 52C43 2 14-33 14-96s30-98 90-98c62 0 83 45 84 108H66c0 31 8 55 39 56 18 0 30-7 34-22zm-45-69c5-46-57-63-70-21-2 6-4 13-4 21h74" id="bB"/><g id="s"><use transform="matrix(0.05,0,0,0.05,0,0)" xlink:href="#bv"/><use transform="matrix(0.05,0,0,0.05,16,0)" xlink:href="#bw"/><use transform="matrix(0.05,0,0,0.05,26,0)" xlink:href="#bx"/><use transform="matrix(0.05,0,0,0.05,31.950000000000003,0)" xlink:href="#by"/><use transform="matrix(0.05,0,0,0.05,42.9,0)" xlink:href="#bz"/><use transform="matrix(0.05,0,0,0.05,53.85,0)" xlink:href="#bA"/><use transform="matrix(0.05,0,0,0.05,64.8,0)" xlink:href="#bB"/></g><g id="t"><use transform="matrix(0.05,0,0,0.05,0,0)" xlink:href="#bm"/><use transform="matrix(0.05,0,0,0.05,10,0)" xlink:href="#bl"/></g><path d="M135-194c53 0 70 44 70 98 0 56-19 98-73 100-31 1-45-17-59-34 3 33 2 69 2 105H25l-1-265h48c2 10 0 23 3 31 11-24 29-35 60-35zM114-30c33 0 39-31 40-66 0-38-9-64-40-64-56 0-55 130 0 130" id="bC"/><path d="M25 0v-261h50V0H25" id="bD"/><path d="M133-34C117-15 103 5 69 4 32 3 11-16 11-54c-1-60 55-63 116-61 1-26-3-47-28-47-18 1-26 9-28 27l-52-2c7-38 36-58 82-57s74 22 75 68l1 82c-1 14 12 18 25 15v27c-30 8-71 5-69-32zm-48 3c29 0 43-24 42-57-32 0-66-3-65 30 0 17 8 27 23 27" id="bE"/><path d="M190-63c-7 42-38 67-86 67-59 0-84-38-90-98-12-110 154-137 174-36l-49 2c-2-19-15-32-35-32-30 0-35 28-38 64-6 74 65 87 74 30" id="bF"/><path d="M135-194c87-1 58 113 63 194h-50c-7-57 23-157-34-157-59 0-34 97-39 157H25l-1-190h47c2 12-1 28 3 38 12-26 28-41 61-42" id="bG"/><g id="u"><use transform="matrix(0.05,0,0,0.05,0,0)" xlink:href="#bC"/><use transform="matrix(0.05,0,0,0.05,10.950000000000001,0)" xlink:href="#bD"/><use transform="matrix(0.05,0,0,0.05,15.950000000000001,0)" xlink:href="#bE"/><use transform="matrix(0.05,0,0,0.05,25.950000000000003,0)" xlink:href="#bF"/><use transform="matrix(0.05,0,0,0.05,35.95,0)" xlink:href="#bB"/><use transform="matrix(0.05,0,0,0.05,45.95,0)" xlink:href="#bv"/><use transform="matrix(0.05,0,0,0.05,61.95,0)" xlink:href="#bB"/><use transform="matrix(0.05,0,0,0.05,71.95,0)" xlink:href="#bG"/><use transform="matrix(0.05,0,0,0.05,82.9,0)" xlink:href="#bx"/></g><path d="M137-138c1-29-70-34-71-4 15 46 118 7 119 86 1 83-164 76-172 9l43-7c4 19 20 25 44 25 33 8 57-30 24-41C81-84 22-81 20-136c-2-80 154-74 161-7" id="bH"/><g id="v"><use transform="matrix(0.05,0,0,0.05,0,0)" xlink:href="#bA"/><use transform="matrix(0.05,0,0,0.05,10.950000000000001,0)" xlink:href="#bB"/><use transform="matrix(0.05,0,0,0.05,20.950000000000003,0)" xlink:href="#bH"/></g><path d="M135-194c52 0 70 43 70 98 0 56-19 99-73 100-30 1-46-15-58-35L72 0H24l1-261h50v104c11-23 29-37 60-37zM114-30c31 0 40-27 40-66 0-37-7-63-39-63s-41 28-41 65c0 36 8 64 40 64" id="bI"/><path d="M85 4C-2 5 27-109 22-190h50c7 57-23 150 33 157 60-5 35-97 40-157h50l1 190h-47c-2-12 1-28-3-38-12 25-28 42-61 42" id="bJ"/><path d="M144 0l-44-69L55 0H2l70-98-66-92h53l41 62 40-62h54l-67 91 71 99h-54" id="bK"/><path d="M33 0v-38h34V0H33" id="bL"/><g id="w"><use transform="matrix(0.05,0,0,0.05,0,0)" xlink:href="#bI"/><use transform="matrix(0.05,0,0,0.05,10.950000000000001,0)" xlink:href="#bE"/><use transform="matrix(0.05,0,0,0.05,20.950000000000003,0)" xlink:href="#bx"/><use transform="matrix(0.05,0,0,0.05,26.900000000000002,0)" xlink:href="#bB"/><use transform="matrix(0.05,0,0,0.05,36.900000000000006,0)" xlink:href="#bE"/><use transform="matrix(0.05,0,0,0.05,46.900000000000006,0)" xlink:href="#bJ"/><use transform="matrix(0.05,0,0,0.05,57.85,0)" xlink:href="#bK"/><use transform="matrix(0.05,0,0,0.05,67.85000000000001,0)" xlink:href="#bL"/></g><path d="M33 0v-248h34V0H33" id="bM"/><g id="x"><use transform="matrix(0.05,0,0,0.05,0,0)" xlink:href="#bM"/><use transform="matrix(0.05,0,0,0.05,5,0)" xlink:href="#br"/></g><path d="M179-190L93 31C79 59 56 82 12 73V49c39 6 53-20 64-50L1-190h34L92-34l54-156h33" id="bN"/><use transform="matrix(0.05,0,0,0.05,0,0)" xlink:href="#bN" id="y"/><path d="M84 4C-5 8 30-112 23-190h32v120c0 31 7 50 39 49 72-2 45-101 50-169h31l1 190h-30c-1-10 1-25-2-33-11 22-28 36-60 37" id="bO"/><g id="z"><use transform="matrix(0.05,0,0,0.05,0,0)" xlink:href="#bp"/><use transform="matrix(0.05,0,0,0.05,10,0)" xlink:href="#bO"/><use transform="matrix(0.05,0,0,0.05,20,0)" xlink:href="#bs"/><use transform="matrix(0.05,0,0,0.05,25.950000000000003,0)" xlink:href="#bp"/></g><path d="M210-169c-67 3-38 105-44 169h-31v-121c0-29-5-50-35-48C34-165 62-65 56 0H25l-1-190h30c1 10-1 24 2 32 10-44 99-50 107 0 11-21 27-35 58-36 85-2 47 119 55 194h-31v-121c0-29-5-49-35-48" id="bP"/><g id="A"><use transform="matrix(0.05,0,0,0.05,0,0)" xlink:href="#bu"/><use transform="matrix(0.05,0,0,0.05,9,0)" xlink:href="#bq"/><use transform="matrix(0.05,0,0,0.05,12.949999999999998,0)" xlink:href="#bP"/><use transform="matrix(0.05,0,0,0.05,27.899999999999995,0)" xlink:href="#bt"/><use transform="matrix(0.05,0,0,0.05,37.9,0)" xlink:href="#br"/><use transform="matrix(0.05,0,0,0.05,41.85,0)" xlink:href="#bl"/><use transform="matrix(0.05,0,0,0.05,51.85,0)" xlink:href="#bP"/><use transform="matrix(0.05,0,0,0.05,66.8,0)" xlink:href="#bl"/><use transform="matrix(0.05,0,0,0.05,76.8,0)" xlink:href="#bk"/><use transform="matrix(0.05,0,0,0.05,86.8,0)" xlink:href="#bo"/></g><g id="B"><use transform="matrix(0.05,0,0,0.05,0,0)" xlink:href="#bt"/><use transform="matrix(0.05,0,0,0.05,10,0)" xlink:href="#br"/><use transform="matrix(0.05,0,0,0.05,13.949999999999998,0)" xlink:href="#bO"/><use transform="matrix(0.05,0,0,0.05,23.95,0)" xlink:href="#bu"/><use transform="matrix(0.05,0,0,0.05,32.95,0)" xlink:href="#bq"/><use transform="matrix(0.05,0,0,0.05,36.900000000000006,0)" xlink:href="#bl"/><use transform="matrix(0.05,0,0,0.05,46.900000000000006,0)" xlink:href="#bO"/><use transform="matrix(0.05,0,0,0.05,56.900000000000006,0)" xlink:href="#bs"/><use transform="matrix(0.05,0,0,0.05,62.85,0)" xlink:href="#bu"/></g><g id="C"><use transform="matrix(0.05,0,0,0.05,0,0)" xlink:href="#bp"/><use transform="matrix(0.05,0,0,0.05,10,0)" xlink:href="#bt"/><use transform="matrix(0.05,0,0,0.05,20,0)" xlink:href="#bt"/><use transform="matrix(0.05,0,0,0.05,30,0)" xlink:href="#bl"/><use transform="matrix(0.05,0,0,0.05,40,0)" xlink:href="#br"/><use transform="matrix(0.05,0,0,0.05,43.95,0)" xlink:href="#bu"/></g><path d="M141-36C126-15 110 5 73 4 37 3 15-17 15-53c-1-64 63-63 125-63 3-35-9-54-41-54-24 1-41 7-42 31l-33-3c5-37 33-52 76-52 45 0 72 20 72 64v82c-1 20 7 32 28 27v20c-31 9-61-2-59-35zM48-53c0 20 12 33 32 33 41-3 63-29 60-74-43 2-92-5-92 41zm62-158l-58-49v-5h36c12 19 30 32 38 54h-16" id="bQ"/><use transform="matrix(0.05,0,0,0.05,0,0)" xlink:href="#bQ" id="D"/><path d="M169-182c-1-43-94-46-97-3 18 66 151 10 154 114 3 95-165 93-204 36-6-8-10-19-12-30l50-8c3 46 112 56 116 5-17-69-150-10-154-114-4-87 153-88 188-35 5 8 8 18 10 28" id="bR"/><path d="M25-224v-37h50v37H25zM25 0v-190h50V0H25" id="bS"/><path d="M67-93c0 74 22 123 53 168H70C40 30 18-18 18-93s22-123 52-168h50c-32 44-53 94-53 168" id="bT"/><path d="M76-54c-1 42 2 86-19 110H24C36 42 46 24 48 0H25v-54h51" id="bU"/><g id="E"><use transform="matrix(0.05,0,0,0.05,0,0)" xlink:href="#bC"/><use transform="matrix(0.05,0,0,0.05,10.950000000000001,0)" xlink:href="#bD"/><use transform="matrix(0.05,0,0,0.05,15.950000000000001,0)" xlink:href="#bE"/><use transform="matrix(0.05,0,0,0.05,25.950000000000003,0)" xlink:href="#bF"/><use transform="matrix(0.05,0,0,0.05,35.95,0)" xlink:href="#bB"/><use transform="matrix(0.05,0,0,0.05,45.95,0)" xlink:href="#bR"/><use transform="matrix(0.05,0,0,0.05,57.95,0)" xlink:href="#by"/><use transform="matrix(0.05,0,0,0.05,68.9,0)" xlink:href="#bS"/><use transform="matrix(0.05,0,0,0.05,73.9,0)" xlink:href="#bC"/><use transform="matrix(0.05,0,0,0.05,84.85000000000001,0)" xlink:href="#bT"/><use transform="matrix(0.05,0,0,0.05,90.80000000000001,0)" xlink:href="#bK"/><use transform="matrix(0.05,0,0,0.05,100.80000000000001,0)" xlink:href="#bU"/></g><path d="M123 10C108 53 80 86 19 72V37c35 8 53-11 59-39L3-190h52l48 148c12-52 28-100 44-148h51" id="bV"/><path d="M102-93c0 74-22 123-52 168H0C30 29 54-18 53-93c0-74-22-123-53-168h50c30 45 52 94 52 168" id="bW"/><g id="F"><use transform="matrix(0.05,0,0,0.05,0,0)" xlink:href="#bV"/><use transform="matrix(0.05,0,0,0.05,10,0)" xlink:href="#bW"/></g><path d="M101-234c-31-9-42 10-38 44h38v23H63V0H32v-167H5v-23h27c-7-52 17-82 69-68v24" id="bX"/><g id="G"><use transform="matrix(0.05,0,0,0.05,0,0)" xlink:href="#bp"/><use transform="matrix(0.05,0,0,0.05,10,0)" xlink:href="#bX"/><use transform="matrix(0.05,0,0,0.05,15,0)" xlink:href="#bq"/><use transform="matrix(0.05,0,0,0.05,18.95,0)" xlink:href="#bk"/></g><g id="H"><use transform="matrix(0.05,0,0,0.05,0,0)" xlink:href="#bm"/><use transform="matrix(0.05,0,0,0.05,10,0)" xlink:href="#bl"/></g><path d="M100-194c62-1 85 37 85 99 1 63-27 99-86 99S16-35 15-95c0-66 28-99 85-99zM99-20c44 1 53-31 53-75 0-43-8-75-51-75s-53 32-53 75 10 74 51 75" id="bY"/><g id="I"><use transform="matrix(0.05,0,0,0.05,0,0)" xlink:href="#bt"/><use transform="matrix(0.05,0,0,0.05,10,0)" xlink:href="#bY"/><use transform="matrix(0.05,0,0,0.05,20,0)" xlink:href="#bu"/><use transform="matrix(0.05,0,0,0.05,29,0)" xlink:href="#bq"/><use transform="matrix(0.05,0,0,0.05,32.95,0)" xlink:href="#bo"/><use transform="matrix(0.05,0,0,0.05,37.95,0)" xlink:href="#bq"/><use transform="matrix(0.05,0,0,0.05,41.900000000000006,0)" xlink:href="#bY"/><use transform="matrix(0.05,0,0,0.05,51.900000000000006,0)" xlink:href="#bk"/><use transform="matrix(0.05,0,0,0.05,61.900000000000006,0)" xlink:href="#bk"/><use transform="matrix(0.05,0,0,0.05,71.9,0)" xlink:href="#bl"/><use transform="matrix(0.05,0,0,0.05,81.9,0)" xlink:href="#bs"/></g><g id="J"><use transform="matrix(0.05,0,0,0.05,0,0)" xlink:href="#bo"/><use transform="matrix(0.05,0,0,0.05,5,0)" xlink:href="#bY"/><use transform="matrix(0.05,0,0,0.05,15,0)" xlink:href="#bO"/><use transform="matrix(0.05,0,0,0.05,25,0)" xlink:href="#bu"/></g><g id="K"><use transform="matrix(0.05,0,0,0.05,0,0)" xlink:href="#br"/><use transform="matrix(0.05,0,0,0.05,3.95,0)" xlink:href="#bl"/><use transform="matrix(0.05,0,0,0.05,13.949999999999998,0)" xlink:href="#bu"/></g><path d="M115-194c53 0 69 39 70 98 0 66-23 100-70 100C84 3 66-7 56-30L54 0H23l1-261h32v101c10-23 28-34 59-34zm-8 174c40 0 45-34 45-75 0-40-5-75-45-74-42 0-51 32-51 76 0 43 10 73 51 73" id="bZ"/><path d="M141 0L90-78 38 0H4l68-98-65-92h35l48 74 47-74h35l-64 92 68 98h-35" id="ca"/><g id="L"><use transform="matrix(0.05,0,0,0.05,0,0)" xlink:href="#bZ"/><use transform="matrix(0.05,0,0,0.05,10,0)" xlink:href="#bp"/><use transform="matrix(0.05,0,0,0.05,20,0)" xlink:href="#bo"/><use transform="matrix(0.05,0,0,0.05,25,0)" xlink:href="#bl"/><use transform="matrix(0.05,0,0,0.05,35,0)" xlink:href="#bp"/><use transform="matrix(0.05,0,0,0.05,45,0)" xlink:href="#bO"/><use transform="matrix(0.05,0,0,0.05,55,0)" xlink:href="#ca"/></g><path d="M47-170H22l-4-78h33" id="cb"/><g id="M"><use transform="matrix(0.05,0,0,0.05,0,0)" xlink:href="#br"/><use transform="matrix(0.05,0,0,0.05,3.95,0)" xlink:href="#cb"/><use transform="matrix(0.05,0,0,0.05,7.3500000000000005,0)" xlink:href="#bY"/><use transform="matrix(0.05,0,0,0.05,17.35,0)" xlink:href="#bs"/><use transform="matrix(0.05,0,0,0.05,23.3,0)" xlink:href="#bm"/><use transform="matrix(0.05,0,0,0.05,33.3,0)" xlink:href="#bq"/><use transform="matrix(0.05,0,0,0.05,37.25,0)" xlink:href="#bk"/><use transform="matrix(0.05,0,0,0.05,47.25,0)" xlink:href="#bp"/><use transform="matrix(0.05,0,0,0.05,57.25,0)" xlink:href="#bo"/><use transform="matrix(0.05,0,0,0.05,62.25,0)" xlink:href="#bl"/><use transform="matrix(0.05,0,0,0.05,72.25,0)" xlink:href="#bO"/><use transform="matrix(0.05,0,0,0.05,82.25,0)" xlink:href="#bs"/><use transform="matrix(0.05,0,0,0.05,87.2,0)" xlink:href="#bL"/></g><path fill="#333" d="M186 0v-106H76V0H24v-248h52v99h110v-99h50V0h-50" id="cc"/><path fill="#333" d="M24 0v-248h52V0H24" id="cd"/><g id="N"><use transform="matrix(0.04938271604938272,0,0,0.04938271604938272,0,0)" xlink:href="#az"/><use transform="matrix(0.04938271604938272,0,0,0.04938271604938272,11.851851851851853,0)" xlink:href="#cc"/><use transform="matrix(0.04938271604938272,0,0,0.04938271604938272,24.641975308641978,0)" xlink:href="#an"/><use transform="matrix(0.04938271604938272,0,0,0.04938271604938272,38.46913580246914,0)" xlink:href="#an"/><use transform="matrix(0.04938271604938272,0,0,0.04938271604938272,52.2962962962963,0)" xlink:href="#aq"/><use transform="matrix(0.04938271604938272,0,0,0.04938271604938272,63.111111111111114,0)" xlink:href="#cd"/><use transform="matrix(0.04938271604938272,0,0,0.04938271604938272,68.0493827160494,0)" xlink:href="#as"/><use transform="matrix(0.04938271604938272,0,0,0.04938271604938272,80.83950617283952,0)" xlink:href="#ai"/></g><g id="O"><use transform="matrix(0.04938271604938272,0,0,0.04938271604938272,0,0)" xlink:href="#az"/><use transform="matrix(0.04938271604938272,0,0,0.04938271604938272,11.851851851851853,0)" xlink:href="#aq"/><use transform="matrix(0.04938271604938272,0,0,0.04938271604938272,22.666666666666668,0)" xlink:href="#ar"/><use transform="matrix(0.04938271604938272,0,0,0.04938271604938272,35.45679012345679,0)" xlink:href="#aj"/><use transform="matrix(0.04938271604938272,0,0,0.04938271604938272,46.91358024691358,0)" xlink:href="#aq"/><use transform="matrix(0.04938271604938272,0,0,0.04938271604938272,57.7283950617284,0)" xlink:href="#al"/><use transform="matrix(0.04938271604938272,0,0,0.04938271604938272,69.58024691358025,0)" xlink:href="#ai"/><use transform="matrix(0.04938271604938272,0,0,0.04938271604938272,83.40740740740742,0)" xlink:href="#bg"/></g><g id="P"><use transform="matrix(0.05,0,0,0.05,0,0)" xlink:href="#au"/><use transform="matrix(0.05,0,0,0.05,10.950000000000001,0)" xlink:href="#av"/><use transform="matrix(0.05,0,0,0.05,15.950000000000001,0)" xlink:href="#aw"/><use transform="matrix(0.05,0,0,0.05,25.950000000000003,0)" xlink:href="#aZ"/><use transform="matrix(0.05,0,0,0.05,35.95,0)" xlink:href="#az"/><use transform="matrix(0.05,0,0,0.05,47.95,0)" xlink:href="#aA"/><use transform="matrix(0.05,0,0,0.05,58.900000000000006,0)" xlink:href="#ba"/><use transform="matrix(0.05,0,0,0.05,69.85000000000001,0)" xlink:href="#ba"/><use transform="matrix(0.05,0,0,0.05,80.80000000000001,0)" xlink:href="#bd"/><use transform="matrix(0.05,0,0,0.05,86.75000000000001,0)" xlink:href="#aD"/><use transform="matrix(0.05,0,0,0.05,92.70000000000002,0)" xlink:href="#aC"/><use transform="matrix(0.05,0,0,0.05,102.7,0)" xlink:href="#ay"/><use transform="matrix(0.05,0,0,0.05,112.7,0)" xlink:href="#aw"/><use transform="matrix(0.05,0,0,0.05,122.7,0)" xlink:href="#aE"/></g><g id="Q"><use transform="matrix(0.05,0,0,0.05,0,0)" xlink:href="#aD"/><use transform="matrix(0.05,0,0,0.05,5.95,0)" xlink:href="#aB"/><use transform="matrix(0.05,0,0,0.05,10.95,0)" xlink:href="#bf"/><use transform="matrix(0.05,0,0,0.05,21.9,0)" xlink:href="#bd"/><use transform="matrix(0.05,0,0,0.05,27.849999999999994,0)" xlink:href="#bi"/></g><g id="R"><use transform="matrix(0.05,0,0,0.05,0,0)" xlink:href="#aB"/><use transform="matrix(0.05,0,0,0.05,5,0)" xlink:href="#bf"/><use transform="matrix(0.05,0,0,0.05,15.950000000000001,0)" xlink:href="#bd"/><use transform="matrix(0.05,0,0,0.05,21.900000000000002,0)" xlink:href="#aE"/></g><g id="S"><use transform="matrix(0.05,0,0,0.05,0,0)" xlink:href="#aC"/><use transform="matrix(0.05,0,0,0.05,10,0)" xlink:href="#aA"/><use transform="matrix(0.05,0,0,0.05,20.950000000000003,0)" xlink:href="#ba"/><use transform="matrix(0.05,0,0,0.05,31.900000000000006,0)" xlink:href="#bd"/><use transform="matrix(0.05,0,0,0.05,37.85000000000001,0)" xlink:href="#ao"/><use transform="matrix(0.05,0,0,0.05,49.85000000000001,0)" xlink:href="#ba"/><use transform="matrix(0.05,0,0,0.05,60.80000000000001,0)" xlink:href="#aC"/><use transform="matrix(0.05,0,0,0.05,70.80000000000001,0)" xlink:href="#aB"/><use transform="matrix(0.05,0,0,0.05,75.80000000000001,0)" xlink:href="#bd"/><use transform="matrix(0.05,0,0,0.05,81.75000000000001,0)" xlink:href="#aB"/><use transform="matrix(0.05,0,0,0.05,86.75000000000001,0)" xlink:href="#ba"/><use transform="matrix(0.05,0,0,0.05,97.70000000000002,0)" xlink:href="#bf"/></g><path fill="#333" d="M24 0v-54h51V0H24" id="ce"/><g id="T"><use transform="matrix(0.05,0,0,0.05,0,0)" xlink:href="#aC"/><use transform="matrix(0.05,0,0,0.05,10,0)" xlink:href="#aA"/><use transform="matrix(0.05,0,0,0.05,20.950000000000003,0)" xlink:href="#ba"/><use transform="matrix(0.05,0,0,0.05,31.900000000000006,0)" xlink:href="#ba"/><use transform="matrix(0.05,0,0,0.05,42.85000000000001,0)" xlink:href="#bd"/><use transform="matrix(0.05,0,0,0.05,48.80000000000001,0)" xlink:href="#aD"/><use transform="matrix(0.05,0,0,0.05,54.750000000000014,0)" xlink:href="#aC"/><use transform="matrix(0.05,0,0,0.05,64.75000000000001,0)" xlink:href="#aA"/><use transform="matrix(0.05,0,0,0.05,75.70000000000002,0)" xlink:href="#ba"/><use transform="matrix(0.05,0,0,0.05,86.65000000000002,0)" xlink:href="#bd"/><use transform="matrix(0.05,0,0,0.05,92.60000000000002,0)" xlink:href="#ao"/><use transform="matrix(0.05,0,0,0.05,104.60000000000002,0)" xlink:href="#ba"/><use transform="matrix(0.05,0,0,0.05,115.55000000000003,0)" xlink:href="#aC"/><use transform="matrix(0.05,0,0,0.05,125.55000000000003,0)" xlink:href="#aB"/><use transform="matrix(0.05,0,0,0.05,130.55,0)" xlink:href="#bd"/><use transform="matrix(0.05,0,0,0.05,136.5,0)" xlink:href="#aB"/><use transform="matrix(0.05,0,0,0.05,141.5,0)" xlink:href="#ba"/><use transform="matrix(0.05,0,0,0.05,152.45,0)" xlink:href="#bf"/><use transform="matrix(0.05,0,0,0.05,163.39999999999998,0)" xlink:href="#ce"/><use transform="matrix(0.05,0,0,0.05,168.39999999999998,0)" xlink:href="#bh"/><use transform="matrix(0.05,0,0,0.05,178.39999999999998,0)" xlink:href="#bi"/></g><g id="U"><use transform="matrix(0.05,0,0,0.05,0,0)" xlink:href="#aC"/><use transform="matrix(0.05,0,0,0.05,10,0)" xlink:href="#aA"/><use transform="matrix(0.05,0,0,0.05,20.950000000000003,0)" xlink:href="#ba"/><use transform="matrix(0.05,0,0,0.05,31.900000000000006,0)" xlink:href="#bd"/><use transform="matrix(0.05,0,0,0.05,37.85000000000001,0)" xlink:href="#ao"/><use transform="matrix(0.05,0,0,0.05,49.85000000000001,0)" xlink:href="#ba"/><use transform="matrix(0.05,0,0,0.05,60.80000000000001,0)" xlink:href="#aC"/><use transform="matrix(0.05,0,0,0.05,70.80000000000001,0)" xlink:href="#aB"/><use transform="matrix(0.05,0,0,0.05,75.80000000000001,0)" xlink:href="#bd"/><use transform="matrix(0.05,0,0,0.05,81.75000000000001,0)" xlink:href="#aB"/><use transform="matrix(0.05,0,0,0.05,86.75000000000001,0)" xlink:href="#ba"/><use transform="matrix(0.05,0,0,0.05,97.70000000000002,0)" xlink:href="#bf"/><use transform="matrix(0.05,0,0,0.05,108.65000000000003,0)" xlink:href="#ce"/><use transform="matrix(0.05,0,0,0.05,113.65000000000003,0)" xlink:href="#aZ"/><use transform="matrix(0.05,0,0,0.05,123.65000000000003,0)" xlink:href="#aE"/></g><g id="V"><use transform="matrix(0.05,0,0,0.05,0,0)" xlink:href="#au"/><use transform="matrix(0.05,0,0,0.05,10.950000000000001,0)" xlink:href="#av"/><use transform="matrix(0.05,0,0,0.05,15.950000000000001,0)" xlink:href="#aw"/><use transform="matrix(0.05,0,0,0.05,25.950000000000003,0)" xlink:href="#aZ"/><use transform="matrix(0.05,0,0,0.05,35.95,0)" xlink:href="#az"/><use transform="matrix(0.05,0,0,0.05,47.95,0)" xlink:href="#aA"/><use transform="matrix(0.05,0,0,0.05,58.900000000000006,0)" xlink:href="#ba"/><use transform="matrix(0.05,0,0,0.05,69.85000000000001,0)" xlink:href="#ba"/><use transform="matrix(0.05,0,0,0.05,80.80000000000001,0)" xlink:href="#bd"/><use transform="matrix(0.05,0,0,0.05,86.75000000000001,0)" xlink:href="#aD"/><use transform="matrix(0.05,0,0,0.05,92.70000000000002,0)" xlink:href="#aE"/></g><path d="M24-231v-30h32v30H24zM-9 49c24 4 33-6 33-30v-209h32V24c2 40-23 58-65 49V49" id="cf"/><g id="W"><use transform="matrix(0.05,0,0,0.05,0,0)" xlink:href="#bj"/><use transform="matrix(0.05,0,0,0.05,14,0)" xlink:href="#bZ"/><use transform="matrix(0.05,0,0,0.05,24,0)" xlink:href="#cf"/><use transform="matrix(0.05,0,0,0.05,27.950000000000003,0)" xlink:href="#bl"/><use transform="matrix(0.05,0,0,0.05,37.95,0)" xlink:href="#bo"/></g><path d="M135-150c-39-12-60 13-60 57V0H25l-1-190h47c2 13-1 29 3 40 6-28 27-53 61-41v41" id="cg"/><g id="X"><use transform="matrix(0.05,0,0,0.05,0,0)" xlink:href="#bC"/><use transform="matrix(0.05,0,0,0.05,10.950000000000001,0)" xlink:href="#bD"/><use transform="matrix(0.05,0,0,0.05,15.950000000000001,0)" xlink:href="#bE"/><use transform="matrix(0.05,0,0,0.05,25.950000000000003,0)" xlink:href="#bV"/><use transform="matrix(0.05,0,0,0.05,35.95,0)" xlink:href="#bB"/><use transform="matrix(0.05,0,0,0.05,45.95,0)" xlink:href="#cg"/></g><g id="Y"><use transform="matrix(0.05,0,0,0.05,0,0)" xlink:href="#bF"/><use transform="matrix(0.05,0,0,0.05,10,0)" xlink:href="#bz"/><use transform="matrix(0.05,0,0,0.05,20.950000000000003,0)" xlink:href="#cg"/><use transform="matrix(0.05,0,0,0.05,27.950000000000003,0)" xlink:href="#cg"/><use transform="matrix(0.05,0,0,0.05,34.95,0)" xlink:href="#bB"/><use transform="matrix(0.05,0,0,0.05,44.95,0)" xlink:href="#bH"/><use transform="matrix(0.05,0,0,0.05,54.95,0)" xlink:href="#bC"/><use transform="matrix(0.05,0,0,0.05,65.9,0)" xlink:href="#bz"/><use transform="matrix(0.05,0,0,0.05,76.85000000000001,0)" xlink:href="#bG"/><use transform="matrix(0.05,0,0,0.05,87.80000000000001,0)" xlink:href="#bA"/><use transform="matrix(0.05,0,0,0.05,98.75000000000001,0)" xlink:href="#bE"/><use transform="matrix(0.05,0,0,0.05,108.75,0)" xlink:href="#bG"/><use transform="matrix(0.05,0,0,0.05,119.7,0)" xlink:href="#bx"/></g><path d="M132-34C116-15 102 5 68 4 31 3 10-16 10-54c-1-60 55-63 116-61 1-26-3-47-28-47-18 1-26 9-28 27l-52-2c7-38 36-58 82-57s74 22 75 68l1 82c-1 14 12 18 25 15v27c-30 8-71 5-69-32zm-48 3c29 0 43-24 42-57-32 0-66-3-65 30 0 17 8 27 23 27zm18-177l-59-48v-8h45l44 51v5h-30" id="ch"/><use transform="matrix(0.05,0,0,0.05,0,0)" xlink:href="#ch" id="Z"/><path d="M62-158H24l-5-90h48" id="ci"/><g id="aa"><use transform="matrix(0.05,0,0,0.05,0,0)" xlink:href="#bD"/><use transform="matrix(0.05,0,0,0.05,5,0)" xlink:href="#ci"/><use transform="matrix(0.05,0,0,0.05,9.25,0)" xlink:href="#bz"/><use transform="matrix(0.05,0,0,0.05,20.200000000000003,0)" xlink:href="#cg"/><use transform="matrix(0.05,0,0,0.05,27.200000000000003,0)" xlink:href="#bA"/><use transform="matrix(0.05,0,0,0.05,38.150000000000006,0)" xlink:href="#bS"/><use transform="matrix(0.05,0,0,0.05,43.150000000000006,0)" xlink:href="#bG"/><use transform="matrix(0.05,0,0,0.05,54.1,0)" xlink:href="#bE"/><use transform="matrix(0.05,0,0,0.05,64.10000000000001,0)" xlink:href="#bx"/><use transform="matrix(0.05,0,0,0.05,70.05000000000001,0)" xlink:href="#bB"/><use transform="matrix(0.05,0,0,0.05,80.05000000000001,0)" xlink:href="#bJ"/><use transform="matrix(0.05,0,0,0.05,91.00000000000001,0)" xlink:href="#cg"/></g><g id="ab"><use transform="matrix(0.05,0,0,0.05,0,0)" xlink:href="#bl"/><use transform="matrix(0.05,0,0,0.05,10,0)" xlink:href="#bo"/></g><path d="M145-31C134-9 116 4 85 4 32 4 16-35 15-94c0-59 17-99 70-100 32-1 48 14 60 33 0-11-1-24 2-32h30l-1 268h-32zM93-21c41 0 51-33 51-76s-8-73-50-73c-40 0-46 35-46 75s5 74 45 74" id="cj"/><g id="ac"><use transform="matrix(0.05,0,0,0.05,0,0)" xlink:href="#cj"/><use transform="matrix(0.05,0,0,0.05,10,0)" xlink:href="#bO"/><use transform="matrix(0.05,0,0,0.05,20,0)" xlink:href="#bq"/></g><path d="M96-169c-40 0-48 33-48 73s9 75 48 75c24 0 41-14 43-38l32 2c-6 37-31 61-74 61-59 0-76-41-82-99-10-93 101-131 147-64 4 7 5 14 7 22l-32 3c-4-21-16-35-41-35" id="ck"/><path d="M34 0v-190h32V0H34zm35-262c12 18 30 30 39 51-31 2-38-20-57-30-20 10-27 32-59 30 9-22 29-33 41-51h36" id="cl"/><g id="ad"><use transform="matrix(0.05,0,0,0.05,0,0)" xlink:href="#ck"/><use transform="matrix(0.05,0,0,0.05,9,0)" xlink:href="#bY"/><use transform="matrix(0.05,0,0,0.05,19,0)" xlink:href="#bk"/><use transform="matrix(0.05,0,0,0.05,29,0)" xlink:href="#bk"/><use transform="matrix(0.05,0,0,0.05,39,0)" xlink:href="#bp"/><use transform="matrix(0.05,0,0,0.05,49,0)" xlink:href="#cl"/><use transform="matrix(0.05,0,0,0.05,54,0)" xlink:href="#bo"/></g><g id="ae"><use transform="matrix(0.05,0,0,0.05,0,0)" xlink:href="#bm"/><use transform="matrix(0.05,0,0,0.05,10,0)" xlink:href="#bY"/><use transform="matrix(0.05,0,0,0.05,20,0)" xlink:href="#bk"/><use transform="matrix(0.05,0,0,0.05,30,0)" xlink:href="#ck"/></g><path d="M68-38c1 34 0 65-14 84H32c9-13 17-26 17-46H33v-38h35" id="cm"/><g id="af"><use transform="matrix(0.05,0,0,0.05,0,0)" xlink:href="#bR"/><use transform="matrix(0.05,0,0,0.05,12,0)" xlink:href="#bB"/><use transform="matrix(0.05,0,0,0.05,22,0)" xlink:href="#bE"/><use transform="matrix(0.05,0,0,0.05,32,0)" xlink:href="#cm"/></g><g id="ag"><use transform="matrix(0.05,0,0,0.05,0,0)" xlink:href="#bu"/><use transform="matrix(0.05,0,0,0.05,9,0)" xlink:href="#bp"/></g><path d="M177-190C167-65 218 103 67 71c-23-6-38-20-44-43l32-5c15 47 100 32 89-28v-30C133-14 115 1 83 1 29 1 15-40 15-95c0-56 16-97 71-98 29-1 48 16 59 35 1-10 0-23 2-32h30zM94-22c36 0 50-32 50-73 0-42-14-75-50-75-39 0-46 34-46 75s6 73 46 73" id="cn"/><g id="ah"><use transform="matrix(0.05,0,0,0.05,0,0)" xlink:href="#cn"/><use transform="matrix(0.05,0,0,0.05,10,0)" xlink:href="#bs"/><use transform="matrix(0.05,0,0,0.05,15.949999999999998,0)" xlink:href="#bq"/><use transform="matrix(0.05,0,0,0.05,19.9,0)" xlink:href="#br"/><use transform="matrix(0.05,0,0,0.05,23.849999999999998,0)" xlink:href="#br"/><use transform="matrix(0.05,0,0,0.05,27.799999999999997,0)" xlink:href="#bl"/><use transform="matrix(0.05,0,0,0.05,37.8,0)" xlink:href="#bL"/></g></defs></g></svg>