<svg xmlns="http://www.w3.org/2000/svg" xmlns:xlink="http://www.w3.org/1999/xlink" width="2300" height="1280"><g transform="translate(380 -120)"><path d="M160 145c0-2.76 2.24-5 5-5h150c2.76 0 5 2.24 5 5v110c0 2.76-2.24 5-5 5H165c-2.76 0-5-2.24-5-5z" stroke="#666" stroke-width="2" fill="#fcc438"/><use xlink:href="#a" transform="matrix(1,0,0,1,160,140) translate(38.074074074074076 62.97222222222222)"/><path d="M240 260v1040" fill="none"/><path d="M240 260v9.9m0 9.9v19.82m0 9.9v19.8m0 9.92v19.8m0 9.9v19.82m0 9.9v19.82m0 9.9v19.8m0 9.92v19.8m0 9.9v19.82m0 9.9v19.8m0 9.92v19.8m0 9.9v19.82m0 9.9v19.82m0 9.9v19.8m0 9.92v19.8m0 9.9v19.82m0 9.9v19.8m0 9.92v19.8m0 9.9v19.82m0 9.9v19.82m0 9.9v19.8m0 9.92v19.8m0 9.9v19.82m0 9.9v19.8m0 9.92v19.8m0 9.9v19.82m0 9.9v19.82m0 9.9v19.8m0 9.92v19.8m0 9.9v19.82m0 9.9v19.8m0 9.92v19.8m0 9.9v19.82m0 9.9v19.82m0 9.9v19.8m0 9.92v9.9" stroke="#999" stroke-width="2" fill="none"/><path d="M220 325c0-2.76 2.24-5 5-5h30c2.76 0 5 2.24 5 5v950c0 2.76-2.24 5-5 5h-30c-2.76 0-5-2.24-5-5z" stroke="#666" stroke-width="2" fill="#f2f2f2"/><path d="M660 145c0-2.76 2.24-5 5-5h150c2.76 0 5 2.24 5 5v110c0 2.76-2.24 5-5 5H665c-2.76 0-5-2.24-5-5z" stroke="#666" stroke-width="2" fill="#ff8f80"/><use xlink:href="#b" transform="matrix(1,0,0,1,660,140) translate(53.38271604938271 62.97222222222222)"/><path d="M740 260v1040" fill="none"/><path d="M740 260v9.9m0 9.9v19.82m0 9.9v19.8m0 9.92v19.8m0 9.9v19.82m0 9.9v19.82m0 9.9v19.8m0 9.92v19.8m0 9.9v19.82m0 9.9v19.8m0 9.92v19.8m0 9.9v19.82m0 9.9v19.82m0 9.9v19.8m0 9.92v19.8m0 9.9v19.82m0 9.9v19.8m0 9.92v19.8m0 9.9v19.82m0 9.9v19.82m0 9.9v19.8m0 9.92v19.8m0 9.9v19.82m0 9.9v19.8m0 9.92v19.8m0 9.9v19.82m0 9.9v19.82m0 9.9v19.8m0 9.92v19.8m0 9.9v19.82m0 9.9v19.8m0 9.92v19.8m0 9.9v19.82m0 9.9v19.82m0 9.9v19.8m0 9.92v9.9" stroke="#999" stroke-width="2" fill="none"/><path d="M200 1305c0-2.76 2.24-5 5-5h70c2.76 0 5 2.24 5 5v70c0 2.76-2.24 5-5 5h-70c-2.76 0-5-2.24-5-5z" fill="none"/><path d="M208 1308l64 64m0-64l-64 64" stroke="#666" stroke-width="8" fill="none"/><path d="M720 325c0-2.76 2.24-5 5-5h30c2.76 0 5 2.24 5 5v950c0 2.76-2.24 5-5 5h-30c-2.76 0-5-2.24-5-5z" stroke="#666" stroke-width="2" fill="#f2f2f2"/><path d="M260 390h460" stroke="#999" stroke-width="2" fill="none"/><path d="M720 390l-14.27 4.64v-9.28z" fill="#999"/><path d="M720 388.95v2.1L704.73 396v-12zm-13.27 4.3l10.03-3.25-10.03-3.26z" fill="#999"/><use xlink:href="#c" transform="matrix(1,0,0,1,392.125,364.3999999999997) translate(0 14.4)"/><use xlink:href="#d" transform="matrix(1,0,0,1,392.125,364.3999999999997) translate(179.79999999999995 14.4)"/><path d="M-40 360h260" stroke="#999" stroke-width="2" fill="none"/><path d="M220 360l-14.27 4.64v-9.28z" fill="#999"/><path d="M220 358.95v2.1L204.73 366v-12zm-13.27 4.3l10.03-3.25-10.03-3.26z" fill="#999"/><use xlink:href="#e" transform="matrix(1,0,0,1,51.625,334.4) translate(0 14.4)"/><path d="M-360 280h288l32 32v128h-320z" stroke="#d9be60" stroke-width="2" fill="#ffdf71"/><path d="M-72 280l32 32h-32z" fill="#d9be60"/><use xlink:href="#f" transform="matrix(1,0,0,1,-360,280) translate(6.479999999999999 49.4)"/><use xlink:href="#g" transform="matrix(1,0,0,1,-360,280) translate(101.68 49.4)"/><use xlink:href="#h" transform="matrix(1,0,0,1,-360,280) translate(153.58 49.4)"/><use xlink:href="#i" transform="matrix(1,0,0,1,-360,280) translate(183.53 49.4)"/><use xlink:href="#j" transform="matrix(1,0,0,1,-360,280) translate(218.53 49.4)"/><use xlink:href="#k" transform="matrix(1,0,0,1,-360,280) translate(261.53 49.4)"/><use xlink:href="#l" transform="matrix(1,0,0,1,-360,280) translate(42.03000000000001 71)"/><use xlink:href="#m" transform="matrix(1,0,0,1,-360,280) translate(60.98000000000001 71)"/><use xlink:href="#n" transform="matrix(1,0,0,1,-360,280) translate(141.83 71)"/><use xlink:href="#o" transform="matrix(1,0,0,1,-360,280) translate(166.83 71)"/><use xlink:href="#p" transform="matrix(1,0,0,1,-360,280) translate(264.03 71)"/><use xlink:href="#q" transform="matrix(1,0,0,1,-360,280) translate(23.70499999999999 92.60000000000001)"/><use xlink:href="#r" transform="matrix(1,0,0,1,-360,280) translate(117.45500000000001 92.60000000000001)"/><use xlink:href="#s" transform="matrix(1,0,0,1,-360,280) translate(143.40500000000003 92.60000000000001)"/><use xlink:href="#t" transform="matrix(1,0,0,1,-360,280) translate(163.40500000000003 92.60000000000001)"/><use xlink:href="#u" transform="matrix(1,0,0,1,-360,280) translate(208.40500000000003 92.60000000000001)"/><use xlink:href="#v" transform="matrix(1,0,0,1,-360,280) translate(258.30500000000006 92.60000000000001)"/><use xlink:href="#w" transform="matrix(1,0,0,1,-360,280) translate(31.52999999999998 114.20000000000002)"/><use xlink:href="#n" transform="matrix(1,0,0,1,-360,280) translate(87.82999999999998 114.20000000000002)"/><use xlink:href="#l" transform="matrix(1,0,0,1,-360,280) translate(112.82999999999998 114.20000000000002)"/><use xlink:href="#x" transform="matrix(1,0,0,1,-360,280) translate(131.77999999999997 114.20000000000002)"/><use xlink:href="#y" transform="matrix(1,0,0,1,-360,280) translate(206.73 114.20000000000002)"/><path d="M700 1305c0-2.76 2.24-5 5-5h70c2.76 0 5 2.24 5 5v70c0 2.76-2.24 5-5 5h-70c-2.76 0-5-2.24-5-5z" fill="none"/><path d="M708 1308l64 64m0-64l-64 64" stroke="#666" stroke-width="8" fill="none"/><path d="M420 445c0-2.76 2.24-5 5-5h90c2.76 0 5 2.24 5 5v10c0 2.76-1.58 6.58-3.54 8.54l-2.92 2.92c-1.96 1.96-5.78 3.54-8.54 3.54h-80c-2.76 0-5-2.24-5-5z" fill="#fff"/><path d="M420 445c0-2.76 2.24-5 5-5h1470c2.76 0 5 2.24 5 5v790c0 2.76-2.24 5-5 5H425c-2.76 0-5-2.24-5-5z" stroke="#666" stroke-width="2" fill="none"/><path d="M520 440v20l-10 10h-90" stroke="#666" stroke-width="2" fill="#fff"/><use xlink:href="#z" transform="matrix(1,0,0,1,428,440) translate(-1.4249999999999972 18.6)"/><use xlink:href="#A" transform="matrix(1,0,0,1,432,478) translate(8.400000000000006 18.6)"/><use xlink:href="#B" transform="matrix(1,0,0,1,432,478) translate(103.55000000000001 18.6)"/><use xlink:href="#C" transform="matrix(1,0,0,1,432,478) translate(124.05000000000001 18.6)"/><path d="M440 520h248l12 12v48H440z" stroke="#d9be60" stroke-width="2" fill="#ffdf71"/><path d="M688 520l12 12h-12z" fill="#d9be60"/><use xlink:href="#D" transform="matrix(1,0,0,1,440,520) translate(12.554999999999987 19.41)"/><use xlink:href="#E" transform="matrix(1,0,0,1,440,520) translate(33.50499999999999 19.41)"/><use xlink:href="#F" transform="matrix(1,0,0,1,440,520) translate(74.90499999999999 19.41)"/><use xlink:href="#G" transform="matrix(1,0,0,1,440,520) translate(93.85499999999999 19.41)"/><use xlink:href="#H" transform="matrix(1,0,0,1,440,520) translate(133.70499999999998 19.41)"/><use xlink:href="#I" transform="matrix(1,0,0,1,440,520) translate(160.605 19.41)"/><use xlink:href="#J" transform="matrix(1,0,0,1,440,520) translate(220.455 19.41)"/><use xlink:href="#K" transform="matrix(1,0,0,1,440,520) translate(36.90500000000001 41.01)"/><use xlink:href="#L" transform="matrix(1,0,0,1,440,520) translate(71.905 41.01)"/><use xlink:href="#n" transform="matrix(1,0,0,1,440,520) translate(105.905 41.01)"/><use xlink:href="#M" transform="matrix(1,0,0,1,440,520) translate(130.905 41.01)"/><path d="M460 645.52c0-2.76 2.24-5 5-5h90c2.76 0 5 2.24 5 5v10c0 2.76-1.58 6.58-3.54 8.53l-2.92 2.93c-1.96 1.95-5.78 3.54-8.54 3.54h-80c-2.76 0-5-2.24-5-5z" fill="#fff"/><path d="M560 640.52v20l-10 10h-90" stroke="#666" stroke-width="2" fill="none"/><path d="M460 645.52c0-2.76 2.24-5 5-5h1390c2.76 0 5 2.24 5 5V1215c0 2.76-2.24 5-5 5H465c-2.76 0-5-2.24-5-5zM460 930.26h20m15 0h20m15 0h20m15 0h20m15 0h20m15 0h20m15 0h20m15 0h20m15 0h20m15 0h20m15 0h20m15 0h20m15 0h20m15 0h20m15 0h20m15 0h20m15 0h20m15 0h20m15 0h20m15 0h20m15 0h20m15 0h20m15 0h20m15 0h20m15 0h20m15 0h20m15 0h20m15 0h20m15 0h20m15 0h20m15 0h20m15 0h20m15 0h20m15 0h20m15 0h20m15 0h20m15 0h20m15 0h20m15 0h20m15 0h20" stroke="#666" stroke-width="2" fill="none"/><use xlink:href="#z" transform="matrix(1,0,0,1,468,640.5164511371356) translate(-1.4249999999999972 18.6)"/><use xlink:href="#N" transform="matrix(1,0,0,1,472,678.5164511371356) translate(9.625 18.6)"/><use xlink:href="#O" transform="matrix(1,0,0,1,472,938.2582255685678) translate(17.525 18.6)"/><path d="M1160 145c0-2.76 2.24-5 5-5h150c2.76 0 5 2.24 5 5v110c0 2.76-2.24 5-5 5h-150c-2.76 0-5-2.24-5-5z" stroke="#666" stroke-width="2" fill="#0c7cba"/><use xlink:href="#P" transform="matrix(1,0,0,1,1160,140) translate(61.75308641975309 62.97222222222222)"/><path d="M1240 260v1040" fill="none"/><path d="M1240 260v9.9m0 9.9v19.82m0 9.9v19.8m0 9.92v19.8m0 9.9v19.82m0 9.9v19.82m0 9.9v19.8m0 9.92v19.8m0 9.9v19.82m0 9.9v19.8m0 9.92v19.8m0 9.9v19.82m0 9.9v19.82m0 9.9v19.8m0 9.92v19.8m0 9.9v19.82m0 9.9v19.8m0 9.92v19.8m0 9.9v19.82m0 9.9v19.82m0 9.9v19.8m0 9.92v19.8m0 9.9v19.82m0 9.9v19.8m0 9.92v19.8m0 9.9v19.82m0 9.9v19.82m0 9.9v19.8m0 9.92v19.8m0 9.9v19.82m0 9.9v19.8m0 9.92v19.8m0 9.9v19.82m0 9.9v19.82m0 9.9v19.8m0 9.92v9.9" stroke="#999" stroke-width="2" fill="none"/><path d="M1220 325c0-2.76 2.24-5 5-5h30c2.76 0 5 2.24 5 5v950c0 2.76-2.24 5-5 5h-30c-2.76 0-5-2.24-5-5z" stroke="#666" stroke-width="2" fill="#f2f2f2"/><path d="M1200 1305c0-2.76 2.24-5 5-5h70c2.76 0 5 2.24 5 5v70c0 2.76-2.24 5-5 5h-70c-2.76 0-5-2.24-5-5z" fill="none"/><path d="M1208 1308l64 64m0-64l-64 64" stroke="#666" stroke-width="8" fill="none"/><path d="M1140 240h192l8 8v32h-200z" stroke="#d9be60" stroke-width="2" fill="#ffdf71"/><path d="M1332 240l8 8h-8z" fill="#d9be60"/><use xlink:href="#Q" transform="matrix(1,0,0,1,1140,240) translate(29.630000000000003 24.4)"/><use xlink:href="#R" transform="matrix(1,0,0,1,1140,240) translate(80.63 24.4)"/><use xlink:href="#S" transform="matrix(1,0,0,1,1140,240) translate(107.53 24.4)"/><path d="M480 700h204l16 16v64H480z" stroke="#d9be60" stroke-width="2" fill="#ffdf71"/><path d="M684 700l16 16h-16z" fill="#d9be60"/><use xlink:href="#D" transform="matrix(1,0,0,1,480,700) translate(43.129999999999995 21.9)"/><use xlink:href="#l" transform="matrix(1,0,0,1,480,700) translate(64.08 21.9)"/><use xlink:href="#T" transform="matrix(1,0,0,1,480,700) translate(83.03 21.9)"/><use xlink:href="#U" transform="matrix(1,0,0,1,480,700) translate(139.93 21.9)"/><use xlink:href="#V" transform="matrix(1,0,0,1,480,700) translate(22.00499999999999 43.5)"/><use xlink:href="#W" transform="matrix(1,0,0,1,480,700) translate(160.60500000000002 43.5)"/><use xlink:href="#L" transform="matrix(1,0,0,1,480,700) translate(58.080000000000005 65.10000000000001)"/><use xlink:href="#X" transform="matrix(1,0,0,1,480,700) translate(92.08000000000001 65.10000000000001)"/><path d="M480 970h204l16 16v64H480z" stroke="#d9be60" stroke-width="2" fill="#ffdf71"/><path d="M684 970l16 16h-16z" fill="#d9be60"/><use xlink:href="#D" transform="matrix(1,0,0,1,480,970) translate(43.129999999999995 21.9)"/><use xlink:href="#l" transform="matrix(1,0,0,1,480,970) translate(64.08 21.9)"/><use xlink:href="#T" transform="matrix(1,0,0,1,480,970) translate(83.03 21.9)"/><use xlink:href="#U" transform="matrix(1,0,0,1,480,970) translate(139.93 21.9)"/><use xlink:href="#V" transform="matrix(1,0,0,1,480,970) translate(28.70499999999999 43.5)"/><use xlink:href="#Y" transform="matrix(1,0,0,1,480,970) translate(167.305 43.5)"/><use xlink:href="#Z" transform="matrix(1,0,0,1,480,970) translate(80.08 65.10000000000001)"/><path d="M1680 145c0-2.76 2.24-5 5-5h150c2.76 0 5 2.24 5 5v110c0 2.76-2.24 5-5 5h-150c-2.76 0-5-2.24-5-5z" stroke="#666" stroke-width="2" fill="#a3d977"/><use xlink:href="#aa" transform="matrix(1,0,0,1,1680,140) translate(44.8395061728395 62.97222222222222)"/><path d="M1760 260v1040" fill="none"/><path d="M1760 260v9.9m0 9.9v19.82m0 9.9v19.8m0 9.92v19.8m0 9.9v19.82m0 9.9v19.82m0 9.9v19.8m0 9.92v19.8m0 9.9v19.82m0 9.9v19.8m0 9.92v19.8m0 9.9v19.82m0 9.9v19.82m0 9.9v19.8m0 9.92v19.8m0 9.9v19.82m0 9.9v19.8m0 9.92v19.8m0 9.9v19.82m0 9.9v19.82m0 9.9v19.8m0 9.92v19.8m0 9.9v19.82m0 9.9v19.8m0 9.92v19.8m0 9.9v19.82m0 9.9v19.82m0 9.9v19.8m0 9.92v19.8m0 9.9v19.82m0 9.9v19.8m0 9.92v19.8m0 9.9v19.82m0 9.9v19.82m0 9.9v19.8m0 9.92v9.9" stroke="#999" stroke-width="2" fill="none"/><path d="M1740 325c0-2.76 2.24-5 5-5h30c2.76 0 5 2.24 5 5v950c0 2.76-2.24 5-5 5h-30c-2.76 0-5-2.24-5-5z" stroke="#666" stroke-width="2" fill="#f2f2f2"/><path d="M1660 240h188l12 12v48h-200z" stroke="#d9be60" stroke-width="2" fill="#ffdf71"/><path d="M1848 240l12 12h-12z" fill="#d9be60"/><use xlink:href="#ab" transform="matrix(1,0,0,1,1660,240) translate(5.704999999999993 19.41)"/><use xlink:href="#ac" transform="matrix(1,0,0,1,1660,240) translate(85.555 19.41)"/><use xlink:href="#ad" transform="matrix(1,0,0,1,1660,240) translate(111.50500000000001 19.41)"/><use xlink:href="#H" transform="matrix(1,0,0,1,1660,240) translate(59.12999999999999 41.01)"/><use xlink:href="#S" transform="matrix(1,0,0,1,1660,240) translate(86.03 41.01)"/><path d="M1720 1305c0-2.76 2.24-5 5-5h70c2.76 0 5 2.24 5 5v70c0 2.76-2.24 5-5 5h-70c-2.76 0-5-2.24-5-5z" fill="none"/><path d="M1728 1308l64 64m0-64l-64 64" stroke="#666" stroke-width="8" fill="none"/><path d="M761 580h458" fill="none"/><path d="M761 580h10.18m10.18 0h20.35m10.2 0h20.34m10.18 0h20.36m10.18 0h20.35m10.2 0h20.34m10.18 0h20.36m10.18 0h20.35m10.2 0h20.34m10.18 0h20.36m10.18 0h20.35m10.2 0h20.34m10.18 0h20.36m10.18 0h20.35m10.2 0h20.34m10.18 0H1219" stroke="#999" stroke-width="2" fill="none"/><path d="M761 580l14.27-4.64v9.28z" stroke="#999" stroke-width="2" fill="#999"/><g><use xlink:href="#ae" transform="matrix(1,0,0,1,874.7,554.4) translate(0 14.4)"/><use xlink:href="#af" transform="matrix(1,0,0,1,874.7,554.4) translate(73.8 14.4)"/></g><path d="M761 522.14h458" stroke="#999" stroke-width="2" fill="none"/><path d="M1219 522.14l-14.27 4.64v-9.27z" stroke="#999" stroke-width="2" fill="#999"/><g><use xlink:href="#ag" transform="matrix(1,0,0,1,905.65,496.54152620734095) translate(0 14.4)"/></g><path d="M763.5 980h978" stroke="#999" stroke-width="2" fill="none"/><path d="M1741.5 980l-14.27 4.64v-9.28z" stroke="#999" stroke-width="2" fill="#999"/><g><use xlink:href="#ah" transform="matrix(1,0,0,1,944.227861083484,954.4) translate(0 14.4)"/><use xlink:href="#d" transform="matrix(1,0,0,1,944.227861083484,954.4) translate(74.75000000000001 14.4)"/></g><path d="M1280 510.26h344.1l15.9 15.9v63.58h-360z" stroke="#d9be60" stroke-width="2" fill="#ffdf71"/><path d="M1624.1 510.26l15.9 15.9h-15.9z" fill="#d9be60"/><g><use xlink:href="#ai" transform="matrix(1,0,0,1,1280,510.2582255685678) translate(37.65499999999998 21.9)"/><use xlink:href="#x" transform="matrix(1,0,0,1,1280,510.2582255685678) translate(85.60499999999999 21.9)"/><use xlink:href="#aj" transform="matrix(1,0,0,1,1280,510.2582255685678) translate(160.55499999999998 21.9)"/><use xlink:href="#ak" transform="matrix(1,0,0,1,1280,510.2582255685678) translate(218.505 21.9)"/><use xlink:href="#al" transform="matrix(1,0,0,1,1280,510.2582255685678) translate(238.505 21.9)"/><use xlink:href="#am" transform="matrix(1,0,0,1,1280,510.2582255685678) translate(281.355 21.9)"/><use xlink:href="#an" transform="matrix(1,0,0,1,1280,510.2582255685678) translate(21.82999999999999 43.5)"/><use xlink:href="#n" transform="matrix(1,0,0,1,1280,510.2582255685678) translate(94.68 43.5)"/><use xlink:href="#l" transform="matrix(1,0,0,1,1280,510.2582255685678) translate(119.68 43.5)"/><use xlink:href="#ao" transform="matrix(1,0,0,1,1280,510.2582255685678) translate(138.63 43.5)"/><use xlink:href="#ap" transform="matrix(1,0,0,1,1280,510.2582255685678) translate(181.43 43.5)"/><use xlink:href="#aq" transform="matrix(1,0,0,1,1280,510.2582255685678) translate(206.43 43.5)"/><use xlink:href="#ar" transform="matrix(1,0,0,1,1280,510.2582255685678) translate(279.38 43.5)"/><use xlink:href="#as" transform="matrix(1,0,0,1,1280,510.2582255685678) translate(312.23 43.5)"/><use xlink:href="#at" transform="matrix(1,0,0,1,1280,510.2582255685678) translate(127.15499999999999 65.10000000000001)"/></g><path d="M761 1040h979" fill="none"/><path d="M761 1040h9.9m9.88 0h19.78m9.88 0h19.78m9.9 0h19.77m9.88 0h19.78m9.88 0h19.78m9.9 0h19.77m9.88 0h19.78m9.88 0h19.78m9.9 0h19.77m9.88 0h19.78m9.88 0h19.78m9.9 0h19.77m9.88 0h19.78m9.88 0h19.78m9.9 0h19.77m9.88 0h19.78m9.88 0h19.78m9.9 0h19.77m9.88 0h19.78m9.88 0h19.78m9.9 0h19.77m9.88 0h19.78m9.88 0h19.78m9.9 0h19.77m9.88 0h19.78m9.88 0h19.78m9.9 0h19.77m9.88 0h19.78m9.88 0h19.78m9.9 0h19.77m9.88 0h19.78m9.88 0h19.78m9.9 0h9.88" stroke="#999" stroke-width="2" fill="none"/><path d="M761 1040l14.27-4.64v9.28z" stroke="#999" stroke-width="2" fill="#999"/><g><use xlink:href="#ae" transform="matrix(1,0,0,1,896.6500893527711,1014.4000000000001) translate(0 14.4)"/><use xlink:href="#au" transform="matrix(1,0,0,1,896.6500893527711,1014.4000000000001) translate(73.8 14.4)"/></g><path d="M500 1085c0-2.76 2.24-5 5-5h90c2.76 0 5 2.24 5 5v10c0 2.76-1.58 6.58-3.54 8.54l-2.92 2.92c-1.96 1.96-5.78 3.54-8.54 3.54h-80c-2.76 0-5-2.24-5-5z" fill="#fff"/><path d="M500 1085c0-2.76 2.24-5 5-5h1310c2.76 0 5 2.24 5 5v110c0 2.76-2.24 5-5 5H505c-2.76 0-5-2.24-5-5z" stroke="#666" stroke-width="2" fill="none"/><path d="M600 1080v20l-10 10h-90" stroke="#666" stroke-width="2" fill="#fff"/><g><use xlink:href="#av" transform="matrix(1,0,0,1,508,1080) translate(21 18.6)"/></g><g><use xlink:href="#aw" transform="matrix(1,0,0,1,512,1118) translate(8.049999999999997 18.6)"/></g><path d="M761 1117.57h34.5c2.76 0 5 2.24 5 5v34.87c0 2.76-2.24 5-5 5H761" stroke="#999" stroke-width="2" fill="none"/><path d="M761 1162.44l14.27-4.64v9.27z" stroke="#999" stroke-width="2" fill="#999"/><g><use xlink:href="#ax" transform="matrix(1,0,0,1,808.5,1129.2039090957674) translate(0 14.4)"/></g><path d="M920 1100h204l16 16v64H920z" stroke="#d9be60" stroke-width="2" fill="#ffdf71"/><path d="M1124 1100l16 16h-16z" fill="#d9be60"/><g><use xlink:href="#ay" transform="matrix(1,0,0,1,920,1100) translate(12.630000000000004 31.9)"/><use xlink:href="#az" transform="matrix(1,0,0,1,920,1100) translate(41.63 31.9)"/><use xlink:href="#aA" transform="matrix(1,0,0,1,920,1100) translate(111.53 31.9)"/><use xlink:href="#aB" transform="matrix(1,0,0,1,920,1100) translate(131.53 31.9)"/><use xlink:href="#aC" transform="matrix(1,0,0,1,920,1100) translate(171.38 31.9)"/><use xlink:href="#aD" transform="matrix(1,0,0,1,920,1100) translate(83.055 53.5)"/></g><path d="M510 1150h150l10 10v40H510z" stroke="#d9be60" stroke-width="2" fill="#ffdf71"/><path d="M660 1150l10 10h-10z" fill="#d9be60"/><g><use xlink:href="#D" transform="matrix(1,0,0,1,510,1150) translate(12.154999999999996 30.025)"/><use xlink:href="#F" transform="matrix(1,0,0,1,510,1150) translate(33.105 30.025)"/><use xlink:href="#aE" transform="matrix(1,0,0,1,510,1150) translate(52.05499999999999 30.025)"/><use xlink:href="#aF" transform="matrix(1,0,0,1,510,1150) translate(71.955 30.025)"/><use xlink:href="#aG" transform="matrix(1,0,0,1,510,1150) translate(100.955 30.025)"/></g><path d="M761 680h978" stroke="#999" stroke-width="2" fill="none"/><path d="M1739 680l-14.27 4.64v-9.28z" stroke="#999" stroke-width="2" fill="#999"/><g><use xlink:href="#aH" transform="matrix(1,0,0,1,923.7072745313484,654.4000000000001) translate(0 14.4)"/><use xlink:href="#d" transform="matrix(1,0,0,1,923.7072745313484,654.4000000000001) translate(110.80000000000001 14.4)"/></g><path d="M761 740h979" fill="none"/><path d="M761 740h9.9m9.88 0h19.78m9.88 0h19.78m9.9 0h19.77m9.88 0h19.78m9.88 0h19.78m9.9 0h19.77m9.88 0h19.78m9.88 0h19.78m9.9 0h19.77m9.88 0h19.78m9.88 0h19.78m9.9 0h19.77m9.88 0h19.78m9.88 0h19.78m9.9 0h19.77m9.88 0h19.78m9.88 0h19.78m9.9 0h19.77m9.88 0h19.78m9.88 0h19.78m9.9 0h19.77m9.88 0h19.78m9.88 0h19.78m9.9 0h19.77m9.88 0h19.78m9.88 0h19.78m9.9 0h19.77m9.88 0h19.78m9.88 0h19.78m9.9 0h19.77m9.88 0h19.78m9.88 0h19.78m9.9 0h9.88" stroke="#999" stroke-width="2" fill="none"/><path d="M761 740l14.27-4.64v9.28z" stroke="#999" stroke-width="2" fill="#999"/><g><use xlink:href="#ae" transform="matrix(1,0,0,1,893.0750893527712,714.4000000000001) translate(0 14.4)"/><use xlink:href="#aI" transform="matrix(1,0,0,1,893.0750893527712,714.4000000000001) translate(73.8 14.4)"/></g><path d="M500 805c0-2.76 2.24-5 5-5h90c2.76 0 5 2.24 5 5v10c0 2.76-1.58 6.58-3.54 8.54l-2.92 2.92c-1.96 1.96-5.78 3.54-8.54 3.54h-80c-2.76 0-5-2.24-5-5z" fill="#fff"/><path d="M500 805c0-2.76 2.24-5 5-5h1310c2.76 0 5 2.24 5 5v90c0 2.76-2.24 5-5 5H505c-2.76 0-5-2.24-5-5z" stroke="#666" stroke-width="2" fill="none"/><path d="M600 800v20l-10 10h-90" stroke="#666" stroke-width="2" fill="#fff"/><g><use xlink:href="#z" transform="matrix(1,0,0,1,508,800) translate(-1.4249999999999972 18.6)"/></g><g><use xlink:href="#aJ" transform="matrix(1,0,0,1,512,838) translate(4.075000000000003 18.6)"/></g><path d="M761 857.74h458" stroke="#999" stroke-width="2" fill="none"/><path d="M761 858.74h-1v-2h1zM1219 857.74l-14.27 4.64v-9.27z" fill="#999"/><path d="M1220 857.02v1.45l-16.27 5.28v-12.02zm-14.27 3.98l10.03-3.26-10.03-3.26z" fill="#999"/><g><use xlink:href="#aK" transform="matrix(1,0,0,1,897.45,832.1417744314322) translate(0 14.4)"/></g><path d="M1260 810.26h424.1l15.9 15.9v63.58h-440z" stroke="#d9be60" stroke-width="2" fill="#ffdf71"/><path d="M1684.1 810.26l15.9 15.9h-15.9z" fill="#d9be60"/><g><use xlink:href="#ai" transform="matrix(1,0,0,1,1260,810.2582255685678) translate(27.65500000000001 21.9)"/><use xlink:href="#x" transform="matrix(1,0,0,1,1260,810.2582255685678) translate(75.60500000000002 21.9)"/><use xlink:href="#aL" transform="matrix(1,0,0,1,1260,810.2582255685678) translate(150.555 21.9)"/><use xlink:href="#aM" transform="matrix(1,0,0,1,1260,810.2582255685678) translate(201.50500000000002 21.9)"/><use xlink:href="#aN" transform="matrix(1,0,0,1,1260,810.2582255685678) translate(226.50500000000002 21.9)"/><use xlink:href="#n" transform="matrix(1,0,0,1,1260,810.2582255685678) translate(286.505 21.9)"/><use xlink:href="#l" transform="matrix(1,0,0,1,1260,810.2582255685678) translate(311.505 21.9)"/><use xlink:href="#aO" transform="matrix(1,0,0,1,1260,810.2582255685678) translate(330.45500000000004 21.9)"/><use xlink:href="#aP" transform="matrix(1,0,0,1,1260,810.2582255685678) translate(367.355 21.9)"/><use xlink:href="#aQ" transform="matrix(1,0,0,1,1260,810.2582255685678) translate(26.604999999999997 43.5)"/><use xlink:href="#aR" transform="matrix(1,0,0,1,1260,810.2582255685678) translate(95.605 43.5)"/><use xlink:href="#aS" transform="matrix(1,0,0,1,1260,810.2582255685678) translate(110.605 43.5)"/><use xlink:href="#aT" transform="matrix(1,0,0,1,1260,810.2582255685678) translate(164.50500000000002 43.5)"/><use xlink:href="#F" transform="matrix(1,0,0,1,1260,810.2582255685678) translate(184.50500000000002 43.5)"/><use xlink:href="#aU" transform="matrix(1,0,0,1,1260,810.2582255685678) translate(203.455 43.5)"/><use xlink:href="#ap" transform="matrix(1,0,0,1,1260,810.2582255685678) translate(238.405 43.5)"/><use xlink:href="#aV" transform="matrix(1,0,0,1,1260,810.2582255685678) translate(263.405 43.5)"/><use xlink:href="#aW" transform="matrix(1,0,0,1,1260,810.2582255685678) translate(298.405 43.5)"/><use xlink:href="#aN" transform="matrix(1,0,0,1,1260,810.2582255685678) translate(333.405 43.5)"/><use xlink:href="#aX" transform="matrix(1,0,0,1,1260,810.2582255685678) translate(393.405 43.5)"/><use xlink:href="#aY" transform="matrix(1,0,0,1,1260,810.2582255685678) translate(14.630000000000033 65.10000000000001)"/><use xlink:href="#n" transform="matrix(1,0,0,1,1260,810.2582255685678) translate(63.580000000000034 65.10000000000001)"/><use xlink:href="#aZ" transform="matrix(1,0,0,1,1260,810.2582255685678) translate(88.58000000000004 65.10000000000001)"/><use xlink:href="#ba" transform="matrix(1,0,0,1,1260,810.2582255685678) translate(215.43000000000004 65.10000000000001)"/><use xlink:href="#bb" transform="matrix(1,0,0,1,1260,810.2582255685678) translate(235.43000000000004 65.10000000000001)"/><use xlink:href="#bc" transform="matrix(1,0,0,1,1260,810.2582255685678) translate(250.43000000000004 65.10000000000001)"/><use xlink:href="#bd" transform="matrix(1,0,0,1,1260,810.2582255685678) translate(280.63 65.10000000000001)"/><use xlink:href="#be" transform="matrix(1,0,0,1,1260,810.2582255685678) translate(306.58000000000004 65.10000000000001)"/><use xlink:href="#bf" transform="matrix(1,0,0,1,1260,810.2582255685678) translate(321.58000000000004 65.10000000000001)"/><use xlink:href="#bg" transform="matrix(1,0,0,1,1260,810.2582255685678) translate(357.53 65.10000000000001)"/><use xlink:href="#bh" transform="matrix(1,0,0,1,1260,810.2582255685678) translate(398.48 65.10000000000001)"/></g><defs><path fill="#333" d="M182-130c37 4 62 22 62 59C244 23 116-4 24 0v-248c84 5 203-23 205 63 0 31-19 50-47 55zM76-148c40-3 101 13 101-30 0-44-60-28-101-31v61zm0 110c48-3 116 14 116-37 0-48-69-32-116-35v72" id="bi"/><path fill="#333" d="M140-251c80 0 125 45 125 126S219 4 139 4C58 4 15-44 15-125s44-126 125-126zm-1 214c52 0 73-35 73-88 0-50-21-86-72-86-52 0-73 35-73 86s22 88 72 88" id="bj"/><path fill="#333" d="M182 0l-62-99L58 0H3l86-130-79-118h55l55 88 55-88h55l-75 118L237 0h-55" id="bk"/><path fill="#333" d="M147 0H94L2-248h55l64 206c17-72 42-137 63-206h54" id="bl"/><path fill="#333" d="M24 0v-248h52V0H24" id="bm"/><path fill="#333" d="M24 0v-248h195v40H76v63h132v40H76v65h150V0H24" id="bn"/><path fill="#333" d="M275 0h-61l-44-196L126 0H64L0-248h53L97-49l45-199h58l43 199 44-199h52" id="bo"/><g id="a"><use transform="matrix(0.04938271604938272,0,0,0.04938271604938272,0,0)" xlink:href="#bi"/><use transform="matrix(0.04938271604938272,0,0,0.04938271604938272,12.790123456790125,0)" xlink:href="#bj"/><use transform="matrix(0.04938271604938272,0,0,0.04938271604938272,26.617283950617285,0)" xlink:href="#bk"/><use transform="matrix(0.04938271604938272,0,0,0.04938271604938272,38.46913580246914,0)" xlink:href="#bl"/><use transform="matrix(0.04938271604938272,0,0,0.04938271604938272,50.320987654320994,0)" xlink:href="#bm"/><use transform="matrix(0.04938271604938272,0,0,0.04938271604938272,55.25925925925927,0)" xlink:href="#bn"/><use transform="matrix(0.04938271604938272,0,0,0.04938271604938272,67.11111111111111,0)" xlink:href="#bo"/></g><path fill="#333" d="M67-125c0 54 23 88 75 88 28 0 53-7 68-21v-34h-60v-39h108v91C232-14 192 4 140 4 58 4 20-42 15-125 8-236 126-280 215-234c19 10 29 26 37 47l-47 15c-11-23-29-39-63-39-53 1-75 33-75 86" id="bp"/><path fill="#333" d="M199 0l-22-63H83L61 0H9l90-248h61L250 0h-51zm-33-102l-36-108c-10 38-24 72-36 108h72" id="bq"/><path fill="#333" d="M230 0l2-204L168 0h-37L68-204 70 0H24v-248h70l56 185 57-185h69V0h-46" id="br"/><g id="b"><use transform="matrix(0.04938271604938272,0,0,0.04938271604938272,0,0)" xlink:href="#bp"/><use transform="matrix(0.04938271604938272,0,0,0.04938271604938272,13.827160493827162,0)" xlink:href="#bq"/><use transform="matrix(0.04938271604938272,0,0,0.04938271604938272,26.617283950617285,0)" xlink:href="#br"/><use transform="matrix(0.04938271604938272,0,0,0.04938271604938272,41.38271604938272,0)" xlink:href="#bn"/></g><path fill="#333" d="M135-150c-39-12-60 13-60 57V0H25l-1-190h47c2 13-1 29 3 40 6-28 27-53 61-41v41" id="bs"/><path fill="#333" d="M185-48c-13 30-37 53-82 52C43 2 14-33 14-96s30-98 90-98c62 0 83 45 84 108H66c0 31 8 55 39 56 18 0 30-7 34-22zm-45-69c5-46-57-63-70-21-2 6-4 13-4 21h74" id="bt"/><path fill="#333" d="M190-63c-7 42-38 67-86 67-59 0-84-38-90-98-12-110 154-137 174-36l-49 2c-2-19-15-32-35-32-30 0-35 28-38 64-6 74 65 87 74 30" id="bu"/><path fill="#333" d="M25-224v-37h50v37H25zM25 0v-190h50V0H25" id="bv"/><path fill="#333" d="M128 0H69L1-190h53L99-40l48-150h52" id="bw"/><path fill="#333" d="M67-125c0 53 21 87 73 88 37 1 54-22 65-47l45 17C233-25 199 4 140 4 58 4 20-42 15-125 8-235 124-281 211-232c18 10 29 29 36 50l-46 12c-8-25-30-41-62-41-52 0-71 34-72 86" id="bx"/><path fill="#333" d="M25 0v-261h50V0H25" id="by"/><path fill="#333" d="M147 0L96-86 75-71V0H25v-261h50v150l67-79h53l-66 74L201 0h-54" id="bz"/><path fill="#333" d="M135-194c87-1 58 113 63 194h-50c-7-57 23-157-34-157-59 0-34 97-39 157H25l-1-190h47c2 12-1 28 3 38 12-26 28-41 61-42" id="bA"/><path fill="#333" d="M115-3C79 11 28 4 28-45v-112H4v-33h27l15-45h31v45h36v33H77v99c-1 23 16 31 38 25v30" id="bB"/><path fill="#333" d="M67-93c0 74 22 123 53 168H70C40 30 18-18 18-93s22-123 52-168h50c-32 44-53 94-53 168" id="bC"/><path fill="#333" d="M144 0l-44-69L55 0H2l70-98-66-92h53l41 62 40-62h54l-67 91 71 99h-54" id="bD"/><path fill="#333" d="M76-54c-1 42 2 86-19 110H24C36 42 46 24 48 0H25v-54h51" id="bE"/><g id="c"><use transform="matrix(0.05,0,0,0.05,0,0)" xlink:href="#bs"/><use transform="matrix(0.05,0,0,0.05,7,0)" xlink:href="#bt"/><use transform="matrix(0.05,0,0,0.05,17,0)" xlink:href="#bu"/><use transform="matrix(0.05,0,0,0.05,27,0)" xlink:href="#bt"/><use transform="matrix(0.05,0,0,0.05,37,0)" xlink:href="#bv"/><use transform="matrix(0.05,0,0,0.05,42,0)" xlink:href="#bw"/><use transform="matrix(0.05,0,0,0.05,52,0)" xlink:href="#bt"/><use transform="matrix(0.05,0,0,0.05,62,0)" xlink:href="#bx"/><use transform="matrix(0.05,0,0,0.05,74.95,0)" xlink:href="#by"/><use transform="matrix(0.05,0,0,0.05,79.95,0)" xlink:href="#bv"/><use transform="matrix(0.05,0,0,0.05,84.95,0)" xlink:href="#bu"/><use transform="matrix(0.05,0,0,0.05,94.95,0)" xlink:href="#bz"/><use transform="matrix(0.05,0,0,0.05,104.95,0)" xlink:href="#bn"/><use transform="matrix(0.05,0,0,0.05,116.95,0)" xlink:href="#bw"/><use transform="matrix(0.05,0,0,0.05,126.95,0)" xlink:href="#bt"/><use transform="matrix(0.05,0,0,0.05,136.95,0)" xlink:href="#bA"/><use transform="matrix(0.05,0,0,0.05,147.89999999999998,0)" xlink:href="#bB"/><use transform="matrix(0.05,0,0,0.05,153.84999999999997,0)" xlink:href="#bC"/><use transform="matrix(0.05,0,0,0.05,159.79999999999995,0)" xlink:href="#bD"/><use transform="matrix(0.05,0,0,0.05,169.79999999999995,0)" xlink:href="#bE"/></g><path fill="#333" d="M123 10C108 53 80 86 19 72V37c35 8 53-11 59-39L3-190h52l48 148c12-52 28-100 44-148h51" id="bF"/><path fill="#333" d="M102-93c0 74-22 123-52 168H0C30 29 54-18 53-93c0-74-22-123-53-168h50c30 45 52 94 52 168" id="bG"/><g id="d"><use transform="matrix(0.05,0,0,0.05,0,0)" xlink:href="#bF"/><use transform="matrix(0.05,0,0,0.05,10,0)" xlink:href="#bG"/></g><path fill="#333" d="M110-194c64 0 96 36 96 99 0 64-35 99-97 99-61 0-95-36-95-99 0-62 34-99 96-99zm-1 164c35 0 45-28 45-65 0-40-10-65-43-65-34 0-45 26-45 65 0 36 10 65 43 65" id="bH"/><g id="e"><use transform="matrix(0.05,0,0,0.05,0,0)" xlink:href="#bH"/><use transform="matrix(0.05,0,0,0.05,10.950000000000001,0)" xlink:href="#bA"/><use transform="matrix(0.05,0,0,0.05,21.900000000000002,0)" xlink:href="#bx"/><use transform="matrix(0.05,0,0,0.05,34.85,0)" xlink:href="#by"/><use transform="matrix(0.05,0,0,0.05,39.85,0)" xlink:href="#bv"/><use transform="matrix(0.05,0,0,0.05,44.85,0)" xlink:href="#bu"/><use transform="matrix(0.05,0,0,0.05,54.85,0)" xlink:href="#bz"/><use transform="matrix(0.05,0,0,0.05,64.85,0)" xlink:href="#bC"/><use transform="matrix(0.05,0,0,0.05,70.8,0)" xlink:href="#bG"/></g><path d="M30 0v-248h33v221h125V0H30" id="bI"/><path d="M47-170H22l-4-78h33" id="bJ"/><path d="M84 4C-5 8 30-112 23-190h32v120c0 31 7 50 39 49 72-2 45-101 50-169h31l1 190h-30c-1-10 1-25-2-33-11 22-28 36-60 37" id="bK"/><path d="M59-47c-2 24 18 29 38 22v24C64 9 27 4 27-40v-127H5v-23h24l9-43h21v43h35v23H59v120" id="bL"/><path d="M24-231v-30h32v30H24zM24 0v-190h32V0H24" id="bM"/><path d="M24 0v-261h32V0H24" id="bN"/><path d="M135-143c-3-34-86-38-87 0 15 53 115 12 119 90S17 21 10-45l28-5c4 36 97 45 98 0-10-56-113-15-118-90-4-57 82-63 122-42 12 7 21 19 24 35" id="bO"/><path d="M141-36C126-15 110 5 73 4 37 3 15-17 15-53c-1-64 63-63 125-63 3-35-9-54-41-54-24 1-41 7-42 31l-33-3c5-37 33-52 76-52 45 0 72 20 72 64v82c-1 20 7 32 28 27v20c-31 9-61-2-59-35zM48-53c0 20 12 33 32 33 41-3 63-29 60-74-43 2-92-5-92 41" id="bP"/><path d="M100-194c63 0 86 42 84 106H49c0 40 14 67 53 68 26 1 43-12 49-29l28 8c-11 28-37 45-77 45C44 4 14-33 15-96c1-61 26-98 85-98zm52 81c6-60-76-77-97-28-3 7-6 17-6 28h103" id="bQ"/><path d="M114-163C36-179 61-72 57 0H25l-1-190h30c1 12-1 29 2 39 6-27 23-49 58-41v29" id="bR"/><g id="f"><use transform="matrix(0.05,0,0,0.05,0,0)" xlink:href="#bI"/><use transform="matrix(0.05,0,0,0.05,10,0)" xlink:href="#bJ"/><use transform="matrix(0.05,0,0,0.05,13.4,0)" xlink:href="#bK"/><use transform="matrix(0.05,0,0,0.05,23.4,0)" xlink:href="#bL"/><use transform="matrix(0.05,0,0,0.05,28.399999999999995,0)" xlink:href="#bM"/><use transform="matrix(0.05,0,0,0.05,32.35,0)" xlink:href="#bN"/><use transform="matrix(0.05,0,0,0.05,36.300000000000004,0)" xlink:href="#bM"/><use transform="matrix(0.05,0,0,0.05,40.25000000000001,0)" xlink:href="#bO"/><use transform="matrix(0.05,0,0,0.05,49.25000000000001,0)" xlink:href="#bP"/><use transform="matrix(0.05,0,0,0.05,59.25,0)" xlink:href="#bL"/><use transform="matrix(0.05,0,0,0.05,64.25,0)" xlink:href="#bQ"/><use transform="matrix(0.05,0,0,0.05,74.25,0)" xlink:href="#bK"/><use transform="matrix(0.05,0,0,0.05,84.25,0)" xlink:href="#bR"/></g><path d="M96-169c-40 0-48 33-48 73s9 75 48 75c24 0 41-14 43-38l32 2c-6 37-31 61-74 61-59 0-76-41-82-99-10-93 101-131 147-64 4 7 5 14 7 22l-32 3c-4-21-16-35-41-35" id="bS"/><path d="M145-31C134-9 116 4 85 4 32 4 16-35 15-94c0-59 17-99 70-100 32-1 48 14 60 33 0-11-1-24 2-32h30l-1 268h-32zM93-21c41 0 51-33 51-76s-8-73-50-73c-40 0-46 35-46 75s5 74 45 74" id="bT"/><g id="g"><use transform="matrix(0.05,0,0,0.05,0,0)" xlink:href="#bS"/><use transform="matrix(0.05,0,0,0.05,9,0)" xlink:href="#bN"/><use transform="matrix(0.05,0,0,0.05,12.949999999999998,0)" xlink:href="#bM"/><use transform="matrix(0.05,0,0,0.05,16.9,0)" xlink:href="#bT"/><use transform="matrix(0.05,0,0,0.05,26.899999999999995,0)" xlink:href="#bK"/><use transform="matrix(0.05,0,0,0.05,36.9,0)" xlink:href="#bQ"/></g><g id="h"><use transform="matrix(0.05,0,0,0.05,0,0)" xlink:href="#bO"/><use transform="matrix(0.05,0,0,0.05,9,0)" xlink:href="#bK"/><use transform="matrix(0.05,0,0,0.05,19,0)" xlink:href="#bR"/></g><path d="M117-194c89-4 53 116 60 194h-32v-121c0-31-8-49-39-48C34-167 62-67 57 0H25l-1-190h30c1 10-1 24 2 32 11-22 29-35 61-36" id="bU"/><g id="i"><use transform="matrix(0.05,0,0,0.05,0,0)" xlink:href="#bK"/><use transform="matrix(0.05,0,0,0.05,10,0)" xlink:href="#bU"/><use transform="matrix(0.05,0,0,0.05,20,0)" xlink:href="#bQ"/></g><g id="j"><use transform="matrix(0.05,0,0,0.05,0,0)" xlink:href="#bS"/><use transform="matrix(0.05,0,0,0.05,9,0)" xlink:href="#bP"/><use transform="matrix(0.05,0,0,0.05,19,0)" xlink:href="#bO"/><use transform="matrix(0.05,0,0,0.05,28,0)" xlink:href="#bQ"/></g><path d="M85-194c31 0 48 13 60 33l-1-100h32l1 261h-30c-2-10 0-23-3-31C134-8 116 4 85 4 32 4 16-35 15-94c0-66 23-100 70-100zm9 24c-40 0-46 34-46 75 0 40 6 74 45 74 42 0 51-32 51-76 0-42-9-74-50-73" id="bV"/><g id="k"><use transform="matrix(0.05,0,0,0.05,0,0)" xlink:href="#bV"/><use transform="matrix(0.05,0,0,0.05,10,0)" xlink:href="#bQ"/></g><g id="l"><use transform="matrix(0.05,0,0,0.05,0,0)" xlink:href="#bN"/><use transform="matrix(0.05,0,0,0.05,3.95,0)" xlink:href="#bP"/></g><path d="M0 4l72-265h28L28 4H0" id="bW"/><path d="M210-169c-67 3-38 105-44 169h-31v-121c0-29-5-50-35-48C34-165 62-65 56 0H25l-1-190h30c1 10-1 24 2 32 10-44 99-50 107 0 11-21 27-35 58-36 85-2 47 119 55 194h-31v-121c0-29-5-49-35-48" id="bX"/><g id="m"><use transform="matrix(0.05,0,0,0.05,0,0)" xlink:href="#bS"/><use transform="matrix(0.05,0,0,0.05,9,0)" xlink:href="#bP"/><use transform="matrix(0.05,0,0,0.05,19,0)" xlink:href="#bR"/><use transform="matrix(0.05,0,0,0.05,24.95,0)" xlink:href="#bL"/><use transform="matrix(0.05,0,0,0.05,29.950000000000003,0)" xlink:href="#bQ"/><use transform="matrix(0.05,0,0,0.05,39.95,0)" xlink:href="#bW"/><use transform="matrix(0.05,0,0,0.05,44.95,0)" xlink:href="#bX"/><use transform="matrix(0.05,0,0,0.05,59.900000000000006,0)" xlink:href="#bQ"/><use transform="matrix(0.05,0,0,0.05,69.9,0)" xlink:href="#bR"/></g><g id="n"><use transform="matrix(0.05,0,0,0.05,0,0)" xlink:href="#bV"/><use transform="matrix(0.05,0,0,0.05,10,0)" xlink:href="#bQ"/></g><path d="M100-194c62-1 85 37 85 99 1 63-27 99-86 99S16-35 15-95c0-66 28-99 85-99zM99-20c44 1 53-31 53-75 0-43-8-75-51-75s-53 32-53 75 10 74 51 75" id="bY"/><path d="M68-38c1 34 0 65-14 84H32c9-13 17-26 17-46H33v-38h35" id="bZ"/><g id="o"><use transform="matrix(0.05,0,0,0.05,0,0)" xlink:href="#bN"/><use transform="matrix(0.05,0,0,0.05,3.95,0)" xlink:href="#bJ"/><use transform="matrix(0.05,0,0,0.05,7.3500000000000005,0)" xlink:href="#bY"/><use transform="matrix(0.05,0,0,0.05,17.35,0)" xlink:href="#bR"/><use transform="matrix(0.05,0,0,0.05,23.3,0)" xlink:href="#bV"/><use transform="matrix(0.05,0,0,0.05,33.3,0)" xlink:href="#bM"/><use transform="matrix(0.05,0,0,0.05,37.25,0)" xlink:href="#bU"/><use transform="matrix(0.05,0,0,0.05,47.25,0)" xlink:href="#bP"/><use transform="matrix(0.05,0,0,0.05,57.25,0)" xlink:href="#bL"/><use transform="matrix(0.05,0,0,0.05,62.25,0)" xlink:href="#bQ"/><use transform="matrix(0.05,0,0,0.05,72.25,0)" xlink:href="#bK"/><use transform="matrix(0.05,0,0,0.05,82.25,0)" xlink:href="#bR"/><use transform="matrix(0.05,0,0,0.05,87.2,0)" xlink:href="#bZ"/></g><g id="p"><use transform="matrix(0.05,0,0,0.05,0,0)" xlink:href="#bN"/><use transform="matrix(0.05,0,0,0.05,3.95,0)" xlink:href="#bQ"/></g><path d="M190-63c-7 42-38 67-86 67-59 0-84-38-90-98-12-110 154-137 174-36l-49 2c-2-19-15-32-35-32-30 0-35 28-38 64-6 74 65 87 74 30" id="ca"/><path d="M110-194c64 0 96 36 96 99 0 64-35 99-97 99-61 0-95-36-95-99 0-62 34-99 96-99zm-1 164c35 0 45-28 45-65 0-40-10-65-43-65-34 0-45 26-45 65 0 36 10 65 43 65" id="cb"/><path d="M135-194c87-1 58 113 63 194h-50c-7-57 23-157-34-157-59 0-34 97-39 157H25l-1-190h47c2 12-1 28 3 38 12-26 28-41 61-42" id="cc"/><path d="M115-3C79 11 28 4 28-45v-112H4v-33h27l15-45h31v45h36v33H77v99c-1 23 16 31 38 25v30" id="cd"/><path d="M135-150c-39-12-60 13-60 57V0H25l-1-190h47c2 13-1 29 3 40 6-28 27-53 61-41v41" id="ce"/><path d="M110-194c64 0 96 36 96 99 0 64-35 99-97 99-61 0-95-36-95-99 0-62 34-99 96-99zm-1 164c35 0 45-28 45-65 0-40-10-65-43-65-34 0-45 26-45 65 0 36 10 65 43 65zm66-183v5h-28c-13-11-23-24-37-34l-37 34H45c9-26 32-39 45-61h41" id="cf"/><path d="M25 0v-261h50V0H25" id="cg"/><path d="M185-48c-13 30-37 53-82 52C43 2 14-33 14-96s30-98 90-98c62 0 83 45 84 108H66c0 31 8 55 39 56 18 0 30-7 34-22zm-45-69c5-46-57-63-70-21-2 6-4 13-4 21h74" id="ch"/><path d="M85 4C-2 5 27-109 22-190h50c7 57-23 150 33 157 60-5 35-97 40-157h50l1 190h-47c-2-12 1-28-3-38-12 25-28 42-61 42" id="ci"/><g id="q"><use transform="matrix(0.05,0,0,0.05,0,0)" xlink:href="#ca"/><use transform="matrix(0.05,0,0,0.05,10,0)" xlink:href="#cb"/><use transform="matrix(0.05,0,0,0.05,20.950000000000003,0)" xlink:href="#cc"/><use transform="matrix(0.05,0,0,0.05,31.900000000000006,0)" xlink:href="#cd"/><use transform="matrix(0.05,0,0,0.05,37.85000000000001,0)" xlink:href="#ce"/><use transform="matrix(0.05,0,0,0.05,44.85000000000001,0)" xlink:href="#cf"/><use transform="matrix(0.05,0,0,0.05,55.80000000000001,0)" xlink:href="#cg"/><use transform="matrix(0.05,0,0,0.05,60.80000000000001,0)" xlink:href="#ch"/><use transform="matrix(0.05,0,0,0.05,70.80000000000001,0)" xlink:href="#ci"/><use transform="matrix(0.05,0,0,0.05,81.75000000000001,0)" xlink:href="#ce"/></g><path d="M88-194c31-1 46 15 58 34l-1-101h50l1 261h-48c-2-10 0-23-3-31C134-8 116 4 84 4 32 4 16-41 15-95c0-56 19-97 73-99zm17 164c33 0 40-30 41-66 1-37-9-64-41-64s-38 30-39 65c0 43 13 65 39 65" id="cj"/><g id="r"><use transform="matrix(0.05,0,0,0.05,0,0)" xlink:href="#cj"/><use transform="matrix(0.05,0,0,0.05,10.950000000000001,0)" xlink:href="#ch"/></g><path d="M133-34C117-15 103 5 69 4 32 3 11-16 11-54c-1-60 55-63 116-61 1-26-3-47-28-47-18 1-26 9-28 27l-52-2c7-38 36-58 82-57s74 22 75 68l1 82c-1 14 12 18 25 15v27c-30 8-71 5-69-32zm-48 3c29 0 43-24 42-57-32 0-66-3-65 30 0 17 8 27 23 27" id="ck"/><g id="s"><use transform="matrix(0.05,0,0,0.05,0,0)" xlink:href="#cg"/><use transform="matrix(0.05,0,0,0.05,5,0)" xlink:href="#ck"/></g><path d="M137-138c1-29-70-34-71-4 15 46 118 7 119 86 1 83-164 76-172 9l43-7c4 19 20 25 44 25 33 8 57-30 24-41C81-84 22-81 20-136c-2-80 154-74 161-7" id="cl"/><g id="t"><use transform="matrix(0.05,0,0,0.05,0,0)" xlink:href="#ca"/><use transform="matrix(0.05,0,0,0.05,10,0)" xlink:href="#ck"/><use transform="matrix(0.05,0,0,0.05,20,0)" xlink:href="#cl"/><use transform="matrix(0.05,0,0,0.05,30,0)" xlink:href="#ch"/></g><path d="M100-194c63 0 86 42 84 106H49c0 40 14 67 53 68 26 1 43-12 49-29l28 8c-11 28-37 45-77 45C44 4 14-33 15-96c1-61 26-98 85-98zm52 81c6-60-76-77-97-28-3 7-6 17-6 28h103zm-74-98c8-23 27-35 38-54h36v5l-58 49H78" id="cm"/><path d="M177-190C167-65 218 103 67 71c-23-6-38-20-44-43l32-5c15 47 100 32 89-28v-30C133-14 115 1 83 1 29 1 15-40 15-95c0-56 16-97 71-98 29-1 48 16 59 35 1-10 0-23 2-32h30zM94-22c36 0 50-32 50-73 0-42-14-75-50-75-39 0-46 34-46 75s6 73 46 73" id="cn"/><g id="u"><use transform="matrix(0.05,0,0,0.05,0,0)" xlink:href="#bR"/><use transform="matrix(0.05,0,0,0.05,5.95,0)" xlink:href="#cm"/><use transform="matrix(0.05,0,0,0.05,15.949999999999998,0)" xlink:href="#bP"/><use transform="matrix(0.05,0,0,0.05,25.950000000000003,0)" xlink:href="#cn"/><use transform="matrix(0.05,0,0,0.05,35.95,0)" xlink:href="#bM"/><use transform="matrix(0.05,0,0,0.05,39.900000000000006,0)" xlink:href="#bL"/></g><path d="M108 0H70L1-190h34L89-25l56-165h34" id="co"/><g id="v"><use transform="matrix(0.05,0,0,0.05,0,0)" xlink:href="#bP"/><use transform="matrix(0.05,0,0,0.05,10,0)" xlink:href="#co"/><use transform="matrix(0.05,0,0,0.05,19,0)" xlink:href="#bQ"/><use transform="matrix(0.05,0,0,0.05,29,0)" xlink:href="#bS"/></g><path d="M115-194c55 1 70 41 70 98S169 2 115 4C84 4 66-9 55-30l1 105H24l-1-265h31l2 30c10-21 28-34 59-34zm-8 174c40 0 45-34 45-75s-6-73-45-74c-42 0-51 32-51 76 0 43 10 73 51 73" id="cp"/><g id="w"><use transform="matrix(0.05,0,0,0.05,0,0)" xlink:href="#bN"/><use transform="matrix(0.05,0,0,0.05,3.95,0)" xlink:href="#bJ"/><use transform="matrix(0.05,0,0,0.05,7.3500000000000005,0)" xlink:href="#bP"/><use transform="matrix(0.05,0,0,0.05,17.35,0)" xlink:href="#cp"/><use transform="matrix(0.05,0,0,0.05,27.35,0)" xlink:href="#cp"/><use transform="matrix(0.05,0,0,0.05,37.35,0)" xlink:href="#bQ"/><use transform="matrix(0.05,0,0,0.05,47.35,0)" xlink:href="#bN"/></g><path d="M106-169C34-169 62-67 57 0H25v-261h32l-1 103c12-21 28-36 61-36 89 0 53 116 60 194h-32v-121c2-32-8-49-39-48" id="cq"/><g id="x"><use transform="matrix(0.05,0,0,0.05,0,0)" xlink:href="#bX"/><use transform="matrix(0.05,0,0,0.05,14.950000000000001,0)" xlink:href="#cm"/><use transform="matrix(0.05,0,0,0.05,24.950000000000003,0)" xlink:href="#bL"/><use transform="matrix(0.05,0,0,0.05,29.950000000000003,0)" xlink:href="#cq"/><use transform="matrix(0.05,0,0,0.05,39.95,0)" xlink:href="#bY"/><use transform="matrix(0.05,0,0,0.05,49.95,0)" xlink:href="#bV"/><use transform="matrix(0.05,0,0,0.05,59.95,0)" xlink:href="#bQ"/></g><path d="M67-125c0 53 21 87 73 88 37 1 54-22 65-47l45 17C233-25 199 4 140 4 58 4 20-42 15-125 8-235 124-281 211-232c18 10 29 29 36 50l-46 12c-8-25-30-41-62-41-52 0-71 34-72 86" id="cr"/><path d="M25-224v-37h50v37H25zM25 0v-190h50V0H25" id="cs"/><path d="M147 0L96-86 75-71V0H25v-261h50v150l67-79h53l-66 74L201 0h-54" id="ct"/><path d="M67-93c0 74 22 123 53 168H70C40 30 18-18 18-93s22-123 52-168h50c-32 44-53 94-53 168" id="cu"/><path d="M102-93c0 74-22 123-52 168H0C30 29 54-18 53-93c0-74-22-123-53-168h50c30 45 52 94 52 168" id="cv"/><path d="M33 0v-38h34V0H33" id="cw"/><g id="y"><use transform="matrix(0.05,0,0,0.05,0,0)" xlink:href="#cb"/><use transform="matrix(0.05,0,0,0.05,10.950000000000001,0)" xlink:href="#cc"/><use transform="matrix(0.05,0,0,0.05,21.900000000000002,0)" xlink:href="#cr"/><use transform="matrix(0.05,0,0,0.05,34.85,0)" xlink:href="#cg"/><use transform="matrix(0.05,0,0,0.05,39.85,0)" xlink:href="#cs"/><use transform="matrix(0.05,0,0,0.05,44.85,0)" xlink:href="#ca"/><use transform="matrix(0.05,0,0,0.05,54.85,0)" xlink:href="#ct"/><use transform="matrix(0.05,0,0,0.05,64.85,0)" xlink:href="#cu"/><use transform="matrix(0.05,0,0,0.05,70.8,0)" xlink:href="#cv"/><use transform="matrix(0.05,0,0,0.05,76.75,0)" xlink:href="#cw"/></g><path fill="#333" d="M205 0l-28-72H64L36 0H1l101-248h38L239 0h-34zm-38-99l-47-123c-12 45-31 82-46 123h93" id="cx"/><path fill="#333" d="M24 0v-261h32V0H24" id="cy"/><path fill="#333" d="M59-47c-2 24 18 29 38 22v24C64 9 27 4 27-40v-127H5v-23h24l9-43h21v43h35v23H59v120" id="cz"/><path fill="#333" d="M100-194c63 0 86 42 84 106H49c0 40 14 67 53 68 26 1 43-12 49-29l28 8c-11 28-37 45-77 45C44 4 14-33 15-96c1-61 26-98 85-98zm52 81c6-60-76-77-97-28-3 7-6 17-6 28h103" id="cA"/><path fill="#333" d="M114-163C36-179 61-72 57 0H25l-1-190h30c1 12-1 29 2 39 6-27 23-49 58-41v29" id="cB"/><path fill="#333" d="M117-194c89-4 53 116 60 194h-32v-121c0-31-8-49-39-48C34-167 62-67 57 0H25l-1-190h30c1 10-1 24 2 32 11-22 29-35 61-36" id="cC"/><path fill="#333" d="M141-36C126-15 110 5 73 4 37 3 15-17 15-53c-1-64 63-63 125-63 3-35-9-54-41-54-24 1-41 7-42 31l-33-3c5-37 33-52 76-52 45 0 72 20 72 64v82c-1 20 7 32 28 27v20c-31 9-61-2-59-35zM48-53c0 20 12 33 32 33 41-3 63-29 60-74-43 2-92-5-92 41" id="cD"/><path fill="#333" d="M24-231v-30h32v30H24zM24 0v-190h32V0H24" id="cE"/><path fill="#333" d="M108 0H70L1-190h34L89-25l56-165h34" id="cF"/><g id="z"><use transform="matrix(0.05,0,0,0.05,0,0)" xlink:href="#cx"/><use transform="matrix(0.05,0,0,0.05,12,0)" xlink:href="#cy"/><use transform="matrix(0.05,0,0,0.05,15.949999999999998,0)" xlink:href="#cz"/><use transform="matrix(0.05,0,0,0.05,20.95,0)" xlink:href="#cA"/><use transform="matrix(0.05,0,0,0.05,30.950000000000003,0)" xlink:href="#cB"/><use transform="matrix(0.05,0,0,0.05,36.9,0)" xlink:href="#cC"/><use transform="matrix(0.05,0,0,0.05,46.9,0)" xlink:href="#cD"/><use transform="matrix(0.05,0,0,0.05,56.900000000000006,0)" xlink:href="#cz"/><use transform="matrix(0.05,0,0,0.05,61.900000000000006,0)" xlink:href="#cE"/><use transform="matrix(0.05,0,0,0.05,65.85,0)" xlink:href="#cF"/><use transform="matrix(0.05,0,0,0.05,74.85,0)" xlink:href="#cA"/></g><path fill="#333" d="M26 75v-336h71v23H56V52h41v23H26" id="cG"/><path fill="#333" d="M115-194c55 1 70 41 70 98S169 2 115 4C84 4 66-9 55-30l1 105H24l-1-265h31l2 30c10-21 28-34 59-34zm-8 174c40 0 45-34 45-75s-6-73-45-74c-42 0-51 32-51 76 0 43 10 73 51 73" id="cH"/><path fill="#333" d="M179-190L93 31C79 59 56 82 12 73V49c39 6 53-20 64-50L1-190h34L92-34l54-156h33" id="cI"/><path fill="#333" d="M127-220V0H93v-220H8v-28h204v28h-85" id="cJ"/><path fill="#333" d="M84 4C-5 8 30-112 23-190h32v120c0 31 7 50 39 49 72-2 45-101 50-169h31l1 190h-30c-1-10 1-25-2-33-11 22-28 36-60 37" id="cK"/><g id="A"><use transform="matrix(0.05,0,0,0.05,0,0)" xlink:href="#cG"/><use transform="matrix(0.05,0,0,0.05,5,0)" xlink:href="#cH"/><use transform="matrix(0.05,0,0,0.05,15,0)" xlink:href="#cy"/><use transform="matrix(0.05,0,0,0.05,18.95,0)" xlink:href="#cD"/><use transform="matrix(0.05,0,0,0.05,28.950000000000003,0)" xlink:href="#cI"/><use transform="matrix(0.05,0,0,0.05,37.95,0)" xlink:href="#cA"/><use transform="matrix(0.05,0,0,0.05,47.95,0)" xlink:href="#cB"/><use transform="matrix(0.05,0,0,0.05,53.900000000000006,0)" xlink:href="#cJ"/><use transform="matrix(0.05,0,0,0.05,64.2,0)" xlink:href="#cK"/><use transform="matrix(0.05,0,0,0.05,74.2,0)" xlink:href="#cB"/><use transform="matrix(0.05,0,0,0.05,80.15,0)" xlink:href="#cC"/></g><path fill="#333" d="M63-70H37l-4-178h34zM33 0v-35h34V0H33" id="cL"/><path fill="#333" d="M18-150v-26h174v26H18zm0 90v-26h174v26H18" id="cM"/><g id="B"><use transform="matrix(0.05,0,0,0.05,0,0)" xlink:href="#cL"/><use transform="matrix(0.05,0,0,0.05,5,0)" xlink:href="#cM"/></g><path fill="#333" d="M212-179c-10-28-35-45-73-45-59 0-87 40-87 99 0 60 29 101 89 101 43 0 62-24 78-52l27 14C228-24 195 4 139 4 59 4 22-46 18-125c-6-104 99-153 187-111 19 9 31 26 39 46" id="cN"/><path fill="#333" d="M140-251c81 0 123 46 123 126C263-46 219 4 140 4 59 4 17-45 17-125s42-126 123-126zm0 227c63 0 89-41 89-101s-29-99-89-99c-61 0-89 39-89 99S79-25 140-24" id="cO"/><path fill="#333" d="M240 0l2-218c-23 76-54 145-80 218h-23L58-218 59 0H30v-248h44l77 211c21-75 51-140 76-211h43V0h-30" id="cP"/><path fill="#333" d="M30-248c87 1 191-15 191 75 0 78-77 80-158 76V0H30v-248zm33 125c57 0 124 11 124-50 0-59-68-47-124-48v98" id="cQ"/><path fill="#333" d="M232-93c-1 65-40 97-104 97C67 4 28-28 28-90v-158h33c8 89-33 224 67 224 102 0 64-133 71-224h33v155" id="cR"/><path fill="#333" d="M30 0v-248h187v28H63v79h144v27H63v87h162V0H30" id="cS"/><path fill="#333" d="M233-177c-1 41-23 64-60 70L243 0h-38l-65-103H63V0H30v-248c88 3 205-21 203 71zM63-129c60-2 137 13 137-47 0-61-80-42-137-45v92" id="cT"/><path fill="#333" d="M-5 72V49h209v23H-5" id="cU"/><path fill="#333" d="M190 0L58-211 59 0H30v-248h39L202-35l-2-213h31V0h-41" id="cV"/><path fill="#333" d="M3 75V52h41v-290H3v-23h71V75H3" id="cW"/><g id="C"><use transform="matrix(0.05,0,0,0.05,0,0)" xlink:href="#cN"/><use transform="matrix(0.05,0,0,0.05,12.950000000000001,0)" xlink:href="#cO"/><use transform="matrix(0.05,0,0,0.05,26.950000000000003,0)" xlink:href="#cP"/><use transform="matrix(0.05,0,0,0.05,41.900000000000006,0)" xlink:href="#cQ"/><use transform="matrix(0.05,0,0,0.05,53.900000000000006,0)" xlink:href="#cR"/><use transform="matrix(0.05,0,0,0.05,66.85000000000001,0)" xlink:href="#cJ"/><use transform="matrix(0.05,0,0,0.05,77.80000000000001,0)" xlink:href="#cS"/><use transform="matrix(0.05,0,0,0.05,89.80000000000001,0)" xlink:href="#cT"/><use transform="matrix(0.05,0,0,0.05,102.75,0)" xlink:href="#cU"/><use transform="matrix(0.05,0,0,0.05,112.75,0)" xlink:href="#cJ"/><use transform="matrix(0.05,0,0,0.05,123.7,0)" xlink:href="#cR"/><use transform="matrix(0.05,0,0,0.05,136.65,0)" xlink:href="#cT"/><use transform="matrix(0.05,0,0,0.05,149.6,0)" xlink:href="#cV"/><use transform="matrix(0.05,0,0,0.05,162.54999999999998,0)" xlink:href="#cW"/></g><path d="M185-189c-5-48-123-54-124 2 14 75 158 14 163 119 3 78-121 87-175 55-17-10-28-26-33-46l33-7c5 56 141 63 141-1 0-78-155-14-162-118-5-82 145-84 179-34 5 7 8 16 11 25" id="cX"/><g id="D"><use transform="matrix(0.05,0,0,0.05,0,0)" xlink:href="#cX"/><use transform="matrix(0.05,0,0,0.05,12,0)" xlink:href="#bM"/></g><g id="E"><use transform="matrix(0.05,0,0,0.05,0,0)" xlink:href="#bS"/><use transform="matrix(0.05,0,0,0.05,9,0)" xlink:href="#bJ"/><use transform="matrix(0.05,0,0,0.05,12.4,0)" xlink:href="#bQ"/><use transform="matrix(0.05,0,0,0.05,22.4,0)" xlink:href="#bO"/><use transform="matrix(0.05,0,0,0.05,31.399999999999995,0)" xlink:href="#bL"/></g><g id="F"><use transform="matrix(0.05,0,0,0.05,0,0)" xlink:href="#bN"/><use transform="matrix(0.05,0,0,0.05,3.95,0)" xlink:href="#bQ"/></g><g id="G"><use transform="matrix(0.05,0,0,0.05,0,0)" xlink:href="#cd"/><use transform="matrix(0.05,0,0,0.05,5.95,0)" xlink:href="#cb"/><use transform="matrix(0.05,0,0,0.05,16.900000000000002,0)" xlink:href="#ci"/><use transform="matrix(0.05,0,0,0.05,27.85,0)" xlink:href="#ce"/></g><g id="H"><use transform="matrix(0.05,0,0,0.05,0,0)" xlink:href="#cj"/><use transform="matrix(0.05,0,0,0.05,10.950000000000001,0)" xlink:href="#ci"/></g><path d="M25-224v-37h50v37H25zM75 22c2 45-34 59-81 51V38c22 5 31-5 31-27v-201h50V22" id="cY"/><g id="I"><use transform="matrix(0.05,0,0,0.05,0,0)" xlink:href="#cY"/><use transform="matrix(0.05,0,0,0.05,5,0)" xlink:href="#cb"/><use transform="matrix(0.05,0,0,0.05,15.950000000000001,0)" xlink:href="#ci"/><use transform="matrix(0.05,0,0,0.05,26.900000000000002,0)" xlink:href="#ch"/><use transform="matrix(0.05,0,0,0.05,36.900000000000006,0)" xlink:href="#ci"/><use transform="matrix(0.05,0,0,0.05,47.85000000000001,0)" xlink:href="#ce"/></g><g id="J"><use transform="matrix(0.05,0,0,0.05,0,0)" xlink:href="#bQ"/><use transform="matrix(0.05,0,0,0.05,10,0)" xlink:href="#bL"/></g><g id="K"><use transform="matrix(0.05,0,0,0.05,0,0)" xlink:href="#bU"/><use transform="matrix(0.05,0,0,0.05,10,0)" xlink:href="#bY"/><use transform="matrix(0.05,0,0,0.05,20,0)" xlink:href="#bU"/></g><g id="L"><use transform="matrix(0.05,0,0,0.05,0,0)" xlink:href="#cp"/><use transform="matrix(0.05,0,0,0.05,10,0)" xlink:href="#bP"/><use transform="matrix(0.05,0,0,0.05,20,0)" xlink:href="#bO"/></g><g id="M"><use transform="matrix(0.05,0,0,0.05,0,0)" xlink:href="#bN"/><use transform="matrix(0.05,0,0,0.05,3.95,0)" xlink:href="#bJ"/><use transform="matrix(0.05,0,0,0.05,7.3500000000000005,0)" xlink:href="#bY"/><use transform="matrix(0.05,0,0,0.05,17.35,0)" xlink:href="#bR"/><use transform="matrix(0.05,0,0,0.05,23.3,0)" xlink:href="#bV"/><use transform="matrix(0.05,0,0,0.05,33.3,0)" xlink:href="#bM"/><use transform="matrix(0.05,0,0,0.05,37.25,0)" xlink:href="#bU"/><use transform="matrix(0.05,0,0,0.05,47.25,0)" xlink:href="#bP"/><use transform="matrix(0.05,0,0,0.05,57.25,0)" xlink:href="#bL"/><use transform="matrix(0.05,0,0,0.05,62.25,0)" xlink:href="#bQ"/><use transform="matrix(0.05,0,0,0.05,72.25,0)" xlink:href="#bK"/><use transform="matrix(0.05,0,0,0.05,82.25,0)" xlink:href="#bR"/><use transform="matrix(0.05,0,0,0.05,87.2,0)" xlink:href="#cw"/></g><path fill="#333" d="M185-189c-5-48-123-54-124 2 14 75 158 14 163 119 3 78-121 87-175 55-17-10-28-26-33-46l33-7c5 56 141 63 141-1 0-78-155-14-162-118-5-82 145-84 179-34 5 7 8 16 11 25" id="cZ"/><path fill="#333" d="M106-169C34-169 62-67 57 0H25v-261h32l-1 103c12-21 28-36 61-36 89 0 53 116 60 194h-32v-121c2-32-8-49-39-48" id="da"/><path fill="#333" d="M135-143c-3-34-86-38-87 0 15 53 115 12 119 90S17 21 10-45l28-5c4 36 97 45 98 0-10-56-113-15-118-90-4-57 82-63 122-42 12 7 21 19 24 35" id="db"/><path fill="#333" d="M96-169c-40 0-48 33-48 73s9 75 48 75c24 0 41-14 43-38l32 2c-6 37-31 61-74 61-59 0-76-41-82-99-10-93 101-131 147-64 4 7 5 14 7 22l-32 3c-4-21-16-35-41-35" id="dc"/><path fill="#333" d="M85-194c31 0 48 13 60 33l-1-100h32l1 261h-30c-2-10 0-23-3-31C134-8 116 4 85 4 32 4 16-35 15-94c0-66 23-100 70-100zm9 24c-40 0-46 34-46 75 0 40 6 74 45 74 42 0 51-32 51-76 0-42-9-74-50-73" id="dd"/><g id="N"><use transform="matrix(0.05,0,0,0.05,0,0)" xlink:href="#cG"/><use transform="matrix(0.05,0,0,0.05,5,0)" xlink:href="#cL"/><use transform="matrix(0.05,0,0,0.05,10,0)" xlink:href="#cD"/><use transform="matrix(0.05,0,0,0.05,20,0)" xlink:href="#cB"/><use transform="matrix(0.05,0,0,0.05,25.950000000000003,0)" xlink:href="#cA"/><use transform="matrix(0.05,0,0,0.05,35.95,0)" xlink:href="#cZ"/><use transform="matrix(0.05,0,0,0.05,47.95,0)" xlink:href="#da"/><use transform="matrix(0.05,0,0,0.05,57.95,0)" xlink:href="#cE"/><use transform="matrix(0.05,0,0,0.05,61.900000000000006,0)" xlink:href="#cH"/><use transform="matrix(0.05,0,0,0.05,71.9,0)" xlink:href="#db"/><use transform="matrix(0.05,0,0,0.05,80.9,0)" xlink:href="#cx"/><use transform="matrix(0.05,0,0,0.05,92.9,0)" xlink:href="#cy"/><use transform="matrix(0.05,0,0,0.05,96.85000000000001,0)" xlink:href="#cy"/><use transform="matrix(0.05,0,0,0.05,100.80000000000001,0)" xlink:href="#cQ"/><use transform="matrix(0.05,0,0,0.05,112.80000000000001,0)" xlink:href="#cy"/><use transform="matrix(0.05,0,0,0.05,116.75,0)" xlink:href="#cD"/><use transform="matrix(0.05,0,0,0.05,126.75,0)" xlink:href="#dc"/><use transform="matrix(0.05,0,0,0.05,135.75,0)" xlink:href="#cA"/><use transform="matrix(0.05,0,0,0.05,145.75,0)" xlink:href="#dd"/><use transform="matrix(0.05,0,0,0.05,155.75,0)" xlink:href="#cW"/></g><g id="O"><use transform="matrix(0.05,0,0,0.05,0,0)" xlink:href="#cG"/><use transform="matrix(0.05,0,0,0.05,5,0)" xlink:href="#cS"/><use transform="matrix(0.05,0,0,0.05,17,0)" xlink:href="#cy"/><use transform="matrix(0.05,0,0,0.05,20.95,0)" xlink:href="#db"/><use transform="matrix(0.05,0,0,0.05,29.950000000000003,0)" xlink:href="#cA"/><use transform="matrix(0.05,0,0,0.05,39.95,0)" xlink:href="#cW"/></g><path fill="#333" d="M169-182c-1-43-94-46-97-3 18 66 151 10 154 114 3 95-165 93-204 36-6-8-10-19-12-30l50-8c3 46 112 56 116 5-17-69-150-10-154-114-4-87 153-88 188-35 5 8 8 18 10 28" id="de"/><g id="P"><use transform="matrix(0.04938271604938272,0,0,0.04938271604938272,0,0)" xlink:href="#de"/><use transform="matrix(0.04938271604938272,0,0,0.04938271604938272,11.851851851851853,0)" xlink:href="#bn"/><use transform="matrix(0.04938271604938272,0,0,0.04938271604938272,23.703703703703706,0)" xlink:href="#bq"/></g><path d="M67-125c0 54 23 88 75 88 28 0 53-7 68-21v-34h-60v-39h108v91C232-14 192 4 140 4 58 4 20-42 15-125 8-236 126-280 215-234c19 10 29 26 37 47l-47 15c-11-23-29-39-63-39-53 1-75 33-75 86" id="df"/><g id="Q"><use transform="matrix(0.05,0,0,0.05,0,0)" xlink:href="#df"/><use transform="matrix(0.05,0,0,0.05,14,0)" xlink:href="#ce"/><use transform="matrix(0.05,0,0,0.05,21,0)" xlink:href="#cs"/><use transform="matrix(0.05,0,0,0.05,26,0)" xlink:href="#cg"/><use transform="matrix(0.05,0,0,0.05,31,0)" xlink:href="#cg"/><use transform="matrix(0.05,0,0,0.05,36,0)" xlink:href="#ch"/></g><g id="R"><use transform="matrix(0.05,0,0,0.05,0,0)" xlink:href="#cj"/><use transform="matrix(0.05,0,0,0.05,10.950000000000001,0)" xlink:href="#ci"/></g><g id="S"><use transform="matrix(0.05,0,0,0.05,0,0)" xlink:href="#cY"/><use transform="matrix(0.05,0,0,0.05,5,0)" xlink:href="#cb"/><use transform="matrix(0.05,0,0,0.05,15.950000000000001,0)" xlink:href="#ci"/><use transform="matrix(0.05,0,0,0.05,26.900000000000002,0)" xlink:href="#ch"/><use transform="matrix(0.05,0,0,0.05,36.900000000000006,0)" xlink:href="#ci"/><use transform="matrix(0.05,0,0,0.05,47.85000000000001,0)" xlink:href="#ce"/></g><path d="M135-194c53 0 70 44 70 98 0 56-19 98-73 100-31 1-45-17-59-34 3 33 2 69 2 105H25l-1-265h48c2 10 0 23 3 31 11-24 29-35 60-35zM114-30c33 0 39-31 40-66 0-38-9-64-40-64-56 0-55 130 0 130" id="dg"/><path d="M114-157C55-157 80-60 75 0H25v-261h50l-1 109c12-26 28-41 61-42 86-1 58 113 63 194h-50c-7-57 23-157-34-157" id="dh"/><g id="T"><use transform="matrix(0.05,0,0,0.05,0,0)" xlink:href="#dg"/><use transform="matrix(0.05,0,0,0.05,10.950000000000001,0)" xlink:href="#dh"/><use transform="matrix(0.05,0,0,0.05,21.900000000000002,0)" xlink:href="#ck"/><use transform="matrix(0.05,0,0,0.05,31.900000000000002,0)" xlink:href="#cl"/><use transform="matrix(0.05,0,0,0.05,41.900000000000006,0)" xlink:href="#ch"/></g><g id="U"><use transform="matrix(0.05,0,0,0.05,0,0)" xlink:href="#cj"/><use transform="matrix(0.05,0,0,0.05,10.950000000000001,0)" xlink:href="#ch"/></g><path d="M220-157c-53 9-28 100-34 157h-49v-107c1-27-5-49-29-50C55-147 81-57 75 0H25l-1-190h47c2 12-1 28 3 38 10-53 101-56 108 0 13-22 24-43 59-42 82 1 51 116 57 194h-49v-107c-1-25-5-48-29-50" id="di"/><g id="V"><use transform="matrix(0.05,0,0,0.05,0,0)" xlink:href="#dg"/><use transform="matrix(0.05,0,0,0.05,10.950000000000001,0)" xlink:href="#cb"/><use transform="matrix(0.05,0,0,0.05,21.900000000000002,0)" xlink:href="#cl"/><use transform="matrix(0.05,0,0,0.05,31.900000000000002,0)" xlink:href="#cs"/><use transform="matrix(0.05,0,0,0.05,36.900000000000006,0)" xlink:href="#cd"/><use transform="matrix(0.05,0,0,0.05,42.85000000000001,0)" xlink:href="#cs"/><use transform="matrix(0.05,0,0,0.05,47.85000000000001,0)" xlink:href="#cb"/><use transform="matrix(0.05,0,0,0.05,58.80000000000001,0)" xlink:href="#cc"/><use transform="matrix(0.05,0,0,0.05,69.75000000000001,0)" xlink:href="#cc"/><use transform="matrix(0.05,0,0,0.05,80.70000000000002,0)" xlink:href="#ch"/><use transform="matrix(0.05,0,0,0.05,90.70000000000002,0)" xlink:href="#di"/><use transform="matrix(0.05,0,0,0.05,106.7,0)" xlink:href="#ch"/><use transform="matrix(0.05,0,0,0.05,116.7,0)" xlink:href="#cc"/><use transform="matrix(0.05,0,0,0.05,127.65000000000003,0)" xlink:href="#cd"/></g><g id="W"><use transform="matrix(0.05,0,0,0.05,0,0)" xlink:href="#bU"/><use transform="matrix(0.05,0,0,0.05,10,0)" xlink:href="#bJ"/><use transform="matrix(0.05,0,0,0.05,13.4,0)" xlink:href="#bQ"/><use transform="matrix(0.05,0,0,0.05,23.4,0)" xlink:href="#bO"/><use transform="matrix(0.05,0,0,0.05,32.4,0)" xlink:href="#bL"/></g><g id="X"><use transform="matrix(0.05,0,0,0.05,0,0)" xlink:href="#bL"/><use transform="matrix(0.05,0,0,0.05,5,0)" xlink:href="#bQ"/><use transform="matrix(0.05,0,0,0.05,15,0)" xlink:href="#bR"/><use transform="matrix(0.05,0,0,0.05,20.95,0)" xlink:href="#bX"/><use transform="matrix(0.05,0,0,0.05,35.9,0)" xlink:href="#bM"/><use transform="matrix(0.05,0,0,0.05,39.85,0)" xlink:href="#bU"/><use transform="matrix(0.05,0,0,0.05,49.85,0)" xlink:href="#cm"/><use transform="matrix(0.05,0,0,0.05,59.85,0)" xlink:href="#bQ"/></g><g id="Y"><use transform="matrix(0.05,0,0,0.05,0,0)" xlink:href="#bQ"/><use transform="matrix(0.05,0,0,0.05,10,0)" xlink:href="#bO"/><use transform="matrix(0.05,0,0,0.05,19,0)" xlink:href="#bL"/></g><g id="Z"><use transform="matrix(0.05,0,0,0.05,0,0)" xlink:href="#bL"/><use transform="matrix(0.05,0,0,0.05,5,0)" xlink:href="#bQ"/><use transform="matrix(0.05,0,0,0.05,15,0)" xlink:href="#bR"/><use transform="matrix(0.05,0,0,0.05,20.95,0)" xlink:href="#bX"/><use transform="matrix(0.05,0,0,0.05,35.9,0)" xlink:href="#bM"/><use transform="matrix(0.05,0,0,0.05,39.85,0)" xlink:href="#bU"/><use transform="matrix(0.05,0,0,0.05,49.85,0)" xlink:href="#cm"/></g><path fill="#333" d="M24-248c93 1 206-16 204 79-1 75-69 88-152 82V0H24v-248zm52 121c47 0 100 7 100-41 0-47-54-39-100-39v80" id="dj"/><path fill="#333" d="M24 0v-248h52v208h133V0H24" id="dk"/><path fill="#333" d="M146-102V0H94v-102L6-248h54l60 105 60-105h54" id="dl"/><path fill="#333" d="M240-174c0 40-23 61-54 70L253 0h-59l-57-94H76V0H24v-248c93 4 217-23 216 74zM76-134c48-2 112 12 112-38 0-48-66-32-112-35v73" id="dm"/><g id="aa"><use transform="matrix(0.04938271604938272,0,0,0.04938271604938272,0,0)" xlink:href="#dj"/><use transform="matrix(0.04938271604938272,0,0,0.04938271604938272,11.851851851851853,0)" xlink:href="#dk"/><use transform="matrix(0.04938271604938272,0,0,0.04938271604938272,22.666666666666668,0)" xlink:href="#bq"/><use transform="matrix(0.04938271604938272,0,0,0.04938271604938272,33.827160493827165,0)" xlink:href="#dl"/><use transform="matrix(0.04938271604938272,0,0,0.04938271604938272,45.67901234567902,0)" xlink:href="#bn"/><use transform="matrix(0.04938271604938272,0,0,0.04938271604938272,57.53086419753087,0)" xlink:href="#dm"/></g><path d="M24 0v-248h52V0H24" id="dn"/><path d="M121-226c-27-7-43 5-38 36h38v33H83V0H34v-157H6v-33h28c-9-59 32-81 87-68v32" id="do"/><g id="ab"><use transform="matrix(0.05,0,0,0.05,0,0)" xlink:href="#dn"/><use transform="matrix(0.05,0,0,0.05,5,0)" xlink:href="#cc"/><use transform="matrix(0.05,0,0,0.05,15.950000000000001,0)" xlink:href="#cd"/><use transform="matrix(0.05,0,0,0.05,21.900000000000002,0)" xlink:href="#ch"/><use transform="matrix(0.05,0,0,0.05,31.900000000000002,0)" xlink:href="#ce"/><use transform="matrix(0.05,0,0,0.05,38.900000000000006,0)" xlink:href="#do"/><use transform="matrix(0.05,0,0,0.05,44.85000000000001,0)" xlink:href="#ck"/><use transform="matrix(0.05,0,0,0.05,54.85,0)" xlink:href="#ca"/><use transform="matrix(0.05,0,0,0.05,64.85000000000001,0)" xlink:href="#ch"/></g><g id="ac"><use transform="matrix(0.05,0,0,0.05,0,0)" xlink:href="#cj"/><use transform="matrix(0.05,0,0,0.05,10.950000000000001,0)" xlink:href="#ch"/></g><g id="ad"><use transform="matrix(0.05,0,0,0.05,0,0)" xlink:href="#ca"/><use transform="matrix(0.05,0,0,0.05,10,0)" xlink:href="#cb"/><use transform="matrix(0.05,0,0,0.05,20.950000000000003,0)" xlink:href="#cc"/><use transform="matrix(0.05,0,0,0.05,31.900000000000006,0)" xlink:href="#cd"/><use transform="matrix(0.05,0,0,0.05,37.85000000000001,0)" xlink:href="#ce"/><use transform="matrix(0.05,0,0,0.05,44.85000000000001,0)" xlink:href="#cf"/><use transform="matrix(0.05,0,0,0.05,55.80000000000001,0)" xlink:href="#cg"/><use transform="matrix(0.05,0,0,0.05,60.80000000000001,0)" xlink:href="#ch"/></g><path fill="#333" d="M135-194c52 0 70 43 70 98 0 56-19 99-73 100-30 1-46-15-58-35L72 0H24l1-261h50v104c11-23 29-37 60-37zM114-30c31 0 40-27 40-66 0-37-7-63-39-63s-41 28-41 65c0 36 8 64 40 64" id="dp"/><path fill="#333" d="M133-34C117-15 103 5 69 4 32 3 11-16 11-54c-1-60 55-63 116-61 1-26-3-47-28-47-18 1-26 9-28 27l-52-2c7-38 36-58 82-57s74 22 75 68l1 82c-1 14 12 18 25 15v27c-30 8-71 5-69-32zm-48 3c29 0 43-24 42-57-32 0-66-3-65 30 0 17 8 27 23 27" id="dq"/><g id="ae"><use transform="matrix(0.05,0,0,0.05,0,0)" xlink:href="#dp"/><use transform="matrix(0.05,0,0,0.05,10.950000000000001,0)" xlink:href="#bH"/><use transform="matrix(0.05,0,0,0.05,21.900000000000002,0)" xlink:href="#bH"/><use transform="matrix(0.05,0,0,0.05,32.85,0)" xlink:href="#by"/><use transform="matrix(0.05,0,0,0.05,37.85,0)" xlink:href="#bt"/><use transform="matrix(0.05,0,0,0.05,47.85,0)" xlink:href="#dq"/><use transform="matrix(0.05,0,0,0.05,57.85,0)" xlink:href="#bA"/></g><path fill="#333" d="M114-157C55-157 80-60 75 0H25v-261h50l-1 109c12-26 28-41 61-42 86-1 58 113 63 194h-50c-7-57 23-157-34-157" id="dr"/><path fill="#333" d="M135-194c53 0 70 44 70 98 0 56-19 98-73 100-31 1-45-17-59-34 3 33 2 69 2 105H25l-1-265h48c2 10 0 23 3 31 11-24 29-35 60-35zM114-30c33 0 39-31 40-66 0-38-9-64-40-64-56 0-55 130 0 130" id="ds"/><path fill="#333" d="M137-138c1-29-70-34-71-4 15 46 118 7 119 86 1 83-164 76-172 9l43-7c4 19 20 25 44 25 33 8 57-30 24-41C81-84 22-81 20-136c-2-80 154-74 161-7" id="dt"/><path fill="#333" d="M88-194c31-1 46 15 58 34l-1-101h50l1 261h-48c-2-10 0-23-3-31C134-8 116 4 84 4 32 4 16-41 15-95c0-56 19-97 73-99zm17 164c33 0 40-30 41-66 1-37-9-64-41-64s-38 30-39 65c0 43 13 65 39 65" id="du"/><g id="af"><use transform="matrix(0.05,0,0,0.05,0,0)" xlink:href="#dq"/><use transform="matrix(0.05,0,0,0.05,10,0)" xlink:href="#bs"/><use transform="matrix(0.05,0,0,0.05,17,0)" xlink:href="#bt"/><use transform="matrix(0.05,0,0,0.05,27,0)" xlink:href="#de"/><use transform="matrix(0.05,0,0,0.05,39,0)" xlink:href="#dr"/><use transform="matrix(0.05,0,0,0.05,49.95,0)" xlink:href="#bv"/><use transform="matrix(0.05,0,0,0.05,54.95,0)" xlink:href="#ds"/><use transform="matrix(0.05,0,0,0.05,65.9,0)" xlink:href="#dt"/><use transform="matrix(0.05,0,0,0.05,75.9,0)" xlink:href="#bq"/><use transform="matrix(0.05,0,0,0.05,88.85000000000001,0)" xlink:href="#by"/><use transform="matrix(0.05,0,0,0.05,93.85000000000001,0)" xlink:href="#by"/><use transform="matrix(0.05,0,0,0.05,98.85000000000001,0)" xlink:href="#dj"/><use transform="matrix(0.05,0,0,0.05,110.85000000000001,0)" xlink:href="#by"/><use transform="matrix(0.05,0,0,0.05,115.85000000000001,0)" xlink:href="#dq"/><use transform="matrix(0.05,0,0,0.05,125.85000000000001,0)" xlink:href="#bu"/><use transform="matrix(0.05,0,0,0.05,135.85000000000002,0)" xlink:href="#bt"/><use transform="matrix(0.05,0,0,0.05,145.85000000000002,0)" xlink:href="#du"/></g><g id="ag"><use transform="matrix(0.05,0,0,0.05,0,0)" xlink:href="#dq"/><use transform="matrix(0.05,0,0,0.05,10,0)" xlink:href="#bs"/><use transform="matrix(0.05,0,0,0.05,17,0)" xlink:href="#bt"/><use transform="matrix(0.05,0,0,0.05,27,0)" xlink:href="#de"/><use transform="matrix(0.05,0,0,0.05,39,0)" xlink:href="#dr"/><use transform="matrix(0.05,0,0,0.05,49.95,0)" xlink:href="#bv"/><use transform="matrix(0.05,0,0,0.05,54.95,0)" xlink:href="#ds"/><use transform="matrix(0.05,0,0,0.05,65.9,0)" xlink:href="#dt"/><use transform="matrix(0.05,0,0,0.05,75.9,0)" xlink:href="#bq"/><use transform="matrix(0.05,0,0,0.05,88.85000000000001,0)" xlink:href="#by"/><use transform="matrix(0.05,0,0,0.05,93.85000000000001,0)" xlink:href="#by"/><use transform="matrix(0.05,0,0,0.05,98.85000000000001,0)" xlink:href="#dj"/><use transform="matrix(0.05,0,0,0.05,110.85000000000001,0)" xlink:href="#by"/><use transform="matrix(0.05,0,0,0.05,115.85000000000001,0)" xlink:href="#dq"/><use transform="matrix(0.05,0,0,0.05,125.85000000000001,0)" xlink:href="#bu"/><use transform="matrix(0.05,0,0,0.05,135.85000000000002,0)" xlink:href="#bt"/><use transform="matrix(0.05,0,0,0.05,145.85000000000002,0)" xlink:href="#du"/><use transform="matrix(0.05,0,0,0.05,156.8,0)" xlink:href="#bC"/><use transform="matrix(0.05,0,0,0.05,162.75,0)" xlink:href="#bG"/></g><g id="ah"><use transform="matrix(0.05,0,0,0.05,0,0)" xlink:href="#dt"/><use transform="matrix(0.05,0,0,0.05,10,0)" xlink:href="#dr"/><use transform="matrix(0.05,0,0,0.05,20.950000000000003,0)" xlink:href="#bH"/><use transform="matrix(0.05,0,0,0.05,31.900000000000006,0)" xlink:href="#bH"/><use transform="matrix(0.05,0,0,0.05,42.85000000000001,0)" xlink:href="#bB"/><use transform="matrix(0.05,0,0,0.05,48.80000000000001,0)" xlink:href="#bC"/><use transform="matrix(0.05,0,0,0.05,54.750000000000014,0)" xlink:href="#bD"/><use transform="matrix(0.05,0,0,0.05,64.75000000000001,0)" xlink:href="#bE"/></g><path d="M212-179c-10-28-35-45-73-45-59 0-87 40-87 99 0 60 29 101 89 101 43 0 62-24 78-52l27 14C228-24 195 4 139 4 59 4 22-46 18-125c-6-104 99-153 187-111 19 9 31 26 39 46" id="dv"/><g id="ai"><use transform="matrix(0.05,0,0,0.05,0,0)" xlink:href="#dv"/><use transform="matrix(0.05,0,0,0.05,12.950000000000001,0)" xlink:href="#bQ"/><use transform="matrix(0.05,0,0,0.05,22.950000000000003,0)" xlink:href="#bL"/><use transform="matrix(0.05,0,0,0.05,27.950000000000003,0)" xlink:href="#bL"/><use transform="matrix(0.05,0,0,0.05,32.95,0)" xlink:href="#bQ"/></g><path d="M128 0H69L1-190h53L99-40l48-150h52" id="dw"/><path d="M185-48c-13 30-37 53-82 52C43 2 14-33 14-96s30-98 90-98c62 0 83 45 84 108H66c0 31 8 55 39 56 18 0 30-7 34-22zm-45-69c5-46-57-63-70-21-2 6-4 13-4 21h74zm-67-91v-5l45-51h45v8l-60 48H73" id="dx"/><g id="aj"><use transform="matrix(0.05,0,0,0.05,0,0)" xlink:href="#dw"/><use transform="matrix(0.05,0,0,0.05,10,0)" xlink:href="#dx"/><use transform="matrix(0.05,0,0,0.05,20,0)" xlink:href="#ce"/><use transform="matrix(0.05,0,0,0.05,27,0)" xlink:href="#cs"/><use transform="matrix(0.05,0,0,0.05,32,0)" xlink:href="#do"/><use transform="matrix(0.05,0,0,0.05,37.95,0)" xlink:href="#cs"/><use transform="matrix(0.05,0,0,0.05,42.95,0)" xlink:href="#ch"/></g><g id="ak"><use transform="matrix(0.05,0,0,0.05,0,0)" xlink:href="#cl"/><use transform="matrix(0.05,0,0,0.05,10,0)" xlink:href="#cs"/></g><g id="al"><use transform="matrix(0.05,0,0,0.05,0,0)" xlink:href="#cd"/><use transform="matrix(0.05,0,0,0.05,5.95,0)" xlink:href="#cb"/><use transform="matrix(0.05,0,0,0.05,16.900000000000002,0)" xlink:href="#ci"/><use transform="matrix(0.05,0,0,0.05,27.85,0)" xlink:href="#cl"/></g><g id="am"><use transform="matrix(0.05,0,0,0.05,0,0)" xlink:href="#cg"/><use transform="matrix(0.05,0,0,0.05,5,0)" xlink:href="#ch"/><use transform="matrix(0.05,0,0,0.05,15,0)" xlink:href="#cl"/></g><path d="M135-194c52 0 70 43 70 98 0 56-19 99-73 100-30 1-46-15-58-35L72 0H24l1-261h50v104c11-23 29-37 60-37zM114-30c31 0 40-27 40-66 0-37-7-63-39-63s-41 28-41 65c0 36 8 64 40 64" id="dy"/><path d="M144 0l-44-69L55 0H2l70-98-66-92h53l41 62 40-62h54l-67 91 71 99h-54" id="dz"/><g id="an"><use transform="matrix(0.05,0,0,0.05,0,0)" xlink:href="#dy"/><use transform="matrix(0.05,0,0,0.05,10.950000000000001,0)" xlink:href="#ck"/><use transform="matrix(0.05,0,0,0.05,20.950000000000003,0)" xlink:href="#cd"/><use transform="matrix(0.05,0,0,0.05,26.900000000000002,0)" xlink:href="#ch"/><use transform="matrix(0.05,0,0,0.05,36.900000000000006,0)" xlink:href="#ck"/><use transform="matrix(0.05,0,0,0.05,46.900000000000006,0)" xlink:href="#ci"/><use transform="matrix(0.05,0,0,0.05,57.85,0)" xlink:href="#dz"/></g><g id="ao"><use transform="matrix(0.05,0,0,0.05,0,0)" xlink:href="#cn"/><use transform="matrix(0.05,0,0,0.05,10,0)" xlink:href="#bR"/><use transform="matrix(0.05,0,0,0.05,15.949999999999998,0)" xlink:href="#bM"/><use transform="matrix(0.05,0,0,0.05,19.9,0)" xlink:href="#bN"/><use transform="matrix(0.05,0,0,0.05,23.849999999999998,0)" xlink:href="#bN"/><use transform="matrix(0.05,0,0,0.05,27.799999999999997,0)" xlink:href="#bQ"/></g><g id="ap"><use transform="matrix(0.05,0,0,0.05,0,0)" xlink:href="#bQ"/><use transform="matrix(0.05,0,0,0.05,10,0)" xlink:href="#bU"/></g><g id="aq"><use transform="matrix(0.05,0,0,0.05,0,0)" xlink:href="#bT"/><use transform="matrix(0.05,0,0,0.05,10,0)" xlink:href="#bK"/><use transform="matrix(0.05,0,0,0.05,20,0)" xlink:href="#bQ"/><use transform="matrix(0.05,0,0,0.05,30,0)" xlink:href="#bO"/><use transform="matrix(0.05,0,0,0.05,39,0)" xlink:href="#bL"/><use transform="matrix(0.05,0,0,0.05,44,0)" xlink:href="#bM"/><use transform="matrix(0.05,0,0,0.05,47.95,0)" xlink:href="#bY"/><use transform="matrix(0.05,0,0,0.05,57.95,0)" xlink:href="#bU"/></g><g id="ar"><use transform="matrix(0.05,0,0,0.05,0,0)" xlink:href="#cb"/><use transform="matrix(0.05,0,0,0.05,10.950000000000001,0)" xlink:href="#cc"/><use transform="matrix(0.05,0,0,0.05,21.900000000000002,0)" xlink:href="#cd"/></g><g id="as"><use transform="matrix(0.05,0,0,0.05,0,0)" xlink:href="#dx"/><use transform="matrix(0.05,0,0,0.05,10,0)" xlink:href="#cd"/><use transform="matrix(0.05,0,0,0.05,15.949999999999998,0)" xlink:href="#dx"/></g><g id="at"><use transform="matrix(0.05,0,0,0.05,0,0)" xlink:href="#dg"/><use transform="matrix(0.05,0,0,0.05,10.950000000000001,0)" xlink:href="#cb"/><use transform="matrix(0.05,0,0,0.05,21.900000000000002,0)" xlink:href="#cl"/><use transform="matrix(0.05,0,0,0.05,31.900000000000002,0)" xlink:href="#cs"/><use transform="matrix(0.05,0,0,0.05,36.900000000000006,0)" xlink:href="#cd"/><use transform="matrix(0.05,0,0,0.05,42.85000000000001,0)" xlink:href="#cs"/><use transform="matrix(0.05,0,0,0.05,47.85000000000001,0)" xlink:href="#cb"/><use transform="matrix(0.05,0,0,0.05,58.80000000000001,0)" xlink:href="#cc"/><use transform="matrix(0.05,0,0,0.05,69.75000000000001,0)" xlink:href="#cc"/><use transform="matrix(0.05,0,0,0.05,80.70000000000002,0)" xlink:href="#dx"/><use transform="matrix(0.05,0,0,0.05,90.70000000000002,0)" xlink:href="#cl"/><use transform="matrix(0.05,0,0,0.05,100.70000000000002,0)" xlink:href="#cw"/></g><g id="au"><use transform="matrix(0.05,0,0,0.05,0,0)" xlink:href="#bw"/><use transform="matrix(0.05,0,0,0.05,10,0)" xlink:href="#dq"/><use transform="matrix(0.05,0,0,0.05,20,0)" xlink:href="#by"/><use transform="matrix(0.05,0,0,0.05,25,0)" xlink:href="#bv"/><use transform="matrix(0.05,0,0,0.05,30,0)" xlink:href="#du"/><use transform="matrix(0.05,0,0,0.05,40.95,0)" xlink:href="#de"/><use transform="matrix(0.05,0,0,0.05,52.95,0)" xlink:href="#dr"/><use transform="matrix(0.05,0,0,0.05,63.900000000000006,0)" xlink:href="#bH"/><use transform="matrix(0.05,0,0,0.05,74.85000000000001,0)" xlink:href="#bB"/></g><path fill="#333" d="M30 0v-248h33v221h125V0H30" id="dA"/><path fill="#333" d="M100-194c62-1 85 37 85 99 1 63-27 99-86 99S16-35 15-95c0-66 28-99 85-99zM99-20c44 1 53-31 53-75 0-43-8-75-51-75s-53 32-53 75 10 74 51 75" id="dB"/><g id="av"><use transform="matrix(0.05,0,0,0.05,0,0)" xlink:href="#dA"/><use transform="matrix(0.05,0,0,0.05,10,0)" xlink:href="#dB"/><use transform="matrix(0.05,0,0,0.05,20,0)" xlink:href="#dB"/><use transform="matrix(0.05,0,0,0.05,30,0)" xlink:href="#cH"/></g><g id="aw"><use transform="matrix(0.05,0,0,0.05,0,0)" xlink:href="#cG"/><use transform="matrix(0.05,0,0,0.05,5,0)" xlink:href="#cF"/><use transform="matrix(0.05,0,0,0.05,14,0)" xlink:href="#cD"/><use transform="matrix(0.05,0,0,0.05,24,0)" xlink:href="#cy"/><use transform="matrix(0.05,0,0,0.05,27.950000000000003,0)" xlink:href="#cE"/><use transform="matrix(0.05,0,0,0.05,31.899999999999995,0)" xlink:href="#dd"/><use transform="matrix(0.05,0,0,0.05,41.9,0)" xlink:href="#cZ"/><use transform="matrix(0.05,0,0,0.05,53.900000000000006,0)" xlink:href="#da"/><use transform="matrix(0.05,0,0,0.05,63.900000000000006,0)" xlink:href="#dB"/><use transform="matrix(0.05,0,0,0.05,73.9,0)" xlink:href="#cz"/><use transform="matrix(0.05,0,0,0.05,78.9,0)" xlink:href="#cW"/></g><path fill="#333" d="M136-208V0H84v-208H4v-40h212v40h-80" id="dC"/><path fill="#333" d="M85 4C-2 5 27-109 22-190h50c7 57-23 150 33 157 60-5 35-97 40-157h50l1 190h-47c-2-12 1-28-3-38-12 25-28 42-61 42" id="dD"/><g id="ax"><use transform="matrix(0.05,0,0,0.05,0,0)" xlink:href="#bt"/><use transform="matrix(0.05,0,0,0.05,10,0)" xlink:href="#bA"/><use transform="matrix(0.05,0,0,0.05,20.950000000000003,0)" xlink:href="#du"/><use transform="matrix(0.05,0,0,0.05,31.900000000000006,0)" xlink:href="#dC"/><use transform="matrix(0.05,0,0,0.05,41.50000000000001,0)" xlink:href="#dD"/><use transform="matrix(0.05,0,0,0.05,52.45000000000002,0)" xlink:href="#bs"/><use transform="matrix(0.05,0,0,0.05,59.45000000000002,0)" xlink:href="#bA"/><use transform="matrix(0.05,0,0,0.05,70.4,0)" xlink:href="#bC"/><use transform="matrix(0.05,0,0,0.05,76.35000000000001,0)" xlink:href="#bG"/></g><path d="M140-251c81 0 123 46 123 126C263-46 219 4 140 4 59 4 17-45 17-125s42-126 123-126zm0 227c63 0 89-41 89-101s-29-99-89-99c-61 0-89 39-89 99S79-25 140-24" id="dE"/><g id="ay"><use transform="matrix(0.05,0,0,0.05,0,0)" xlink:href="#dE"/><use transform="matrix(0.05,0,0,0.05,14,0)" xlink:href="#bU"/></g><g id="az"><use transform="matrix(0.05,0,0,0.05,0,0)" xlink:href="#cd"/><use transform="matrix(0.05,0,0,0.05,5.95,0)" xlink:href="#ch"/><use transform="matrix(0.05,0,0,0.05,15.949999999999998,0)" xlink:href="#ce"/><use transform="matrix(0.05,0,0,0.05,22.95,0)" xlink:href="#di"/><use transform="matrix(0.05,0,0,0.05,38.95,0)" xlink:href="#cs"/><use transform="matrix(0.05,0,0,0.05,43.95,0)" xlink:href="#cc"/><use transform="matrix(0.05,0,0,0.05,54.900000000000006,0)" xlink:href="#ch"/></g><g id="aA"><use transform="matrix(0.05,0,0,0.05,0,0)" xlink:href="#cg"/><use transform="matrix(0.05,0,0,0.05,5,0)" xlink:href="#ch"/></g><g id="aB"><use transform="matrix(0.05,0,0,0.05,0,0)" xlink:href="#cd"/><use transform="matrix(0.05,0,0,0.05,5.95,0)" xlink:href="#cb"/><use transform="matrix(0.05,0,0,0.05,16.900000000000002,0)" xlink:href="#ci"/><use transform="matrix(0.05,0,0,0.05,27.85,0)" xlink:href="#ce"/></g><g id="aC"><use transform="matrix(0.05,0,0,0.05,0,0)" xlink:href="#bV"/><use transform="matrix(0.05,0,0,0.05,10,0)" xlink:href="#bK"/></g><path d="M24-231v-30h32v30H24zM-9 49c24 4 33-6 33-30v-209h32V24c2 40-23 58-65 49V49" id="dF"/><g id="aD"><use transform="matrix(0.05,0,0,0.05,0,0)" xlink:href="#dF"/><use transform="matrix(0.05,0,0,0.05,3.95,0)" xlink:href="#bY"/><use transform="matrix(0.05,0,0,0.05,13.949999999999998,0)" xlink:href="#bK"/><use transform="matrix(0.05,0,0,0.05,23.95,0)" xlink:href="#bQ"/><use transform="matrix(0.05,0,0,0.05,33.95,0)" xlink:href="#bK"/><use transform="matrix(0.05,0,0,0.05,43.95,0)" xlink:href="#bR"/><use transform="matrix(0.05,0,0,0.05,48.900000000000006,0)" xlink:href="#cw"/></g><g id="aE"><use transform="matrix(0.05,0,0,0.05,0,0)" xlink:href="#bL"/><use transform="matrix(0.05,0,0,0.05,5,0)" xlink:href="#bM"/><use transform="matrix(0.05,0,0,0.05,8.95,0)" xlink:href="#bR"/></g><g id="aF"><use transform="matrix(0.05,0,0,0.05,0,0)" xlink:href="#bQ"/><use transform="matrix(0.05,0,0,0.05,10,0)" xlink:href="#bO"/><use transform="matrix(0.05,0,0,0.05,19,0)" xlink:href="#bL"/></g><g id="aG"><use transform="matrix(0.05,0,0,0.05,0,0)" xlink:href="#co"/><use transform="matrix(0.05,0,0,0.05,9,0)" xlink:href="#bP"/><use transform="matrix(0.05,0,0,0.05,19,0)" xlink:href="#bN"/><use transform="matrix(0.05,0,0,0.05,22.95,0)" xlink:href="#bM"/><use transform="matrix(0.05,0,0,0.05,26.899999999999995,0)" xlink:href="#bV"/><use transform="matrix(0.05,0,0,0.05,36.9,0)" xlink:href="#bQ"/></g><g id="aH"><use transform="matrix(0.05,0,0,0.05,0,0)" xlink:href="#ds"/><use transform="matrix(0.05,0,0,0.05,10.950000000000001,0)" xlink:href="#by"/><use transform="matrix(0.05,0,0,0.05,15.950000000000001,0)" xlink:href="#dq"/><use transform="matrix(0.05,0,0,0.05,25.950000000000003,0)" xlink:href="#bu"/><use transform="matrix(0.05,0,0,0.05,35.95,0)" xlink:href="#bt"/><use transform="matrix(0.05,0,0,0.05,45.95,0)" xlink:href="#de"/><use transform="matrix(0.05,0,0,0.05,57.95,0)" xlink:href="#dr"/><use transform="matrix(0.05,0,0,0.05,68.9,0)" xlink:href="#bv"/><use transform="matrix(0.05,0,0,0.05,73.9,0)" xlink:href="#ds"/><use transform="matrix(0.05,0,0,0.05,84.85000000000001,0)" xlink:href="#bC"/><use transform="matrix(0.05,0,0,0.05,90.80000000000001,0)" xlink:href="#bD"/><use transform="matrix(0.05,0,0,0.05,100.80000000000001,0)" xlink:href="#bE"/></g><g id="aI"><use transform="matrix(0.05,0,0,0.05,0,0)" xlink:href="#bw"/><use transform="matrix(0.05,0,0,0.05,10,0)" xlink:href="#dq"/><use transform="matrix(0.05,0,0,0.05,20,0)" xlink:href="#by"/><use transform="matrix(0.05,0,0,0.05,25,0)" xlink:href="#bv"/><use transform="matrix(0.05,0,0,0.05,30,0)" xlink:href="#du"/><use transform="matrix(0.05,0,0,0.05,40.95,0)" xlink:href="#dj"/><use transform="matrix(0.05,0,0,0.05,52.95,0)" xlink:href="#by"/><use transform="matrix(0.05,0,0,0.05,57.95,0)" xlink:href="#dq"/><use transform="matrix(0.05,0,0,0.05,67.95,0)" xlink:href="#bu"/><use transform="matrix(0.05,0,0,0.05,77.95,0)" xlink:href="#bt"/></g><g id="aJ"><use transform="matrix(0.05,0,0,0.05,0,0)" xlink:href="#cG"/><use transform="matrix(0.05,0,0,0.05,5,0)" xlink:href="#cF"/><use transform="matrix(0.05,0,0,0.05,14,0)" xlink:href="#cD"/><use transform="matrix(0.05,0,0,0.05,24,0)" xlink:href="#cy"/><use transform="matrix(0.05,0,0,0.05,27.950000000000003,0)" xlink:href="#cE"/><use transform="matrix(0.05,0,0,0.05,31.899999999999995,0)" xlink:href="#dd"/><use transform="matrix(0.05,0,0,0.05,41.9,0)" xlink:href="#cQ"/><use transform="matrix(0.05,0,0,0.05,53.900000000000006,0)" xlink:href="#cy"/><use transform="matrix(0.05,0,0,0.05,57.85,0)" xlink:href="#cD"/><use transform="matrix(0.05,0,0,0.05,67.85,0)" xlink:href="#dc"/><use transform="matrix(0.05,0,0,0.05,76.85,0)" xlink:href="#cA"/><use transform="matrix(0.05,0,0,0.05,86.85,0)" xlink:href="#cW"/></g><path fill="#333" d="M175 0L67-191c6 58 2 128 3 191H24v-248h59L193-55c-6-58-2-129-3-193h46V0h-61" id="dG"/><g id="aK"><use transform="matrix(0.05,0,0,0.05,0,0)" xlink:href="#ds"/><use transform="matrix(0.05,0,0,0.05,10.950000000000001,0)" xlink:href="#dD"/><use transform="matrix(0.05,0,0,0.05,21.900000000000002,0)" xlink:href="#bB"/><use transform="matrix(0.05,0,0,0.05,27.85,0)" xlink:href="#dG"/><use transform="matrix(0.05,0,0,0.05,40.800000000000004,0)" xlink:href="#bt"/><use transform="matrix(0.05,0,0,0.05,50.800000000000004,0)" xlink:href="#bD"/><use transform="matrix(0.05,0,0,0.05,60.800000000000004,0)" xlink:href="#bB"/><use transform="matrix(0.05,0,0,0.05,66.75,0)" xlink:href="#de"/><use transform="matrix(0.05,0,0,0.05,78.75,0)" xlink:href="#dr"/><use transform="matrix(0.05,0,0,0.05,89.7,0)" xlink:href="#bv"/><use transform="matrix(0.05,0,0,0.05,94.7,0)" xlink:href="#ds"/><use transform="matrix(0.05,0,0,0.05,105.65,0)" xlink:href="#dC"/><use transform="matrix(0.05,0,0,0.05,115.25,0)" xlink:href="#bH"/><use transform="matrix(0.05,0,0,0.05,126.2,0)" xlink:href="#dj"/><use transform="matrix(0.05,0,0,0.05,138.20000000000002,0)" xlink:href="#by"/><use transform="matrix(0.05,0,0,0.05,143.20000000000002,0)" xlink:href="#dq"/><use transform="matrix(0.05,0,0,0.05,153.20000000000002,0)" xlink:href="#bu"/><use transform="matrix(0.05,0,0,0.05,163.20000000000002,0)" xlink:href="#bt"/><use transform="matrix(0.05,0,0,0.05,173.20000000000002,0)" xlink:href="#bC"/><use transform="matrix(0.05,0,0,0.05,179.15,0)" xlink:href="#bG"/></g><g id="aL"><use transform="matrix(0.05,0,0,0.05,0,0)" xlink:href="#cp"/><use transform="matrix(0.05,0,0,0.05,10,0)" xlink:href="#bR"/><use transform="matrix(0.05,0,0,0.05,15.949999999999998,0)" xlink:href="#bQ"/><use transform="matrix(0.05,0,0,0.05,25.950000000000003,0)" xlink:href="#bU"/><use transform="matrix(0.05,0,0,0.05,35.95,0)" xlink:href="#bV"/></g><g id="aM"><use transform="matrix(0.05,0,0,0.05,0,0)" xlink:href="#bK"/><use transform="matrix(0.05,0,0,0.05,10,0)" xlink:href="#bU"/></g><path d="M115-194c53 0 69 39 70 98 0 66-23 100-70 100C84 3 66-7 56-30L54 0H23l1-261h32v101c10-23 28-34 59-34zm-8 174c40 0 45-34 45-75 0-40-5-75-45-74-42 0-51 32-51 76 0 43 10 73 51 73" id="dH"/><g id="aN"><use transform="matrix(0.05,0,0,0.05,0,0)" xlink:href="#dH"/><use transform="matrix(0.05,0,0,0.05,10,0)" xlink:href="#bP"/><use transform="matrix(0.05,0,0,0.05,20,0)" xlink:href="#bL"/><use transform="matrix(0.05,0,0,0.05,25,0)" xlink:href="#bQ"/><use transform="matrix(0.05,0,0,0.05,35,0)" xlink:href="#bP"/><use transform="matrix(0.05,0,0,0.05,45,0)" xlink:href="#bK"/></g><g id="aO"><use transform="matrix(0.05,0,0,0.05,0,0)" xlink:href="#bN"/><use transform="matrix(0.05,0,0,0.05,3.95,0)" xlink:href="#bM"/><use transform="matrix(0.05,0,0,0.05,7.9,0)" xlink:href="#bO"/><use transform="matrix(0.05,0,0,0.05,16.9,0)" xlink:href="#bL"/><use transform="matrix(0.05,0,0,0.05,21.9,0)" xlink:href="#bQ"/></g><g id="aP"><use transform="matrix(0.05,0,0,0.05,0,0)" xlink:href="#bV"/><use transform="matrix(0.05,0,0,0.05,10,0)" xlink:href="#bQ"/><use transform="matrix(0.05,0,0,0.05,20,0)" xlink:href="#bO"/></g><path d="M141 0L90-78 38 0H4l68-98-65-92h35l48 74 47-74h35l-64 92 68 98h-35" id="dI"/><g id="aQ"><use transform="matrix(0.05,0,0,0.05,0,0)" xlink:href="#dH"/><use transform="matrix(0.05,0,0,0.05,10,0)" xlink:href="#bP"/><use transform="matrix(0.05,0,0,0.05,20,0)" xlink:href="#bL"/><use transform="matrix(0.05,0,0,0.05,25,0)" xlink:href="#bQ"/><use transform="matrix(0.05,0,0,0.05,35,0)" xlink:href="#bP"/><use transform="matrix(0.05,0,0,0.05,45,0)" xlink:href="#bK"/><use transform="matrix(0.05,0,0,0.05,55,0)" xlink:href="#dI"/></g><path d="M141-36C126-15 110 5 73 4 37 3 15-17 15-53c-1-64 63-63 125-63 3-35-9-54-41-54-24 1-41 7-42 31l-33-3c5-37 33-52 76-52 45 0 72 20 72 64v82c-1 20 7 32 28 27v20c-31 9-61-2-59-35zM48-53c0 20 12 33 32 33 41-3 63-29 60-74-43 2-92-5-92 41zm62-158l-58-49v-5h36c12 19 30 32 38 54h-16" id="dJ"/><use transform="matrix(0.05,0,0,0.05,0,0)" xlink:href="#dJ" id="aR"/><g id="aS"><use transform="matrix(0.05,0,0,0.05,0,0)" xlink:href="#cp"/><use transform="matrix(0.05,0,0,0.05,10,0)" xlink:href="#bN"/><use transform="matrix(0.05,0,0,0.05,13.949999999999998,0)" xlink:href="#bP"/><use transform="matrix(0.05,0,0,0.05,23.95,0)" xlink:href="#bS"/><use transform="matrix(0.05,0,0,0.05,32.95,0)" xlink:href="#bQ"/><use transform="matrix(0.05,0,0,0.05,42.95,0)" xlink:href="#bR"/></g><g id="aT"><use transform="matrix(0.05,0,0,0.05,0,0)" xlink:href="#bQ"/><use transform="matrix(0.05,0,0,0.05,10,0)" xlink:href="#bL"/></g><g id="aU"><use transform="matrix(0.05,0,0,0.05,0,0)" xlink:href="#bX"/><use transform="matrix(0.05,0,0,0.05,14.950000000000001,0)" xlink:href="#bQ"/><use transform="matrix(0.05,0,0,0.05,24.950000000000003,0)" xlink:href="#bL"/></g><g id="aV"><use transform="matrix(0.05,0,0,0.05,0,0)" xlink:href="#bL"/><use transform="matrix(0.05,0,0,0.05,5,0)" xlink:href="#bP"/><use transform="matrix(0.05,0,0,0.05,15,0)" xlink:href="#bU"/><use transform="matrix(0.05,0,0,0.05,25,0)" xlink:href="#bL"/></g><g id="aW"><use transform="matrix(0.05,0,0,0.05,0,0)" xlink:href="#bT"/><use transform="matrix(0.05,0,0,0.05,10,0)" xlink:href="#bK"/><use transform="matrix(0.05,0,0,0.05,20,0)" xlink:href="#bQ"/></g><g id="aX"><use transform="matrix(0.05,0,0,0.05,0,0)" xlink:href="#bQ"/><use transform="matrix(0.05,0,0,0.05,10,0)" xlink:href="#bU"/></g><g id="aY"><use transform="matrix(0.05,0,0,0.05,0,0)" xlink:href="#bS"/><use transform="matrix(0.05,0,0,0.05,9,0)" xlink:href="#bY"/><use transform="matrix(0.05,0,0,0.05,19,0)" xlink:href="#bK"/><use transform="matrix(0.05,0,0,0.05,29,0)" xlink:href="#bR"/><use transform="matrix(0.05,0,0,0.05,34.95,0)" xlink:href="#bO"/></g><g id="aZ"><use transform="matrix(0.05,0,0,0.05,0,0)" xlink:href="#cp"/><use transform="matrix(0.05,0,0,0.05,10,0)" xlink:href="#bY"/><use transform="matrix(0.05,0,0,0.05,20,0)" xlink:href="#bO"/><use transform="matrix(0.05,0,0,0.05,29,0)" xlink:href="#bM"/><use transform="matrix(0.05,0,0,0.05,32.95,0)" xlink:href="#bL"/><use transform="matrix(0.05,0,0,0.05,37.95,0)" xlink:href="#bM"/><use transform="matrix(0.05,0,0,0.05,41.900000000000006,0)" xlink:href="#bY"/><use transform="matrix(0.05,0,0,0.05,51.900000000000006,0)" xlink:href="#bU"/><use transform="matrix(0.05,0,0,0.05,61.900000000000006,0)" xlink:href="#bU"/><use transform="matrix(0.05,0,0,0.05,71.9,0)" xlink:href="#bQ"/><use transform="matrix(0.05,0,0,0.05,81.9,0)" xlink:href="#bX"/><use transform="matrix(0.05,0,0,0.05,96.85000000000001,0)" xlink:href="#bQ"/><use transform="matrix(0.05,0,0,0.05,106.85000000000001,0)" xlink:href="#bU"/><use transform="matrix(0.05,0,0,0.05,116.85000000000001,0)" xlink:href="#bL"/></g><g id="ba"><use transform="matrix(0.05,0,0,0.05,0,0)" xlink:href="#cl"/><use transform="matrix(0.05,0,0,0.05,10,0)" xlink:href="#cs"/></g><g id="bb"><use transform="matrix(0.05,0,0,0.05,0,0)" xlink:href="#cs"/><use transform="matrix(0.05,0,0,0.05,5,0)" xlink:href="#cg"/></g><path d="M62-158H24l-5-90h48" id="dK"/><path d="M123 10C108 53 80 86 19 72V37c35 8 53-11 59-39L3-190h52l48 148c12-52 28-100 44-148h51" id="dL"/><g id="bc"><use transform="matrix(0.05,0,0,0.05,0,0)" xlink:href="#cc"/><use transform="matrix(0.05,0,0,0.05,10.950000000000001,0)" xlink:href="#dK"/><use transform="matrix(0.05,0,0,0.05,15.200000000000001,0)" xlink:href="#dL"/></g><g id="bd"><use transform="matrix(0.05,0,0,0.05,0,0)" xlink:href="#ch"/><use transform="matrix(0.05,0,0,0.05,10,0)" xlink:href="#cc"/></g><use transform="matrix(0.05,0,0,0.05,0,0)" xlink:href="#ck" id="be"/><g id="bf"><use transform="matrix(0.05,0,0,0.05,0,0)" xlink:href="#dg"/><use transform="matrix(0.05,0,0,0.05,10.950000000000001,0)" xlink:href="#ck"/><use transform="matrix(0.05,0,0,0.05,20.950000000000003,0)" xlink:href="#cl"/></g><path d="M132-34C116-15 102 5 68 4 31 3 10-16 10-54c-1-60 55-63 116-61 1-26-3-47-28-47-18 1-26 9-28 27l-52-2c7-38 36-58 82-57s74 22 75 68l1 82c-1 14 12 18 25 15v27c-30 8-71 5-69-32zm-48 3c29 0 43-24 42-57-32 0-66-3-65 30 0 17 8 27 23 27zm18-177l-59-48v-8h45l44 51v5h-30" id="dM"/><g id="bg"><use transform="matrix(0.05,0,0,0.05,0,0)" xlink:href="#cj"/><use transform="matrix(0.05,0,0,0.05,10.950000000000001,0)" xlink:href="#dx"/><use transform="matrix(0.05,0,0,0.05,20.950000000000003,0)" xlink:href="#cY"/><use transform="matrix(0.05,0,0,0.05,25.950000000000003,0)" xlink:href="#dM"/></g><g id="bh"><use transform="matrix(0.05,0,0,0.05,0,0)" xlink:href="#ci"/><use transform="matrix(0.05,0,0,0.05,10.950000000000001,0)" xlink:href="#cc"/><use transform="matrix(0.05,0,0,0.05,21.900000000000002,0)" xlink:href="#cw"/></g></defs></g></svg>